%TF.GenerationSoftware,KiCad,Pcbnew,9.0.4*%
%TF.CreationDate,2025-11-28T03:43:33-08:00*%
%TF.ProjectId,ATmega32u4_Dev,41546d65-6761-4333-9275-345f4465762e,rev?*%
%TF.SameCoordinates,Original*%
%TF.FileFunction,Soldermask,Bot*%
%TF.FilePolarity,Negative*%
%FSLAX46Y46*%
G04 Gerber Fmt 4.6, Leading zero omitted, Abs format (unit mm)*
G04 Created by KiCad (PCBNEW 9.0.4) date 2025-11-28 03:43:33*
%MOMM*%
%LPD*%
G01*
G04 APERTURE LIST*
%ADD10R,1.350000X1.350000*%
%ADD11C,1.350000*%
%ADD12R,0.850000X0.850000*%
%ADD13C,0.850000*%
%ADD14C,0.650000*%
%ADD15O,1.204000X2.304000*%
%ADD16O,1.204000X2.004000*%
G04 APERTURE END LIST*
D10*
%TO.C,J3*%
X170250000Y-85450000D03*
D11*
X170250000Y-87450000D03*
X170250000Y-89450000D03*
X170250000Y-91450000D03*
X170250000Y-93450000D03*
X170250000Y-95450000D03*
X170250000Y-97450000D03*
X170250000Y-99450000D03*
X170250000Y-101450000D03*
X170250000Y-103450000D03*
X170250000Y-105450000D03*
X170250000Y-107450000D03*
X170250000Y-109450000D03*
X170250000Y-111450000D03*
%TD*%
D12*
%TO.C,J2*%
X160950000Y-102500000D03*
D13*
X160950000Y-101500000D03*
X161950000Y-102500000D03*
X161950000Y-101500000D03*
X162950000Y-102500000D03*
X162950000Y-101500000D03*
%TD*%
D14*
%TO.C,J1*%
X155960000Y-111870000D03*
X161740000Y-111870000D03*
D15*
X154530000Y-111370000D03*
X163170000Y-111370000D03*
D16*
X154530000Y-115550000D03*
X163170000Y-115550000D03*
%TD*%
D10*
%TO.C,J4*%
X147750000Y-85450000D03*
D11*
X147750000Y-87450000D03*
X147750000Y-89450000D03*
X147750000Y-91450000D03*
X147750000Y-93450000D03*
X147750000Y-95450000D03*
X147750000Y-97450000D03*
X147750000Y-99450000D03*
X147750000Y-101450000D03*
X147750000Y-103450000D03*
X147750000Y-105450000D03*
X147750000Y-107450000D03*
X147750000Y-109450000D03*
X147750000Y-111450000D03*
%TD*%
M02*
