%TF.GenerationSoftware,KiCad,Pcbnew,9.0.4*%
%TF.CreationDate,2025-12-08T21:07:13-08:00*%
%TF.ProjectId,ATmega32u4_Dev,41546d65-6761-4333-9275-345f4465762e,rev?*%
%TF.SameCoordinates,Original*%
%TF.FileFunction,Copper,L3,Inr*%
%TF.FilePolarity,Positive*%
%FSLAX46Y46*%
G04 Gerber Fmt 4.6, Leading zero omitted, Abs format (unit mm)*
G04 Created by KiCad (PCBNEW 9.0.4) date 2025-12-08 21:07:13*
%MOMM*%
%LPD*%
G01*
G04 APERTURE LIST*
%TA.AperFunction,ComponentPad*%
%ADD10R,1.350000X1.350000*%
%TD*%
%TA.AperFunction,ComponentPad*%
%ADD11C,1.350000*%
%TD*%
%TA.AperFunction,ComponentPad*%
%ADD12R,0.850000X0.850000*%
%TD*%
%TA.AperFunction,ComponentPad*%
%ADD13C,0.850000*%
%TD*%
%TA.AperFunction,ComponentPad*%
%ADD14O,1.000000X2.100000*%
%TD*%
%TA.AperFunction,ComponentPad*%
%ADD15O,1.000000X1.800000*%
%TD*%
%TA.AperFunction,ViaPad*%
%ADD16C,0.600000*%
%TD*%
G04 APERTURE END LIST*
D10*
%TO.N,/PD7*%
%TO.C,J3*%
X170250000Y-85450000D03*
D11*
%TO.N,/PD6*%
X170250000Y-87450000D03*
%TO.N,/PD4*%
X170250000Y-89450000D03*
%TO.N,/PD5*%
X170250000Y-91450000D03*
%TO.N,/PD3*%
X170250000Y-93450000D03*
%TO.N,/PD2*%
X170250000Y-95450000D03*
%TO.N,/PD1*%
X170250000Y-97450000D03*
%TO.N,/PD0*%
X170250000Y-99450000D03*
%TO.N,/PB7*%
X170250000Y-101450000D03*
%TO.N,/PB0*%
X170250000Y-103450000D03*
%TO.N,SCL*%
X170250000Y-105450000D03*
%TO.N,MOSI*%
X170250000Y-107450000D03*
%TO.N,MISO*%
X170250000Y-109450000D03*
%TO.N,Reset*%
X170250000Y-111450000D03*
%TD*%
D12*
%TO.N,MCU_5V*%
%TO.C,J2*%
X160950000Y-102500000D03*
D13*
%TO.N,SCL*%
X160950000Y-101500000D03*
%TO.N,GND*%
X161950000Y-102500000D03*
%TO.N,MOSI*%
X161950000Y-101500000D03*
%TO.N,Reset*%
X162950000Y-102500000D03*
%TO.N,MISO*%
X162950000Y-101500000D03*
%TD*%
D14*
%TO.N,GND*%
%TO.C,J1*%
X154530000Y-111370000D03*
X163170000Y-111370000D03*
D15*
X154530000Y-115550000D03*
X163170000Y-115550000D03*
%TD*%
D10*
%TO.N,/PB4*%
%TO.C,J4*%
X147750000Y-85450000D03*
D11*
%TO.N,/PB5*%
X147750000Y-87450000D03*
%TO.N,/PB6*%
X147750000Y-89450000D03*
%TO.N,/PC6*%
X147750000Y-91450000D03*
%TO.N,GND*%
X147750000Y-93450000D03*
%TO.N,/PF7*%
X147750000Y-95450000D03*
%TO.N,/PF6*%
X147750000Y-97450000D03*
%TO.N,/PF0*%
X147750000Y-99450000D03*
%TO.N,/PF1*%
X147750000Y-101450000D03*
%TO.N,/PF4*%
X147750000Y-103450000D03*
%TO.N,/PF5*%
X147750000Y-105450000D03*
%TO.N,/PE6*%
X147750000Y-107450000D03*
%TO.N,MCU_5V*%
X147750000Y-109450000D03*
%TO.N,GND*%
X147750000Y-111450000D03*
%TD*%
D16*
%TO.N,GND*%
X148450000Y-82050000D03*
X156900000Y-98700000D03*
X161850000Y-85150000D03*
X152680000Y-85150000D03*
X151800000Y-89600000D03*
X151800000Y-96000000D03*
X161950000Y-104300000D03*
X155000000Y-107550000D03*
X166250000Y-95200000D03*
X154225000Y-83700000D03*
X167450000Y-83100000D03*
X155650000Y-110795000D03*
X153500000Y-101380000D03*
X150100000Y-98310000D03*
X158850000Y-108650000D03*
X167675000Y-91050000D03*
X150400000Y-83100000D03*
X167200000Y-89500000D03*
X162725000Y-83375000D03*
X157750000Y-81325000D03*
X162750000Y-108662500D03*
X155950000Y-106940000D03*
X157950000Y-101430000D03*
X151650000Y-109400000D03*
X151200000Y-113837500D03*
X162050000Y-110795000D03*
X150100000Y-96200000D03*
X161700000Y-86900000D03*
X163600000Y-94400000D03*
X167650000Y-95750000D03*
X150100000Y-89780000D03*
X158950000Y-101430000D03*
X165925000Y-93350000D03*
X161200000Y-107040000D03*
X169575000Y-82075000D03*
X166325000Y-107975000D03*
%TO.N,MCU_5V*%
X158850000Y-106100000D03*
X150100000Y-88820000D03*
X158950000Y-100470000D03*
X160900000Y-85160000D03*
X153500000Y-100420000D03*
X160990000Y-104300000D03*
X150100000Y-97350000D03*
X163750000Y-105687500D03*
X165300000Y-95200000D03*
X154550000Y-105765000D03*
%TO.N,/VBUS*%
X156450000Y-110795000D03*
X161250000Y-110795000D03*
%TO.N,/PD2*%
X163600000Y-90400000D03*
%TO.N,/PB7*%
X163600000Y-96800000D03*
%TO.N,/PD0*%
X163600000Y-92000000D03*
%TO.N,/PB0*%
X159300000Y-98700000D03*
%TO.N,/PD3*%
X163600000Y-89600000D03*
%TO.N,/PC7*%
X154500000Y-86900000D03*
X152250000Y-110837500D03*
%TO.N,/PD1*%
X163600000Y-91200000D03*
%TO.N,/PF4*%
X151800000Y-92800000D03*
%TO.N,/PF5*%
X151800000Y-92000000D03*
%TO.N,/PD5*%
X163600000Y-88800000D03*
%TO.N,/PF7*%
X151800000Y-90400000D03*
%TO.N,/PF6*%
X151800000Y-91200000D03*
%TO.N,/PF1*%
X151800000Y-93600000D03*
%TO.N,/PF0*%
X151800000Y-94400000D03*
%TD*%
%TA.AperFunction,Conductor*%
%TO.N,MCU_5V*%
G36*
X167753032Y-80450648D02*
G01*
X168086929Y-80467052D01*
X168099037Y-80468245D01*
X168202146Y-80483539D01*
X168426699Y-80516849D01*
X168438617Y-80519219D01*
X168759951Y-80599709D01*
X168771588Y-80603240D01*
X168842806Y-80628722D01*
X169083467Y-80714832D01*
X169094688Y-80719479D01*
X169394163Y-80861120D01*
X169404871Y-80866844D01*
X169688988Y-81037137D01*
X169699106Y-81043897D01*
X169965170Y-81241224D01*
X169974576Y-81248944D01*
X170220013Y-81471395D01*
X170228604Y-81479986D01*
X170411048Y-81681282D01*
X170451055Y-81725423D01*
X170458775Y-81734829D01*
X170656102Y-82000893D01*
X170662862Y-82011011D01*
X170825160Y-82281790D01*
X170833148Y-82295116D01*
X170838883Y-82305844D01*
X170930475Y-82499500D01*
X170980514Y-82605297D01*
X170985170Y-82616540D01*
X171096759Y-82928411D01*
X171100292Y-82940055D01*
X171180777Y-83261369D01*
X171183151Y-83273305D01*
X171231754Y-83600962D01*
X171232947Y-83613071D01*
X171249351Y-83946966D01*
X171249500Y-83953051D01*
X171249500Y-84399490D01*
X171229815Y-84466529D01*
X171177011Y-84512284D01*
X171107853Y-84522228D01*
X171075414Y-84512925D01*
X171060211Y-84506212D01*
X170994991Y-84477415D01*
X170969865Y-84474500D01*
X169530143Y-84474500D01*
X169530117Y-84474502D01*
X169505012Y-84477413D01*
X169505008Y-84477415D01*
X169402235Y-84522793D01*
X169322794Y-84602234D01*
X169277415Y-84705006D01*
X169277415Y-84705008D01*
X169274500Y-84730131D01*
X169274500Y-86169856D01*
X169274502Y-86169882D01*
X169277413Y-86194987D01*
X169277415Y-86194991D01*
X169322793Y-86297764D01*
X169322794Y-86297765D01*
X169402235Y-86377206D01*
X169505009Y-86422585D01*
X169530135Y-86425500D01*
X169618647Y-86425499D01*
X169685683Y-86445183D01*
X169731439Y-86497986D01*
X169741383Y-86567145D01*
X169712359Y-86630701D01*
X169687537Y-86652600D01*
X169628158Y-86692277D01*
X169628151Y-86692282D01*
X169492282Y-86828151D01*
X169492279Y-86828155D01*
X169385521Y-86987929D01*
X169385520Y-86987931D01*
X169311989Y-87165452D01*
X169311986Y-87165464D01*
X169274500Y-87353917D01*
X169274500Y-87546082D01*
X169311986Y-87734535D01*
X169311989Y-87734547D01*
X169385520Y-87912068D01*
X169385521Y-87912070D01*
X169492279Y-88071844D01*
X169492282Y-88071848D01*
X169628151Y-88207717D01*
X169628155Y-88207720D01*
X169787927Y-88314477D01*
X169787928Y-88314477D01*
X169787929Y-88314478D01*
X169838533Y-88335439D01*
X169892936Y-88379280D01*
X169915001Y-88445574D01*
X169897722Y-88513274D01*
X169846584Y-88560884D01*
X169838533Y-88564561D01*
X169787929Y-88585521D01*
X169628155Y-88692279D01*
X169628151Y-88692282D01*
X169492282Y-88828151D01*
X169492279Y-88828155D01*
X169385521Y-88987929D01*
X169385520Y-88987931D01*
X169311989Y-89165452D01*
X169311986Y-89165464D01*
X169274500Y-89353917D01*
X169274500Y-89546082D01*
X169311986Y-89734535D01*
X169311989Y-89734547D01*
X169385520Y-89912068D01*
X169385521Y-89912070D01*
X169492279Y-90071844D01*
X169492282Y-90071848D01*
X169628151Y-90207717D01*
X169628155Y-90207720D01*
X169787927Y-90314477D01*
X169787928Y-90314477D01*
X169787929Y-90314478D01*
X169838533Y-90335439D01*
X169892936Y-90379280D01*
X169915001Y-90445574D01*
X169897722Y-90513274D01*
X169846584Y-90560884D01*
X169838533Y-90564561D01*
X169787929Y-90585521D01*
X169628155Y-90692279D01*
X169628151Y-90692282D01*
X169492282Y-90828151D01*
X169492279Y-90828155D01*
X169385521Y-90987929D01*
X169385520Y-90987931D01*
X169311989Y-91165452D01*
X169311986Y-91165464D01*
X169274500Y-91353917D01*
X169274500Y-91546082D01*
X169311986Y-91734535D01*
X169311989Y-91734547D01*
X169385520Y-91912068D01*
X169385521Y-91912070D01*
X169492279Y-92071844D01*
X169492282Y-92071848D01*
X169628151Y-92207717D01*
X169628155Y-92207720D01*
X169787927Y-92314477D01*
X169787928Y-92314477D01*
X169787929Y-92314478D01*
X169838533Y-92335439D01*
X169892936Y-92379280D01*
X169915001Y-92445574D01*
X169897722Y-92513274D01*
X169846584Y-92560884D01*
X169838533Y-92564561D01*
X169787929Y-92585521D01*
X169628155Y-92692279D01*
X169628151Y-92692282D01*
X169492282Y-92828151D01*
X169492279Y-92828155D01*
X169385521Y-92987929D01*
X169385520Y-92987931D01*
X169311989Y-93165452D01*
X169311986Y-93165464D01*
X169274500Y-93353917D01*
X169274500Y-93546082D01*
X169311986Y-93734535D01*
X169311989Y-93734547D01*
X169385520Y-93912068D01*
X169385521Y-93912070D01*
X169492279Y-94071844D01*
X169492282Y-94071848D01*
X169628151Y-94207717D01*
X169628155Y-94207720D01*
X169787927Y-94314477D01*
X169787928Y-94314477D01*
X169787929Y-94314478D01*
X169838533Y-94335439D01*
X169892936Y-94379280D01*
X169915001Y-94445574D01*
X169897722Y-94513274D01*
X169846584Y-94560884D01*
X169838533Y-94564561D01*
X169787929Y-94585521D01*
X169628155Y-94692279D01*
X169628151Y-94692282D01*
X169492282Y-94828151D01*
X169492279Y-94828155D01*
X169385521Y-94987929D01*
X169385520Y-94987931D01*
X169311989Y-95165452D01*
X169311986Y-95165464D01*
X169274500Y-95353917D01*
X169274500Y-95546082D01*
X169311986Y-95734535D01*
X169311989Y-95734547D01*
X169385520Y-95912068D01*
X169385521Y-95912070D01*
X169492279Y-96071844D01*
X169492282Y-96071848D01*
X169628151Y-96207717D01*
X169628155Y-96207720D01*
X169787927Y-96314477D01*
X169787928Y-96314477D01*
X169787929Y-96314478D01*
X169838533Y-96335439D01*
X169892936Y-96379280D01*
X169915001Y-96445574D01*
X169897722Y-96513274D01*
X169846584Y-96560884D01*
X169838533Y-96564561D01*
X169787929Y-96585521D01*
X169628155Y-96692279D01*
X169628151Y-96692282D01*
X169492282Y-96828151D01*
X169492279Y-96828155D01*
X169385521Y-96987929D01*
X169385520Y-96987931D01*
X169311989Y-97165452D01*
X169311986Y-97165464D01*
X169274500Y-97353917D01*
X169274500Y-97546082D01*
X169311986Y-97734535D01*
X169311989Y-97734547D01*
X169385520Y-97912068D01*
X169385521Y-97912070D01*
X169492279Y-98071844D01*
X169492282Y-98071848D01*
X169628151Y-98207717D01*
X169628155Y-98207720D01*
X169787927Y-98314477D01*
X169787928Y-98314477D01*
X169787929Y-98314478D01*
X169838533Y-98335439D01*
X169892936Y-98379280D01*
X169915001Y-98445574D01*
X169897722Y-98513274D01*
X169846584Y-98560884D01*
X169838533Y-98564561D01*
X169787929Y-98585521D01*
X169628155Y-98692279D01*
X169628151Y-98692282D01*
X169492282Y-98828151D01*
X169492279Y-98828155D01*
X169385521Y-98987929D01*
X169385520Y-98987931D01*
X169311989Y-99165452D01*
X169311986Y-99165464D01*
X169274500Y-99353917D01*
X169274500Y-99546082D01*
X169311986Y-99734535D01*
X169311989Y-99734547D01*
X169385520Y-99912068D01*
X169385521Y-99912070D01*
X169492279Y-100071844D01*
X169492282Y-100071848D01*
X169628151Y-100207717D01*
X169628155Y-100207720D01*
X169787927Y-100314477D01*
X169787928Y-100314477D01*
X169787929Y-100314478D01*
X169838533Y-100335439D01*
X169892936Y-100379280D01*
X169915001Y-100445574D01*
X169897722Y-100513274D01*
X169846584Y-100560884D01*
X169838533Y-100564561D01*
X169787929Y-100585521D01*
X169628155Y-100692279D01*
X169628151Y-100692282D01*
X169492282Y-100828151D01*
X169492279Y-100828155D01*
X169385521Y-100987929D01*
X169385520Y-100987931D01*
X169311989Y-101165452D01*
X169311986Y-101165464D01*
X169274500Y-101353917D01*
X169274500Y-101546082D01*
X169311986Y-101734535D01*
X169311989Y-101734547D01*
X169385520Y-101912068D01*
X169385521Y-101912070D01*
X169492279Y-102071844D01*
X169492282Y-102071848D01*
X169628151Y-102207717D01*
X169628155Y-102207720D01*
X169787927Y-102314477D01*
X169787928Y-102314477D01*
X169787929Y-102314478D01*
X169838533Y-102335439D01*
X169892936Y-102379280D01*
X169915001Y-102445574D01*
X169897722Y-102513274D01*
X169846584Y-102560884D01*
X169838533Y-102564561D01*
X169787929Y-102585521D01*
X169628155Y-102692279D01*
X169628151Y-102692282D01*
X169492282Y-102828151D01*
X169492279Y-102828155D01*
X169385521Y-102987929D01*
X169385520Y-102987931D01*
X169311989Y-103165452D01*
X169311986Y-103165464D01*
X169274500Y-103353917D01*
X169274500Y-103546082D01*
X169311986Y-103734535D01*
X169311989Y-103734547D01*
X169385520Y-103912068D01*
X169385521Y-103912070D01*
X169492279Y-104071844D01*
X169492282Y-104071848D01*
X169628151Y-104207717D01*
X169628155Y-104207720D01*
X169787927Y-104314477D01*
X169787928Y-104314477D01*
X169787929Y-104314478D01*
X169838533Y-104335439D01*
X169892936Y-104379280D01*
X169915001Y-104445574D01*
X169897722Y-104513274D01*
X169846584Y-104560884D01*
X169838533Y-104564561D01*
X169787929Y-104585521D01*
X169628155Y-104692279D01*
X169628151Y-104692282D01*
X169492282Y-104828151D01*
X169492279Y-104828155D01*
X169385521Y-104987929D01*
X169385520Y-104987931D01*
X169311989Y-105165452D01*
X169311986Y-105165464D01*
X169274500Y-105353917D01*
X169274500Y-105546082D01*
X169311986Y-105734535D01*
X169311989Y-105734547D01*
X169385520Y-105912068D01*
X169385521Y-105912070D01*
X169492279Y-106071844D01*
X169492282Y-106071848D01*
X169628151Y-106207717D01*
X169628155Y-106207720D01*
X169787927Y-106314477D01*
X169787928Y-106314477D01*
X169787929Y-106314478D01*
X169838533Y-106335439D01*
X169892936Y-106379280D01*
X169915001Y-106445574D01*
X169897722Y-106513274D01*
X169846584Y-106560884D01*
X169838533Y-106564561D01*
X169787929Y-106585521D01*
X169628155Y-106692279D01*
X169628151Y-106692282D01*
X169492282Y-106828151D01*
X169492279Y-106828155D01*
X169385521Y-106987929D01*
X169385520Y-106987931D01*
X169311989Y-107165452D01*
X169311986Y-107165464D01*
X169274500Y-107353917D01*
X169274500Y-107546082D01*
X169311986Y-107734535D01*
X169311989Y-107734547D01*
X169385520Y-107912068D01*
X169385521Y-107912070D01*
X169492279Y-108071844D01*
X169492282Y-108071848D01*
X169628151Y-108207717D01*
X169628155Y-108207720D01*
X169787927Y-108314477D01*
X169787928Y-108314477D01*
X169787929Y-108314478D01*
X169838533Y-108335439D01*
X169892936Y-108379280D01*
X169915001Y-108445574D01*
X169897722Y-108513274D01*
X169846584Y-108560884D01*
X169838533Y-108564561D01*
X169787929Y-108585521D01*
X169628155Y-108692279D01*
X169628151Y-108692282D01*
X169492282Y-108828151D01*
X169492279Y-108828155D01*
X169385521Y-108987929D01*
X169385520Y-108987931D01*
X169311989Y-109165452D01*
X169311986Y-109165464D01*
X169274500Y-109353917D01*
X169274500Y-109546082D01*
X169311986Y-109734535D01*
X169311989Y-109734547D01*
X169385520Y-109912068D01*
X169385521Y-109912070D01*
X169492279Y-110071844D01*
X169492282Y-110071848D01*
X169628151Y-110207717D01*
X169628155Y-110207720D01*
X169787927Y-110314477D01*
X169787928Y-110314477D01*
X169787929Y-110314478D01*
X169838533Y-110335439D01*
X169892936Y-110379280D01*
X169915001Y-110445574D01*
X169897722Y-110513274D01*
X169846584Y-110560884D01*
X169838533Y-110564561D01*
X169787929Y-110585521D01*
X169628155Y-110692279D01*
X169628151Y-110692282D01*
X169492282Y-110828151D01*
X169492279Y-110828155D01*
X169385521Y-110987929D01*
X169385520Y-110987931D01*
X169311989Y-111165452D01*
X169311986Y-111165464D01*
X169274500Y-111353917D01*
X169274500Y-111546082D01*
X169311986Y-111734535D01*
X169311989Y-111734547D01*
X169385520Y-111912068D01*
X169385521Y-111912070D01*
X169492279Y-112071844D01*
X169492282Y-112071848D01*
X169628151Y-112207717D01*
X169628155Y-112207720D01*
X169787927Y-112314477D01*
X169787928Y-112314477D01*
X169787929Y-112314478D01*
X169787931Y-112314479D01*
X169826646Y-112330515D01*
X169965457Y-112388012D01*
X170153917Y-112425499D01*
X170153920Y-112425500D01*
X170153922Y-112425500D01*
X170346080Y-112425500D01*
X170346081Y-112425499D01*
X170534543Y-112388012D01*
X170712073Y-112314477D01*
X170871845Y-112207720D01*
X171007720Y-112071845D01*
X171022397Y-112049878D01*
X171076009Y-112005073D01*
X171145334Y-111996366D01*
X171208362Y-112026520D01*
X171245082Y-112085963D01*
X171249500Y-112118769D01*
X171249500Y-113647128D01*
X171249368Y-113652855D01*
X171232703Y-114013303D01*
X171231646Y-114024707D01*
X171182192Y-114379231D01*
X171180087Y-114390490D01*
X171098135Y-114738931D01*
X171095001Y-114749947D01*
X170981243Y-115089355D01*
X170977105Y-115100035D01*
X170832523Y-115427482D01*
X170827418Y-115437735D01*
X170653234Y-115750452D01*
X170647205Y-115760190D01*
X170444906Y-116055512D01*
X170438003Y-116064652D01*
X170209328Y-116340035D01*
X170201612Y-116348499D01*
X169948499Y-116601612D01*
X169940035Y-116609328D01*
X169664652Y-116838003D01*
X169655512Y-116844906D01*
X169360190Y-117047205D01*
X169350452Y-117053234D01*
X169037735Y-117227418D01*
X169027482Y-117232523D01*
X168700035Y-117377105D01*
X168689355Y-117381243D01*
X168349947Y-117495001D01*
X168338931Y-117498135D01*
X167990490Y-117580087D01*
X167979231Y-117582192D01*
X167624707Y-117631646D01*
X167613303Y-117632703D01*
X167252855Y-117649368D01*
X167247128Y-117649500D01*
X150752872Y-117649500D01*
X150747145Y-117649368D01*
X150386696Y-117632703D01*
X150375292Y-117631646D01*
X150020768Y-117582192D01*
X150009509Y-117580087D01*
X149661068Y-117498135D01*
X149650052Y-117495001D01*
X149310644Y-117381243D01*
X149299964Y-117377105D01*
X148972517Y-117232523D01*
X148962264Y-117227418D01*
X148649547Y-117053234D01*
X148639809Y-117047205D01*
X148344487Y-116844906D01*
X148335347Y-116838003D01*
X148059964Y-116609328D01*
X148051500Y-116601612D01*
X147798387Y-116348499D01*
X147790671Y-116340035D01*
X147781656Y-116329179D01*
X147561994Y-116064649D01*
X147555093Y-116055512D01*
X147536826Y-116028846D01*
X147352794Y-115760190D01*
X147346765Y-115750452D01*
X147257283Y-115589803D01*
X147172579Y-115437731D01*
X147167476Y-115427482D01*
X147022889Y-115100022D01*
X147018761Y-115089368D01*
X147012656Y-115071153D01*
X153729500Y-115071153D01*
X153729500Y-116028846D01*
X153760261Y-116183489D01*
X153760264Y-116183501D01*
X153820602Y-116329172D01*
X153820609Y-116329185D01*
X153908210Y-116460288D01*
X153908213Y-116460292D01*
X154019707Y-116571786D01*
X154019711Y-116571789D01*
X154150814Y-116659390D01*
X154150827Y-116659397D01*
X154296498Y-116719735D01*
X154296503Y-116719737D01*
X154451153Y-116750499D01*
X154451156Y-116750500D01*
X154451158Y-116750500D01*
X154608844Y-116750500D01*
X154608845Y-116750499D01*
X154763497Y-116719737D01*
X154909179Y-116659394D01*
X155040289Y-116571789D01*
X155151789Y-116460289D01*
X155239394Y-116329179D01*
X155299737Y-116183497D01*
X155330500Y-116028842D01*
X155330500Y-115071158D01*
X155330500Y-115071155D01*
X155330499Y-115071153D01*
X162369500Y-115071153D01*
X162369500Y-116028846D01*
X162400261Y-116183489D01*
X162400264Y-116183501D01*
X162460602Y-116329172D01*
X162460609Y-116329185D01*
X162548210Y-116460288D01*
X162548213Y-116460292D01*
X162659707Y-116571786D01*
X162659711Y-116571789D01*
X162790814Y-116659390D01*
X162790827Y-116659397D01*
X162936498Y-116719735D01*
X162936503Y-116719737D01*
X163091153Y-116750499D01*
X163091156Y-116750500D01*
X163091158Y-116750500D01*
X163248844Y-116750500D01*
X163248845Y-116750499D01*
X163403497Y-116719737D01*
X163549179Y-116659394D01*
X163680289Y-116571789D01*
X163791789Y-116460289D01*
X163879394Y-116329179D01*
X163939737Y-116183497D01*
X163970500Y-116028842D01*
X163970500Y-115071158D01*
X163970500Y-115071155D01*
X163970499Y-115071153D01*
X163939738Y-114916510D01*
X163939737Y-114916503D01*
X163939735Y-114916498D01*
X163879397Y-114770827D01*
X163879390Y-114770814D01*
X163791789Y-114639711D01*
X163791786Y-114639707D01*
X163680292Y-114528213D01*
X163680288Y-114528210D01*
X163549185Y-114440609D01*
X163549172Y-114440602D01*
X163403501Y-114380264D01*
X163403489Y-114380261D01*
X163248845Y-114349500D01*
X163248842Y-114349500D01*
X163091158Y-114349500D01*
X163091155Y-114349500D01*
X162936510Y-114380261D01*
X162936498Y-114380264D01*
X162790827Y-114440602D01*
X162790814Y-114440609D01*
X162659711Y-114528210D01*
X162659707Y-114528213D01*
X162548213Y-114639707D01*
X162548210Y-114639711D01*
X162460609Y-114770814D01*
X162460602Y-114770827D01*
X162400264Y-114916498D01*
X162400261Y-114916510D01*
X162369500Y-115071153D01*
X155330499Y-115071153D01*
X155299738Y-114916510D01*
X155299737Y-114916503D01*
X155299735Y-114916498D01*
X155239397Y-114770827D01*
X155239390Y-114770814D01*
X155151789Y-114639711D01*
X155151786Y-114639707D01*
X155040292Y-114528213D01*
X155040288Y-114528210D01*
X154909185Y-114440609D01*
X154909172Y-114440602D01*
X154763501Y-114380264D01*
X154763489Y-114380261D01*
X154608845Y-114349500D01*
X154608842Y-114349500D01*
X154451158Y-114349500D01*
X154451155Y-114349500D01*
X154296510Y-114380261D01*
X154296498Y-114380264D01*
X154150827Y-114440602D01*
X154150814Y-114440609D01*
X154019711Y-114528210D01*
X154019707Y-114528213D01*
X153908213Y-114639707D01*
X153908210Y-114639711D01*
X153820609Y-114770814D01*
X153820602Y-114770827D01*
X153760264Y-114916498D01*
X153760261Y-114916510D01*
X153729500Y-115071153D01*
X147012656Y-115071153D01*
X146904994Y-114749934D01*
X146901867Y-114738944D01*
X146819910Y-114390482D01*
X146817807Y-114379231D01*
X146809268Y-114318020D01*
X146768352Y-114024700D01*
X146767296Y-114013302D01*
X146762823Y-113916556D01*
X146755513Y-113758443D01*
X150599500Y-113758443D01*
X150599500Y-113916556D01*
X150640423Y-114069283D01*
X150640426Y-114069290D01*
X150719475Y-114206209D01*
X150719479Y-114206214D01*
X150719480Y-114206216D01*
X150831284Y-114318020D01*
X150831286Y-114318021D01*
X150831290Y-114318024D01*
X150939093Y-114380263D01*
X150968216Y-114397077D01*
X151120943Y-114438000D01*
X151120945Y-114438000D01*
X151279055Y-114438000D01*
X151279057Y-114438000D01*
X151431784Y-114397077D01*
X151568716Y-114318020D01*
X151680520Y-114206216D01*
X151759577Y-114069284D01*
X151800500Y-113916557D01*
X151800500Y-113758443D01*
X151759577Y-113605716D01*
X151747102Y-113584108D01*
X151680524Y-113468790D01*
X151680518Y-113468782D01*
X151568717Y-113356981D01*
X151568709Y-113356975D01*
X151431790Y-113277926D01*
X151431786Y-113277924D01*
X151431784Y-113277923D01*
X151279057Y-113237000D01*
X151120943Y-113237000D01*
X150968216Y-113277923D01*
X150968209Y-113277926D01*
X150831290Y-113356975D01*
X150831282Y-113356981D01*
X150719481Y-113468782D01*
X150719475Y-113468790D01*
X150640426Y-113605709D01*
X150640423Y-113605716D01*
X150599500Y-113758443D01*
X146755513Y-113758443D01*
X146750632Y-113652855D01*
X146750500Y-113647128D01*
X146750500Y-112118769D01*
X146770185Y-112051730D01*
X146822989Y-112005975D01*
X146892147Y-111996031D01*
X146955703Y-112025056D01*
X146977601Y-112049877D01*
X146984722Y-112060534D01*
X146992281Y-112071847D01*
X147128151Y-112207717D01*
X147128155Y-112207720D01*
X147287927Y-112314477D01*
X147287928Y-112314477D01*
X147287929Y-112314478D01*
X147287931Y-112314479D01*
X147326646Y-112330515D01*
X147465457Y-112388012D01*
X147653917Y-112425499D01*
X147653920Y-112425500D01*
X147653922Y-112425500D01*
X147846080Y-112425500D01*
X147846081Y-112425499D01*
X148034543Y-112388012D01*
X148212073Y-112314477D01*
X148371845Y-112207720D01*
X148507720Y-112071845D01*
X148614477Y-111912073D01*
X148688012Y-111734543D01*
X148725500Y-111546078D01*
X148725500Y-111353922D01*
X148725500Y-111353919D01*
X148725499Y-111353917D01*
X148703682Y-111244236D01*
X148688012Y-111165457D01*
X148614477Y-110987927D01*
X148507720Y-110828155D01*
X148507717Y-110828151D01*
X148438009Y-110758443D01*
X151649500Y-110758443D01*
X151649500Y-110916557D01*
X151668624Y-110987927D01*
X151690423Y-111069283D01*
X151690426Y-111069290D01*
X151769475Y-111206209D01*
X151769479Y-111206214D01*
X151769480Y-111206216D01*
X151881284Y-111318020D01*
X151881286Y-111318021D01*
X151881290Y-111318024D01*
X152018209Y-111397073D01*
X152018216Y-111397077D01*
X152170943Y-111438000D01*
X152170945Y-111438000D01*
X152329055Y-111438000D01*
X152329057Y-111438000D01*
X152481784Y-111397077D01*
X152618716Y-111318020D01*
X152730520Y-111206216D01*
X152809577Y-111069284D01*
X152850500Y-110916557D01*
X152850500Y-110758443D01*
X152845867Y-110741153D01*
X153729500Y-110741153D01*
X153729500Y-111998846D01*
X153760261Y-112153489D01*
X153760264Y-112153501D01*
X153820602Y-112299172D01*
X153820609Y-112299185D01*
X153908210Y-112430288D01*
X153908213Y-112430292D01*
X154019707Y-112541786D01*
X154019711Y-112541789D01*
X154150814Y-112629390D01*
X154150827Y-112629397D01*
X154296498Y-112689735D01*
X154296503Y-112689737D01*
X154451153Y-112720499D01*
X154451156Y-112720500D01*
X154451158Y-112720500D01*
X154608844Y-112720500D01*
X154608845Y-112720499D01*
X154763497Y-112689737D01*
X154909179Y-112629394D01*
X155040289Y-112541789D01*
X155151789Y-112430289D01*
X155239394Y-112299179D01*
X155239396Y-112299175D01*
X155239397Y-112299173D01*
X155270104Y-112225038D01*
X155313944Y-112170634D01*
X155380238Y-112148569D01*
X155447938Y-112165848D01*
X155492050Y-112210488D01*
X155499485Y-112223365D01*
X155606635Y-112330515D01*
X155737865Y-112406281D01*
X155884234Y-112445500D01*
X155884236Y-112445500D01*
X156035764Y-112445500D01*
X156035766Y-112445500D01*
X156182135Y-112406281D01*
X156313365Y-112330515D01*
X156420515Y-112223365D01*
X156496281Y-112092135D01*
X156535500Y-111945766D01*
X156535500Y-111794234D01*
X156496281Y-111647865D01*
X156455288Y-111576864D01*
X156438816Y-111508966D01*
X156461668Y-111442939D01*
X156516589Y-111399748D01*
X156530565Y-111395095D01*
X156681784Y-111354577D01*
X156818716Y-111275520D01*
X156930520Y-111163716D01*
X157009577Y-111026784D01*
X157050500Y-110874057D01*
X157050500Y-110715943D01*
X160649500Y-110715943D01*
X160649500Y-110874057D01*
X160680013Y-110987931D01*
X160690423Y-111026783D01*
X160690426Y-111026790D01*
X160769475Y-111163709D01*
X160769479Y-111163714D01*
X160769480Y-111163716D01*
X160881284Y-111275520D01*
X160881286Y-111275521D01*
X160881290Y-111275524D01*
X160982047Y-111333695D01*
X161018216Y-111354577D01*
X161169418Y-111395091D01*
X161229077Y-111431455D01*
X161259606Y-111494302D01*
X161251311Y-111563677D01*
X161244710Y-111576865D01*
X161203720Y-111647861D01*
X161203720Y-111647862D01*
X161164500Y-111794234D01*
X161164500Y-111945765D01*
X161203719Y-112092136D01*
X161239149Y-112153501D01*
X161279485Y-112223365D01*
X161386635Y-112330515D01*
X161517865Y-112406281D01*
X161664234Y-112445500D01*
X161664236Y-112445500D01*
X161815764Y-112445500D01*
X161815766Y-112445500D01*
X161962135Y-112406281D01*
X162093365Y-112330515D01*
X162200515Y-112223365D01*
X162207947Y-112210491D01*
X162258508Y-112162277D01*
X162327115Y-112149051D01*
X162391981Y-112175016D01*
X162429895Y-112225037D01*
X162460604Y-112299175D01*
X162460609Y-112299185D01*
X162548210Y-112430288D01*
X162548213Y-112430292D01*
X162659707Y-112541786D01*
X162659711Y-112541789D01*
X162790814Y-112629390D01*
X162790827Y-112629397D01*
X162936498Y-112689735D01*
X162936503Y-112689737D01*
X163091153Y-112720499D01*
X163091156Y-112720500D01*
X163091158Y-112720500D01*
X163248844Y-112720500D01*
X163248845Y-112720499D01*
X163403497Y-112689737D01*
X163549179Y-112629394D01*
X163680289Y-112541789D01*
X163791789Y-112430289D01*
X163879394Y-112299179D01*
X163939737Y-112153497D01*
X163970500Y-111998842D01*
X163970500Y-110741158D01*
X163970500Y-110741155D01*
X163970499Y-110741153D01*
X163957028Y-110673430D01*
X163939737Y-110586503D01*
X163939330Y-110585520D01*
X163879397Y-110440827D01*
X163879390Y-110440814D01*
X163791789Y-110309711D01*
X163791786Y-110309707D01*
X163680292Y-110198213D01*
X163680288Y-110198210D01*
X163549185Y-110110609D01*
X163549172Y-110110602D01*
X163403501Y-110050264D01*
X163403489Y-110050261D01*
X163248845Y-110019500D01*
X163248842Y-110019500D01*
X163091158Y-110019500D01*
X163091155Y-110019500D01*
X162936510Y-110050261D01*
X162936498Y-110050264D01*
X162790827Y-110110602D01*
X162790814Y-110110609D01*
X162659711Y-110198210D01*
X162565068Y-110292853D01*
X162503744Y-110326337D01*
X162434053Y-110321353D01*
X162415387Y-110312558D01*
X162281786Y-110235424D01*
X162281785Y-110235423D01*
X162281784Y-110235423D01*
X162129057Y-110194500D01*
X161970943Y-110194500D01*
X161818216Y-110235423D01*
X161818215Y-110235423D01*
X161711999Y-110296746D01*
X161644098Y-110313217D01*
X161588001Y-110296746D01*
X161481784Y-110235423D01*
X161329057Y-110194500D01*
X161170943Y-110194500D01*
X161018216Y-110235423D01*
X161018209Y-110235426D01*
X160881290Y-110314475D01*
X160881282Y-110314481D01*
X160769481Y-110426282D01*
X160769475Y-110426290D01*
X160690426Y-110563209D01*
X160690423Y-110563216D01*
X160649500Y-110715943D01*
X157050500Y-110715943D01*
X157009577Y-110563216D01*
X156977594Y-110507819D01*
X156930524Y-110426290D01*
X156930518Y-110426282D01*
X156818717Y-110314481D01*
X156818709Y-110314475D01*
X156681790Y-110235426D01*
X156681786Y-110235424D01*
X156681784Y-110235423D01*
X156529057Y-110194500D01*
X156370943Y-110194500D01*
X156218216Y-110235423D01*
X156218215Y-110235423D01*
X156111999Y-110296746D01*
X156044098Y-110313217D01*
X155988001Y-110296746D01*
X155881784Y-110235423D01*
X155729057Y-110194500D01*
X155570943Y-110194500D01*
X155418216Y-110235423D01*
X155418215Y-110235423D01*
X155284611Y-110312559D01*
X155216711Y-110329031D01*
X155150684Y-110306178D01*
X155134931Y-110292852D01*
X155040292Y-110198213D01*
X155040288Y-110198210D01*
X154909185Y-110110609D01*
X154909172Y-110110602D01*
X154763501Y-110050264D01*
X154763489Y-110050261D01*
X154608845Y-110019500D01*
X154608842Y-110019500D01*
X154451158Y-110019500D01*
X154451155Y-110019500D01*
X154296510Y-110050261D01*
X154296498Y-110050264D01*
X154150827Y-110110602D01*
X154150814Y-110110609D01*
X154019711Y-110198210D01*
X154019707Y-110198213D01*
X153908213Y-110309707D01*
X153908210Y-110309711D01*
X153820609Y-110440814D01*
X153820602Y-110440827D01*
X153760264Y-110586498D01*
X153760261Y-110586510D01*
X153729500Y-110741153D01*
X152845867Y-110741153D01*
X152809577Y-110605716D01*
X152798489Y-110586510D01*
X152730524Y-110468790D01*
X152730518Y-110468782D01*
X152618717Y-110356981D01*
X152618709Y-110356975D01*
X152481790Y-110277926D01*
X152481786Y-110277924D01*
X152481784Y-110277923D01*
X152329057Y-110237000D01*
X152170943Y-110237000D01*
X152018216Y-110277923D01*
X152018209Y-110277926D01*
X151881290Y-110356975D01*
X151881282Y-110356981D01*
X151769481Y-110468782D01*
X151769475Y-110468790D01*
X151690426Y-110605709D01*
X151690423Y-110605716D01*
X151649500Y-110758443D01*
X148438009Y-110758443D01*
X148371848Y-110692282D01*
X148371842Y-110692277D01*
X148343633Y-110673428D01*
X148298828Y-110619815D01*
X148290122Y-110550490D01*
X148320278Y-110487463D01*
X148356235Y-110459839D01*
X148365843Y-110454943D01*
X148365845Y-110454942D01*
X148386430Y-110439984D01*
X148386431Y-110439983D01*
X147796448Y-109850000D01*
X147802661Y-109850000D01*
X147904394Y-109822741D01*
X147995606Y-109770080D01*
X148070080Y-109695606D01*
X148122741Y-109604394D01*
X148150000Y-109502661D01*
X148150000Y-109496448D01*
X148739983Y-110086431D01*
X148739984Y-110086430D01*
X148754942Y-110065845D01*
X148754947Y-110065836D01*
X148838915Y-109901043D01*
X148838916Y-109901040D01*
X148896066Y-109725147D01*
X148925000Y-109542473D01*
X148925000Y-109357525D01*
X148920991Y-109332213D01*
X148919206Y-109320943D01*
X151049500Y-109320943D01*
X151049500Y-109479057D01*
X151067460Y-109546082D01*
X151090423Y-109631783D01*
X151090426Y-109631790D01*
X151169475Y-109768709D01*
X151169479Y-109768714D01*
X151169480Y-109768716D01*
X151281284Y-109880520D01*
X151281286Y-109880521D01*
X151281290Y-109880524D01*
X151418209Y-109959573D01*
X151418216Y-109959577D01*
X151570943Y-110000500D01*
X151570945Y-110000500D01*
X151729055Y-110000500D01*
X151729057Y-110000500D01*
X151881784Y-109959577D01*
X152018716Y-109880520D01*
X152130520Y-109768716D01*
X152209577Y-109631784D01*
X152250500Y-109479057D01*
X152250500Y-109320943D01*
X152209577Y-109168216D01*
X152187816Y-109130524D01*
X152130524Y-109031290D01*
X152130518Y-109031282D01*
X152018717Y-108919481D01*
X152018709Y-108919475D01*
X151881790Y-108840426D01*
X151881786Y-108840424D01*
X151881784Y-108840423D01*
X151729057Y-108799500D01*
X151570943Y-108799500D01*
X151418216Y-108840423D01*
X151418209Y-108840426D01*
X151281290Y-108919475D01*
X151281282Y-108919481D01*
X151169481Y-109031282D01*
X151169475Y-109031290D01*
X151090426Y-109168209D01*
X151090423Y-109168216D01*
X151049500Y-109320943D01*
X148919206Y-109320943D01*
X148896066Y-109174852D01*
X148838916Y-108998959D01*
X148838915Y-108998956D01*
X148754949Y-108834165D01*
X148739983Y-108813568D01*
X148150000Y-109403551D01*
X148150000Y-109397339D01*
X148122741Y-109295606D01*
X148070080Y-109204394D01*
X147995606Y-109129920D01*
X147904394Y-109077259D01*
X147802661Y-109050000D01*
X147796447Y-109050000D01*
X148275503Y-108570943D01*
X158249500Y-108570943D01*
X158249500Y-108729057D01*
X158279341Y-108840423D01*
X158290423Y-108881783D01*
X158290426Y-108881790D01*
X158369475Y-109018709D01*
X158369479Y-109018714D01*
X158369480Y-109018716D01*
X158481284Y-109130520D01*
X158481286Y-109130521D01*
X158481290Y-109130524D01*
X158558070Y-109174852D01*
X158618216Y-109209577D01*
X158770943Y-109250500D01*
X158770945Y-109250500D01*
X158929055Y-109250500D01*
X158929057Y-109250500D01*
X159081784Y-109209577D01*
X159218716Y-109130520D01*
X159330520Y-109018716D01*
X159409577Y-108881784D01*
X159450500Y-108729057D01*
X159450500Y-108583443D01*
X162149500Y-108583443D01*
X162149500Y-108741557D01*
X162190354Y-108894024D01*
X162190423Y-108894283D01*
X162190426Y-108894290D01*
X162269475Y-109031209D01*
X162269479Y-109031214D01*
X162269480Y-109031216D01*
X162381284Y-109143020D01*
X162381286Y-109143021D01*
X162381290Y-109143024D01*
X162436419Y-109174852D01*
X162518216Y-109222077D01*
X162670943Y-109263000D01*
X162670945Y-109263000D01*
X162829055Y-109263000D01*
X162829057Y-109263000D01*
X162981784Y-109222077D01*
X163118716Y-109143020D01*
X163230520Y-109031216D01*
X163309577Y-108894284D01*
X163350500Y-108741557D01*
X163350500Y-108583443D01*
X163309577Y-108430716D01*
X163279881Y-108379280D01*
X163230524Y-108293790D01*
X163230518Y-108293782D01*
X163118717Y-108181981D01*
X163118709Y-108181975D01*
X162981790Y-108102926D01*
X162981786Y-108102924D01*
X162981784Y-108102923D01*
X162829057Y-108062000D01*
X162670943Y-108062000D01*
X162518216Y-108102923D01*
X162518209Y-108102926D01*
X162381290Y-108181975D01*
X162381282Y-108181981D01*
X162269481Y-108293782D01*
X162269475Y-108293790D01*
X162190426Y-108430709D01*
X162190423Y-108430716D01*
X162149500Y-108583443D01*
X159450500Y-108583443D01*
X159450500Y-108570943D01*
X159409577Y-108418216D01*
X159391397Y-108386727D01*
X159330524Y-108281290D01*
X159330518Y-108281282D01*
X159218717Y-108169481D01*
X159218709Y-108169475D01*
X159081790Y-108090426D01*
X159081786Y-108090424D01*
X159081784Y-108090423D01*
X158929057Y-108049500D01*
X158770943Y-108049500D01*
X158618216Y-108090423D01*
X158618209Y-108090426D01*
X158481290Y-108169475D01*
X158481282Y-108169481D01*
X158369481Y-108281282D01*
X158369475Y-108281290D01*
X158290426Y-108418209D01*
X158290423Y-108418216D01*
X158249500Y-108570943D01*
X148275503Y-108570943D01*
X148324423Y-108522023D01*
X148290917Y-108353910D01*
X148292250Y-108338946D01*
X148288639Y-108324364D01*
X148295288Y-108304850D01*
X148297118Y-108284316D01*
X148306329Y-108272449D01*
X148311175Y-108258228D01*
X148336664Y-108233367D01*
X148339960Y-108229122D01*
X148341617Y-108228536D01*
X148343633Y-108226570D01*
X148371845Y-108207720D01*
X148507720Y-108071845D01*
X148614477Y-107912073D01*
X148688012Y-107734543D01*
X148725500Y-107546078D01*
X148725500Y-107470943D01*
X154399500Y-107470943D01*
X154399500Y-107629056D01*
X154440423Y-107781783D01*
X154440426Y-107781790D01*
X154519475Y-107918709D01*
X154519479Y-107918714D01*
X154519480Y-107918716D01*
X154631284Y-108030520D01*
X154631286Y-108030521D01*
X154631290Y-108030524D01*
X154727315Y-108085963D01*
X154768216Y-108109577D01*
X154920943Y-108150500D01*
X154920945Y-108150500D01*
X155079055Y-108150500D01*
X155079057Y-108150500D01*
X155231784Y-108109577D01*
X155368716Y-108030520D01*
X155480520Y-107918716D01*
X155493667Y-107895943D01*
X165724500Y-107895943D01*
X165724500Y-108054057D01*
X165758776Y-108181975D01*
X165765423Y-108206783D01*
X165765426Y-108206790D01*
X165844475Y-108343709D01*
X165844479Y-108343714D01*
X165844480Y-108343716D01*
X165956284Y-108455520D01*
X165956286Y-108455521D01*
X165956290Y-108455524D01*
X166093209Y-108534573D01*
X166093216Y-108534577D01*
X166245943Y-108575500D01*
X166245945Y-108575500D01*
X166404055Y-108575500D01*
X166404057Y-108575500D01*
X166556784Y-108534577D01*
X166693716Y-108455520D01*
X166805520Y-108343716D01*
X166884577Y-108206784D01*
X166925500Y-108054057D01*
X166925500Y-107895943D01*
X166884577Y-107743216D01*
X166879565Y-107734535D01*
X166805524Y-107606290D01*
X166805518Y-107606282D01*
X166693717Y-107494481D01*
X166693709Y-107494475D01*
X166556790Y-107415426D01*
X166556786Y-107415424D01*
X166556784Y-107415423D01*
X166404057Y-107374500D01*
X166245943Y-107374500D01*
X166093216Y-107415423D01*
X166093209Y-107415426D01*
X165956290Y-107494475D01*
X165956282Y-107494481D01*
X165844481Y-107606282D01*
X165844475Y-107606290D01*
X165765426Y-107743209D01*
X165765423Y-107743216D01*
X165724500Y-107895943D01*
X155493667Y-107895943D01*
X155497759Y-107888856D01*
X155534156Y-107825816D01*
X155544200Y-107808417D01*
X155559577Y-107781784D01*
X155600500Y-107629057D01*
X155600500Y-107629048D01*
X155601561Y-107620997D01*
X155602981Y-107621183D01*
X155620185Y-107562595D01*
X155672989Y-107516840D01*
X155742147Y-107506896D01*
X155756572Y-107509854D01*
X155870943Y-107540500D01*
X155870946Y-107540500D01*
X156029055Y-107540500D01*
X156029057Y-107540500D01*
X156181784Y-107499577D01*
X156318716Y-107420520D01*
X156430520Y-107308716D01*
X156509577Y-107171784D01*
X156550500Y-107019057D01*
X156550500Y-106960943D01*
X160599500Y-106960943D01*
X160599500Y-107119057D01*
X160616176Y-107181290D01*
X160640423Y-107271783D01*
X160640426Y-107271790D01*
X160719475Y-107408709D01*
X160719479Y-107408714D01*
X160719480Y-107408716D01*
X160831284Y-107520520D01*
X160831286Y-107520521D01*
X160831290Y-107520524D01*
X160968209Y-107599573D01*
X160968216Y-107599577D01*
X161120943Y-107640500D01*
X161120945Y-107640500D01*
X161279055Y-107640500D01*
X161279057Y-107640500D01*
X161431784Y-107599577D01*
X161568716Y-107520520D01*
X161680520Y-107408716D01*
X161759577Y-107271784D01*
X161800500Y-107119057D01*
X161800500Y-106960943D01*
X161759577Y-106808216D01*
X161701843Y-106708216D01*
X161680524Y-106671290D01*
X161680518Y-106671282D01*
X161568717Y-106559481D01*
X161568709Y-106559475D01*
X161431790Y-106480426D01*
X161431786Y-106480424D01*
X161431784Y-106480423D01*
X161279057Y-106439500D01*
X161120943Y-106439500D01*
X160968216Y-106480423D01*
X160968209Y-106480426D01*
X160831290Y-106559475D01*
X160831282Y-106559481D01*
X160719481Y-106671282D01*
X160719475Y-106671290D01*
X160640426Y-106808209D01*
X160640423Y-106808216D01*
X160599500Y-106960943D01*
X156550500Y-106960943D01*
X156550500Y-106860943D01*
X156509577Y-106708216D01*
X156500378Y-106692282D01*
X156430524Y-106571290D01*
X156430518Y-106571282D01*
X156318717Y-106459481D01*
X156318709Y-106459475D01*
X156181790Y-106380426D01*
X156181786Y-106380424D01*
X156181784Y-106380423D01*
X156029057Y-106339500D01*
X155870943Y-106339500D01*
X155718216Y-106380423D01*
X155718209Y-106380426D01*
X155581290Y-106459475D01*
X155581282Y-106459481D01*
X155469481Y-106571282D01*
X155469475Y-106571290D01*
X155390426Y-106708209D01*
X155390423Y-106708216D01*
X155349500Y-106860943D01*
X155348439Y-106869003D01*
X155347018Y-106868815D01*
X155329815Y-106927404D01*
X155277011Y-106973159D01*
X155207853Y-106983103D01*
X155193407Y-106980140D01*
X155079057Y-106949500D01*
X154920943Y-106949500D01*
X154768216Y-106990423D01*
X154768209Y-106990426D01*
X154631290Y-107069475D01*
X154631282Y-107069481D01*
X154519481Y-107181282D01*
X154519475Y-107181290D01*
X154440426Y-107318209D01*
X154440423Y-107318216D01*
X154399500Y-107470943D01*
X148725500Y-107470943D01*
X148725500Y-107353922D01*
X148725500Y-107353919D01*
X148725499Y-107353917D01*
X148716508Y-107308716D01*
X148688012Y-107165457D01*
X148646643Y-107065583D01*
X148614479Y-106987931D01*
X148614478Y-106987929D01*
X148611253Y-106983103D01*
X148507720Y-106828155D01*
X148507717Y-106828151D01*
X148371848Y-106692282D01*
X148371844Y-106692279D01*
X148212070Y-106585521D01*
X148212068Y-106585520D01*
X148161467Y-106564561D01*
X148107063Y-106520720D01*
X148084998Y-106454426D01*
X148102277Y-106386727D01*
X148153414Y-106339116D01*
X148161467Y-106335439D01*
X148212068Y-106314479D01*
X148212067Y-106314479D01*
X148212073Y-106314477D01*
X148371845Y-106207720D01*
X148507720Y-106071845D01*
X148614477Y-105912073D01*
X148688012Y-105734543D01*
X148725500Y-105546078D01*
X148725500Y-105353922D01*
X148725500Y-105353919D01*
X148725499Y-105353917D01*
X148688013Y-105165464D01*
X148688012Y-105165457D01*
X148614477Y-104987927D01*
X148507720Y-104828155D01*
X148507717Y-104828151D01*
X148371848Y-104692282D01*
X148371844Y-104692279D01*
X148212070Y-104585521D01*
X148212068Y-104585520D01*
X148161467Y-104564561D01*
X148107063Y-104520720D01*
X148084998Y-104454426D01*
X148102277Y-104386727D01*
X148153414Y-104339116D01*
X148161467Y-104335439D01*
X148212068Y-104314479D01*
X148212067Y-104314479D01*
X148212073Y-104314477D01*
X148352056Y-104220943D01*
X161349500Y-104220943D01*
X161349500Y-104379057D01*
X161387459Y-104520720D01*
X161390423Y-104531783D01*
X161390426Y-104531790D01*
X161469475Y-104668709D01*
X161469479Y-104668714D01*
X161469480Y-104668716D01*
X161581284Y-104780520D01*
X161581286Y-104780521D01*
X161581290Y-104780524D01*
X161639332Y-104814034D01*
X161718216Y-104859577D01*
X161870943Y-104900500D01*
X161870945Y-104900500D01*
X162029055Y-104900500D01*
X162029057Y-104900500D01*
X162181784Y-104859577D01*
X162318716Y-104780520D01*
X162430520Y-104668716D01*
X162509577Y-104531784D01*
X162550500Y-104379057D01*
X162550500Y-104220943D01*
X162509577Y-104068216D01*
X162484659Y-104025056D01*
X162430524Y-103931290D01*
X162430518Y-103931282D01*
X162318717Y-103819481D01*
X162318709Y-103819475D01*
X162181790Y-103740426D01*
X162181786Y-103740424D01*
X162181784Y-103740423D01*
X162029057Y-103699500D01*
X161870943Y-103699500D01*
X161718216Y-103740423D01*
X161718209Y-103740426D01*
X161581290Y-103819475D01*
X161581282Y-103819481D01*
X161469481Y-103931282D01*
X161469475Y-103931290D01*
X161390426Y-104068209D01*
X161390423Y-104068216D01*
X161349500Y-104220943D01*
X148352056Y-104220943D01*
X148371845Y-104207720D01*
X148371848Y-104207717D01*
X148454431Y-104125135D01*
X148507717Y-104071848D01*
X148507718Y-104071847D01*
X148507720Y-104071845D01*
X148614477Y-103912073D01*
X148688012Y-103734543D01*
X148725500Y-103546078D01*
X148725500Y-103353922D01*
X148725500Y-103353919D01*
X148725499Y-103353917D01*
X148688012Y-103165457D01*
X148645828Y-103063615D01*
X148614479Y-102987931D01*
X148614478Y-102987929D01*
X148604398Y-102972844D01*
X160025000Y-102972844D01*
X160031401Y-103032372D01*
X160031403Y-103032379D01*
X160081645Y-103167086D01*
X160081649Y-103167093D01*
X160167809Y-103282187D01*
X160167812Y-103282190D01*
X160282906Y-103368350D01*
X160282913Y-103368354D01*
X160417620Y-103418596D01*
X160417627Y-103418598D01*
X160477155Y-103424999D01*
X160477172Y-103425000D01*
X160700000Y-103425000D01*
X160700000Y-102750000D01*
X160025000Y-102750000D01*
X160025000Y-102972844D01*
X148604398Y-102972844D01*
X148507720Y-102828155D01*
X148507717Y-102828151D01*
X148371848Y-102692282D01*
X148371844Y-102692279D01*
X148212070Y-102585521D01*
X148212068Y-102585520D01*
X148161467Y-102564561D01*
X148107063Y-102520720D01*
X148084998Y-102454426D01*
X148102277Y-102386727D01*
X148153414Y-102339116D01*
X148161467Y-102335439D01*
X148212068Y-102314479D01*
X148212067Y-102314479D01*
X148212073Y-102314477D01*
X148371845Y-102207720D01*
X148507720Y-102071845D01*
X148614477Y-101912073D01*
X148688012Y-101734543D01*
X148725500Y-101546078D01*
X148725500Y-101353922D01*
X148725500Y-101353919D01*
X148725499Y-101353917D01*
X148718158Y-101317007D01*
X148714963Y-101300943D01*
X152899500Y-101300943D01*
X152899500Y-101459057D01*
X152933321Y-101585277D01*
X152940423Y-101611783D01*
X152940426Y-101611790D01*
X153019475Y-101748709D01*
X153019479Y-101748714D01*
X153019480Y-101748716D01*
X153131284Y-101860520D01*
X153131286Y-101860521D01*
X153131290Y-101860524D01*
X153220572Y-101912070D01*
X153268216Y-101939577D01*
X153420943Y-101980500D01*
X153420945Y-101980500D01*
X153579055Y-101980500D01*
X153579057Y-101980500D01*
X153731784Y-101939577D01*
X153868716Y-101860520D01*
X153980520Y-101748716D01*
X154059577Y-101611784D01*
X154100500Y-101459057D01*
X154100500Y-101350943D01*
X157349500Y-101350943D01*
X157349500Y-101509057D01*
X157377026Y-101611783D01*
X157390423Y-101661783D01*
X157390426Y-101661790D01*
X157469475Y-101798709D01*
X157469479Y-101798714D01*
X157469480Y-101798716D01*
X157581284Y-101910520D01*
X157581286Y-101910521D01*
X157581290Y-101910524D01*
X157671280Y-101962479D01*
X157718216Y-101989577D01*
X157870943Y-102030500D01*
X157870945Y-102030500D01*
X158029055Y-102030500D01*
X158029057Y-102030500D01*
X158181784Y-101989577D01*
X158318716Y-101910520D01*
X158362319Y-101866917D01*
X158423642Y-101833432D01*
X158493334Y-101838416D01*
X158537681Y-101866917D01*
X158581284Y-101910520D01*
X158581286Y-101910521D01*
X158581290Y-101910524D01*
X158671280Y-101962479D01*
X158718216Y-101989577D01*
X158870943Y-102030500D01*
X158870945Y-102030500D01*
X159029055Y-102030500D01*
X159029057Y-102030500D01*
X159041541Y-102027155D01*
X160025000Y-102027155D01*
X160025000Y-102250000D01*
X160826000Y-102250000D01*
X160869461Y-102262761D01*
X160808386Y-102288060D01*
X160738060Y-102358386D01*
X160700000Y-102450272D01*
X160700000Y-102549728D01*
X160738060Y-102641614D01*
X160808386Y-102711940D01*
X160900272Y-102750000D01*
X160999728Y-102750000D01*
X161091614Y-102711940D01*
X161161940Y-102641614D01*
X161189406Y-102575303D01*
X161200000Y-102624000D01*
X161200000Y-103425000D01*
X161422828Y-103425000D01*
X161422844Y-103424999D01*
X161482372Y-103418598D01*
X161482379Y-103418596D01*
X161617086Y-103368354D01*
X161617088Y-103368352D01*
X161732186Y-103282190D01*
X161732188Y-103282188D01*
X161741268Y-103270060D01*
X161797201Y-103228188D01*
X161864728Y-103222752D01*
X161878542Y-103225500D01*
X161878545Y-103225500D01*
X162021457Y-103225500D01*
X162115751Y-103206742D01*
X162161620Y-103197619D01*
X162293653Y-103142929D01*
X162381109Y-103084493D01*
X162447786Y-103063615D01*
X162515167Y-103082099D01*
X162518891Y-103084493D01*
X162606340Y-103142925D01*
X162606346Y-103142928D01*
X162606347Y-103142929D01*
X162738380Y-103197619D01*
X162738384Y-103197619D01*
X162738385Y-103197620D01*
X162878542Y-103225500D01*
X162878545Y-103225500D01*
X163021457Y-103225500D01*
X163115751Y-103206742D01*
X163161620Y-103197619D01*
X163293653Y-103142929D01*
X163412479Y-103063532D01*
X163513532Y-102962479D01*
X163592929Y-102843653D01*
X163647619Y-102711620D01*
X163672702Y-102585521D01*
X163675500Y-102571457D01*
X163675500Y-102428542D01*
X163647620Y-102288385D01*
X163647619Y-102288384D01*
X163647619Y-102288380D01*
X163592929Y-102156347D01*
X163592928Y-102156346D01*
X163592925Y-102156340D01*
X163534493Y-102068891D01*
X163513615Y-102002214D01*
X163532099Y-101934833D01*
X163534493Y-101931109D01*
X163592925Y-101843659D01*
X163592925Y-101843658D01*
X163592929Y-101843653D01*
X163647619Y-101711620D01*
X163675500Y-101571455D01*
X163675500Y-101428545D01*
X163675500Y-101428542D01*
X163647620Y-101288385D01*
X163647619Y-101288384D01*
X163647619Y-101288380D01*
X163605318Y-101186258D01*
X163592930Y-101156349D01*
X163592925Y-101156340D01*
X163513532Y-101037521D01*
X163513529Y-101037517D01*
X163412482Y-100936470D01*
X163412478Y-100936467D01*
X163293659Y-100857074D01*
X163293650Y-100857069D01*
X163161620Y-100802381D01*
X163161614Y-100802379D01*
X163021457Y-100774500D01*
X163021455Y-100774500D01*
X162878545Y-100774500D01*
X162878543Y-100774500D01*
X162738385Y-100802379D01*
X162738379Y-100802381D01*
X162606349Y-100857069D01*
X162606342Y-100857073D01*
X162518890Y-100915507D01*
X162452213Y-100936384D01*
X162384833Y-100917899D01*
X162381110Y-100915507D01*
X162293657Y-100857073D01*
X162293650Y-100857069D01*
X162161620Y-100802381D01*
X162161614Y-100802379D01*
X162021457Y-100774500D01*
X162021455Y-100774500D01*
X161878545Y-100774500D01*
X161878543Y-100774500D01*
X161738385Y-100802379D01*
X161738379Y-100802381D01*
X161606349Y-100857069D01*
X161606342Y-100857073D01*
X161518890Y-100915507D01*
X161452213Y-100936384D01*
X161384833Y-100917899D01*
X161381110Y-100915507D01*
X161293657Y-100857073D01*
X161293650Y-100857069D01*
X161161620Y-100802381D01*
X161161614Y-100802379D01*
X161021457Y-100774500D01*
X161021455Y-100774500D01*
X160878545Y-100774500D01*
X160878543Y-100774500D01*
X160738385Y-100802379D01*
X160738379Y-100802381D01*
X160606349Y-100857069D01*
X160606340Y-100857074D01*
X160487521Y-100936467D01*
X160487517Y-100936470D01*
X160386470Y-101037517D01*
X160386467Y-101037521D01*
X160307074Y-101156340D01*
X160307069Y-101156349D01*
X160252381Y-101288379D01*
X160252379Y-101288385D01*
X160224500Y-101428542D01*
X160224500Y-101571461D01*
X160227248Y-101585277D01*
X160221018Y-101654868D01*
X160179946Y-101708726D01*
X160167810Y-101717811D01*
X160167809Y-101717812D01*
X160081649Y-101832906D01*
X160081645Y-101832913D01*
X160031403Y-101967620D01*
X160031401Y-101967627D01*
X160025000Y-102027155D01*
X159041541Y-102027155D01*
X159181784Y-101989577D01*
X159318716Y-101910520D01*
X159430520Y-101798716D01*
X159509577Y-101661784D01*
X159550500Y-101509057D01*
X159550500Y-101350943D01*
X159509577Y-101198216D01*
X159450000Y-101095024D01*
X159430524Y-101061290D01*
X159430518Y-101061282D01*
X159318717Y-100949481D01*
X159318709Y-100949475D01*
X159181790Y-100870426D01*
X159181786Y-100870424D01*
X159181784Y-100870423D01*
X159029057Y-100829500D01*
X158870943Y-100829500D01*
X158718216Y-100870423D01*
X158718209Y-100870426D01*
X158581290Y-100949475D01*
X158581282Y-100949481D01*
X158537681Y-100993083D01*
X158476358Y-101026568D01*
X158406666Y-101021584D01*
X158362319Y-100993083D01*
X158318717Y-100949481D01*
X158318709Y-100949475D01*
X158181790Y-100870426D01*
X158181786Y-100870424D01*
X158181784Y-100870423D01*
X158029057Y-100829500D01*
X157870943Y-100829500D01*
X157718216Y-100870423D01*
X157718209Y-100870426D01*
X157581290Y-100949475D01*
X157581282Y-100949481D01*
X157469481Y-101061282D01*
X157469475Y-101061290D01*
X157390426Y-101198209D01*
X157390423Y-101198216D01*
X157349500Y-101350943D01*
X154100500Y-101350943D01*
X154100500Y-101300943D01*
X154059577Y-101148216D01*
X154009391Y-101061290D01*
X153980524Y-101011290D01*
X153980518Y-101011282D01*
X153868717Y-100899481D01*
X153868709Y-100899475D01*
X153731790Y-100820426D01*
X153731786Y-100820424D01*
X153731784Y-100820423D01*
X153579057Y-100779500D01*
X153420943Y-100779500D01*
X153268216Y-100820423D01*
X153268209Y-100820426D01*
X153131290Y-100899475D01*
X153131282Y-100899481D01*
X153019481Y-101011282D01*
X153019475Y-101011290D01*
X152940426Y-101148209D01*
X152940423Y-101148216D01*
X152899500Y-101300943D01*
X148714963Y-101300943D01*
X148688013Y-101165464D01*
X148688012Y-101165457D01*
X148644865Y-101061290D01*
X148614479Y-100987931D01*
X148614478Y-100987929D01*
X148551732Y-100894024D01*
X148507720Y-100828155D01*
X148507717Y-100828151D01*
X148371848Y-100692282D01*
X148371844Y-100692279D01*
X148212070Y-100585521D01*
X148212068Y-100585520D01*
X148161467Y-100564561D01*
X148107063Y-100520720D01*
X148084998Y-100454426D01*
X148102277Y-100386727D01*
X148153414Y-100339116D01*
X148161467Y-100335439D01*
X148212068Y-100314479D01*
X148212067Y-100314479D01*
X148212073Y-100314477D01*
X148371845Y-100207720D01*
X148507720Y-100071845D01*
X148614477Y-99912073D01*
X148688012Y-99734543D01*
X148725500Y-99546078D01*
X148725500Y-99353922D01*
X148725500Y-99353919D01*
X148725499Y-99353917D01*
X148714874Y-99300500D01*
X148688012Y-99165457D01*
X148614477Y-98987927D01*
X148507720Y-98828155D01*
X148507717Y-98828151D01*
X148371848Y-98692282D01*
X148371844Y-98692279D01*
X148212070Y-98585521D01*
X148212068Y-98585520D01*
X148161467Y-98564561D01*
X148107063Y-98520720D01*
X148084998Y-98454426D01*
X148102277Y-98386727D01*
X148153414Y-98339116D01*
X148161467Y-98335439D01*
X148212068Y-98314479D01*
X148212067Y-98314479D01*
X148212073Y-98314477D01*
X148337090Y-98230943D01*
X149499500Y-98230943D01*
X149499500Y-98389057D01*
X149522395Y-98474500D01*
X149540423Y-98541783D01*
X149540426Y-98541790D01*
X149619475Y-98678709D01*
X149619479Y-98678714D01*
X149619480Y-98678716D01*
X149731284Y-98790520D01*
X149731286Y-98790521D01*
X149731290Y-98790524D01*
X149868209Y-98869573D01*
X149868216Y-98869577D01*
X150020943Y-98910500D01*
X150020945Y-98910500D01*
X150179055Y-98910500D01*
X150179057Y-98910500D01*
X150331784Y-98869577D01*
X150468716Y-98790520D01*
X150580520Y-98678716D01*
X150613875Y-98620943D01*
X156299500Y-98620943D01*
X156299500Y-98779057D01*
X156330306Y-98894024D01*
X156340423Y-98931783D01*
X156340426Y-98931790D01*
X156419475Y-99068709D01*
X156419479Y-99068714D01*
X156419480Y-99068716D01*
X156531284Y-99180520D01*
X156531286Y-99180521D01*
X156531290Y-99180524D01*
X156668209Y-99259573D01*
X156668216Y-99259577D01*
X156820943Y-99300500D01*
X156820945Y-99300500D01*
X156979055Y-99300500D01*
X156979057Y-99300500D01*
X157131784Y-99259577D01*
X157268716Y-99180520D01*
X157380520Y-99068716D01*
X157459577Y-98931784D01*
X157500500Y-98779057D01*
X157500500Y-98620943D01*
X158699500Y-98620943D01*
X158699500Y-98779057D01*
X158730306Y-98894024D01*
X158740423Y-98931783D01*
X158740426Y-98931790D01*
X158819475Y-99068709D01*
X158819479Y-99068714D01*
X158819480Y-99068716D01*
X158931284Y-99180520D01*
X158931286Y-99180521D01*
X158931290Y-99180524D01*
X159068209Y-99259573D01*
X159068216Y-99259577D01*
X159220943Y-99300500D01*
X159220945Y-99300500D01*
X159379055Y-99300500D01*
X159379057Y-99300500D01*
X159531784Y-99259577D01*
X159668716Y-99180520D01*
X159780520Y-99068716D01*
X159859577Y-98931784D01*
X159900500Y-98779057D01*
X159900500Y-98620943D01*
X159859577Y-98468216D01*
X159859573Y-98468209D01*
X159780524Y-98331290D01*
X159780518Y-98331282D01*
X159668717Y-98219481D01*
X159668709Y-98219475D01*
X159531790Y-98140426D01*
X159531786Y-98140424D01*
X159531784Y-98140423D01*
X159379057Y-98099500D01*
X159220943Y-98099500D01*
X159068216Y-98140423D01*
X159068209Y-98140426D01*
X158931290Y-98219475D01*
X158931282Y-98219481D01*
X158819481Y-98331282D01*
X158819475Y-98331290D01*
X158740426Y-98468209D01*
X158740423Y-98468216D01*
X158699500Y-98620943D01*
X157500500Y-98620943D01*
X157459577Y-98468216D01*
X157459573Y-98468209D01*
X157380524Y-98331290D01*
X157380518Y-98331282D01*
X157268717Y-98219481D01*
X157268709Y-98219475D01*
X157131790Y-98140426D01*
X157131786Y-98140424D01*
X157131784Y-98140423D01*
X156979057Y-98099500D01*
X156820943Y-98099500D01*
X156668216Y-98140423D01*
X156668209Y-98140426D01*
X156531290Y-98219475D01*
X156531282Y-98219481D01*
X156419481Y-98331282D01*
X156419475Y-98331290D01*
X156340426Y-98468209D01*
X156340423Y-98468216D01*
X156299500Y-98620943D01*
X150613875Y-98620943D01*
X150634326Y-98585521D01*
X150654363Y-98550816D01*
X150656483Y-98547142D01*
X150659577Y-98541784D01*
X150700500Y-98389057D01*
X150700500Y-98230943D01*
X150659577Y-98078216D01*
X150659573Y-98078209D01*
X150580524Y-97941290D01*
X150580518Y-97941282D01*
X150468717Y-97829481D01*
X150468709Y-97829475D01*
X150331790Y-97750426D01*
X150331786Y-97750424D01*
X150331784Y-97750423D01*
X150179057Y-97709500D01*
X150020943Y-97709500D01*
X149868216Y-97750423D01*
X149868209Y-97750426D01*
X149731290Y-97829475D01*
X149731282Y-97829481D01*
X149619481Y-97941282D01*
X149619475Y-97941290D01*
X149540426Y-98078209D01*
X149540423Y-98078216D01*
X149499500Y-98230943D01*
X148337090Y-98230943D01*
X148371845Y-98207720D01*
X148371848Y-98207717D01*
X148444431Y-98135135D01*
X148507717Y-98071848D01*
X148507718Y-98071847D01*
X148507720Y-98071845D01*
X148614477Y-97912073D01*
X148688012Y-97734543D01*
X148725500Y-97546078D01*
X148725500Y-97353922D01*
X148725500Y-97353919D01*
X148725499Y-97353917D01*
X148688660Y-97168716D01*
X148688012Y-97165457D01*
X148614477Y-96987927D01*
X148507720Y-96828155D01*
X148507717Y-96828151D01*
X148371848Y-96692282D01*
X148371844Y-96692279D01*
X148212070Y-96585521D01*
X148212068Y-96585520D01*
X148161467Y-96564561D01*
X148107063Y-96520720D01*
X148084998Y-96454426D01*
X148102277Y-96386727D01*
X148153414Y-96339116D01*
X148161467Y-96335439D01*
X148212068Y-96314479D01*
X148212067Y-96314479D01*
X148212073Y-96314477D01*
X148371845Y-96207720D01*
X148458622Y-96120943D01*
X149499500Y-96120943D01*
X149499500Y-96279057D01*
X149540289Y-96431282D01*
X149540423Y-96431783D01*
X149540426Y-96431790D01*
X149619475Y-96568709D01*
X149619479Y-96568714D01*
X149619480Y-96568716D01*
X149731284Y-96680520D01*
X149731286Y-96680521D01*
X149731290Y-96680524D01*
X149868209Y-96759573D01*
X149868216Y-96759577D01*
X150020943Y-96800500D01*
X150020945Y-96800500D01*
X150179055Y-96800500D01*
X150179057Y-96800500D01*
X150331784Y-96759577D01*
X150398701Y-96720943D01*
X162999500Y-96720943D01*
X162999500Y-96879057D01*
X163003511Y-96894024D01*
X163040423Y-97031783D01*
X163040426Y-97031790D01*
X163119475Y-97168709D01*
X163119479Y-97168714D01*
X163119480Y-97168716D01*
X163231284Y-97280520D01*
X163231286Y-97280521D01*
X163231290Y-97280524D01*
X163358416Y-97353919D01*
X163368216Y-97359577D01*
X163520943Y-97400500D01*
X163520945Y-97400500D01*
X163679055Y-97400500D01*
X163679057Y-97400500D01*
X163831784Y-97359577D01*
X163968716Y-97280520D01*
X164080520Y-97168716D01*
X164159577Y-97031784D01*
X164200500Y-96879057D01*
X164200500Y-96720943D01*
X164159577Y-96568216D01*
X164154587Y-96559573D01*
X164080524Y-96431290D01*
X164080518Y-96431282D01*
X163968717Y-96319481D01*
X163968709Y-96319475D01*
X163831790Y-96240426D01*
X163831786Y-96240424D01*
X163831784Y-96240423D01*
X163679057Y-96199500D01*
X163520943Y-96199500D01*
X163368216Y-96240423D01*
X163368209Y-96240426D01*
X163231290Y-96319475D01*
X163231282Y-96319481D01*
X163119481Y-96431282D01*
X163119475Y-96431290D01*
X163040426Y-96568209D01*
X163040423Y-96568216D01*
X162999500Y-96720943D01*
X150398701Y-96720943D01*
X150468716Y-96680520D01*
X150580520Y-96568716D01*
X150659577Y-96431784D01*
X150700500Y-96279057D01*
X150700500Y-96120943D01*
X150659577Y-95968216D01*
X150632285Y-95920945D01*
X150632284Y-95920943D01*
X151199500Y-95920943D01*
X151199500Y-96079057D01*
X151240086Y-96230524D01*
X151240423Y-96231783D01*
X151240426Y-96231790D01*
X151319475Y-96368709D01*
X151319479Y-96368714D01*
X151319480Y-96368716D01*
X151431284Y-96480520D01*
X151431286Y-96480521D01*
X151431290Y-96480524D01*
X151488016Y-96513274D01*
X151568216Y-96559577D01*
X151720943Y-96600500D01*
X151720945Y-96600500D01*
X151879055Y-96600500D01*
X151879057Y-96600500D01*
X152031784Y-96559577D01*
X152168716Y-96480520D01*
X152280520Y-96368716D01*
X152359577Y-96231784D01*
X152400500Y-96079057D01*
X152400500Y-95920943D01*
X152359577Y-95768216D01*
X152354587Y-95759573D01*
X152280524Y-95631290D01*
X152280518Y-95631282D01*
X152168717Y-95519481D01*
X152168709Y-95519475D01*
X152031790Y-95440426D01*
X152031786Y-95440424D01*
X152031784Y-95440423D01*
X151879057Y-95399500D01*
X151720943Y-95399500D01*
X151568216Y-95440423D01*
X151568209Y-95440426D01*
X151431290Y-95519475D01*
X151431282Y-95519481D01*
X151319481Y-95631282D01*
X151319475Y-95631290D01*
X151240426Y-95768209D01*
X151240423Y-95768216D01*
X151199500Y-95920943D01*
X150632284Y-95920943D01*
X150580522Y-95831287D01*
X150580518Y-95831282D01*
X150468717Y-95719481D01*
X150468709Y-95719475D01*
X150331790Y-95640426D01*
X150331786Y-95640424D01*
X150331784Y-95640423D01*
X150179057Y-95599500D01*
X150020943Y-95599500D01*
X149868216Y-95640423D01*
X149868209Y-95640426D01*
X149731290Y-95719475D01*
X149731282Y-95719481D01*
X149619481Y-95831282D01*
X149619475Y-95831290D01*
X149540426Y-95968209D01*
X149540426Y-95968210D01*
X149540423Y-95968216D01*
X149499500Y-96120943D01*
X148458622Y-96120943D01*
X148507720Y-96071845D01*
X148538006Y-96026520D01*
X148558154Y-95996366D01*
X148614477Y-95912073D01*
X148688012Y-95734543D01*
X148725500Y-95546078D01*
X148725500Y-95353922D01*
X148725500Y-95353919D01*
X148725499Y-95353917D01*
X148710608Y-95279055D01*
X148688012Y-95165457D01*
X148688010Y-95165452D01*
X148669574Y-95120943D01*
X165649500Y-95120943D01*
X165649500Y-95279056D01*
X165690423Y-95431783D01*
X165690426Y-95431790D01*
X165769475Y-95568709D01*
X165769479Y-95568714D01*
X165769480Y-95568716D01*
X165881284Y-95680520D01*
X165881286Y-95680521D01*
X165881290Y-95680524D01*
X165974855Y-95734543D01*
X166018216Y-95759577D01*
X166170943Y-95800500D01*
X166170945Y-95800500D01*
X166329055Y-95800500D01*
X166329057Y-95800500D01*
X166481784Y-95759577D01*
X166618716Y-95680520D01*
X166628293Y-95670943D01*
X167049500Y-95670943D01*
X167049500Y-95829057D01*
X167086788Y-95968216D01*
X167090423Y-95981783D01*
X167090426Y-95981790D01*
X167169475Y-96118709D01*
X167169479Y-96118714D01*
X167169480Y-96118716D01*
X167281284Y-96230520D01*
X167281286Y-96230521D01*
X167281290Y-96230524D01*
X167365353Y-96279057D01*
X167418216Y-96309577D01*
X167570943Y-96350500D01*
X167570945Y-96350500D01*
X167729055Y-96350500D01*
X167729057Y-96350500D01*
X167881784Y-96309577D01*
X168018716Y-96230520D01*
X168130520Y-96118716D01*
X168209577Y-95981784D01*
X168250500Y-95829057D01*
X168250500Y-95670943D01*
X168209577Y-95518216D01*
X168209573Y-95518209D01*
X168130524Y-95381290D01*
X168130518Y-95381282D01*
X168018717Y-95269481D01*
X168018709Y-95269475D01*
X167881790Y-95190426D01*
X167881786Y-95190424D01*
X167881784Y-95190423D01*
X167729057Y-95149500D01*
X167570943Y-95149500D01*
X167418216Y-95190423D01*
X167418209Y-95190426D01*
X167281290Y-95269475D01*
X167281282Y-95269481D01*
X167169481Y-95381282D01*
X167169475Y-95381290D01*
X167090426Y-95518209D01*
X167090423Y-95518216D01*
X167049500Y-95670943D01*
X166628293Y-95670943D01*
X166730520Y-95568716D01*
X166809577Y-95431784D01*
X166850500Y-95279057D01*
X166850500Y-95120943D01*
X166809577Y-94968216D01*
X166772484Y-94903968D01*
X166730524Y-94831290D01*
X166730518Y-94831282D01*
X166618717Y-94719481D01*
X166618709Y-94719475D01*
X166481790Y-94640426D01*
X166481786Y-94640424D01*
X166481784Y-94640423D01*
X166329057Y-94599500D01*
X166170943Y-94599500D01*
X166018216Y-94640423D01*
X166018209Y-94640426D01*
X165881290Y-94719475D01*
X165881282Y-94719481D01*
X165769481Y-94831282D01*
X165769475Y-94831290D01*
X165690426Y-94968209D01*
X165690423Y-94968216D01*
X165649500Y-95120943D01*
X148669574Y-95120943D01*
X148614479Y-94987931D01*
X148614478Y-94987929D01*
X148601301Y-94968209D01*
X148507720Y-94828155D01*
X148507717Y-94828151D01*
X148371848Y-94692282D01*
X148371844Y-94692279D01*
X148212070Y-94585521D01*
X148212068Y-94585520D01*
X148161467Y-94564561D01*
X148107063Y-94520720D01*
X148084998Y-94454426D01*
X148102277Y-94386727D01*
X148153414Y-94339116D01*
X148161467Y-94335439D01*
X148212068Y-94314479D01*
X148212067Y-94314479D01*
X148212073Y-94314477D01*
X148371845Y-94207720D01*
X148507720Y-94071845D01*
X148614477Y-93912073D01*
X148688012Y-93734543D01*
X148725500Y-93546078D01*
X148725500Y-93353922D01*
X148725500Y-93353919D01*
X148725499Y-93353917D01*
X148688013Y-93165464D01*
X148688012Y-93165457D01*
X148688010Y-93165452D01*
X148614479Y-92987931D01*
X148614478Y-92987929D01*
X148551732Y-92894024D01*
X148507720Y-92828155D01*
X148507717Y-92828151D01*
X148371848Y-92692282D01*
X148371844Y-92692279D01*
X148212070Y-92585521D01*
X148212068Y-92585520D01*
X148161467Y-92564561D01*
X148107063Y-92520720D01*
X148084998Y-92454426D01*
X148102277Y-92386727D01*
X148153414Y-92339116D01*
X148161467Y-92335439D01*
X148212068Y-92314479D01*
X148212067Y-92314479D01*
X148212073Y-92314477D01*
X148371845Y-92207720D01*
X148507720Y-92071845D01*
X148614477Y-91912073D01*
X148688012Y-91734543D01*
X148725500Y-91546078D01*
X148725500Y-91353922D01*
X148725500Y-91353919D01*
X148725499Y-91353917D01*
X148688013Y-91165464D01*
X148688012Y-91165457D01*
X148669574Y-91120943D01*
X148614479Y-90987931D01*
X148614478Y-90987929D01*
X148603128Y-90970943D01*
X148507720Y-90828155D01*
X148507717Y-90828151D01*
X148371848Y-90692282D01*
X148371844Y-90692279D01*
X148212070Y-90585521D01*
X148212068Y-90585520D01*
X148161467Y-90564561D01*
X148107063Y-90520720D01*
X148084998Y-90454426D01*
X148102277Y-90386727D01*
X148153414Y-90339116D01*
X148161467Y-90335439D01*
X148212068Y-90314479D01*
X148212067Y-90314479D01*
X148212073Y-90314477D01*
X148371845Y-90207720D01*
X148507720Y-90071845D01*
X148614477Y-89912073D01*
X148688012Y-89734543D01*
X148694695Y-89700943D01*
X149499500Y-89700943D01*
X149499500Y-89859057D01*
X149538867Y-90005975D01*
X149540423Y-90011783D01*
X149540426Y-90011790D01*
X149619475Y-90148709D01*
X149619479Y-90148714D01*
X149619480Y-90148716D01*
X149731284Y-90260520D01*
X149731286Y-90260521D01*
X149731290Y-90260524D01*
X149868209Y-90339573D01*
X149868216Y-90339577D01*
X150020943Y-90380500D01*
X150020945Y-90380500D01*
X150179055Y-90380500D01*
X150179057Y-90380500D01*
X150331784Y-90339577D01*
X150468716Y-90260520D01*
X150580520Y-90148716D01*
X150659577Y-90011784D01*
X150700500Y-89859057D01*
X150700500Y-89700943D01*
X150659577Y-89548216D01*
X150643831Y-89520943D01*
X151199500Y-89520943D01*
X151199500Y-89679057D01*
X151214369Y-89734547D01*
X151240423Y-89831783D01*
X151240423Y-89831784D01*
X151301746Y-89938001D01*
X151318217Y-90005902D01*
X151301746Y-90061999D01*
X151240423Y-90168215D01*
X151240423Y-90168216D01*
X151199500Y-90320943D01*
X151199500Y-90479057D01*
X151228028Y-90585523D01*
X151240423Y-90631783D01*
X151240423Y-90631784D01*
X151301746Y-90738001D01*
X151318217Y-90805902D01*
X151301746Y-90861999D01*
X151240423Y-90968215D01*
X151240423Y-90968216D01*
X151199500Y-91120943D01*
X151199500Y-91279057D01*
X151236922Y-91418716D01*
X151240423Y-91431783D01*
X151240423Y-91431784D01*
X151301746Y-91538001D01*
X151318217Y-91605902D01*
X151301746Y-91661999D01*
X151240423Y-91768215D01*
X151240423Y-91768216D01*
X151199500Y-91920943D01*
X151199500Y-92079057D01*
X151233975Y-92207717D01*
X151240423Y-92231783D01*
X151240423Y-92231784D01*
X151301746Y-92338001D01*
X151318217Y-92405902D01*
X151301746Y-92461999D01*
X151240423Y-92568215D01*
X151240423Y-92568216D01*
X151199500Y-92720943D01*
X151199500Y-92879057D01*
X151203511Y-92894024D01*
X151240423Y-93031783D01*
X151240423Y-93031784D01*
X151301746Y-93138001D01*
X151318217Y-93205902D01*
X151301746Y-93261999D01*
X151240423Y-93368215D01*
X151240423Y-93368216D01*
X151199500Y-93520943D01*
X151199500Y-93679057D01*
X151240086Y-93830524D01*
X151240423Y-93831783D01*
X151240423Y-93831784D01*
X151301746Y-93938001D01*
X151318217Y-94005902D01*
X151301746Y-94061999D01*
X151240423Y-94168215D01*
X151240423Y-94168216D01*
X151199500Y-94320943D01*
X151199500Y-94479057D01*
X151228028Y-94585523D01*
X151240423Y-94631783D01*
X151240426Y-94631790D01*
X151319475Y-94768709D01*
X151319479Y-94768714D01*
X151319480Y-94768716D01*
X151431284Y-94880520D01*
X151431286Y-94880521D01*
X151431290Y-94880524D01*
X151568209Y-94959573D01*
X151568216Y-94959577D01*
X151720943Y-95000500D01*
X151720945Y-95000500D01*
X151879055Y-95000500D01*
X151879057Y-95000500D01*
X152031784Y-94959577D01*
X152168716Y-94880520D01*
X152280520Y-94768716D01*
X152359577Y-94631784D01*
X152400500Y-94479057D01*
X152400500Y-94320943D01*
X162999500Y-94320943D01*
X162999500Y-94479057D01*
X163028028Y-94585523D01*
X163040423Y-94631783D01*
X163040426Y-94631790D01*
X163119475Y-94768709D01*
X163119479Y-94768714D01*
X163119480Y-94768716D01*
X163231284Y-94880520D01*
X163231286Y-94880521D01*
X163231290Y-94880524D01*
X163368209Y-94959573D01*
X163368216Y-94959577D01*
X163520943Y-95000500D01*
X163520945Y-95000500D01*
X163679055Y-95000500D01*
X163679057Y-95000500D01*
X163831784Y-94959577D01*
X163968716Y-94880520D01*
X164080520Y-94768716D01*
X164159577Y-94631784D01*
X164200500Y-94479057D01*
X164200500Y-94320943D01*
X164159577Y-94168216D01*
X164112089Y-94085963D01*
X164080524Y-94031290D01*
X164080518Y-94031282D01*
X163968717Y-93919481D01*
X163968709Y-93919475D01*
X163831790Y-93840426D01*
X163831786Y-93840424D01*
X163831784Y-93840423D01*
X163679057Y-93799500D01*
X163520943Y-93799500D01*
X163368216Y-93840423D01*
X163368209Y-93840426D01*
X163231290Y-93919475D01*
X163231282Y-93919481D01*
X163119481Y-94031282D01*
X163119475Y-94031290D01*
X163040426Y-94168209D01*
X163040423Y-94168216D01*
X162999500Y-94320943D01*
X152400500Y-94320943D01*
X152359577Y-94168216D01*
X152312089Y-94085963D01*
X152298254Y-94061999D01*
X152281781Y-93994099D01*
X152298254Y-93938001D01*
X152335853Y-93872873D01*
X152359577Y-93831784D01*
X152400500Y-93679057D01*
X152400500Y-93520943D01*
X152359577Y-93368216D01*
X152303416Y-93270943D01*
X165324500Y-93270943D01*
X165324500Y-93429057D01*
X165349122Y-93520945D01*
X165365423Y-93581783D01*
X165365426Y-93581790D01*
X165444475Y-93718709D01*
X165444479Y-93718714D01*
X165444480Y-93718716D01*
X165556284Y-93830520D01*
X165556286Y-93830521D01*
X165556290Y-93830524D01*
X165693209Y-93909573D01*
X165693216Y-93909577D01*
X165845943Y-93950500D01*
X165845945Y-93950500D01*
X166004055Y-93950500D01*
X166004057Y-93950500D01*
X166156784Y-93909577D01*
X166293716Y-93830520D01*
X166405520Y-93718716D01*
X166484577Y-93581784D01*
X166525500Y-93429057D01*
X166525500Y-93270943D01*
X166484577Y-93118216D01*
X166484573Y-93118209D01*
X166405524Y-92981290D01*
X166405518Y-92981282D01*
X166293717Y-92869481D01*
X166293709Y-92869475D01*
X166156790Y-92790426D01*
X166156786Y-92790424D01*
X166156784Y-92790423D01*
X166004057Y-92749500D01*
X165845943Y-92749500D01*
X165693216Y-92790423D01*
X165693209Y-92790426D01*
X165556290Y-92869475D01*
X165556282Y-92869481D01*
X165444481Y-92981282D01*
X165444475Y-92981290D01*
X165365426Y-93118209D01*
X165365423Y-93118216D01*
X165324500Y-93270943D01*
X152303416Y-93270943D01*
X152298252Y-93261998D01*
X152281782Y-93194099D01*
X152298254Y-93138001D01*
X152335853Y-93072873D01*
X152359577Y-93031784D01*
X152400500Y-92879057D01*
X152400500Y-92720943D01*
X152359577Y-92568216D01*
X152354587Y-92559573D01*
X152298254Y-92461999D01*
X152281781Y-92394099D01*
X152298254Y-92338001D01*
X152335853Y-92272873D01*
X152359577Y-92231784D01*
X152400500Y-92079057D01*
X152400500Y-91920943D01*
X152359577Y-91768216D01*
X152359573Y-91768209D01*
X152298254Y-91661999D01*
X152281781Y-91594099D01*
X152298254Y-91538001D01*
X152335853Y-91472873D01*
X152359577Y-91431784D01*
X152400500Y-91279057D01*
X152400500Y-91120943D01*
X152359577Y-90968216D01*
X152322484Y-90903968D01*
X152298254Y-90861999D01*
X152281781Y-90794099D01*
X152298254Y-90738001D01*
X152335853Y-90672873D01*
X152359577Y-90631784D01*
X152400500Y-90479057D01*
X152400500Y-90320943D01*
X152359577Y-90168216D01*
X152359573Y-90168209D01*
X152298254Y-90061999D01*
X152281781Y-89994099D01*
X152298254Y-89938001D01*
X152338254Y-89868716D01*
X152359577Y-89831784D01*
X152400500Y-89679057D01*
X152400500Y-89520943D01*
X152359577Y-89368216D01*
X152359573Y-89368209D01*
X152280524Y-89231290D01*
X152280518Y-89231282D01*
X152168717Y-89119481D01*
X152168709Y-89119475D01*
X152031790Y-89040426D01*
X152031786Y-89040424D01*
X152031784Y-89040423D01*
X151879057Y-88999500D01*
X151720943Y-88999500D01*
X151568216Y-89040423D01*
X151568209Y-89040426D01*
X151431290Y-89119475D01*
X151431282Y-89119481D01*
X151319481Y-89231282D01*
X151319475Y-89231290D01*
X151240426Y-89368209D01*
X151240423Y-89368216D01*
X151199500Y-89520943D01*
X150643831Y-89520943D01*
X150586097Y-89420943D01*
X150580524Y-89411290D01*
X150580518Y-89411282D01*
X150468717Y-89299481D01*
X150468709Y-89299475D01*
X150331790Y-89220426D01*
X150331786Y-89220424D01*
X150331784Y-89220423D01*
X150179057Y-89179500D01*
X150020943Y-89179500D01*
X149868216Y-89220423D01*
X149868209Y-89220426D01*
X149731290Y-89299475D01*
X149731282Y-89299481D01*
X149619481Y-89411282D01*
X149619475Y-89411290D01*
X149540426Y-89548209D01*
X149540423Y-89548216D01*
X149499500Y-89700943D01*
X148694695Y-89700943D01*
X148718940Y-89579056D01*
X148725500Y-89546080D01*
X148725500Y-89353919D01*
X148725499Y-89353917D01*
X148708452Y-89268216D01*
X148688012Y-89165457D01*
X148688010Y-89165452D01*
X148614479Y-88987931D01*
X148614478Y-88987929D01*
X148582737Y-88940426D01*
X148507720Y-88828155D01*
X148507717Y-88828151D01*
X148400509Y-88720943D01*
X162999500Y-88720943D01*
X162999500Y-88879057D01*
X163037127Y-89019481D01*
X163040423Y-89031783D01*
X163040423Y-89031784D01*
X163101746Y-89138001D01*
X163118217Y-89205902D01*
X163101746Y-89261999D01*
X163040423Y-89368215D01*
X163040423Y-89368216D01*
X162999500Y-89520943D01*
X162999500Y-89679057D01*
X163014369Y-89734547D01*
X163040423Y-89831783D01*
X163040423Y-89831784D01*
X163101746Y-89938001D01*
X163118217Y-90005902D01*
X163101746Y-90061999D01*
X163040423Y-90168215D01*
X163040423Y-90168216D01*
X162999500Y-90320943D01*
X162999500Y-90479057D01*
X163028028Y-90585523D01*
X163040423Y-90631783D01*
X163040423Y-90631784D01*
X163101746Y-90738001D01*
X163118217Y-90805902D01*
X163101746Y-90861999D01*
X163040423Y-90968215D01*
X163040423Y-90968216D01*
X162999500Y-91120943D01*
X162999500Y-91279057D01*
X163036922Y-91418716D01*
X163040423Y-91431783D01*
X163040423Y-91431784D01*
X163101746Y-91538001D01*
X163118217Y-91605902D01*
X163101746Y-91661999D01*
X163040423Y-91768215D01*
X163040423Y-91768216D01*
X162999500Y-91920943D01*
X162999500Y-92079057D01*
X163033975Y-92207717D01*
X163040423Y-92231783D01*
X163040426Y-92231790D01*
X163119475Y-92368709D01*
X163119479Y-92368714D01*
X163119480Y-92368716D01*
X163231284Y-92480520D01*
X163231286Y-92480521D01*
X163231290Y-92480524D01*
X163288016Y-92513274D01*
X163368216Y-92559577D01*
X163520943Y-92600500D01*
X163520945Y-92600500D01*
X163679055Y-92600500D01*
X163679057Y-92600500D01*
X163831784Y-92559577D01*
X163968716Y-92480520D01*
X164080520Y-92368716D01*
X164159577Y-92231784D01*
X164200500Y-92079057D01*
X164200500Y-91920943D01*
X164159577Y-91768216D01*
X164159573Y-91768209D01*
X164098254Y-91661999D01*
X164081781Y-91594099D01*
X164098254Y-91538001D01*
X164135853Y-91472873D01*
X164159577Y-91431784D01*
X164200500Y-91279057D01*
X164200500Y-91120943D01*
X164160308Y-90970943D01*
X167074500Y-90970943D01*
X167074500Y-91129057D01*
X167114693Y-91279057D01*
X167115423Y-91281783D01*
X167115426Y-91281790D01*
X167194475Y-91418709D01*
X167194479Y-91418714D01*
X167194480Y-91418716D01*
X167306284Y-91530520D01*
X167306286Y-91530521D01*
X167306290Y-91530524D01*
X167333238Y-91546082D01*
X167443216Y-91609577D01*
X167595943Y-91650500D01*
X167595945Y-91650500D01*
X167754055Y-91650500D01*
X167754057Y-91650500D01*
X167906784Y-91609577D01*
X168043716Y-91530520D01*
X168155520Y-91418716D01*
X168234577Y-91281784D01*
X168275500Y-91129057D01*
X168275500Y-90970943D01*
X168234577Y-90818216D01*
X168208471Y-90772999D01*
X168155524Y-90681290D01*
X168155518Y-90681282D01*
X168043717Y-90569481D01*
X168043709Y-90569475D01*
X167906790Y-90490426D01*
X167906786Y-90490424D01*
X167906784Y-90490423D01*
X167754057Y-90449500D01*
X167595943Y-90449500D01*
X167443216Y-90490423D01*
X167443209Y-90490426D01*
X167306290Y-90569475D01*
X167306282Y-90569481D01*
X167194481Y-90681282D01*
X167194475Y-90681290D01*
X167115426Y-90818209D01*
X167115423Y-90818216D01*
X167074500Y-90970943D01*
X164160308Y-90970943D01*
X164159577Y-90968216D01*
X164096313Y-90858639D01*
X164094584Y-90855157D01*
X164089139Y-90824431D01*
X164081781Y-90794099D01*
X164083018Y-90789884D01*
X164082394Y-90786359D01*
X164087976Y-90772999D01*
X164098254Y-90738001D01*
X164135853Y-90672873D01*
X164159577Y-90631784D01*
X164200500Y-90479057D01*
X164200500Y-90320943D01*
X164159577Y-90168216D01*
X164159573Y-90168209D01*
X164098254Y-90061999D01*
X164081781Y-89994099D01*
X164098254Y-89938001D01*
X164138254Y-89868716D01*
X164159577Y-89831784D01*
X164200500Y-89679057D01*
X164200500Y-89520943D01*
X164173705Y-89420943D01*
X166599500Y-89420943D01*
X166599500Y-89579057D01*
X166626295Y-89679055D01*
X166640423Y-89731783D01*
X166640426Y-89731790D01*
X166719475Y-89868709D01*
X166719479Y-89868714D01*
X166719480Y-89868716D01*
X166831284Y-89980520D01*
X166831286Y-89980521D01*
X166831290Y-89980524D01*
X166951418Y-90049879D01*
X166968216Y-90059577D01*
X167120943Y-90100500D01*
X167120945Y-90100500D01*
X167279055Y-90100500D01*
X167279057Y-90100500D01*
X167431784Y-90059577D01*
X167568716Y-89980520D01*
X167680520Y-89868716D01*
X167759577Y-89731784D01*
X167800500Y-89579057D01*
X167800500Y-89420943D01*
X167759577Y-89268216D01*
X167738258Y-89231290D01*
X167680524Y-89131290D01*
X167680518Y-89131282D01*
X167568717Y-89019481D01*
X167568709Y-89019475D01*
X167431790Y-88940426D01*
X167431786Y-88940424D01*
X167431784Y-88940423D01*
X167279057Y-88899500D01*
X167120943Y-88899500D01*
X166968216Y-88940423D01*
X166968209Y-88940426D01*
X166831290Y-89019475D01*
X166831282Y-89019481D01*
X166719481Y-89131282D01*
X166719475Y-89131290D01*
X166640426Y-89268209D01*
X166640423Y-89268216D01*
X166599500Y-89420943D01*
X164173705Y-89420943D01*
X164159577Y-89368216D01*
X164094943Y-89256265D01*
X164092264Y-89250217D01*
X164088519Y-89221875D01*
X164081781Y-89194099D01*
X164083897Y-89186890D01*
X164083113Y-89180949D01*
X164089839Y-89166654D01*
X164098254Y-89138001D01*
X164135853Y-89072873D01*
X164159577Y-89031784D01*
X164200500Y-88879057D01*
X164200500Y-88720943D01*
X164159577Y-88568216D01*
X164155344Y-88560884D01*
X164080524Y-88431290D01*
X164080518Y-88431282D01*
X163968717Y-88319481D01*
X163968709Y-88319475D01*
X163831790Y-88240426D01*
X163831786Y-88240424D01*
X163831784Y-88240423D01*
X163679057Y-88199500D01*
X163520943Y-88199500D01*
X163368216Y-88240423D01*
X163368209Y-88240426D01*
X163231290Y-88319475D01*
X163231282Y-88319481D01*
X163119481Y-88431282D01*
X163119475Y-88431290D01*
X163040426Y-88568209D01*
X163040423Y-88568216D01*
X162999500Y-88720943D01*
X148400509Y-88720943D01*
X148371848Y-88692282D01*
X148371844Y-88692279D01*
X148212070Y-88585521D01*
X148212068Y-88585520D01*
X148161467Y-88564561D01*
X148107063Y-88520720D01*
X148084998Y-88454426D01*
X148102277Y-88386727D01*
X148153414Y-88339116D01*
X148161467Y-88335439D01*
X148212068Y-88314479D01*
X148212067Y-88314479D01*
X148212073Y-88314477D01*
X148371845Y-88207720D01*
X148507720Y-88071845D01*
X148614477Y-87912073D01*
X148688012Y-87734543D01*
X148725500Y-87546078D01*
X148725500Y-87353922D01*
X148725500Y-87353919D01*
X148725499Y-87353917D01*
X148688013Y-87165464D01*
X148688012Y-87165457D01*
X148614477Y-86987927D01*
X148558153Y-86903633D01*
X148543503Y-86881707D01*
X148507720Y-86828155D01*
X148507717Y-86828151D01*
X148500509Y-86820943D01*
X153899500Y-86820943D01*
X153899500Y-86979057D01*
X153901878Y-86987929D01*
X153940423Y-87131783D01*
X153940426Y-87131790D01*
X154019475Y-87268709D01*
X154019479Y-87268714D01*
X154019480Y-87268716D01*
X154131284Y-87380520D01*
X154131286Y-87380521D01*
X154131290Y-87380524D01*
X154268209Y-87459573D01*
X154268216Y-87459577D01*
X154420943Y-87500500D01*
X154420945Y-87500500D01*
X154579055Y-87500500D01*
X154579057Y-87500500D01*
X154731784Y-87459577D01*
X154868716Y-87380520D01*
X154980520Y-87268716D01*
X155059577Y-87131784D01*
X155100500Y-86979057D01*
X155100500Y-86820943D01*
X161099500Y-86820943D01*
X161099500Y-86979057D01*
X161101878Y-86987929D01*
X161140423Y-87131783D01*
X161140426Y-87131790D01*
X161219475Y-87268709D01*
X161219479Y-87268714D01*
X161219480Y-87268716D01*
X161331284Y-87380520D01*
X161331286Y-87380521D01*
X161331290Y-87380524D01*
X161468209Y-87459573D01*
X161468216Y-87459577D01*
X161620943Y-87500500D01*
X161620945Y-87500500D01*
X161779055Y-87500500D01*
X161779057Y-87500500D01*
X161931784Y-87459577D01*
X162068716Y-87380520D01*
X162180520Y-87268716D01*
X162259577Y-87131784D01*
X162300500Y-86979057D01*
X162300500Y-86820943D01*
X162259577Y-86668216D01*
X162211835Y-86585523D01*
X162180524Y-86531290D01*
X162180518Y-86531282D01*
X162068717Y-86419481D01*
X162068709Y-86419475D01*
X161931790Y-86340426D01*
X161931786Y-86340424D01*
X161931784Y-86340423D01*
X161779057Y-86299500D01*
X161620943Y-86299500D01*
X161468216Y-86340423D01*
X161468209Y-86340426D01*
X161331290Y-86419475D01*
X161331282Y-86419481D01*
X161219481Y-86531282D01*
X161219475Y-86531290D01*
X161140426Y-86668209D01*
X161140423Y-86668216D01*
X161099500Y-86820943D01*
X155100500Y-86820943D01*
X155059577Y-86668216D01*
X155011835Y-86585523D01*
X154980524Y-86531290D01*
X154980518Y-86531282D01*
X154868717Y-86419481D01*
X154868709Y-86419475D01*
X154731790Y-86340426D01*
X154731786Y-86340424D01*
X154731784Y-86340423D01*
X154579057Y-86299500D01*
X154420943Y-86299500D01*
X154268216Y-86340423D01*
X154268209Y-86340426D01*
X154131290Y-86419475D01*
X154131282Y-86419481D01*
X154019481Y-86531282D01*
X154019475Y-86531290D01*
X153940426Y-86668209D01*
X153940423Y-86668216D01*
X153899500Y-86820943D01*
X148500509Y-86820943D01*
X148371847Y-86692281D01*
X148353211Y-86679829D01*
X148312460Y-86652600D01*
X148267656Y-86598990D01*
X148258949Y-86529665D01*
X148289103Y-86466637D01*
X148348546Y-86429917D01*
X148381351Y-86425499D01*
X148469864Y-86425499D01*
X148469879Y-86425497D01*
X148469882Y-86425497D01*
X148494987Y-86422586D01*
X148494988Y-86422585D01*
X148494991Y-86422585D01*
X148597765Y-86377206D01*
X148677206Y-86297765D01*
X148722585Y-86194991D01*
X148725500Y-86169865D01*
X148725499Y-85070943D01*
X152079500Y-85070943D01*
X152079500Y-85229056D01*
X152120423Y-85381783D01*
X152120426Y-85381790D01*
X152199475Y-85518709D01*
X152199479Y-85518714D01*
X152199480Y-85518716D01*
X152311284Y-85630520D01*
X152311286Y-85630521D01*
X152311290Y-85630524D01*
X152448209Y-85709573D01*
X152448216Y-85709577D01*
X152600943Y-85750500D01*
X152600945Y-85750500D01*
X152759055Y-85750500D01*
X152759057Y-85750500D01*
X152911784Y-85709577D01*
X153048716Y-85630520D01*
X153160520Y-85518716D01*
X153239577Y-85381784D01*
X153280500Y-85229057D01*
X153280500Y-85070943D01*
X161249500Y-85070943D01*
X161249500Y-85229056D01*
X161290423Y-85381783D01*
X161290426Y-85381790D01*
X161369475Y-85518709D01*
X161369479Y-85518714D01*
X161369480Y-85518716D01*
X161481284Y-85630520D01*
X161481286Y-85630521D01*
X161481290Y-85630524D01*
X161618209Y-85709573D01*
X161618216Y-85709577D01*
X161770943Y-85750500D01*
X161770945Y-85750500D01*
X161929055Y-85750500D01*
X161929057Y-85750500D01*
X162081784Y-85709577D01*
X162218716Y-85630520D01*
X162330520Y-85518716D01*
X162409577Y-85381784D01*
X162450500Y-85229057D01*
X162450500Y-85070943D01*
X162409577Y-84918216D01*
X162409573Y-84918209D01*
X162330524Y-84781290D01*
X162330518Y-84781282D01*
X162218717Y-84669481D01*
X162218709Y-84669475D01*
X162081790Y-84590426D01*
X162081786Y-84590424D01*
X162081784Y-84590423D01*
X161929057Y-84549500D01*
X161770943Y-84549500D01*
X161618216Y-84590423D01*
X161618209Y-84590426D01*
X161481290Y-84669475D01*
X161481282Y-84669481D01*
X161369481Y-84781282D01*
X161369475Y-84781290D01*
X161290426Y-84918209D01*
X161290423Y-84918216D01*
X161249500Y-85070943D01*
X153280500Y-85070943D01*
X153239577Y-84918216D01*
X153239573Y-84918209D01*
X153160524Y-84781290D01*
X153160518Y-84781282D01*
X153048717Y-84669481D01*
X153048709Y-84669475D01*
X152911790Y-84590426D01*
X152911786Y-84590424D01*
X152911784Y-84590423D01*
X152759057Y-84549500D01*
X152600943Y-84549500D01*
X152448216Y-84590423D01*
X152448209Y-84590426D01*
X152311290Y-84669475D01*
X152311282Y-84669481D01*
X152199481Y-84781282D01*
X152199475Y-84781290D01*
X152120426Y-84918209D01*
X152120423Y-84918216D01*
X152079500Y-85070943D01*
X148725499Y-85070943D01*
X148725499Y-84730136D01*
X148725497Y-84730117D01*
X148722586Y-84705012D01*
X148722585Y-84705010D01*
X148722585Y-84705009D01*
X148677206Y-84602235D01*
X148597765Y-84522794D01*
X148528413Y-84492172D01*
X148494992Y-84477415D01*
X148469865Y-84474500D01*
X147030143Y-84474500D01*
X147030117Y-84474502D01*
X147005012Y-84477413D01*
X147005011Y-84477414D01*
X146924585Y-84512925D01*
X146855307Y-84521996D01*
X146792122Y-84492172D01*
X146755092Y-84432922D01*
X146750500Y-84399490D01*
X146750500Y-83953051D01*
X146750649Y-83946967D01*
X146762757Y-83700499D01*
X146767052Y-83613068D01*
X146768245Y-83600962D01*
X146790036Y-83454057D01*
X146816849Y-83273296D01*
X146819219Y-83261382D01*
X146879446Y-83020943D01*
X149799500Y-83020943D01*
X149799500Y-83179057D01*
X149840289Y-83331282D01*
X149840423Y-83331783D01*
X149840426Y-83331790D01*
X149919475Y-83468709D01*
X149919479Y-83468714D01*
X149919480Y-83468716D01*
X150031284Y-83580520D01*
X150031286Y-83580521D01*
X150031290Y-83580524D01*
X150168209Y-83659573D01*
X150168216Y-83659577D01*
X150320943Y-83700500D01*
X150320945Y-83700500D01*
X150479055Y-83700500D01*
X150479057Y-83700500D01*
X150631784Y-83659577D01*
X150698701Y-83620943D01*
X153624500Y-83620943D01*
X153624500Y-83779057D01*
X153652649Y-83884108D01*
X153665423Y-83931783D01*
X153665426Y-83931790D01*
X153744475Y-84068709D01*
X153744479Y-84068714D01*
X153744480Y-84068716D01*
X153856284Y-84180520D01*
X153856286Y-84180521D01*
X153856290Y-84180524D01*
X153993209Y-84259573D01*
X153993216Y-84259577D01*
X154145943Y-84300500D01*
X154145945Y-84300500D01*
X154304055Y-84300500D01*
X154304057Y-84300500D01*
X154456784Y-84259577D01*
X154593716Y-84180520D01*
X154705520Y-84068716D01*
X154784577Y-83931784D01*
X154825500Y-83779057D01*
X154825500Y-83620943D01*
X154784577Y-83468216D01*
X154705523Y-83331290D01*
X154705522Y-83331287D01*
X154705518Y-83331282D01*
X154670179Y-83295943D01*
X162124500Y-83295943D01*
X162124500Y-83454057D01*
X162143546Y-83525135D01*
X162165423Y-83606783D01*
X162165426Y-83606790D01*
X162244475Y-83743709D01*
X162244479Y-83743714D01*
X162244480Y-83743716D01*
X162356284Y-83855520D01*
X162356286Y-83855521D01*
X162356290Y-83855524D01*
X162405800Y-83884108D01*
X162493216Y-83934577D01*
X162645943Y-83975500D01*
X162645945Y-83975500D01*
X162804055Y-83975500D01*
X162804057Y-83975500D01*
X162956784Y-83934577D01*
X163093716Y-83855520D01*
X163205520Y-83743716D01*
X163284577Y-83606784D01*
X163325500Y-83454057D01*
X163325500Y-83295943D01*
X163284577Y-83143216D01*
X163245085Y-83074813D01*
X163213984Y-83020943D01*
X166849500Y-83020943D01*
X166849500Y-83179057D01*
X166890289Y-83331282D01*
X166890423Y-83331783D01*
X166890426Y-83331790D01*
X166969475Y-83468709D01*
X166969479Y-83468714D01*
X166969480Y-83468716D01*
X167081284Y-83580520D01*
X167081286Y-83580521D01*
X167081290Y-83580524D01*
X167218209Y-83659573D01*
X167218216Y-83659577D01*
X167370943Y-83700500D01*
X167370945Y-83700500D01*
X167529055Y-83700500D01*
X167529057Y-83700500D01*
X167681784Y-83659577D01*
X167818716Y-83580520D01*
X167930520Y-83468716D01*
X168009577Y-83331784D01*
X168050500Y-83179057D01*
X168050500Y-83020943D01*
X168009577Y-82868216D01*
X167955471Y-82774500D01*
X167930524Y-82731290D01*
X167930518Y-82731282D01*
X167818717Y-82619481D01*
X167818709Y-82619475D01*
X167681790Y-82540426D01*
X167681786Y-82540424D01*
X167681784Y-82540423D01*
X167529057Y-82499500D01*
X167370943Y-82499500D01*
X167218216Y-82540423D01*
X167218209Y-82540426D01*
X167081290Y-82619475D01*
X167081282Y-82619481D01*
X166969481Y-82731282D01*
X166969475Y-82731290D01*
X166890426Y-82868209D01*
X166890423Y-82868216D01*
X166849500Y-83020943D01*
X163213984Y-83020943D01*
X163205522Y-83006287D01*
X163205518Y-83006282D01*
X163093717Y-82894481D01*
X163093709Y-82894475D01*
X162956790Y-82815426D01*
X162956786Y-82815424D01*
X162956784Y-82815423D01*
X162804057Y-82774500D01*
X162645943Y-82774500D01*
X162493216Y-82815423D01*
X162493209Y-82815426D01*
X162356290Y-82894475D01*
X162356282Y-82894481D01*
X162244481Y-83006282D01*
X162244475Y-83006290D01*
X162165426Y-83143209D01*
X162165423Y-83143216D01*
X162124500Y-83295943D01*
X154670179Y-83295943D01*
X154593717Y-83219481D01*
X154593709Y-83219475D01*
X154456790Y-83140426D01*
X154456786Y-83140424D01*
X154456784Y-83140423D01*
X154304057Y-83099500D01*
X154145943Y-83099500D01*
X153993216Y-83140423D01*
X153993209Y-83140426D01*
X153856290Y-83219475D01*
X153856282Y-83219481D01*
X153744481Y-83331282D01*
X153744475Y-83331290D01*
X153665426Y-83468209D01*
X153665423Y-83468216D01*
X153624500Y-83620943D01*
X150698701Y-83620943D01*
X150768716Y-83580520D01*
X150880520Y-83468716D01*
X150959577Y-83331784D01*
X151000500Y-83179057D01*
X151000500Y-83020943D01*
X150959577Y-82868216D01*
X150905471Y-82774500D01*
X150880524Y-82731290D01*
X150880518Y-82731282D01*
X150768717Y-82619481D01*
X150768709Y-82619475D01*
X150631790Y-82540426D01*
X150631786Y-82540424D01*
X150631784Y-82540423D01*
X150479057Y-82499500D01*
X150320943Y-82499500D01*
X150168216Y-82540423D01*
X150168209Y-82540426D01*
X150031290Y-82619475D01*
X150031282Y-82619481D01*
X149919481Y-82731282D01*
X149919475Y-82731290D01*
X149840426Y-82868209D01*
X149840423Y-82868216D01*
X149799500Y-83020943D01*
X146879446Y-83020943D01*
X146899712Y-82940037D01*
X146903240Y-82928411D01*
X147014835Y-82616525D01*
X147019476Y-82605318D01*
X147161124Y-82305828D01*
X147166840Y-82295136D01*
X147337145Y-82010998D01*
X147343898Y-82000893D01*
X147366110Y-81970943D01*
X147849500Y-81970943D01*
X147849500Y-82129057D01*
X147875501Y-82226092D01*
X147890423Y-82281783D01*
X147890426Y-82281790D01*
X147969475Y-82418709D01*
X147969479Y-82418714D01*
X147969480Y-82418716D01*
X148081284Y-82530520D01*
X148081286Y-82530521D01*
X148081290Y-82530524D01*
X148193633Y-82595384D01*
X148218216Y-82609577D01*
X148370943Y-82650500D01*
X148370945Y-82650500D01*
X148529055Y-82650500D01*
X148529057Y-82650500D01*
X148681784Y-82609577D01*
X148818716Y-82530520D01*
X148930520Y-82418716D01*
X149009577Y-82281784D01*
X149050500Y-82129057D01*
X149050500Y-81995943D01*
X168974500Y-81995943D01*
X168974500Y-82154057D01*
X169008725Y-82281784D01*
X169015423Y-82306783D01*
X169015426Y-82306790D01*
X169094475Y-82443709D01*
X169094479Y-82443714D01*
X169094480Y-82443716D01*
X169206284Y-82555520D01*
X169206286Y-82555521D01*
X169206290Y-82555524D01*
X169343209Y-82634573D01*
X169343216Y-82634577D01*
X169495943Y-82675500D01*
X169495945Y-82675500D01*
X169654055Y-82675500D01*
X169654057Y-82675500D01*
X169806784Y-82634577D01*
X169943716Y-82555520D01*
X170055520Y-82443716D01*
X170134577Y-82306784D01*
X170175500Y-82154057D01*
X170175500Y-81995943D01*
X170134577Y-81843216D01*
X170134573Y-81843209D01*
X170055524Y-81706290D01*
X170055518Y-81706282D01*
X169943717Y-81594481D01*
X169943709Y-81594475D01*
X169806790Y-81515426D01*
X169806786Y-81515424D01*
X169806784Y-81515423D01*
X169654057Y-81474500D01*
X169495943Y-81474500D01*
X169343216Y-81515423D01*
X169343209Y-81515426D01*
X169206290Y-81594475D01*
X169206282Y-81594481D01*
X169094481Y-81706282D01*
X169094475Y-81706290D01*
X169015426Y-81843209D01*
X169015423Y-81843216D01*
X168974500Y-81995943D01*
X149050500Y-81995943D01*
X149050500Y-81970943D01*
X149009577Y-81818216D01*
X148958612Y-81729941D01*
X148930524Y-81681290D01*
X148930518Y-81681282D01*
X148818717Y-81569481D01*
X148818709Y-81569475D01*
X148681790Y-81490426D01*
X148681786Y-81490424D01*
X148681784Y-81490423D01*
X148529057Y-81449500D01*
X148370943Y-81449500D01*
X148218216Y-81490423D01*
X148218209Y-81490426D01*
X148081290Y-81569475D01*
X148081282Y-81569481D01*
X147969481Y-81681282D01*
X147969475Y-81681290D01*
X147890426Y-81818209D01*
X147890423Y-81818216D01*
X147849500Y-81970943D01*
X147366110Y-81970943D01*
X147426919Y-81888952D01*
X147426921Y-81888949D01*
X147541232Y-81734818D01*
X147548935Y-81725433D01*
X147771405Y-81479975D01*
X147779975Y-81471405D01*
X148025433Y-81248935D01*
X148029078Y-81245943D01*
X157149500Y-81245943D01*
X157149500Y-81404057D01*
X157183134Y-81529579D01*
X157190423Y-81556783D01*
X157190426Y-81556790D01*
X157269475Y-81693709D01*
X157269479Y-81693714D01*
X157269480Y-81693716D01*
X157381284Y-81805520D01*
X157381286Y-81805521D01*
X157381290Y-81805524D01*
X157492829Y-81869920D01*
X157518216Y-81884577D01*
X157670943Y-81925500D01*
X157670945Y-81925500D01*
X157829055Y-81925500D01*
X157829057Y-81925500D01*
X157981784Y-81884577D01*
X157988970Y-81880427D01*
X157988973Y-81880427D01*
X158118709Y-81805524D01*
X158118708Y-81805524D01*
X158118716Y-81805520D01*
X158230520Y-81693716D01*
X158309577Y-81556784D01*
X158350500Y-81404057D01*
X158350500Y-81245943D01*
X158309577Y-81093216D01*
X158277200Y-81037137D01*
X158230524Y-80956290D01*
X158230518Y-80956282D01*
X158118717Y-80844481D01*
X158118709Y-80844475D01*
X157981790Y-80765426D01*
X157981786Y-80765424D01*
X157981784Y-80765423D01*
X157829057Y-80724500D01*
X157670943Y-80724500D01*
X157518216Y-80765423D01*
X157518209Y-80765426D01*
X157381290Y-80844475D01*
X157381282Y-80844481D01*
X157269481Y-80956282D01*
X157269475Y-80956290D01*
X157190426Y-81093209D01*
X157190423Y-81093216D01*
X157149500Y-81245943D01*
X148029078Y-81245943D01*
X148034818Y-81241232D01*
X148300905Y-81043888D01*
X148310998Y-81037145D01*
X148595136Y-80866840D01*
X148605828Y-80861124D01*
X148905318Y-80719476D01*
X148916525Y-80714835D01*
X149228412Y-80603239D01*
X149240043Y-80599710D01*
X149561385Y-80519218D01*
X149573296Y-80516849D01*
X149900962Y-80468244D01*
X149913068Y-80467052D01*
X150246967Y-80450648D01*
X150253051Y-80450500D01*
X150315892Y-80450500D01*
X167684108Y-80450500D01*
X167746949Y-80450500D01*
X167753032Y-80450648D01*
G37*
%TD.AperFunction*%
%TA.AperFunction,Conductor*%
G36*
X147350000Y-109502661D02*
G01*
X147377259Y-109604394D01*
X147429920Y-109695606D01*
X147504394Y-109770080D01*
X147595606Y-109822741D01*
X147697339Y-109850000D01*
X147703553Y-109850000D01*
X147113568Y-110439983D01*
X147113568Y-110439984D01*
X147134166Y-110454950D01*
X147134169Y-110454952D01*
X147143770Y-110459844D01*
X147194565Y-110507819D01*
X147211360Y-110575640D01*
X147188822Y-110641774D01*
X147156365Y-110673430D01*
X147128155Y-110692279D01*
X147128151Y-110692282D01*
X146992282Y-110828151D01*
X146992277Y-110828157D01*
X146977601Y-110850122D01*
X146923989Y-110894926D01*
X146854664Y-110903633D01*
X146791636Y-110873478D01*
X146754918Y-110814034D01*
X146750500Y-110781230D01*
X146750500Y-110147309D01*
X146770185Y-110080270D01*
X146786819Y-110059628D01*
X147350000Y-109496447D01*
X147350000Y-109502661D01*
G37*
%TD.AperFunction*%
%TA.AperFunction,Conductor*%
G36*
X146955703Y-108025056D02*
G01*
X146977601Y-108049877D01*
X146984722Y-108060534D01*
X146992281Y-108071847D01*
X147128151Y-108207717D01*
X147128155Y-108207720D01*
X147156365Y-108226570D01*
X147201170Y-108280183D01*
X147209877Y-108349508D01*
X147179722Y-108412535D01*
X147143773Y-108440155D01*
X147134168Y-108445049D01*
X147113568Y-108460015D01*
X147703554Y-109050000D01*
X147697339Y-109050000D01*
X147595606Y-109077259D01*
X147504394Y-109129920D01*
X147429920Y-109204394D01*
X147377259Y-109295606D01*
X147350000Y-109397339D01*
X147350000Y-109403552D01*
X146786819Y-108840371D01*
X146753334Y-108779048D01*
X146750500Y-108752690D01*
X146750500Y-108118769D01*
X146770185Y-108051730D01*
X146822989Y-108005975D01*
X146892147Y-107996031D01*
X146955703Y-108025056D01*
G37*
%TD.AperFunction*%
%TD*%
M02*
