%TF.GenerationSoftware,KiCad,Pcbnew,9.0.4*%
%TF.CreationDate,2025-12-08T21:07:13-08:00*%
%TF.ProjectId,ATmega32u4_Dev,41546d65-6761-4333-9275-345f4465762e,rev?*%
%TF.SameCoordinates,Original*%
%TF.FileFunction,Copper,L1,Top*%
%TF.FilePolarity,Positive*%
%FSLAX46Y46*%
G04 Gerber Fmt 4.6, Leading zero omitted, Abs format (unit mm)*
G04 Created by KiCad (PCBNEW 9.0.4) date 2025-12-08 21:07:13*
%MOMM*%
%LPD*%
G01*
G04 APERTURE LIST*
G04 Aperture macros list*
%AMRoundRect*
0 Rectangle with rounded corners*
0 $1 Rounding radius*
0 $2 $3 $4 $5 $6 $7 $8 $9 X,Y pos of 4 corners*
0 Add a 4 corners polygon primitive as box body*
4,1,4,$2,$3,$4,$5,$6,$7,$8,$9,$2,$3,0*
0 Add four circle primitives for the rounded corners*
1,1,$1+$1,$2,$3*
1,1,$1+$1,$4,$5*
1,1,$1+$1,$6,$7*
1,1,$1+$1,$8,$9*
0 Add four rect primitives between the rounded corners*
20,1,$1+$1,$2,$3,$4,$5,0*
20,1,$1+$1,$4,$5,$6,$7,0*
20,1,$1+$1,$6,$7,$8,$9,0*
20,1,$1+$1,$8,$9,$2,$3,0*%
G04 Aperture macros list end*
%TA.AperFunction,SMDPad,CuDef*%
%ADD10RoundRect,0.140000X-0.140000X-0.170000X0.140000X-0.170000X0.140000X0.170000X-0.140000X0.170000X0*%
%TD*%
%TA.AperFunction,ComponentPad*%
%ADD11R,1.350000X1.350000*%
%TD*%
%TA.AperFunction,ComponentPad*%
%ADD12C,1.350000*%
%TD*%
%TA.AperFunction,SMDPad,CuDef*%
%ADD13RoundRect,0.140000X-0.170000X0.140000X-0.170000X-0.140000X0.170000X-0.140000X0.170000X0.140000X0*%
%TD*%
%TA.AperFunction,SMDPad,CuDef*%
%ADD14RoundRect,0.135000X-0.185000X0.135000X-0.185000X-0.135000X0.185000X-0.135000X0.185000X0.135000X0*%
%TD*%
%TA.AperFunction,ComponentPad*%
%ADD15R,0.850000X0.850000*%
%TD*%
%TA.AperFunction,ComponentPad*%
%ADD16C,0.850000*%
%TD*%
%TA.AperFunction,SMDPad,CuDef*%
%ADD17RoundRect,0.218750X0.256250X-0.218750X0.256250X0.218750X-0.256250X0.218750X-0.256250X-0.218750X0*%
%TD*%
%TA.AperFunction,SMDPad,CuDef*%
%ADD18R,0.600000X1.150000*%
%TD*%
%TA.AperFunction,SMDPad,CuDef*%
%ADD19R,0.300000X1.150000*%
%TD*%
%TA.AperFunction,ComponentPad*%
%ADD20O,1.000000X2.100000*%
%TD*%
%TA.AperFunction,ComponentPad*%
%ADD21O,1.000000X1.800000*%
%TD*%
%TA.AperFunction,SMDPad,CuDef*%
%ADD22RoundRect,0.135000X0.185000X-0.135000X0.185000X0.135000X-0.185000X0.135000X-0.185000X-0.135000X0*%
%TD*%
%TA.AperFunction,SMDPad,CuDef*%
%ADD23RoundRect,0.250000X-0.275000X-0.350000X0.275000X-0.350000X0.275000X0.350000X-0.275000X0.350000X0*%
%TD*%
%TA.AperFunction,SMDPad,CuDef*%
%ADD24RoundRect,0.250000X0.325000X0.450000X-0.325000X0.450000X-0.325000X-0.450000X0.325000X-0.450000X0*%
%TD*%
%TA.AperFunction,SMDPad,CuDef*%
%ADD25RoundRect,0.135000X-0.135000X-0.185000X0.135000X-0.185000X0.135000X0.185000X-0.135000X0.185000X0*%
%TD*%
%TA.AperFunction,SMDPad,CuDef*%
%ADD26R,0.500000X1.500000*%
%TD*%
%TA.AperFunction,SMDPad,CuDef*%
%ADD27R,1.500000X0.500000*%
%TD*%
%TA.AperFunction,SMDPad,CuDef*%
%ADD28RoundRect,0.140000X0.170000X-0.140000X0.170000X0.140000X-0.170000X0.140000X-0.170000X-0.140000X0*%
%TD*%
%TA.AperFunction,SMDPad,CuDef*%
%ADD29RoundRect,0.150000X0.150000X-0.512500X0.150000X0.512500X-0.150000X0.512500X-0.150000X-0.512500X0*%
%TD*%
%TA.AperFunction,SMDPad,CuDef*%
%ADD30R,1.050000X1.300000*%
%TD*%
%TA.AperFunction,SMDPad,CuDef*%
%ADD31RoundRect,0.075000X-0.275000X0.390000X-0.275000X-0.390000X0.275000X-0.390000X0.275000X0.390000X0*%
%TD*%
%TA.AperFunction,SMDPad,CuDef*%
%ADD32RoundRect,0.075000X-0.275000X0.075000X-0.275000X-0.075000X0.275000X-0.075000X0.275000X0.075000X0*%
%TD*%
%TA.AperFunction,SMDPad,CuDef*%
%ADD33RoundRect,0.135000X0.135000X0.185000X-0.135000X0.185000X-0.135000X-0.185000X0.135000X-0.185000X0*%
%TD*%
%TA.AperFunction,SMDPad,CuDef*%
%ADD34RoundRect,0.300000X-0.700000X-0.700000X0.700000X-0.700000X0.700000X0.700000X-0.700000X0.700000X0*%
%TD*%
%TA.AperFunction,ViaPad*%
%ADD35C,0.600000*%
%TD*%
%TA.AperFunction,Conductor*%
%ADD36C,0.200000*%
%TD*%
%TA.AperFunction,Conductor*%
%ADD37C,0.500000*%
%TD*%
%TA.AperFunction,Conductor*%
%ADD38C,0.400000*%
%TD*%
%TA.AperFunction,Conductor*%
%ADD39C,0.300000*%
%TD*%
%TA.AperFunction,Conductor*%
%ADD40C,0.312500*%
%TD*%
%TA.AperFunction,Conductor*%
%ADD41C,0.275000*%
%TD*%
%TA.AperFunction,Conductor*%
%ADD42C,0.265000*%
%TD*%
G04 APERTURE END LIST*
D10*
%TO.P,C1,1*%
%TO.N,Net-(C1-Pad1)*%
X150690000Y-109400000D03*
%TO.P,C1,2*%
%TO.N,GND*%
X151650000Y-109400000D03*
%TD*%
%TO.P,C9,1*%
%TO.N,Xin*%
X166240000Y-89500000D03*
%TO.P,C9,2*%
%TO.N,GND*%
X167200000Y-89500000D03*
%TD*%
D11*
%TO.P,J3,1,Pin_1*%
%TO.N,/PD7*%
X170250000Y-85450000D03*
D12*
%TO.P,J3,2,Pin_2*%
%TO.N,/PD6*%
X170250000Y-87450000D03*
%TO.P,J3,3,Pin_3*%
%TO.N,/PD4*%
X170250000Y-89450000D03*
%TO.P,J3,4,Pin_4*%
%TO.N,/PD5*%
X170250000Y-91450000D03*
%TO.P,J3,5,Pin_5*%
%TO.N,/PD3*%
X170250000Y-93450000D03*
%TO.P,J3,6,Pin_6*%
%TO.N,/PD2*%
X170250000Y-95450000D03*
%TO.P,J3,7,Pin_7*%
%TO.N,/PD1*%
X170250000Y-97450000D03*
%TO.P,J3,8,Pin_8*%
%TO.N,/PD0*%
X170250000Y-99450000D03*
%TO.P,J3,9,Pin_9*%
%TO.N,/PB7*%
X170250000Y-101450000D03*
%TO.P,J3,10,Pin_10*%
%TO.N,/PB0*%
X170250000Y-103450000D03*
%TO.P,J3,11,Pin_11*%
%TO.N,SCL*%
X170250000Y-105450000D03*
%TO.P,J3,12,Pin_12*%
%TO.N,MOSI*%
X170250000Y-107450000D03*
%TO.P,J3,13,Pin_13*%
%TO.N,MISO*%
X170250000Y-109450000D03*
%TO.P,J3,14,Pin_14*%
%TO.N,Reset*%
X170250000Y-111450000D03*
%TD*%
D13*
%TO.P,C5,1*%
%TO.N,MCU_5V*%
X150100000Y-97350000D03*
%TO.P,C5,2*%
%TO.N,GND*%
X150100000Y-98310000D03*
%TD*%
D14*
%TO.P,R1,1*%
%TO.N,GND*%
X155950000Y-106940000D03*
%TO.P,R1,2*%
%TO.N,Net-(J1-CC1)*%
X155950000Y-107960000D03*
%TD*%
D15*
%TO.P,J2,1,Pin_1*%
%TO.N,MCU_5V*%
X160950000Y-102500000D03*
D16*
%TO.P,J2,2,Pin_2*%
%TO.N,SCL*%
X160950000Y-101500000D03*
%TO.P,J2,3,Pin_3*%
%TO.N,GND*%
X161950000Y-102500000D03*
%TO.P,J2,4,Pin_4*%
%TO.N,MOSI*%
X161950000Y-101500000D03*
%TO.P,J2,5,Pin_5*%
%TO.N,Reset*%
X162950000Y-102500000D03*
%TO.P,J2,6,Pin_6*%
%TO.N,MISO*%
X162950000Y-101500000D03*
%TD*%
D17*
%TO.P,D1,1,K*%
%TO.N,GND*%
X151200000Y-113837500D03*
%TO.P,D1,2,A*%
%TO.N,Net-(D1-A)*%
X151200000Y-112262500D03*
%TD*%
D18*
%TO.P,J1,A1_B12,GND*%
%TO.N,GND*%
X155650000Y-110795000D03*
%TO.P,J1,A4_B9,VBUS*%
%TO.N,/VBUS*%
X156450000Y-110795000D03*
D19*
%TO.P,J1,A5,CC1*%
%TO.N,Net-(J1-CC1)*%
X157600000Y-110795000D03*
%TO.P,J1,A6,DP1*%
%TO.N,Net-(J1-DP1)*%
X158600000Y-110795000D03*
%TO.P,J1,A7,DN1*%
%TO.N,Net-(J1-DN1)*%
X159100000Y-110795000D03*
%TO.P,J1,A8,SBU1*%
%TO.N,unconnected-(J1-SBU1-PadA8)*%
X160100000Y-110795000D03*
D18*
%TO.P,J1,B1_A12,GND*%
%TO.N,GND*%
X162050000Y-110795000D03*
%TO.P,J1,B4_A9,VBUS*%
%TO.N,/VBUS*%
X161250000Y-110795000D03*
D19*
%TO.P,J1,B5,CC2*%
%TO.N,Net-(J1-CC2)*%
X160600000Y-110795000D03*
%TO.P,J1,B6,DP2*%
%TO.N,Net-(J1-DP1)*%
X159600000Y-110795000D03*
%TO.P,J1,B7,DN2*%
%TO.N,Net-(J1-DN1)*%
X158100000Y-110795000D03*
%TO.P,J1,B8,SBU2*%
%TO.N,unconnected-(J1-SBU2-PadB8)*%
X157100000Y-110795000D03*
D20*
%TO.P,J1,SH1,SHELL_GND*%
%TO.N,GND*%
X154530000Y-111370000D03*
%TO.P,J1,SH2,SHELL_GND*%
X163170000Y-111370000D03*
D21*
%TO.P,J1,SH3,SHELL_GND*%
X154530000Y-115550000D03*
%TO.P,J1,SH4,SHELL_GND*%
X163170000Y-115550000D03*
%TD*%
D22*
%TO.P,R2,1*%
%TO.N,Net-(J1-CC2)*%
X161200000Y-108060000D03*
%TO.P,R2,2*%
%TO.N,GND*%
X161200000Y-107040000D03*
%TD*%
D10*
%TO.P,C3,1*%
%TO.N,MCU_5V*%
X160890000Y-85150000D03*
%TO.P,C3,2*%
%TO.N,GND*%
X161850000Y-85150000D03*
%TD*%
D23*
%TO.P,FB1,1*%
%TO.N,Net-(C1-Pad1)*%
X150675000Y-105850000D03*
%TO.P,FB1,2*%
%TO.N,MCU_5V*%
X152975000Y-105850000D03*
%TD*%
D24*
%TO.P,F1,1*%
%TO.N,/VBUS*%
X152750000Y-107850000D03*
%TO.P,F1,2*%
%TO.N,Net-(C1-Pad1)*%
X150700000Y-107850000D03*
%TD*%
D17*
%TO.P,D3,1,K*%
%TO.N,GND*%
X162750000Y-108662500D03*
%TO.P,D3,2,A*%
%TO.N,Net-(D3-A)*%
X162750000Y-107087500D03*
%TD*%
D25*
%TO.P,R6,1*%
%TO.N,GND*%
X152680000Y-85150000D03*
%TO.P,R6,2*%
%TO.N,Net-(U1-~{HWB}{slash}PE2)*%
X153700000Y-85150000D03*
%TD*%
D14*
%TO.P,R5,1*%
%TO.N,MCU_5V*%
X165600000Y-97000000D03*
%TO.P,R5,2*%
%TO.N,Reset*%
X165600000Y-98020000D03*
%TD*%
D26*
%TO.P,U1,1,PE6*%
%TO.N,/PE6*%
X153700000Y-98700000D03*
%TO.P,U1,2,UVCC*%
%TO.N,MCU_5V*%
X154500000Y-98700000D03*
%TO.P,U1,3,D-*%
%TO.N,Net-(U1-D-)*%
X155300000Y-98700000D03*
%TO.P,U1,4,D+*%
%TO.N,Net-(U1-D+)*%
X156100000Y-98700000D03*
%TO.P,U1,5,UGND*%
%TO.N,GND*%
X156900000Y-98700000D03*
%TO.P,U1,6,UCAP*%
%TO.N,Net-(U1-UCAP)*%
X157700000Y-98700000D03*
%TO.P,U1,7,VBUS*%
%TO.N,MCU_5V*%
X158500000Y-98700000D03*
%TO.P,U1,8,PB0*%
%TO.N,/PB0*%
X159300000Y-98700000D03*
%TO.P,U1,9,PB1*%
%TO.N,SCL*%
X160100000Y-98700000D03*
%TO.P,U1,10,PB2*%
%TO.N,MOSI*%
X160900000Y-98700000D03*
%TO.P,U1,11,PB3*%
%TO.N,MISO*%
X161700000Y-98700000D03*
D27*
%TO.P,U1,12,PB7*%
%TO.N,/PB7*%
X163600000Y-96800000D03*
%TO.P,U1,13,~{RESET}*%
%TO.N,Reset*%
X163600000Y-96000000D03*
%TO.P,U1,14,VCC*%
%TO.N,MCU_5V*%
X163600000Y-95200000D03*
%TO.P,U1,15,GND*%
%TO.N,GND*%
X163600000Y-94400000D03*
%TO.P,U1,16,XTAL2*%
%TO.N,Xout*%
X163600000Y-93600000D03*
%TO.P,U1,17,XTAL1*%
%TO.N,Xin*%
X163600000Y-92800000D03*
%TO.P,U1,18,PD0*%
%TO.N,/PD0*%
X163600000Y-92000000D03*
%TO.P,U1,19,PD1*%
%TO.N,/PD1*%
X163600000Y-91200000D03*
%TO.P,U1,20,PD2*%
%TO.N,/PD2*%
X163600000Y-90400000D03*
%TO.P,U1,21,PD3*%
%TO.N,/PD3*%
X163600000Y-89600000D03*
%TO.P,U1,22,PD5*%
%TO.N,/PD5*%
X163600000Y-88800000D03*
D26*
%TO.P,U1,23,GND*%
%TO.N,GND*%
X161700000Y-86900000D03*
%TO.P,U1,24,AVCC*%
%TO.N,MCU_5V*%
X160900000Y-86900000D03*
%TO.P,U1,25,PD4*%
%TO.N,/PD4*%
X160100000Y-86900000D03*
%TO.P,U1,26,PD6*%
%TO.N,/PD6*%
X159300000Y-86900000D03*
%TO.P,U1,27,PD7*%
%TO.N,/PD7*%
X158500000Y-86900000D03*
%TO.P,U1,28,PB4*%
%TO.N,/PB4*%
X157700000Y-86900000D03*
%TO.P,U1,29,PB5*%
%TO.N,/PB5*%
X156900000Y-86900000D03*
%TO.P,U1,30,PB6*%
%TO.N,/PB6*%
X156100000Y-86900000D03*
%TO.P,U1,31,PC6*%
%TO.N,/PC6*%
X155300000Y-86900000D03*
%TO.P,U1,32,PC7*%
%TO.N,/PC7*%
X154500000Y-86900000D03*
%TO.P,U1,33,~{HWB}/PE2*%
%TO.N,Net-(U1-~{HWB}{slash}PE2)*%
X153700000Y-86900000D03*
D27*
%TO.P,U1,34,VCC*%
%TO.N,MCU_5V*%
X151800000Y-88800000D03*
%TO.P,U1,35,GND*%
%TO.N,GND*%
X151800000Y-89600000D03*
%TO.P,U1,36,PF7*%
%TO.N,/PF7*%
X151800000Y-90400000D03*
%TO.P,U1,37,PF6*%
%TO.N,/PF6*%
X151800000Y-91200000D03*
%TO.P,U1,38,PF5*%
%TO.N,/PF5*%
X151800000Y-92000000D03*
%TO.P,U1,39,PF4*%
%TO.N,/PF4*%
X151800000Y-92800000D03*
%TO.P,U1,40,PF1*%
%TO.N,/PF1*%
X151800000Y-93600000D03*
%TO.P,U1,41,PF0*%
%TO.N,/PF0*%
X151800000Y-94400000D03*
%TO.P,U1,42,AREF*%
%TO.N,Net-(U1-AREF)*%
X151800000Y-95200000D03*
%TO.P,U1,43,GND*%
%TO.N,GND*%
X151800000Y-96000000D03*
%TO.P,U1,44,AVCC*%
%TO.N,MCU_5V*%
X151800000Y-96800000D03*
%TD*%
D28*
%TO.P,C10,1*%
%TO.N,GND*%
X150100000Y-96200000D03*
%TO.P,C10,2*%
%TO.N,Net-(U1-AREF)*%
X150100000Y-95240000D03*
%TD*%
D13*
%TO.P,C4,1*%
%TO.N,MCU_5V*%
X150100000Y-88820000D03*
%TO.P,C4,2*%
%TO.N,GND*%
X150100000Y-89780000D03*
%TD*%
D29*
%TO.P,U2,1,I/O1*%
%TO.N,Net-(J1-DN1)*%
X157900000Y-108375000D03*
%TO.P,U2,2,GND*%
%TO.N,GND*%
X158850000Y-108375000D03*
%TO.P,U2,3,I/O2*%
%TO.N,Net-(J1-DP1)*%
X159800000Y-108375000D03*
%TO.P,U2,4,I/O2*%
%TO.N,/USB_P*%
X159800000Y-106100000D03*
%TO.P,U2,5,VBUS*%
%TO.N,MCU_5V*%
X158850000Y-106100000D03*
%TO.P,U2,6,I/O1*%
%TO.N,/USB_N*%
X157900000Y-106100000D03*
%TD*%
D13*
%TO.P,C7,1*%
%TO.N,Net-(U1-UCAP)*%
X157950000Y-100470000D03*
%TO.P,C7,2*%
%TO.N,GND*%
X157950000Y-101430000D03*
%TD*%
D30*
%TO.P,Y1,1*%
%TO.N,Xin*%
X165925000Y-91050000D03*
%TO.P,Y1,2,GND*%
%TO.N,GND*%
X165925000Y-93350000D03*
%TO.P,Y1,3*%
%TO.N,Xout*%
X167675000Y-93350000D03*
%TO.P,Y1,4,GND*%
%TO.N,GND*%
X167675000Y-91050000D03*
%TD*%
D13*
%TO.P,C13,1*%
%TO.N,MCU_5V*%
X158950000Y-100470000D03*
%TO.P,C13,2*%
%TO.N,GND*%
X158950000Y-101430000D03*
%TD*%
D31*
%TO.P,D2,1,K*%
%TO.N,MCU_5V*%
X154550000Y-105765000D03*
D32*
%TO.P,D2,2,A*%
%TO.N,GND*%
X154550000Y-106650000D03*
%TD*%
D33*
%TO.P,R7,1*%
%TO.N,MCU_5V*%
X163750000Y-105687500D03*
%TO.P,R7,2*%
%TO.N,Net-(D3-A)*%
X162730000Y-105687500D03*
%TD*%
%TO.P,R8,1*%
%TO.N,/PC7*%
X152250000Y-110837500D03*
%TO.P,R8,2*%
%TO.N,Net-(D1-A)*%
X151230000Y-110837500D03*
%TD*%
D34*
%TO.P,SW1,1,1*%
%TO.N,GND*%
X166325000Y-107975000D03*
%TO.P,SW1,2,2*%
%TO.N,Reset*%
X166325000Y-103975000D03*
%TD*%
D22*
%TO.P,R3,1*%
%TO.N,/USB_P*%
X156200000Y-101500000D03*
%TO.P,R3,2*%
%TO.N,Net-(U1-D+)*%
X156200000Y-100480000D03*
%TD*%
D10*
%TO.P,C11,1*%
%TO.N,MCU_5V*%
X160990000Y-104300000D03*
%TO.P,C11,2*%
%TO.N,GND*%
X161950000Y-104300000D03*
%TD*%
%TO.P,C12,1*%
%TO.N,MCU_5V*%
X165290000Y-95200000D03*
%TO.P,C12,2*%
%TO.N,GND*%
X166250000Y-95200000D03*
%TD*%
D22*
%TO.P,R4,1*%
%TO.N,/USB_N*%
X155200000Y-101500000D03*
%TO.P,R4,2*%
%TO.N,Net-(U1-D-)*%
X155200000Y-100480000D03*
%TD*%
D11*
%TO.P,J4,1,Pin_1*%
%TO.N,/PB4*%
X147750000Y-85450000D03*
D12*
%TO.P,J4,2,Pin_2*%
%TO.N,/PB5*%
X147750000Y-87450000D03*
%TO.P,J4,3,Pin_3*%
%TO.N,/PB6*%
X147750000Y-89450000D03*
%TO.P,J4,4,Pin_4*%
%TO.N,/PC6*%
X147750000Y-91450000D03*
%TO.P,J4,5,Pin_5*%
%TO.N,GND*%
X147750000Y-93450000D03*
%TO.P,J4,6,Pin_6*%
%TO.N,/PF7*%
X147750000Y-95450000D03*
%TO.P,J4,7,Pin_7*%
%TO.N,/PF6*%
X147750000Y-97450000D03*
%TO.P,J4,8,Pin_8*%
%TO.N,/PF0*%
X147750000Y-99450000D03*
%TO.P,J4,9,Pin_9*%
%TO.N,/PF1*%
X147750000Y-101450000D03*
%TO.P,J4,10,Pin_10*%
%TO.N,/PF4*%
X147750000Y-103450000D03*
%TO.P,J4,11,Pin_11*%
%TO.N,/PF5*%
X147750000Y-105450000D03*
%TO.P,J4,12,Pin_12*%
%TO.N,/PE6*%
X147750000Y-107450000D03*
%TO.P,J4,13,Pin_13*%
%TO.N,MCU_5V*%
X147750000Y-109450000D03*
%TO.P,J4,14,Pin_14*%
%TO.N,GND*%
X147750000Y-111450000D03*
%TD*%
D13*
%TO.P,C8,1*%
%TO.N,Xout*%
X167650000Y-94790000D03*
%TO.P,C8,2*%
%TO.N,GND*%
X167650000Y-95750000D03*
%TD*%
%TO.P,C6,1*%
%TO.N,MCU_5V*%
X153500000Y-100420000D03*
%TO.P,C6,2*%
%TO.N,GND*%
X153500000Y-101380000D03*
%TD*%
D35*
%TO.N,GND*%
X148450000Y-82050000D03*
X156900000Y-98700000D03*
X161850000Y-85150000D03*
X152680000Y-85150000D03*
X151800000Y-89600000D03*
X151800000Y-96000000D03*
X161950000Y-104300000D03*
X155000000Y-107550000D03*
X166250000Y-95200000D03*
X154225000Y-83700000D03*
X167450000Y-83100000D03*
X155650000Y-110795000D03*
X153500000Y-101380000D03*
X150100000Y-98310000D03*
X158850000Y-108650000D03*
X167675000Y-91050000D03*
X150400000Y-83100000D03*
X167200000Y-89500000D03*
X162725000Y-83375000D03*
X157750000Y-81325000D03*
X162750000Y-108662500D03*
X155950000Y-106940000D03*
X157950000Y-101430000D03*
X151650000Y-109400000D03*
X151200000Y-113837500D03*
X162050000Y-110795000D03*
X150100000Y-96200000D03*
X161700000Y-86900000D03*
X163600000Y-94400000D03*
X167650000Y-95750000D03*
X150100000Y-89780000D03*
X158950000Y-101430000D03*
X165925000Y-93350000D03*
X161200000Y-107040000D03*
X169575000Y-82075000D03*
X166325000Y-107975000D03*
%TO.N,MCU_5V*%
X158850000Y-106100000D03*
X150100000Y-88820000D03*
X158950000Y-100470000D03*
X160900000Y-85160000D03*
X153500000Y-100420000D03*
X160990000Y-104300000D03*
X150100000Y-97350000D03*
X163750000Y-105687500D03*
X165300000Y-95200000D03*
X154550000Y-105765000D03*
%TO.N,/VBUS*%
X156450000Y-110795000D03*
X161250000Y-110795000D03*
%TO.N,/PD2*%
X163600000Y-90400000D03*
%TO.N,/PB7*%
X163600000Y-96800000D03*
%TO.N,/PD0*%
X163600000Y-92000000D03*
%TO.N,/PB0*%
X159300000Y-98700000D03*
%TO.N,/PD3*%
X163600000Y-89600000D03*
%TO.N,/PC7*%
X154500000Y-86900000D03*
X152250000Y-110837500D03*
%TO.N,/PD1*%
X163600000Y-91200000D03*
%TO.N,/PF4*%
X151800000Y-92800000D03*
%TO.N,/PF5*%
X151800000Y-92000000D03*
%TO.N,/PD5*%
X163600000Y-88800000D03*
%TO.N,/PF7*%
X151800000Y-90400000D03*
%TO.N,/PF6*%
X151800000Y-91200000D03*
%TO.N,/PF1*%
X151800000Y-93600000D03*
%TO.N,/PF0*%
X151800000Y-94400000D03*
%TD*%
D36*
%TO.N,GND*%
X161990000Y-102540000D02*
X161950000Y-102500000D01*
D37*
X155650000Y-110795000D02*
X155105000Y-110795000D01*
D38*
X155000000Y-107550000D02*
X155000000Y-107400000D01*
D37*
X162595000Y-110795000D02*
X163170000Y-111370000D01*
D38*
X154550000Y-106950000D02*
X154550000Y-106650000D01*
X155000000Y-107400000D02*
X154550000Y-106950000D01*
D37*
X155105000Y-110795000D02*
X154530000Y-111370000D01*
X161950000Y-104300000D02*
X161950000Y-102500000D01*
X162050000Y-110795000D02*
X162595000Y-110795000D01*
%TO.N,Net-(C1-Pad1)*%
X150690000Y-107860000D02*
X150700000Y-107850000D01*
X150690000Y-109400000D02*
X150690000Y-107860000D01*
D36*
X150700000Y-105875000D02*
X150675000Y-105850000D01*
D37*
X150700000Y-107850000D02*
X150700000Y-105875000D01*
%TO.N,MCU_5V*%
X165300000Y-95200000D02*
X163600000Y-95200000D01*
X150100000Y-88820000D02*
X151780000Y-88820000D01*
X154500000Y-99670000D02*
X154500000Y-98700000D01*
X158800000Y-99900000D02*
X158500000Y-99600000D01*
X151780000Y-88820000D02*
X151800000Y-88800000D01*
X153500000Y-100420000D02*
X153500000Y-100150000D01*
X152975000Y-105850000D02*
X154465000Y-105850000D01*
X153750000Y-99900000D02*
X154270000Y-99900000D01*
X153500000Y-100150000D02*
X153750000Y-99900000D01*
X165300000Y-95800000D02*
X165300000Y-95200000D01*
X154270000Y-99900000D02*
X154500000Y-99670000D01*
X165400000Y-95900000D02*
X165300000Y-95800000D01*
X158500000Y-99600000D02*
X158500000Y-98700000D01*
X158950000Y-100470000D02*
X158800000Y-100320000D01*
X154465000Y-105850000D02*
X154550000Y-105765000D01*
X158800000Y-100320000D02*
X158800000Y-99900000D01*
X151250000Y-97350000D02*
X151800000Y-96800000D01*
X165600000Y-96100000D02*
X165600000Y-97000000D01*
X165400000Y-95900000D02*
X165600000Y-96100000D01*
X160900000Y-85160000D02*
X160900000Y-86900000D01*
X150100000Y-97350000D02*
X151250000Y-97350000D01*
X160990000Y-104300000D02*
X160990000Y-102540000D01*
%TO.N,Net-(U1-UCAP)*%
X157950000Y-100050000D02*
X157700000Y-99800000D01*
X157950000Y-100470000D02*
X157950000Y-100050000D01*
X157700000Y-99800000D02*
X157700000Y-98700000D01*
D36*
%TO.N,Xin*%
X164573000Y-92800000D02*
X165800000Y-91573000D01*
X166240000Y-90735000D02*
X165925000Y-91050000D01*
X163600000Y-92800000D02*
X164573000Y-92800000D01*
X165800000Y-91573000D02*
X165800000Y-91050000D01*
X166240000Y-89500000D02*
X166240000Y-90735000D01*
%TO.N,Xout*%
X167650000Y-93375000D02*
X167675000Y-93350000D01*
X166724000Y-94301000D02*
X167675000Y-93350000D01*
X163600000Y-93600000D02*
X164550000Y-93600000D01*
X165251000Y-94301000D02*
X166724000Y-94301000D01*
X164550000Y-93600000D02*
X165251000Y-94301000D01*
X167650000Y-94790000D02*
X167650000Y-93375000D01*
D37*
%TO.N,Net-(U1-AREF)*%
X150150000Y-95240000D02*
X151760000Y-95240000D01*
X151760000Y-95240000D02*
X151800000Y-95200000D01*
%TO.N,Net-(D3-A)*%
X162750000Y-107087500D02*
X162750000Y-105687500D01*
%TO.N,/VBUS*%
X155380000Y-108950000D02*
X154600000Y-108950000D01*
X156450000Y-110795000D02*
X156450000Y-110020000D01*
X154600000Y-108950000D02*
X153500000Y-107850000D01*
X153500000Y-107850000D02*
X152750000Y-107850000D01*
X156450000Y-110020000D02*
X155380000Y-108950000D01*
D36*
%TO.N,Net-(J1-CC1)*%
X157600000Y-110795000D02*
X157600000Y-110133550D01*
X155950000Y-108740768D02*
X155950000Y-107960000D01*
X157600000Y-110133550D02*
X157166450Y-109700000D01*
X156909232Y-109700000D02*
X155950000Y-108740768D01*
X157166450Y-109700000D02*
X156909232Y-109700000D01*
%TO.N,Net-(J1-CC2)*%
X160600000Y-109000000D02*
X161200000Y-108400000D01*
X160600000Y-110795000D02*
X160600000Y-109000000D01*
X161200000Y-108400000D02*
X161200000Y-108060000D01*
%TO.N,SCL*%
X160100000Y-100650000D02*
X160950000Y-101500000D01*
X160100000Y-98700000D02*
X160100000Y-100650000D01*
%TO.N,MOSI*%
X161950000Y-101473280D02*
X161950000Y-101500000D01*
X161910000Y-101460000D02*
X161950000Y-101500000D01*
X160900000Y-98700000D02*
X160900000Y-100423280D01*
X160900000Y-100423280D02*
X161950000Y-101473280D01*
%TO.N,/PB4*%
X150850000Y-81725000D02*
X147750000Y-84825000D01*
X147750000Y-84825000D02*
X147750000Y-85450000D01*
X157700000Y-86900000D02*
X157700000Y-84075000D01*
X155350000Y-81725000D02*
X150850000Y-81725000D01*
X157700000Y-84075000D02*
X155350000Y-81725000D01*
%TO.N,/PB5*%
X151575000Y-83000000D02*
X149450000Y-85125000D01*
X154850000Y-83000000D02*
X151575000Y-83000000D01*
X149450000Y-85125000D02*
X149450000Y-86750000D01*
X156900000Y-85050000D02*
X154850000Y-83000000D01*
X149450000Y-86750000D02*
X148750000Y-87450000D01*
X148250000Y-87450000D02*
X147750000Y-87450000D01*
X156900000Y-86900000D02*
X156900000Y-85050000D01*
X148750000Y-87450000D02*
X147750000Y-87450000D01*
%TO.N,/PB6*%
X151825000Y-84350000D02*
X154352000Y-84350000D01*
X150400000Y-86500000D02*
X150400000Y-85775000D01*
X147750000Y-89150000D02*
X150400000Y-86500000D01*
X156100000Y-86098000D02*
X156100000Y-86900000D01*
X154352000Y-84350000D02*
X156100000Y-86098000D01*
X150400000Y-85775000D02*
X151825000Y-84350000D01*
X147750000Y-89450000D02*
X147750000Y-89150000D01*
%TO.N,MISO*%
X162224000Y-100774000D02*
X162250720Y-100774000D01*
X162676000Y-101199280D02*
X162676000Y-101226000D01*
X162250720Y-100774000D02*
X162676000Y-101199280D01*
X162676000Y-101226000D02*
X162950000Y-101500000D01*
X161700000Y-100250000D02*
X162224000Y-100774000D01*
X161700000Y-98700000D02*
X161700000Y-100250000D01*
%TO.N,/PC6*%
X149000000Y-88467100D02*
X149000000Y-90200000D01*
X154902000Y-88100000D02*
X149367100Y-88100000D01*
X149000000Y-90200000D02*
X147750000Y-91450000D01*
X149367100Y-88100000D02*
X149000000Y-88467100D01*
X155300000Y-87702000D02*
X154902000Y-88100000D01*
X155300000Y-86900000D02*
X155300000Y-87702000D01*
%TO.N,/PE6*%
X149425000Y-102975000D02*
X149425000Y-105775000D01*
X153700000Y-98700000D02*
X149425000Y-102975000D01*
X149425000Y-105775000D02*
X147750000Y-107450000D01*
%TO.N,/PD4*%
X160550000Y-84150000D02*
X164950000Y-84150000D01*
X160100000Y-86900000D02*
X160100000Y-84600000D01*
X160100000Y-84600000D02*
X160550000Y-84150000D01*
X164950000Y-84150000D02*
X170250000Y-89450000D01*
%TO.N,/PD7*%
X167425000Y-81650000D02*
X170250000Y-84475000D01*
X158500000Y-82925000D02*
X159775000Y-81650000D01*
X158500000Y-86900000D02*
X158500000Y-82925000D01*
X159775000Y-81650000D02*
X167425000Y-81650000D01*
X170250000Y-84475000D02*
X170250000Y-85450000D01*
%TO.N,/PD6*%
X160600000Y-82750000D02*
X165550000Y-82750000D01*
X159300000Y-84050000D02*
X160600000Y-82750000D01*
X165550000Y-82750000D02*
X170250000Y-87450000D01*
X159300000Y-86900000D02*
X159300000Y-84050000D01*
D39*
%TO.N,Reset*%
X164900000Y-96350000D02*
X164900000Y-99350000D01*
X164900000Y-101400000D02*
X164900000Y-101100000D01*
X166325000Y-102825000D02*
X164900000Y-101400000D01*
X162950000Y-102500000D02*
X163800000Y-102500000D01*
X164900000Y-99350000D02*
X164900000Y-101100000D01*
X163600000Y-96000000D02*
X164550000Y-96000000D01*
X167825000Y-101100000D02*
X168475000Y-101750000D01*
X168475000Y-101750000D02*
X168475000Y-110975000D01*
X165600000Y-98650000D02*
X164900000Y-99350000D01*
X164550000Y-96000000D02*
X164900000Y-96350000D01*
X164900000Y-101100000D02*
X167825000Y-101100000D01*
X168950000Y-111450000D02*
X170250000Y-111450000D01*
X166325000Y-103975000D02*
X166325000Y-102825000D01*
X165600000Y-98020000D02*
X165600000Y-98650000D01*
X163800000Y-102500000D02*
X164900000Y-101400000D01*
X168475000Y-110975000D02*
X168950000Y-111450000D01*
D36*
%TO.N,Net-(U1-D+)*%
X156100000Y-100380000D02*
X156200000Y-100480000D01*
D40*
X156100000Y-98700000D02*
X156100000Y-100380000D01*
D36*
%TO.N,Net-(U1-D-)*%
X155300000Y-100380000D02*
X155200000Y-100480000D01*
D40*
X155300000Y-98700000D02*
X155300000Y-100380000D01*
D37*
%TO.N,Net-(U1-~{HWB}{slash}PE2)*%
X153700000Y-86900000D02*
X153700000Y-85200000D01*
D41*
%TO.N,Net-(J1-DP1)*%
X159600000Y-109968000D02*
X159800000Y-109768000D01*
X159432000Y-109800000D02*
X159600000Y-109968000D01*
X158768000Y-109800000D02*
X159432000Y-109800000D01*
X159800000Y-109768000D02*
X159800000Y-108650000D01*
X159600000Y-109968000D02*
X159600000Y-110795000D01*
X158600000Y-109968000D02*
X158768000Y-109800000D01*
X158600000Y-110795000D02*
X158600000Y-109968000D01*
%TO.N,Net-(J1-DN1)*%
X158328000Y-111850000D02*
X158149000Y-111671000D01*
D42*
X158100000Y-111622000D02*
X158100000Y-110795000D01*
D41*
X158100000Y-110795000D02*
X158100000Y-109800000D01*
D42*
X159100000Y-110795000D02*
X159100000Y-111600000D01*
D41*
X158100000Y-109800000D02*
X157900000Y-109600000D01*
D42*
X158149000Y-111671000D02*
X158100000Y-111622000D01*
D41*
X158850000Y-111850000D02*
X158328000Y-111850000D01*
X159029000Y-111671000D02*
X158850000Y-111850000D01*
X157900000Y-109600000D02*
X157900000Y-108650000D01*
D42*
X159100000Y-111600000D02*
X159029000Y-111671000D01*
D36*
X158100000Y-108900000D02*
X157850000Y-108650000D01*
D40*
%TO.N,/USB_P*%
X159081250Y-104387499D02*
X159081250Y-103563719D01*
X155931250Y-101768750D02*
X156200000Y-101500000D01*
X155931250Y-102454212D02*
X155931250Y-101768750D01*
X159081250Y-103563719D02*
X158586281Y-103068750D01*
X159800000Y-105106249D02*
X159081250Y-104387499D01*
X156545788Y-103068750D02*
X155931250Y-102454212D01*
X159800000Y-106100000D02*
X159800000Y-105106249D01*
X158586281Y-103068750D02*
X156545788Y-103068750D01*
%TO.N,/USB_N*%
X155468750Y-101768750D02*
X155200000Y-101500000D01*
X157900000Y-106100000D02*
X157900000Y-105106249D01*
X158618750Y-104387499D02*
X158618750Y-103755295D01*
X156354212Y-103531250D02*
X155468750Y-102645788D01*
X157900000Y-105106249D02*
X158618750Y-104387499D01*
X158618750Y-103755295D02*
X158394705Y-103531250D01*
X155468750Y-102645788D02*
X155468750Y-101768750D01*
X158394705Y-103531250D02*
X156354212Y-103531250D01*
D37*
%TO.N,Net-(D1-A)*%
X151200000Y-110837500D02*
X151200000Y-112262500D01*
%TD*%
%TA.AperFunction,Conductor*%
%TO.N,GND*%
G36*
X164799784Y-84570185D02*
G01*
X164820426Y-84586819D01*
X169279700Y-89046093D01*
X169313185Y-89107416D01*
X169311116Y-89159073D01*
X169313176Y-89159483D01*
X169274500Y-89353917D01*
X169274500Y-89546082D01*
X169311986Y-89734535D01*
X169311989Y-89734547D01*
X169385520Y-89912068D01*
X169385521Y-89912070D01*
X169492279Y-90071844D01*
X169492282Y-90071848D01*
X169628151Y-90207717D01*
X169628155Y-90207720D01*
X169787927Y-90314477D01*
X169787928Y-90314477D01*
X169787929Y-90314478D01*
X169838533Y-90335439D01*
X169892936Y-90379280D01*
X169915001Y-90445574D01*
X169897722Y-90513274D01*
X169846584Y-90560884D01*
X169838533Y-90564561D01*
X169787929Y-90585521D01*
X169628155Y-90692279D01*
X169628151Y-90692282D01*
X169492282Y-90828151D01*
X169492279Y-90828155D01*
X169385521Y-90987929D01*
X169385520Y-90987931D01*
X169311989Y-91165452D01*
X169311986Y-91165464D01*
X169274500Y-91353917D01*
X169274500Y-91546082D01*
X169311986Y-91734535D01*
X169311989Y-91734547D01*
X169385520Y-91912068D01*
X169385521Y-91912070D01*
X169492279Y-92071844D01*
X169492282Y-92071848D01*
X169628151Y-92207717D01*
X169628155Y-92207720D01*
X169787927Y-92314477D01*
X169787928Y-92314477D01*
X169787929Y-92314478D01*
X169838533Y-92335439D01*
X169892936Y-92379280D01*
X169915001Y-92445574D01*
X169897722Y-92513274D01*
X169846584Y-92560884D01*
X169838533Y-92564561D01*
X169787929Y-92585521D01*
X169628155Y-92692279D01*
X169628151Y-92692282D01*
X169492282Y-92828151D01*
X169492279Y-92828155D01*
X169385521Y-92987929D01*
X169385520Y-92987931D01*
X169311989Y-93165452D01*
X169311986Y-93165464D01*
X169274500Y-93353917D01*
X169274500Y-93546082D01*
X169311986Y-93734535D01*
X169311989Y-93734547D01*
X169385520Y-93912068D01*
X169385521Y-93912070D01*
X169492279Y-94071844D01*
X169492282Y-94071848D01*
X169628151Y-94207717D01*
X169628155Y-94207720D01*
X169787927Y-94314477D01*
X169787928Y-94314477D01*
X169787929Y-94314478D01*
X169838533Y-94335439D01*
X169892936Y-94379280D01*
X169915001Y-94445574D01*
X169897722Y-94513274D01*
X169846584Y-94560884D01*
X169838533Y-94564561D01*
X169787929Y-94585521D01*
X169628155Y-94692279D01*
X169628151Y-94692282D01*
X169492282Y-94828151D01*
X169492279Y-94828155D01*
X169385521Y-94987929D01*
X169385520Y-94987931D01*
X169311989Y-95165452D01*
X169311986Y-95165464D01*
X169274500Y-95353917D01*
X169274500Y-95546082D01*
X169311986Y-95734535D01*
X169311989Y-95734547D01*
X169385520Y-95912068D01*
X169385521Y-95912070D01*
X169492279Y-96071844D01*
X169492282Y-96071848D01*
X169628151Y-96207717D01*
X169628155Y-96207720D01*
X169787927Y-96314477D01*
X169787928Y-96314477D01*
X169787929Y-96314478D01*
X169838533Y-96335439D01*
X169892936Y-96379280D01*
X169915001Y-96445574D01*
X169897722Y-96513274D01*
X169846584Y-96560884D01*
X169838533Y-96564561D01*
X169787929Y-96585521D01*
X169628155Y-96692279D01*
X169628151Y-96692282D01*
X169492282Y-96828151D01*
X169492279Y-96828155D01*
X169385521Y-96987929D01*
X169385520Y-96987931D01*
X169311989Y-97165452D01*
X169311986Y-97165464D01*
X169274500Y-97353917D01*
X169274500Y-97546082D01*
X169311986Y-97734535D01*
X169311989Y-97734547D01*
X169385520Y-97912068D01*
X169385521Y-97912070D01*
X169492279Y-98071844D01*
X169492282Y-98071848D01*
X169628151Y-98207717D01*
X169628155Y-98207720D01*
X169787927Y-98314477D01*
X169787928Y-98314477D01*
X169787929Y-98314478D01*
X169838533Y-98335439D01*
X169892936Y-98379280D01*
X169915001Y-98445574D01*
X169897722Y-98513274D01*
X169846584Y-98560884D01*
X169838533Y-98564561D01*
X169787929Y-98585521D01*
X169628155Y-98692279D01*
X169628151Y-98692282D01*
X169492282Y-98828151D01*
X169492279Y-98828155D01*
X169385521Y-98987929D01*
X169385520Y-98987931D01*
X169311989Y-99165452D01*
X169311986Y-99165464D01*
X169274500Y-99353917D01*
X169274500Y-99546082D01*
X169311986Y-99734535D01*
X169311989Y-99734547D01*
X169385520Y-99912068D01*
X169385521Y-99912070D01*
X169492279Y-100071844D01*
X169492282Y-100071848D01*
X169628151Y-100207717D01*
X169628155Y-100207720D01*
X169787927Y-100314477D01*
X169787928Y-100314477D01*
X169787929Y-100314478D01*
X169838533Y-100335439D01*
X169892936Y-100379280D01*
X169915001Y-100445574D01*
X169897722Y-100513274D01*
X169846584Y-100560884D01*
X169838533Y-100564561D01*
X169787929Y-100585521D01*
X169628155Y-100692279D01*
X169628151Y-100692282D01*
X169492282Y-100828151D01*
X169492279Y-100828155D01*
X169385521Y-100987929D01*
X169385520Y-100987931D01*
X169311989Y-101165452D01*
X169311986Y-101165464D01*
X169274500Y-101353917D01*
X169274500Y-101546082D01*
X169311986Y-101734535D01*
X169311989Y-101734547D01*
X169385520Y-101912068D01*
X169385521Y-101912070D01*
X169492279Y-102071844D01*
X169492282Y-102071848D01*
X169628151Y-102207717D01*
X169628155Y-102207720D01*
X169787927Y-102314477D01*
X169787928Y-102314477D01*
X169787929Y-102314478D01*
X169838533Y-102335439D01*
X169892936Y-102379280D01*
X169915001Y-102445574D01*
X169897722Y-102513274D01*
X169846584Y-102560884D01*
X169838533Y-102564561D01*
X169787929Y-102585521D01*
X169628155Y-102692279D01*
X169628151Y-102692282D01*
X169492282Y-102828151D01*
X169492279Y-102828155D01*
X169385521Y-102987929D01*
X169385520Y-102987931D01*
X169311989Y-103165452D01*
X169311986Y-103165464D01*
X169274500Y-103353917D01*
X169274500Y-103546082D01*
X169311986Y-103734535D01*
X169311989Y-103734547D01*
X169385520Y-103912068D01*
X169385521Y-103912070D01*
X169492279Y-104071844D01*
X169492282Y-104071848D01*
X169628151Y-104207717D01*
X169628155Y-104207720D01*
X169787927Y-104314477D01*
X169787928Y-104314477D01*
X169787929Y-104314478D01*
X169838533Y-104335439D01*
X169892936Y-104379280D01*
X169915001Y-104445574D01*
X169897722Y-104513274D01*
X169846584Y-104560884D01*
X169838533Y-104564561D01*
X169787929Y-104585521D01*
X169628155Y-104692279D01*
X169628151Y-104692282D01*
X169492282Y-104828151D01*
X169492279Y-104828155D01*
X169385521Y-104987929D01*
X169385520Y-104987931D01*
X169311989Y-105165452D01*
X169311986Y-105165464D01*
X169274500Y-105353917D01*
X169274500Y-105546082D01*
X169311986Y-105734535D01*
X169311989Y-105734547D01*
X169385520Y-105912068D01*
X169385521Y-105912070D01*
X169492279Y-106071844D01*
X169492282Y-106071848D01*
X169628151Y-106207717D01*
X169628155Y-106207720D01*
X169787927Y-106314477D01*
X169787928Y-106314477D01*
X169787929Y-106314478D01*
X169838533Y-106335439D01*
X169892936Y-106379280D01*
X169915001Y-106445574D01*
X169897722Y-106513274D01*
X169846584Y-106560884D01*
X169838533Y-106564561D01*
X169787929Y-106585521D01*
X169628155Y-106692279D01*
X169628151Y-106692282D01*
X169492282Y-106828151D01*
X169492279Y-106828155D01*
X169385521Y-106987929D01*
X169385520Y-106987931D01*
X169311989Y-107165452D01*
X169311986Y-107165464D01*
X169274500Y-107353917D01*
X169274500Y-107546082D01*
X169311986Y-107734535D01*
X169311989Y-107734547D01*
X169385520Y-107912068D01*
X169385521Y-107912070D01*
X169492279Y-108071844D01*
X169492282Y-108071848D01*
X169628151Y-108207717D01*
X169628155Y-108207720D01*
X169787927Y-108314477D01*
X169787928Y-108314477D01*
X169787929Y-108314478D01*
X169838533Y-108335439D01*
X169892936Y-108379280D01*
X169915001Y-108445574D01*
X169897722Y-108513274D01*
X169846584Y-108560884D01*
X169838533Y-108564561D01*
X169787929Y-108585521D01*
X169628155Y-108692279D01*
X169628151Y-108692282D01*
X169492282Y-108828151D01*
X169492279Y-108828155D01*
X169385521Y-108987929D01*
X169385520Y-108987931D01*
X169311989Y-109165452D01*
X169311986Y-109165464D01*
X169274500Y-109353917D01*
X169274500Y-109546082D01*
X169311986Y-109734535D01*
X169311989Y-109734547D01*
X169385520Y-109912068D01*
X169385521Y-109912070D01*
X169492279Y-110071844D01*
X169492282Y-110071848D01*
X169628151Y-110207717D01*
X169628155Y-110207720D01*
X169787927Y-110314477D01*
X169787928Y-110314477D01*
X169787929Y-110314478D01*
X169838533Y-110335439D01*
X169892936Y-110379280D01*
X169915001Y-110445574D01*
X169897722Y-110513274D01*
X169846584Y-110560884D01*
X169838533Y-110564561D01*
X169787929Y-110585521D01*
X169628155Y-110692279D01*
X169628151Y-110692282D01*
X169492282Y-110828151D01*
X169492279Y-110828155D01*
X169414613Y-110944391D01*
X169408521Y-110949481D01*
X169405224Y-110956703D01*
X169382096Y-110971566D01*
X169361001Y-110989196D01*
X169351626Y-110991147D01*
X169346446Y-110994477D01*
X169311511Y-110999500D01*
X169187965Y-110999500D01*
X169120926Y-110979815D01*
X169100284Y-110963181D01*
X168961819Y-110824716D01*
X168928334Y-110763393D01*
X168925500Y-110737035D01*
X168925500Y-101690693D01*
X168925500Y-101690691D01*
X168901286Y-101600326D01*
X168894799Y-101576113D01*
X168894799Y-101576112D01*
X168835492Y-101473389D01*
X168835488Y-101473384D01*
X168101616Y-100739513D01*
X168101614Y-100739511D01*
X168027783Y-100696884D01*
X167998888Y-100680201D01*
X167986780Y-100676957D01*
X167974673Y-100673713D01*
X167974670Y-100673712D01*
X167934938Y-100663066D01*
X167884309Y-100649500D01*
X167884308Y-100649500D01*
X165474500Y-100649500D01*
X165407461Y-100629815D01*
X165361706Y-100577011D01*
X165350500Y-100525500D01*
X165350500Y-99587965D01*
X165370185Y-99520926D01*
X165386819Y-99500284D01*
X165596412Y-99290691D01*
X165960489Y-98926614D01*
X166019798Y-98823887D01*
X166019799Y-98823886D01*
X166050500Y-98709309D01*
X166050500Y-98562914D01*
X166070185Y-98495875D01*
X166090771Y-98473914D01*
X166089852Y-98472995D01*
X166096421Y-98466425D01*
X166096421Y-98466423D01*
X166096423Y-98466423D01*
X166174381Y-98360794D01*
X166196061Y-98298836D01*
X166217741Y-98236881D01*
X166217741Y-98236879D01*
X166220475Y-98207720D01*
X166220500Y-98207457D01*
X166220499Y-97832544D01*
X166217741Y-97803121D01*
X166213327Y-97790508D01*
X166193744Y-97734543D01*
X166174381Y-97679206D01*
X166103844Y-97583632D01*
X166079874Y-97518005D01*
X166095189Y-97449835D01*
X166103845Y-97436366D01*
X166174381Y-97340794D01*
X166196061Y-97278836D01*
X166217741Y-97216881D01*
X166217741Y-97216879D01*
X166220500Y-97187457D01*
X166220499Y-96812544D01*
X166217741Y-96783121D01*
X166174381Y-96659206D01*
X166174379Y-96659203D01*
X166170039Y-96650990D01*
X166171310Y-96650317D01*
X166150759Y-96594048D01*
X166150500Y-96586045D01*
X166150500Y-96027527D01*
X166150500Y-96027525D01*
X166112984Y-95887515D01*
X166104300Y-95872474D01*
X166040510Y-95761985D01*
X166026322Y-95747797D01*
X166018835Y-95735812D01*
X166013076Y-95715227D01*
X166002834Y-95696471D01*
X166000000Y-95670113D01*
X166000000Y-95324000D01*
X166019685Y-95256961D01*
X166072489Y-95211206D01*
X166124000Y-95200000D01*
X166376000Y-95200000D01*
X166443039Y-95219685D01*
X166488794Y-95272489D01*
X166500000Y-95324000D01*
X166500000Y-96004503D01*
X166646194Y-95962031D01*
X166669259Y-95948391D01*
X166736983Y-95931207D01*
X166803246Y-95953366D01*
X166847010Y-96007831D01*
X166851458Y-96020527D01*
X166887966Y-96146190D01*
X166887968Y-96146195D01*
X166970278Y-96285374D01*
X166970285Y-96285383D01*
X167084616Y-96399714D01*
X167084625Y-96399721D01*
X167223804Y-96482031D01*
X167379089Y-96527145D01*
X167400000Y-96528789D01*
X167900000Y-96528789D01*
X167920910Y-96527145D01*
X168076195Y-96482031D01*
X168215374Y-96399721D01*
X168215383Y-96399714D01*
X168329714Y-96285383D01*
X168329721Y-96285374D01*
X168412031Y-96146195D01*
X168454504Y-96000000D01*
X167900000Y-96000000D01*
X167900000Y-96528789D01*
X167400000Y-96528789D01*
X167400000Y-95874000D01*
X167419685Y-95806961D01*
X167472489Y-95761206D01*
X167524000Y-95750000D01*
X167650000Y-95750000D01*
X167650000Y-95624000D01*
X167669685Y-95556961D01*
X167722489Y-95511206D01*
X167774000Y-95500000D01*
X168454504Y-95500000D01*
X168412031Y-95353804D01*
X168329721Y-95214625D01*
X168329714Y-95214616D01*
X168279159Y-95164061D01*
X168245674Y-95102738D01*
X168249798Y-95035428D01*
X168257710Y-95012819D01*
X168260500Y-94983066D01*
X168260500Y-94596934D01*
X168257710Y-94567181D01*
X168215474Y-94446481D01*
X168211912Y-94376703D01*
X168246641Y-94316075D01*
X168282425Y-94292094D01*
X168372765Y-94252206D01*
X168452206Y-94172765D01*
X168497585Y-94069991D01*
X168500500Y-94044865D01*
X168500499Y-92655136D01*
X168500497Y-92655117D01*
X168497586Y-92630012D01*
X168497585Y-92630010D01*
X168497585Y-92630009D01*
X168452206Y-92527235D01*
X168372765Y-92447794D01*
X168372764Y-92447793D01*
X168309553Y-92419883D01*
X168256176Y-92374797D01*
X168235649Y-92308011D01*
X168254487Y-92240729D01*
X168306711Y-92194313D01*
X168316306Y-92190267D01*
X168442086Y-92143354D01*
X168442093Y-92143350D01*
X168557187Y-92057190D01*
X168557190Y-92057187D01*
X168643350Y-91942093D01*
X168643354Y-91942086D01*
X168693596Y-91807379D01*
X168693598Y-91807372D01*
X168699999Y-91747844D01*
X168700000Y-91747827D01*
X168700000Y-91300000D01*
X167799000Y-91300000D01*
X167731961Y-91280315D01*
X167686206Y-91227511D01*
X167675000Y-91176000D01*
X167675000Y-90924000D01*
X167694685Y-90856961D01*
X167747489Y-90811206D01*
X167799000Y-90800000D01*
X168700000Y-90800000D01*
X168700000Y-90352172D01*
X168699999Y-90352155D01*
X168693598Y-90292627D01*
X168693596Y-90292620D01*
X168643354Y-90157913D01*
X168643350Y-90157906D01*
X168557190Y-90042812D01*
X168557187Y-90042809D01*
X168442093Y-89956649D01*
X168442086Y-89956645D01*
X168307379Y-89906403D01*
X168307372Y-89906401D01*
X168247844Y-89900000D01*
X168101128Y-89900000D01*
X168034089Y-89880315D01*
X167988334Y-89827511D01*
X167977510Y-89766271D01*
X167978790Y-89750000D01*
X167324000Y-89750000D01*
X167256961Y-89730315D01*
X167211206Y-89677511D01*
X167200000Y-89626000D01*
X167200000Y-89500000D01*
X167074000Y-89500000D01*
X167006961Y-89480315D01*
X166961206Y-89427511D01*
X166950000Y-89376000D01*
X166950000Y-88695494D01*
X167450000Y-88695494D01*
X167450000Y-89250000D01*
X167978790Y-89250000D01*
X167977145Y-89229089D01*
X167932031Y-89073804D01*
X167849721Y-88934625D01*
X167849714Y-88934616D01*
X167735383Y-88820285D01*
X167735374Y-88820278D01*
X167596193Y-88737967D01*
X167596190Y-88737965D01*
X167450001Y-88695493D01*
X167450000Y-88695494D01*
X166950000Y-88695494D01*
X166949998Y-88695493D01*
X166803809Y-88737965D01*
X166803806Y-88737967D01*
X166664625Y-88820278D01*
X166664619Y-88820283D01*
X166614060Y-88870841D01*
X166552736Y-88904325D01*
X166485426Y-88900200D01*
X166462822Y-88892290D01*
X166462814Y-88892289D01*
X166433070Y-88889500D01*
X166433066Y-88889500D01*
X166046934Y-88889500D01*
X166046930Y-88889500D01*
X166017185Y-88892289D01*
X166017173Y-88892291D01*
X165891844Y-88936147D01*
X165785001Y-89015001D01*
X165706147Y-89121844D01*
X165662291Y-89247173D01*
X165662289Y-89247185D01*
X165659500Y-89276929D01*
X165659500Y-89723070D01*
X165662289Y-89752814D01*
X165662291Y-89752826D01*
X165697140Y-89852415D01*
X165706148Y-89878157D01*
X165718492Y-89894882D01*
X165723647Y-89901867D01*
X165747617Y-89967496D01*
X165732301Y-90035666D01*
X165682561Y-90084734D01*
X165623876Y-90099500D01*
X165355143Y-90099500D01*
X165355117Y-90099502D01*
X165330012Y-90102413D01*
X165330008Y-90102415D01*
X165227235Y-90147793D01*
X165147794Y-90227234D01*
X165102415Y-90330006D01*
X165102415Y-90330008D01*
X165099500Y-90355131D01*
X165099500Y-91655744D01*
X165092823Y-91678481D01*
X165090521Y-91702072D01*
X165082201Y-91714655D01*
X165079815Y-91722783D01*
X165072822Y-91728842D01*
X165063181Y-91743425D01*
X164862180Y-91944426D01*
X164800857Y-91977911D01*
X164731165Y-91972927D01*
X164675232Y-91931055D01*
X164650815Y-91865591D01*
X164650499Y-91856745D01*
X164650499Y-91705143D01*
X164650499Y-91705136D01*
X164650144Y-91702072D01*
X164647586Y-91680012D01*
X164647585Y-91680010D01*
X164647585Y-91680009D01*
X164636871Y-91655744D01*
X164634373Y-91650086D01*
X164632518Y-91635922D01*
X164625999Y-91623212D01*
X164628072Y-91601970D01*
X164625301Y-91580808D01*
X164632545Y-91556139D01*
X164632786Y-91553672D01*
X164633556Y-91552696D01*
X164634374Y-91549912D01*
X164647584Y-91519995D01*
X164647584Y-91519994D01*
X164647584Y-91519993D01*
X164647585Y-91519991D01*
X164650500Y-91494865D01*
X164650499Y-90905136D01*
X164649315Y-90894926D01*
X164647586Y-90880012D01*
X164647585Y-90880010D01*
X164647585Y-90880009D01*
X164637408Y-90856961D01*
X164634373Y-90850086D01*
X164625301Y-90780808D01*
X164634374Y-90749912D01*
X164647584Y-90719995D01*
X164647584Y-90719994D01*
X164647584Y-90719993D01*
X164647585Y-90719991D01*
X164650500Y-90694865D01*
X164650499Y-90105136D01*
X164650497Y-90105117D01*
X164647586Y-90080012D01*
X164647585Y-90080010D01*
X164647585Y-90080009D01*
X164640681Y-90064374D01*
X164634373Y-90050086D01*
X164625301Y-89980808D01*
X164634374Y-89949912D01*
X164647584Y-89919995D01*
X164647584Y-89919994D01*
X164647584Y-89919993D01*
X164647585Y-89919991D01*
X164650500Y-89894865D01*
X164650499Y-89305136D01*
X164650159Y-89302206D01*
X164647586Y-89280012D01*
X164647585Y-89280010D01*
X164647585Y-89280009D01*
X164640681Y-89264374D01*
X164634373Y-89250086D01*
X164625301Y-89180808D01*
X164634374Y-89149912D01*
X164647584Y-89119995D01*
X164647584Y-89119994D01*
X164647584Y-89119993D01*
X164647585Y-89119991D01*
X164650500Y-89094865D01*
X164650499Y-88505136D01*
X164650497Y-88505117D01*
X164647586Y-88480012D01*
X164647585Y-88480010D01*
X164647585Y-88480009D01*
X164602206Y-88377235D01*
X164522765Y-88297794D01*
X164522763Y-88297793D01*
X164419992Y-88252415D01*
X164394868Y-88249500D01*
X164394865Y-88249500D01*
X163878363Y-88249500D01*
X163839820Y-88241834D01*
X163839635Y-88242527D01*
X163831785Y-88240423D01*
X163831784Y-88240423D01*
X163679057Y-88199500D01*
X163520943Y-88199500D01*
X163360367Y-88242526D01*
X163360181Y-88241833D01*
X163321637Y-88249500D01*
X162805143Y-88249500D01*
X162805117Y-88249502D01*
X162780012Y-88252413D01*
X162780008Y-88252415D01*
X162677235Y-88297793D01*
X162597794Y-88377234D01*
X162552415Y-88480006D01*
X162552415Y-88480008D01*
X162549500Y-88505131D01*
X162549500Y-89094856D01*
X162549502Y-89094882D01*
X162552413Y-89119985D01*
X162552413Y-89119986D01*
X162552414Y-89119990D01*
X162552415Y-89119991D01*
X162565626Y-89149912D01*
X162565628Y-89149915D01*
X162574697Y-89219194D01*
X162565628Y-89250083D01*
X162552415Y-89280008D01*
X162549500Y-89305131D01*
X162549500Y-89894856D01*
X162549502Y-89894882D01*
X162552413Y-89919985D01*
X162552413Y-89919986D01*
X162552414Y-89919990D01*
X162552415Y-89919991D01*
X162565626Y-89949912D01*
X162565628Y-89949915D01*
X162574697Y-90019194D01*
X162565628Y-90050083D01*
X162552415Y-90080008D01*
X162549500Y-90105131D01*
X162549500Y-90694856D01*
X162549502Y-90694882D01*
X162552413Y-90719985D01*
X162552413Y-90719986D01*
X162552414Y-90719990D01*
X162552415Y-90719991D01*
X162565626Y-90749912D01*
X162565628Y-90749915D01*
X162574697Y-90819194D01*
X162565628Y-90850083D01*
X162552415Y-90880008D01*
X162549500Y-90905131D01*
X162549500Y-91494856D01*
X162549502Y-91494882D01*
X162552413Y-91519985D01*
X162552413Y-91519986D01*
X162552414Y-91519990D01*
X162552415Y-91519991D01*
X162565626Y-91549912D01*
X162565628Y-91549915D01*
X162574697Y-91619194D01*
X162565628Y-91650083D01*
X162552415Y-91680008D01*
X162549500Y-91705131D01*
X162549500Y-92294856D01*
X162549502Y-92294882D01*
X162552413Y-92319985D01*
X162552413Y-92319986D01*
X162552414Y-92319990D01*
X162552415Y-92319991D01*
X162565626Y-92349912D01*
X162565628Y-92349915D01*
X162574697Y-92419194D01*
X162565628Y-92450083D01*
X162552415Y-92480008D01*
X162549500Y-92505131D01*
X162549500Y-93094856D01*
X162549502Y-93094882D01*
X162552413Y-93119985D01*
X162552413Y-93119986D01*
X162552414Y-93119990D01*
X162552415Y-93119991D01*
X162565626Y-93149912D01*
X162565628Y-93149915D01*
X162574697Y-93219194D01*
X162565628Y-93250083D01*
X162552415Y-93280008D01*
X162549500Y-93305131D01*
X162549500Y-93688303D01*
X162529815Y-93755342D01*
X162499815Y-93787566D01*
X162492818Y-93792804D01*
X162492808Y-93792814D01*
X162406649Y-93907906D01*
X162406645Y-93907913D01*
X162356403Y-94042620D01*
X162356401Y-94042627D01*
X162350000Y-94102155D01*
X162350000Y-94150000D01*
X162793653Y-94150000D01*
X162801543Y-94150456D01*
X162801553Y-94150293D01*
X162805115Y-94150497D01*
X162805135Y-94150500D01*
X163476001Y-94150499D01*
X163543039Y-94170183D01*
X163588794Y-94222987D01*
X163600000Y-94274499D01*
X163600000Y-94525500D01*
X163580315Y-94592539D01*
X163527511Y-94638294D01*
X163476000Y-94649500D01*
X162805143Y-94649500D01*
X162801561Y-94649708D01*
X162801551Y-94649544D01*
X162793666Y-94650000D01*
X162350000Y-94650000D01*
X162350000Y-94697844D01*
X162356401Y-94757372D01*
X162356403Y-94757379D01*
X162406645Y-94892086D01*
X162406647Y-94892088D01*
X162492809Y-95007186D01*
X162492811Y-95007188D01*
X162499809Y-95012427D01*
X162541681Y-95068359D01*
X162549500Y-95111695D01*
X162549500Y-95494856D01*
X162549502Y-95494882D01*
X162552413Y-95519985D01*
X162552413Y-95519986D01*
X162552414Y-95519990D01*
X162552415Y-95519991D01*
X162563935Y-95546082D01*
X162565628Y-95549915D01*
X162574697Y-95619194D01*
X162565628Y-95650083D01*
X162552415Y-95680008D01*
X162549500Y-95705131D01*
X162549500Y-96294856D01*
X162549502Y-96294882D01*
X162552413Y-96319985D01*
X162552413Y-96319986D01*
X162552414Y-96319990D01*
X162552415Y-96319991D01*
X162562248Y-96342262D01*
X162565628Y-96349915D01*
X162574697Y-96419194D01*
X162565628Y-96450083D01*
X162552415Y-96480008D01*
X162549500Y-96505131D01*
X162549500Y-97094856D01*
X162549502Y-97094882D01*
X162552413Y-97119987D01*
X162552415Y-97119991D01*
X162597793Y-97222764D01*
X162597794Y-97222765D01*
X162677235Y-97302206D01*
X162780009Y-97347585D01*
X162805135Y-97350500D01*
X163321635Y-97350499D01*
X163360179Y-97358165D01*
X163360365Y-97357473D01*
X163368214Y-97359576D01*
X163368216Y-97359577D01*
X163520943Y-97400500D01*
X163520945Y-97400500D01*
X163679055Y-97400500D01*
X163679057Y-97400500D01*
X163831784Y-97359577D01*
X163831785Y-97359576D01*
X163839635Y-97357473D01*
X163839820Y-97358165D01*
X163878365Y-97350499D01*
X164325500Y-97350499D01*
X164392539Y-97370184D01*
X164438294Y-97422988D01*
X164449500Y-97474499D01*
X164449500Y-101162035D01*
X164429815Y-101229074D01*
X164413181Y-101249716D01*
X163861266Y-101801630D01*
X163799943Y-101835115D01*
X163730251Y-101830131D01*
X163674318Y-101788259D01*
X163649901Y-101722795D01*
X163651968Y-101689757D01*
X163675500Y-101571457D01*
X163675500Y-101428542D01*
X163647620Y-101288385D01*
X163647619Y-101288384D01*
X163647619Y-101288380D01*
X163598163Y-101168982D01*
X163592930Y-101156349D01*
X163592925Y-101156340D01*
X163513532Y-101037521D01*
X163513529Y-101037517D01*
X163412482Y-100936470D01*
X163412478Y-100936467D01*
X163293659Y-100857074D01*
X163293650Y-100857069D01*
X163161620Y-100802381D01*
X163161614Y-100802379D01*
X163021457Y-100774500D01*
X163021455Y-100774500D01*
X162878545Y-100774500D01*
X162872454Y-100774500D01*
X162872454Y-100772518D01*
X162812759Y-100761177D01*
X162781605Y-100738492D01*
X162496636Y-100453522D01*
X162491402Y-100450500D01*
X162447545Y-100425178D01*
X162421868Y-100405475D01*
X162136819Y-100120426D01*
X162103334Y-100059103D01*
X162100500Y-100032745D01*
X162100500Y-99775833D01*
X162120185Y-99708794D01*
X162136819Y-99688152D01*
X162156750Y-99668221D01*
X162202206Y-99622765D01*
X162247585Y-99519991D01*
X162250500Y-99494865D01*
X162250499Y-97905136D01*
X162250102Y-97901712D01*
X162247586Y-97880012D01*
X162247585Y-97880010D01*
X162247585Y-97880009D01*
X162202206Y-97777235D01*
X162122765Y-97697794D01*
X162122763Y-97697793D01*
X162019992Y-97652415D01*
X161994865Y-97649500D01*
X161405143Y-97649500D01*
X161405117Y-97649502D01*
X161380014Y-97652413D01*
X161380010Y-97652414D01*
X161350083Y-97665628D01*
X161280804Y-97674697D01*
X161249915Y-97665627D01*
X161219992Y-97652415D01*
X161194865Y-97649500D01*
X160605143Y-97649500D01*
X160605117Y-97649502D01*
X160580014Y-97652413D01*
X160580010Y-97652414D01*
X160550083Y-97665628D01*
X160480804Y-97674697D01*
X160449915Y-97665627D01*
X160419992Y-97652415D01*
X160394865Y-97649500D01*
X159805143Y-97649500D01*
X159805117Y-97649502D01*
X159780014Y-97652413D01*
X159780010Y-97652414D01*
X159750083Y-97665628D01*
X159680804Y-97674697D01*
X159649915Y-97665627D01*
X159619992Y-97652415D01*
X159594865Y-97649500D01*
X159005143Y-97649500D01*
X159005117Y-97649502D01*
X158980014Y-97652413D01*
X158980010Y-97652414D01*
X158950083Y-97665628D01*
X158880804Y-97674697D01*
X158849915Y-97665627D01*
X158819992Y-97652415D01*
X158794865Y-97649500D01*
X158205143Y-97649500D01*
X158205117Y-97649502D01*
X158180014Y-97652413D01*
X158180010Y-97652414D01*
X158150083Y-97665628D01*
X158080804Y-97674697D01*
X158049915Y-97665627D01*
X158019992Y-97652415D01*
X157994868Y-97649500D01*
X157611696Y-97649500D01*
X157544657Y-97629815D01*
X157512428Y-97599810D01*
X157507189Y-97592811D01*
X157507185Y-97592808D01*
X157392093Y-97506649D01*
X157392086Y-97506645D01*
X157257379Y-97456403D01*
X157257372Y-97456401D01*
X157197844Y-97450000D01*
X157150000Y-97450000D01*
X157150000Y-97893653D01*
X157149543Y-97901543D01*
X157149707Y-97901553D01*
X157149500Y-97905131D01*
X157149500Y-97905135D01*
X157149500Y-98627523D01*
X157149500Y-98627525D01*
X157149500Y-99872475D01*
X157180852Y-99989480D01*
X157186428Y-100010290D01*
X157186441Y-100010341D01*
X157187015Y-100012482D01*
X157187016Y-100012485D01*
X157249335Y-100120426D01*
X157259489Y-100138013D01*
X157259491Y-100138016D01*
X157303388Y-100181913D01*
X157336873Y-100243236D01*
X157339461Y-100274035D01*
X157339500Y-100274035D01*
X157339500Y-100274499D01*
X157339573Y-100275368D01*
X157339500Y-100276934D01*
X157339500Y-100663070D01*
X157342289Y-100692814D01*
X157342290Y-100692822D01*
X157350200Y-100715426D01*
X157353761Y-100785205D01*
X157320841Y-100844060D01*
X157270283Y-100894619D01*
X157270278Y-100894625D01*
X157187968Y-101033804D01*
X157145496Y-101180000D01*
X159754505Y-101180000D01*
X159762777Y-101168982D01*
X159762865Y-101138223D01*
X159800807Y-101079553D01*
X159864445Y-101050709D01*
X159933575Y-101060850D01*
X159969423Y-101085816D01*
X160192175Y-101308568D01*
X160225660Y-101369891D01*
X160226113Y-101420434D01*
X160224500Y-101428545D01*
X160224500Y-101571455D01*
X160224500Y-101571457D01*
X160224499Y-101571457D01*
X160252379Y-101711614D01*
X160252382Y-101711624D01*
X160283558Y-101786890D01*
X160291027Y-101856359D01*
X160276653Y-101891379D01*
X160277435Y-101891725D01*
X160272794Y-101902234D01*
X160272794Y-101902235D01*
X160268450Y-101912073D01*
X160227415Y-102005006D01*
X160227415Y-102005008D01*
X160224500Y-102030131D01*
X160224500Y-102969856D01*
X160224502Y-102969882D01*
X160227413Y-102994987D01*
X160227415Y-102994991D01*
X160272793Y-103097764D01*
X160272794Y-103097765D01*
X160352235Y-103177206D01*
X160365588Y-103183102D01*
X160418962Y-103228186D01*
X160439490Y-103294972D01*
X160439500Y-103296535D01*
X160439500Y-103948349D01*
X160437842Y-103968557D01*
X160436089Y-103979164D01*
X160412290Y-104047181D01*
X160409500Y-104076934D01*
X160409500Y-104140146D01*
X160407842Y-104150184D01*
X160406463Y-104153043D01*
X160405275Y-104162068D01*
X160389500Y-104220941D01*
X160389500Y-104220943D01*
X160389500Y-104379057D01*
X160401944Y-104425500D01*
X160405275Y-104437930D01*
X160409500Y-104470023D01*
X160409500Y-104523070D01*
X160412289Y-104552814D01*
X160412291Y-104552826D01*
X160456147Y-104678155D01*
X160456148Y-104678157D01*
X160535001Y-104784999D01*
X160641843Y-104863852D01*
X160673539Y-104874943D01*
X160767173Y-104907708D01*
X160767177Y-104907708D01*
X160767181Y-104907710D01*
X160782057Y-104909105D01*
X160796930Y-104910500D01*
X160796934Y-104910500D01*
X161183070Y-104910500D01*
X161212809Y-104907711D01*
X161212809Y-104907710D01*
X161212819Y-104907710D01*
X161235427Y-104899798D01*
X161305202Y-104896236D01*
X161364061Y-104929159D01*
X161414616Y-104979714D01*
X161414625Y-104979721D01*
X161553804Y-105062031D01*
X161700000Y-105104504D01*
X161700000Y-104424000D01*
X161719685Y-104356961D01*
X161772489Y-104311206D01*
X161824000Y-104300000D01*
X161950000Y-104300000D01*
X161950000Y-104174000D01*
X161969685Y-104106961D01*
X162022489Y-104061206D01*
X162074000Y-104050000D01*
X162728790Y-104050000D01*
X162727145Y-104029089D01*
X162682031Y-103873804D01*
X162599721Y-103734625D01*
X162599714Y-103734616D01*
X162485383Y-103620285D01*
X162485374Y-103620278D01*
X162360055Y-103546165D01*
X162312371Y-103495096D01*
X162299868Y-103426354D01*
X162302515Y-103410852D01*
X162357682Y-103177953D01*
X162361597Y-103171086D01*
X162362161Y-103163201D01*
X162378654Y-103141168D01*
X162392288Y-103117256D01*
X162399295Y-103113595D01*
X162404032Y-103107268D01*
X162429820Y-103097649D01*
X162454217Y-103084904D01*
X162462089Y-103085612D01*
X162469496Y-103082850D01*
X162496391Y-103088700D01*
X162523805Y-103091168D01*
X162530045Y-103096020D01*
X162537769Y-103097701D01*
X162547233Y-103103431D01*
X162606342Y-103142926D01*
X162606345Y-103142928D01*
X162606347Y-103142929D01*
X162738380Y-103197619D01*
X162738384Y-103197619D01*
X162738385Y-103197620D01*
X162878542Y-103225500D01*
X162878545Y-103225500D01*
X163021457Y-103225500D01*
X163115751Y-103206742D01*
X163161620Y-103197619D01*
X163293653Y-103142929D01*
X163412479Y-103063532D01*
X163439186Y-103036825D01*
X163489193Y-102986819D01*
X163550516Y-102953334D01*
X163576874Y-102950500D01*
X163859307Y-102950500D01*
X163859309Y-102950500D01*
X163949852Y-102926239D01*
X163973887Y-102919799D01*
X164076614Y-102860489D01*
X164812319Y-102124784D01*
X164873642Y-102091299D01*
X164943334Y-102096283D01*
X164987681Y-102124784D01*
X165396845Y-102533948D01*
X165430330Y-102595271D01*
X165425346Y-102664963D01*
X165383474Y-102720896D01*
X165356619Y-102736189D01*
X165322161Y-102750462D01*
X165196718Y-102846718D01*
X165100463Y-102972160D01*
X165039956Y-103118237D01*
X165039955Y-103118239D01*
X165025481Y-103228186D01*
X165024501Y-103235636D01*
X165024500Y-103235645D01*
X165024500Y-104714363D01*
X165039953Y-104831753D01*
X165039956Y-104831762D01*
X165093124Y-104960122D01*
X165100464Y-104977841D01*
X165196718Y-105103282D01*
X165322159Y-105199536D01*
X165468238Y-105260044D01*
X165585639Y-105275500D01*
X167064360Y-105275499D01*
X167064363Y-105275499D01*
X167181753Y-105260046D01*
X167181757Y-105260044D01*
X167181762Y-105260044D01*
X167327841Y-105199536D01*
X167453282Y-105103282D01*
X167549536Y-104977841D01*
X167610044Y-104831762D01*
X167625500Y-104714361D01*
X167625499Y-103235640D01*
X167625499Y-103235639D01*
X167625499Y-103235636D01*
X167610046Y-103118246D01*
X167610044Y-103118239D01*
X167610044Y-103118238D01*
X167549536Y-102972159D01*
X167453282Y-102846718D01*
X167327841Y-102750464D01*
X167327836Y-102750462D01*
X167181762Y-102689956D01*
X167181760Y-102689955D01*
X167064370Y-102674501D01*
X167064367Y-102674500D01*
X167064361Y-102674500D01*
X167064354Y-102674500D01*
X166829892Y-102674500D01*
X166762853Y-102654815D01*
X166722504Y-102612498D01*
X166716323Y-102601792D01*
X166685491Y-102548389D01*
X166685487Y-102548384D01*
X165899284Y-101762181D01*
X165865799Y-101700858D01*
X165870783Y-101631166D01*
X165912655Y-101575233D01*
X165978119Y-101550816D01*
X165986965Y-101550500D01*
X167587035Y-101550500D01*
X167654074Y-101570185D01*
X167674716Y-101586819D01*
X167988181Y-101900284D01*
X168021666Y-101961607D01*
X168024500Y-101987965D01*
X168024500Y-106979400D01*
X168004815Y-107046439D01*
X167952011Y-107092194D01*
X167882853Y-107102138D01*
X167819297Y-107073113D01*
X167783458Y-107020355D01*
X167750335Y-106925696D01*
X167654422Y-106773051D01*
X167526948Y-106645577D01*
X167374301Y-106549663D01*
X167204141Y-106490122D01*
X167069930Y-106475000D01*
X166575000Y-106475000D01*
X166575000Y-109475000D01*
X167069930Y-109475000D01*
X167069930Y-109474999D01*
X167204141Y-109459877D01*
X167374301Y-109400336D01*
X167526948Y-109304422D01*
X167654422Y-109176948D01*
X167750336Y-109024301D01*
X167783458Y-108929645D01*
X167824180Y-108872869D01*
X167889133Y-108847121D01*
X167957694Y-108860577D01*
X168008097Y-108908964D01*
X168024500Y-108970599D01*
X168024500Y-111034309D01*
X168027324Y-111044848D01*
X168045874Y-111114079D01*
X168045881Y-111114102D01*
X168045884Y-111114113D01*
X168055201Y-111148887D01*
X168114511Y-111251614D01*
X168673386Y-111810489D01*
X168673388Y-111810490D01*
X168673392Y-111810493D01*
X168721259Y-111838129D01*
X168721263Y-111838130D01*
X168721264Y-111838131D01*
X168776114Y-111869799D01*
X168890691Y-111900500D01*
X169311511Y-111900500D01*
X169378550Y-111920185D01*
X169414613Y-111955609D01*
X169492279Y-112071844D01*
X169492282Y-112071848D01*
X169628151Y-112207717D01*
X169628155Y-112207720D01*
X169787927Y-112314477D01*
X169787928Y-112314477D01*
X169787929Y-112314478D01*
X169787931Y-112314479D01*
X169965452Y-112388010D01*
X169965457Y-112388012D01*
X170153917Y-112425499D01*
X170153920Y-112425500D01*
X170153922Y-112425500D01*
X170346080Y-112425500D01*
X170346081Y-112425499D01*
X170534543Y-112388012D01*
X170712073Y-112314477D01*
X170871845Y-112207720D01*
X171007720Y-112071845D01*
X171022397Y-112049878D01*
X171076009Y-112005073D01*
X171145334Y-111996366D01*
X171208362Y-112026520D01*
X171245082Y-112085963D01*
X171249500Y-112118769D01*
X171249500Y-113647128D01*
X171249368Y-113652855D01*
X171232703Y-114013303D01*
X171231646Y-114024707D01*
X171182192Y-114379231D01*
X171180087Y-114390490D01*
X171098135Y-114738931D01*
X171095001Y-114749947D01*
X170981243Y-115089355D01*
X170977105Y-115100035D01*
X170832523Y-115427482D01*
X170827418Y-115437735D01*
X170653234Y-115750452D01*
X170647205Y-115760190D01*
X170444906Y-116055512D01*
X170438003Y-116064652D01*
X170209328Y-116340035D01*
X170201612Y-116348499D01*
X169948499Y-116601612D01*
X169940035Y-116609328D01*
X169664652Y-116838003D01*
X169655512Y-116844906D01*
X169360190Y-117047205D01*
X169350452Y-117053234D01*
X169037735Y-117227418D01*
X169027482Y-117232523D01*
X168700035Y-117377105D01*
X168689355Y-117381243D01*
X168349947Y-117495001D01*
X168338931Y-117498135D01*
X167990490Y-117580087D01*
X167979231Y-117582192D01*
X167624707Y-117631646D01*
X167613303Y-117632703D01*
X167252855Y-117649368D01*
X167247128Y-117649500D01*
X150752872Y-117649500D01*
X150747145Y-117649368D01*
X150386696Y-117632703D01*
X150375292Y-117631646D01*
X150020768Y-117582192D01*
X150009509Y-117580087D01*
X149661068Y-117498135D01*
X149650052Y-117495001D01*
X149310644Y-117381243D01*
X149299964Y-117377105D01*
X148972517Y-117232523D01*
X148962264Y-117227418D01*
X148649547Y-117053234D01*
X148639809Y-117047205D01*
X148344487Y-116844906D01*
X148335347Y-116838003D01*
X148059964Y-116609328D01*
X148051500Y-116601612D01*
X147798387Y-116348499D01*
X147790671Y-116340035D01*
X147708999Y-116241681D01*
X147561994Y-116064649D01*
X147555093Y-116055512D01*
X147550286Y-116048495D01*
X147392884Y-115818714D01*
X147352794Y-115760189D01*
X147346765Y-115750452D01*
X147257283Y-115589803D01*
X147172579Y-115437731D01*
X147167476Y-115427482D01*
X147022889Y-115100022D01*
X147018763Y-115089376D01*
X147006070Y-115051504D01*
X153530000Y-115051504D01*
X153530000Y-115300000D01*
X154230000Y-115300000D01*
X154230000Y-115800000D01*
X153530000Y-115800000D01*
X153530000Y-116048495D01*
X153568427Y-116241681D01*
X153568430Y-116241693D01*
X153643807Y-116423671D01*
X153643814Y-116423684D01*
X153753248Y-116587462D01*
X153753251Y-116587466D01*
X153892533Y-116726748D01*
X153892537Y-116726751D01*
X154056315Y-116836185D01*
X154056328Y-116836192D01*
X154238308Y-116911569D01*
X154280000Y-116919862D01*
X154280000Y-116116988D01*
X154289940Y-116134205D01*
X154345795Y-116190060D01*
X154414204Y-116229556D01*
X154490504Y-116250000D01*
X154569496Y-116250000D01*
X154645796Y-116229556D01*
X154714205Y-116190060D01*
X154770060Y-116134205D01*
X154780000Y-116116988D01*
X154780000Y-116919862D01*
X154821690Y-116911569D01*
X154821692Y-116911569D01*
X155003671Y-116836192D01*
X155003684Y-116836185D01*
X155167462Y-116726751D01*
X155167466Y-116726748D01*
X155306748Y-116587466D01*
X155306751Y-116587462D01*
X155416185Y-116423684D01*
X155416192Y-116423671D01*
X155491569Y-116241693D01*
X155491572Y-116241681D01*
X155529999Y-116048495D01*
X155530000Y-116048492D01*
X155530000Y-115800000D01*
X154830000Y-115800000D01*
X154830000Y-115300000D01*
X155530000Y-115300000D01*
X155530000Y-115051508D01*
X155529999Y-115051504D01*
X162170000Y-115051504D01*
X162170000Y-115300000D01*
X162870000Y-115300000D01*
X162870000Y-115800000D01*
X162170000Y-115800000D01*
X162170000Y-116048495D01*
X162208427Y-116241681D01*
X162208430Y-116241693D01*
X162283807Y-116423671D01*
X162283814Y-116423684D01*
X162393248Y-116587462D01*
X162393251Y-116587466D01*
X162532533Y-116726748D01*
X162532537Y-116726751D01*
X162696315Y-116836185D01*
X162696328Y-116836192D01*
X162878308Y-116911569D01*
X162920000Y-116919862D01*
X162920000Y-116116988D01*
X162929940Y-116134205D01*
X162985795Y-116190060D01*
X163054204Y-116229556D01*
X163130504Y-116250000D01*
X163209496Y-116250000D01*
X163285796Y-116229556D01*
X163354205Y-116190060D01*
X163410060Y-116134205D01*
X163420000Y-116116988D01*
X163420000Y-116919862D01*
X163461690Y-116911569D01*
X163461692Y-116911569D01*
X163643671Y-116836192D01*
X163643684Y-116836185D01*
X163807462Y-116726751D01*
X163807466Y-116726748D01*
X163946748Y-116587466D01*
X163946751Y-116587462D01*
X164056185Y-116423684D01*
X164056192Y-116423671D01*
X164131569Y-116241693D01*
X164131572Y-116241681D01*
X164169999Y-116048495D01*
X164170000Y-116048492D01*
X164170000Y-115800000D01*
X163470000Y-115800000D01*
X163470000Y-115300000D01*
X164170000Y-115300000D01*
X164170000Y-115051508D01*
X164169999Y-115051504D01*
X164131572Y-114858318D01*
X164131569Y-114858306D01*
X164056192Y-114676328D01*
X164056185Y-114676315D01*
X163946751Y-114512537D01*
X163946748Y-114512533D01*
X163807466Y-114373251D01*
X163807462Y-114373248D01*
X163643684Y-114263814D01*
X163643671Y-114263807D01*
X163461691Y-114188429D01*
X163461683Y-114188427D01*
X163420000Y-114180135D01*
X163420000Y-114983011D01*
X163410060Y-114965795D01*
X163354205Y-114909940D01*
X163285796Y-114870444D01*
X163209496Y-114850000D01*
X163130504Y-114850000D01*
X163054204Y-114870444D01*
X162985795Y-114909940D01*
X162929940Y-114965795D01*
X162920000Y-114983011D01*
X162920000Y-114180136D01*
X162919999Y-114180135D01*
X162878316Y-114188427D01*
X162878308Y-114188429D01*
X162696328Y-114263807D01*
X162696315Y-114263814D01*
X162532537Y-114373248D01*
X162532533Y-114373251D01*
X162393251Y-114512533D01*
X162393248Y-114512537D01*
X162283814Y-114676315D01*
X162283807Y-114676328D01*
X162208430Y-114858306D01*
X162208427Y-114858318D01*
X162170000Y-115051504D01*
X155529999Y-115051504D01*
X155491572Y-114858318D01*
X155491569Y-114858306D01*
X155416192Y-114676328D01*
X155416185Y-114676315D01*
X155306751Y-114512537D01*
X155306748Y-114512533D01*
X155167466Y-114373251D01*
X155167462Y-114373248D01*
X155003684Y-114263814D01*
X155003671Y-114263807D01*
X154821691Y-114188429D01*
X154821683Y-114188427D01*
X154780000Y-114180135D01*
X154780000Y-114983011D01*
X154770060Y-114965795D01*
X154714205Y-114909940D01*
X154645796Y-114870444D01*
X154569496Y-114850000D01*
X154490504Y-114850000D01*
X154414204Y-114870444D01*
X154345795Y-114909940D01*
X154289940Y-114965795D01*
X154280000Y-114983011D01*
X154280000Y-114180136D01*
X154279999Y-114180135D01*
X154238316Y-114188427D01*
X154238308Y-114188429D01*
X154056328Y-114263807D01*
X154056315Y-114263814D01*
X153892537Y-114373248D01*
X153892533Y-114373251D01*
X153753251Y-114512533D01*
X153753248Y-114512537D01*
X153643814Y-114676315D01*
X153643807Y-114676328D01*
X153568430Y-114858306D01*
X153568427Y-114858318D01*
X153530000Y-115051504D01*
X147006070Y-115051504D01*
X146904994Y-114749934D01*
X146901867Y-114738944D01*
X146819910Y-114390482D01*
X146817807Y-114379231D01*
X146816973Y-114373251D01*
X146779435Y-114104152D01*
X150225001Y-114104152D01*
X150235056Y-114202583D01*
X150287906Y-114362072D01*
X150287908Y-114362077D01*
X150376114Y-114505080D01*
X150494919Y-114623885D01*
X150637922Y-114712091D01*
X150637927Y-114712093D01*
X150797416Y-114764942D01*
X150895855Y-114774999D01*
X151450000Y-114774999D01*
X151504136Y-114774999D01*
X151504152Y-114774998D01*
X151602583Y-114764943D01*
X151762072Y-114712093D01*
X151762077Y-114712091D01*
X151905080Y-114623885D01*
X152023885Y-114505080D01*
X152112091Y-114362077D01*
X152112093Y-114362072D01*
X152164942Y-114202583D01*
X152174999Y-114104150D01*
X152175000Y-114104137D01*
X152175000Y-114087500D01*
X151450000Y-114087500D01*
X151450000Y-114774999D01*
X150895855Y-114774999D01*
X150949999Y-114774998D01*
X150950000Y-114774998D01*
X150950000Y-114087500D01*
X150225001Y-114087500D01*
X150225001Y-114104152D01*
X146779435Y-114104152D01*
X146768352Y-114024701D01*
X146767296Y-114013303D01*
X146750632Y-113652855D01*
X146750500Y-113647128D01*
X146750500Y-112147309D01*
X146770185Y-112080270D01*
X146786819Y-112059628D01*
X147350000Y-111496447D01*
X147350000Y-111502661D01*
X147377259Y-111604394D01*
X147429920Y-111695606D01*
X147504394Y-111770080D01*
X147595606Y-111822741D01*
X147697339Y-111850000D01*
X147703553Y-111850000D01*
X147113568Y-112439983D01*
X147113568Y-112439984D01*
X147134165Y-112454949D01*
X147298956Y-112538915D01*
X147298959Y-112538916D01*
X147474852Y-112596066D01*
X147657527Y-112625000D01*
X147842473Y-112625000D01*
X148025147Y-112596066D01*
X148201040Y-112538916D01*
X148201043Y-112538915D01*
X148365836Y-112454947D01*
X148365845Y-112454942D01*
X148386430Y-112439984D01*
X148386431Y-112439983D01*
X147796448Y-111850000D01*
X147802661Y-111850000D01*
X147904394Y-111822741D01*
X147995606Y-111770080D01*
X148070080Y-111695606D01*
X148122741Y-111604394D01*
X148150000Y-111502661D01*
X148150000Y-111496448D01*
X148739983Y-112086431D01*
X148739984Y-112086430D01*
X148754942Y-112065845D01*
X148754947Y-112065836D01*
X148838915Y-111901043D01*
X148838916Y-111901040D01*
X148896066Y-111725147D01*
X148925000Y-111542473D01*
X148925000Y-111357526D01*
X148896066Y-111174852D01*
X148838916Y-110998959D01*
X148838915Y-110998956D01*
X148754949Y-110834165D01*
X148739983Y-110813568D01*
X148150000Y-111403551D01*
X148150000Y-111397339D01*
X148122741Y-111295606D01*
X148070080Y-111204394D01*
X147995606Y-111129920D01*
X147904394Y-111077259D01*
X147802661Y-111050000D01*
X147796447Y-111050000D01*
X148386431Y-110460016D01*
X148386430Y-110460015D01*
X148365834Y-110445050D01*
X148356232Y-110440158D01*
X148305435Y-110392184D01*
X148288639Y-110324364D01*
X148311175Y-110258228D01*
X148343633Y-110226570D01*
X148371845Y-110207720D01*
X148507720Y-110071845D01*
X148614477Y-109912073D01*
X148688012Y-109734543D01*
X148725500Y-109546078D01*
X148725500Y-109353922D01*
X148725500Y-109353919D01*
X148725499Y-109353917D01*
X148688012Y-109165457D01*
X148672948Y-109129089D01*
X148614479Y-108987931D01*
X148614478Y-108987929D01*
X148602898Y-108970599D01*
X148507720Y-108828155D01*
X148507717Y-108828151D01*
X148371848Y-108692282D01*
X148371844Y-108692279D01*
X148212070Y-108585521D01*
X148212068Y-108585520D01*
X148161467Y-108564561D01*
X148107063Y-108520720D01*
X148084998Y-108454426D01*
X148102277Y-108386727D01*
X148153414Y-108339116D01*
X148161467Y-108335439D01*
X148212068Y-108314479D01*
X148212067Y-108314479D01*
X148212073Y-108314477D01*
X148371845Y-108207720D01*
X148507720Y-108071845D01*
X148614477Y-107912073D01*
X148688012Y-107734543D01*
X148725500Y-107546078D01*
X148725500Y-107353922D01*
X148725500Y-107353919D01*
X148725499Y-107353917D01*
X148686824Y-107159482D01*
X148689231Y-107159003D01*
X148688685Y-107099939D01*
X148720297Y-107046094D01*
X149637819Y-106128571D01*
X149699142Y-106095087D01*
X149768834Y-106100071D01*
X149824767Y-106141943D01*
X149849184Y-106207407D01*
X149849500Y-106216253D01*
X149849500Y-106243102D01*
X149853276Y-106274544D01*
X149860122Y-106331561D01*
X149915639Y-106472343D01*
X150007077Y-106592922D01*
X150050425Y-106625793D01*
X150100425Y-106663710D01*
X150102905Y-106667065D01*
X150106703Y-106668800D01*
X150123494Y-106694928D01*
X150141948Y-106719901D01*
X150142863Y-106725067D01*
X150144477Y-106727578D01*
X150149500Y-106762513D01*
X150149500Y-106818529D01*
X150129815Y-106885568D01*
X150100427Y-106917330D01*
X150070533Y-106940000D01*
X149982077Y-107007077D01*
X149890639Y-107127656D01*
X149835122Y-107268438D01*
X149829859Y-107312272D01*
X149824500Y-107356898D01*
X149824500Y-108343102D01*
X149828909Y-108379815D01*
X149835122Y-108431561D01*
X149835122Y-108431563D01*
X149835123Y-108431564D01*
X149835737Y-108433121D01*
X149890639Y-108572343D01*
X149982077Y-108692922D01*
X150017693Y-108719930D01*
X150090425Y-108775084D01*
X150092905Y-108778440D01*
X150096703Y-108780175D01*
X150113494Y-108806303D01*
X150131948Y-108831276D01*
X150132863Y-108836442D01*
X150134477Y-108838953D01*
X150139500Y-108873888D01*
X150139500Y-109048349D01*
X150132542Y-109089303D01*
X150112290Y-109147177D01*
X150112289Y-109147185D01*
X150109500Y-109176929D01*
X150109500Y-109623070D01*
X150112289Y-109652814D01*
X150112291Y-109652826D01*
X150156147Y-109778155D01*
X150156148Y-109778157D01*
X150235001Y-109884999D01*
X150341843Y-109963852D01*
X150353109Y-109967794D01*
X150467173Y-110007708D01*
X150467177Y-110007708D01*
X150467181Y-110007710D01*
X150482057Y-110009105D01*
X150496930Y-110010500D01*
X150881338Y-110010500D01*
X150948377Y-110030185D01*
X150994132Y-110082989D01*
X151004076Y-110152147D01*
X150975051Y-110215703D01*
X150922293Y-110251541D01*
X150889207Y-110263118D01*
X150783576Y-110341076D01*
X150705618Y-110446707D01*
X150662258Y-110570618D01*
X150662258Y-110570620D01*
X150659500Y-110600038D01*
X150659500Y-110711379D01*
X150655276Y-110743465D01*
X150649500Y-110765025D01*
X150649500Y-110765028D01*
X150649500Y-111553632D01*
X150629815Y-111620671D01*
X150600426Y-111652435D01*
X150573133Y-111673131D01*
X150486886Y-111786865D01*
X150434520Y-111919655D01*
X150434520Y-111919656D01*
X150424500Y-112003097D01*
X150424500Y-112521902D01*
X150434520Y-112605343D01*
X150434520Y-112605344D01*
X150460703Y-112671739D01*
X150470566Y-112696751D01*
X150486886Y-112738134D01*
X150568653Y-112845961D01*
X150593476Y-112911273D01*
X150579048Y-112979637D01*
X150534947Y-113026424D01*
X150494921Y-113051112D01*
X150376114Y-113169919D01*
X150287908Y-113312922D01*
X150287906Y-113312927D01*
X150235057Y-113472416D01*
X150225000Y-113570849D01*
X150225000Y-113587500D01*
X152174999Y-113587500D01*
X152174999Y-113570864D01*
X152174998Y-113570847D01*
X152164943Y-113472416D01*
X152112093Y-113312927D01*
X152112091Y-113312922D01*
X152023885Y-113169919D01*
X151905079Y-113051113D01*
X151905075Y-113051110D01*
X151865053Y-113026424D01*
X151818328Y-112974476D01*
X151807107Y-112905514D01*
X151831346Y-112845961D01*
X151913113Y-112738134D01*
X151913115Y-112738132D01*
X151965479Y-112605346D01*
X151975500Y-112521902D01*
X151975500Y-112003098D01*
X151965479Y-111919654D01*
X151913115Y-111786868D01*
X151913113Y-111786865D01*
X151826866Y-111673131D01*
X151799574Y-111652435D01*
X151797094Y-111649079D01*
X151793297Y-111647345D01*
X151776507Y-111621219D01*
X151758051Y-111596243D01*
X151757135Y-111591075D01*
X151755523Y-111588567D01*
X151750500Y-111553632D01*
X151750500Y-111531108D01*
X151770185Y-111464069D01*
X151822989Y-111418314D01*
X151892147Y-111408370D01*
X151915446Y-111414064D01*
X152033121Y-111455241D01*
X152033120Y-111455241D01*
X152037534Y-111455654D01*
X152062543Y-111458000D01*
X152437456Y-111457999D01*
X152466879Y-111455241D01*
X152590794Y-111411881D01*
X152696423Y-111333923D01*
X152774381Y-111228294D01*
X152812275Y-111120000D01*
X152817741Y-111104381D01*
X152817741Y-111104378D01*
X152820498Y-111074976D01*
X152820500Y-111074957D01*
X152820499Y-111044845D01*
X152824724Y-111012750D01*
X152850500Y-110916557D01*
X152850500Y-110758443D01*
X152824724Y-110662245D01*
X152820499Y-110630152D01*
X152820499Y-110600045D01*
X152819138Y-110585523D01*
X152817741Y-110570621D01*
X152774381Y-110446706D01*
X152724618Y-110379280D01*
X152696423Y-110341076D01*
X152613915Y-110280183D01*
X152590794Y-110263119D01*
X152590792Y-110263118D01*
X152466880Y-110219758D01*
X152437461Y-110217000D01*
X152347459Y-110217000D01*
X152280420Y-110197315D01*
X152234665Y-110144511D01*
X152224721Y-110075353D01*
X152253746Y-110011797D01*
X152259779Y-110005318D01*
X152299714Y-109965383D01*
X152299721Y-109965374D01*
X152382031Y-109826195D01*
X152382033Y-109826190D01*
X152427144Y-109670918D01*
X152427145Y-109670912D01*
X152428790Y-109650000D01*
X151774000Y-109650000D01*
X151706961Y-109630315D01*
X151661206Y-109577511D01*
X151650000Y-109526000D01*
X151650000Y-109400000D01*
X151524000Y-109400000D01*
X151456961Y-109380315D01*
X151411206Y-109327511D01*
X151400000Y-109276000D01*
X151400000Y-108758254D01*
X151419685Y-108691215D01*
X151425197Y-108683328D01*
X151500232Y-108584381D01*
X151509361Y-108572342D01*
X151564877Y-108431564D01*
X151575500Y-108343102D01*
X151575500Y-107356898D01*
X151564877Y-107268436D01*
X151509361Y-107127658D01*
X151509360Y-107127657D01*
X151509360Y-107127656D01*
X151417922Y-107007077D01*
X151346503Y-106952919D01*
X151299573Y-106917331D01*
X151297094Y-106913976D01*
X151293297Y-106912242D01*
X151276505Y-106886113D01*
X151258052Y-106861141D01*
X151257136Y-106855974D01*
X151255523Y-106853464D01*
X151250500Y-106818529D01*
X151250500Y-106724597D01*
X151270185Y-106657558D01*
X151299575Y-106625793D01*
X151342922Y-106592922D01*
X151414803Y-106498133D01*
X151434361Y-106472342D01*
X151489877Y-106331564D01*
X151500500Y-106243102D01*
X151500500Y-105456898D01*
X151489877Y-105368436D01*
X151434361Y-105227658D01*
X151434360Y-105227657D01*
X151434360Y-105227656D01*
X151342922Y-105107077D01*
X151222343Y-105015639D01*
X151081561Y-104960122D01*
X151035926Y-104954642D01*
X150993102Y-104949500D01*
X150356898Y-104949500D01*
X150317853Y-104954188D01*
X150268438Y-104960122D01*
X150127656Y-105015639D01*
X150024425Y-105093922D01*
X149959113Y-105118745D01*
X149890749Y-105104317D01*
X149841039Y-105055219D01*
X149825500Y-104995118D01*
X149825500Y-103192254D01*
X149845185Y-103125215D01*
X149861814Y-103104578D01*
X151336391Y-101630000D01*
X152695496Y-101630000D01*
X152737968Y-101776195D01*
X152820278Y-101915374D01*
X152820285Y-101915383D01*
X152934616Y-102029714D01*
X152934625Y-102029721D01*
X153073804Y-102112031D01*
X153229089Y-102157145D01*
X153250000Y-102158789D01*
X153750000Y-102158789D01*
X153770910Y-102157145D01*
X153926195Y-102112031D01*
X154065374Y-102029721D01*
X154065383Y-102029714D01*
X154179714Y-101915383D01*
X154179721Y-101915374D01*
X154262031Y-101776195D01*
X154304504Y-101630000D01*
X153750000Y-101630000D01*
X153750000Y-102158789D01*
X153250000Y-102158789D01*
X153250000Y-101630000D01*
X152695496Y-101630000D01*
X151336391Y-101630000D01*
X152677819Y-100288572D01*
X152739142Y-100255088D01*
X152808834Y-100260072D01*
X152864767Y-100301944D01*
X152889184Y-100367408D01*
X152889500Y-100376254D01*
X152889500Y-100613070D01*
X152892289Y-100642814D01*
X152892290Y-100642822D01*
X152900200Y-100665426D01*
X152903761Y-100735205D01*
X152870841Y-100794060D01*
X152820283Y-100844619D01*
X152820278Y-100844625D01*
X152737968Y-100983804D01*
X152695496Y-101130000D01*
X154304504Y-101130000D01*
X154262031Y-100983804D01*
X154179721Y-100844625D01*
X154179714Y-100844616D01*
X154129159Y-100794061D01*
X154095674Y-100732738D01*
X154093937Y-100689922D01*
X154095616Y-100677379D01*
X154107710Y-100642819D01*
X154110500Y-100613066D01*
X154110500Y-100566234D01*
X154111597Y-100558042D01*
X154122578Y-100533367D01*
X154130185Y-100507461D01*
X154136568Y-100501929D01*
X154140005Y-100494208D01*
X154162584Y-100479386D01*
X154182989Y-100461706D01*
X154192756Y-100459581D01*
X154198415Y-100455867D01*
X154210361Y-100455751D01*
X154234500Y-100450500D01*
X154342473Y-100450500D01*
X154342474Y-100450500D01*
X154342475Y-100450500D01*
X154423407Y-100428814D01*
X154493255Y-100430476D01*
X154551118Y-100469637D01*
X154578623Y-100533866D01*
X154579500Y-100548587D01*
X154579500Y-100667453D01*
X154582258Y-100696874D01*
X154582260Y-100696884D01*
X154625619Y-100820794D01*
X154625619Y-100820795D01*
X154696154Y-100916367D01*
X154720125Y-100981996D01*
X154704809Y-101050166D01*
X154696154Y-101063633D01*
X154625619Y-101159204D01*
X154625619Y-101159205D01*
X154582258Y-101283118D01*
X154582258Y-101283120D01*
X154579500Y-101312538D01*
X154579500Y-101687453D01*
X154582258Y-101716874D01*
X154582260Y-101716884D01*
X154625618Y-101840792D01*
X154625619Y-101840794D01*
X154650761Y-101874860D01*
X154703576Y-101946423D01*
X154756391Y-101985402D01*
X154809206Y-102024381D01*
X154825650Y-102030135D01*
X154928955Y-102066284D01*
X154985731Y-102107006D01*
X155011478Y-102171959D01*
X155012000Y-102183324D01*
X155012000Y-102585656D01*
X155012000Y-102705920D01*
X155023936Y-102750464D01*
X155043127Y-102822088D01*
X155043128Y-102822089D01*
X155103256Y-102926235D01*
X155103259Y-102926239D01*
X156073760Y-103896741D01*
X156177913Y-103956873D01*
X156294079Y-103988000D01*
X156294080Y-103988000D01*
X158038000Y-103988000D01*
X158046685Y-103990550D01*
X158055647Y-103989262D01*
X158079687Y-104000240D01*
X158105039Y-104007685D01*
X158110966Y-104014525D01*
X158119203Y-104018287D01*
X158133492Y-104040521D01*
X158150794Y-104060489D01*
X158153081Y-104071003D01*
X158156977Y-104077065D01*
X158162000Y-104112000D01*
X158162000Y-104146945D01*
X158142315Y-104213984D01*
X158125681Y-104234626D01*
X157534510Y-104825796D01*
X157534506Y-104825801D01*
X157474378Y-104929947D01*
X157474377Y-104929948D01*
X157458841Y-104987931D01*
X157443250Y-105046117D01*
X157443250Y-105046119D01*
X157443250Y-105203680D01*
X157423565Y-105270719D01*
X157419021Y-105277312D01*
X157351768Y-105368438D01*
X157347207Y-105374618D01*
X157347206Y-105374619D01*
X157302353Y-105502798D01*
X157302353Y-105502800D01*
X157299500Y-105533230D01*
X157299500Y-106666769D01*
X157302353Y-106697199D01*
X157302353Y-106697201D01*
X157347206Y-106825380D01*
X157347207Y-106825382D01*
X157427850Y-106934650D01*
X157537118Y-107015293D01*
X157572012Y-107027503D01*
X157665299Y-107060146D01*
X157695730Y-107063000D01*
X157695734Y-107063000D01*
X158104270Y-107063000D01*
X158134699Y-107060146D01*
X158134701Y-107060146D01*
X158198790Y-107037719D01*
X158262882Y-107015293D01*
X158301367Y-106986889D01*
X158322306Y-106979241D01*
X158341171Y-106967364D01*
X158354487Y-106967487D01*
X158366995Y-106962919D01*
X158388744Y-106967805D01*
X158411038Y-106968012D01*
X158428343Y-106976701D01*
X158435165Y-106978234D01*
X158443005Y-106982972D01*
X158445873Y-106984853D01*
X158487118Y-107015293D01*
X158498195Y-107019169D01*
X158510902Y-107027503D01*
X158524087Y-107043008D01*
X158540628Y-107054872D01*
X158546261Y-107069082D01*
X158556165Y-107080729D01*
X158558874Y-107100903D01*
X158566375Y-107119825D01*
X158563430Y-107134825D01*
X158565466Y-107149977D01*
X158556838Y-107168413D01*
X158552918Y-107188387D01*
X158542331Y-107199414D01*
X158535852Y-107213260D01*
X158518627Y-107224105D01*
X158504530Y-107238789D01*
X158477493Y-107250267D01*
X158439804Y-107261216D01*
X158439803Y-107261217D01*
X158298449Y-107344813D01*
X158298439Y-107344821D01*
X158259208Y-107384051D01*
X158197884Y-107417535D01*
X158142578Y-107414150D01*
X158142073Y-107416464D01*
X158134699Y-107414853D01*
X158104270Y-107412000D01*
X158104266Y-107412000D01*
X157695734Y-107412000D01*
X157695730Y-107412000D01*
X157665300Y-107414853D01*
X157665298Y-107414853D01*
X157537119Y-107459706D01*
X157537117Y-107459707D01*
X157427850Y-107540350D01*
X157347207Y-107649617D01*
X157347206Y-107649619D01*
X157302353Y-107777798D01*
X157302353Y-107777800D01*
X157299500Y-107808230D01*
X157299500Y-108941769D01*
X157302353Y-108972199D01*
X157302353Y-108972201D01*
X157343330Y-109089303D01*
X157347207Y-109100382D01*
X157351516Y-109106220D01*
X157375486Y-109171850D01*
X157360168Y-109240020D01*
X157310427Y-109289087D01*
X157247438Y-109303777D01*
X157233306Y-109303286D01*
X157219177Y-109299500D01*
X157124340Y-109299500D01*
X157122181Y-109299425D01*
X157090975Y-109289072D01*
X157059448Y-109279815D01*
X157056913Y-109277772D01*
X157055866Y-109277425D01*
X157054718Y-109276003D01*
X157038806Y-109263181D01*
X156396198Y-108620573D01*
X156362713Y-108559250D01*
X156367697Y-108489558D01*
X156409569Y-108433625D01*
X156410068Y-108433253D01*
X156446423Y-108406423D01*
X156524381Y-108300794D01*
X156555227Y-108212643D01*
X156567741Y-108176881D01*
X156567741Y-108176879D01*
X156567741Y-108176874D01*
X156570500Y-108147457D01*
X156570499Y-107772544D01*
X156567741Y-107743121D01*
X156540895Y-107666402D01*
X156537333Y-107596626D01*
X156570257Y-107537767D01*
X156640731Y-107467294D01*
X156640738Y-107467285D01*
X156722404Y-107329194D01*
X156762844Y-107190000D01*
X156074000Y-107190000D01*
X156006961Y-107170315D01*
X155961206Y-107117511D01*
X155950000Y-107066000D01*
X155950000Y-106940000D01*
X155824000Y-106940000D01*
X155756961Y-106920315D01*
X155711206Y-106867511D01*
X155700000Y-106816000D01*
X155700000Y-106690000D01*
X156200000Y-106690000D01*
X156762844Y-106690000D01*
X156722404Y-106550805D01*
X156640738Y-106412714D01*
X156640731Y-106412705D01*
X156527294Y-106299268D01*
X156527285Y-106299261D01*
X156389191Y-106217593D01*
X156389188Y-106217592D01*
X156235130Y-106172834D01*
X156200000Y-106170068D01*
X156200000Y-106690000D01*
X155700000Y-106690000D01*
X155700000Y-106170068D01*
X155699999Y-106170068D01*
X155664869Y-106172834D01*
X155664868Y-106172834D01*
X155510811Y-106217592D01*
X155510810Y-106217592D01*
X155443560Y-106257363D01*
X155442671Y-106257588D01*
X155442038Y-106258248D01*
X155408858Y-106266166D01*
X155375835Y-106274544D01*
X155374968Y-106274254D01*
X155374077Y-106274467D01*
X155341878Y-106263187D01*
X155309573Y-106252384D01*
X155308714Y-106251570D01*
X155308136Y-106251368D01*
X155292009Y-106235749D01*
X155282684Y-106226917D01*
X155226744Y-106155234D01*
X155216568Y-106129540D01*
X155203331Y-106105290D01*
X155201977Y-106092696D01*
X155201018Y-106090273D01*
X155201470Y-106087973D01*
X155200500Y-106078947D01*
X155200500Y-105339369D01*
X155200500Y-105339364D01*
X155189866Y-105266375D01*
X155176982Y-105240020D01*
X155134827Y-105153789D01*
X155046210Y-105065172D01*
X154933628Y-105010135D01*
X154933626Y-105010134D01*
X154933625Y-105010134D01*
X154860636Y-104999500D01*
X154239364Y-104999500D01*
X154166375Y-105010134D01*
X154166373Y-105010134D01*
X154166371Y-105010135D01*
X154053789Y-105065172D01*
X153965174Y-105153787D01*
X153965174Y-105153788D01*
X153941221Y-105202784D01*
X153894093Y-105254366D01*
X153826559Y-105272280D01*
X153760060Y-105250839D01*
X153731017Y-105223248D01*
X153642922Y-105107077D01*
X153522343Y-105015639D01*
X153381561Y-104960122D01*
X153335926Y-104954642D01*
X153293102Y-104949500D01*
X152656898Y-104949500D01*
X152617853Y-104954188D01*
X152568438Y-104960122D01*
X152427656Y-105015639D01*
X152307077Y-105107077D01*
X152215639Y-105227656D01*
X152160122Y-105368438D01*
X152154188Y-105417853D01*
X152149500Y-105456898D01*
X152149500Y-106243102D01*
X152153276Y-106274544D01*
X152160122Y-106331561D01*
X152215639Y-106472343D01*
X152307077Y-106592922D01*
X152364983Y-106636833D01*
X152406506Y-106693025D01*
X152411058Y-106762747D01*
X152377193Y-106823861D01*
X152315664Y-106856964D01*
X152304845Y-106858752D01*
X152293440Y-106860121D01*
X152152656Y-106915639D01*
X152032077Y-107007077D01*
X151940639Y-107127656D01*
X151885122Y-107268438D01*
X151879859Y-107312272D01*
X151874500Y-107356898D01*
X151874500Y-108343102D01*
X151878909Y-108379815D01*
X151885123Y-108431565D01*
X151903731Y-108478751D01*
X151910013Y-108548337D01*
X151900000Y-108567515D01*
X151900000Y-109150000D01*
X152428790Y-109150000D01*
X152427145Y-109129089D01*
X152392284Y-109009094D01*
X152392484Y-108939225D01*
X152430427Y-108880555D01*
X152494065Y-108851712D01*
X152511361Y-108850500D01*
X153118097Y-108850500D01*
X153118102Y-108850500D01*
X153206564Y-108839877D01*
X153347342Y-108784361D01*
X153436638Y-108716644D01*
X153501947Y-108691822D01*
X153570311Y-108706249D01*
X153599243Y-108727768D01*
X154261985Y-109390510D01*
X154372105Y-109454087D01*
X154372106Y-109454088D01*
X154372107Y-109454088D01*
X154387515Y-109462984D01*
X154527525Y-109500500D01*
X154527526Y-109500500D01*
X154672474Y-109500500D01*
X155100613Y-109500500D01*
X155130053Y-109509144D01*
X155160040Y-109515668D01*
X155165055Y-109519422D01*
X155167652Y-109520185D01*
X155188294Y-109536819D01*
X155204699Y-109553224D01*
X155238184Y-109614547D01*
X155233200Y-109684239D01*
X155191328Y-109740172D01*
X155160352Y-109757087D01*
X155107912Y-109776646D01*
X155107911Y-109776646D01*
X154992150Y-109863306D01*
X154926686Y-109887723D01*
X154870387Y-109878600D01*
X154821691Y-109858429D01*
X154821683Y-109858427D01*
X154780000Y-109850135D01*
X154780000Y-110653011D01*
X154770060Y-110635795D01*
X154714205Y-110579940D01*
X154645796Y-110540444D01*
X154569496Y-110520000D01*
X154490504Y-110520000D01*
X154414204Y-110540444D01*
X154345795Y-110579940D01*
X154289940Y-110635795D01*
X154280000Y-110653011D01*
X154280000Y-109850136D01*
X154279999Y-109850135D01*
X154238316Y-109858427D01*
X154238308Y-109858429D01*
X154056328Y-109933807D01*
X154056315Y-109933814D01*
X153892537Y-110043248D01*
X153892533Y-110043251D01*
X153753251Y-110182533D01*
X153753248Y-110182537D01*
X153643814Y-110346315D01*
X153643807Y-110346328D01*
X153568430Y-110528306D01*
X153568427Y-110528318D01*
X153530000Y-110721504D01*
X153530000Y-111120000D01*
X154230000Y-111120000D01*
X154230000Y-111620000D01*
X153530000Y-111620000D01*
X153530000Y-112018495D01*
X153568427Y-112211681D01*
X153568430Y-112211693D01*
X153643807Y-112393671D01*
X153643814Y-112393684D01*
X153753248Y-112557462D01*
X153753251Y-112557466D01*
X153892533Y-112696748D01*
X153892537Y-112696751D01*
X154056315Y-112806185D01*
X154056328Y-112806192D01*
X154238308Y-112881569D01*
X154280000Y-112889862D01*
X154280000Y-112086988D01*
X154289940Y-112104205D01*
X154345795Y-112160060D01*
X154414204Y-112199556D01*
X154490504Y-112220000D01*
X154569496Y-112220000D01*
X154645796Y-112199556D01*
X154714205Y-112160060D01*
X154770060Y-112104205D01*
X154780000Y-112086988D01*
X154780000Y-112889862D01*
X154821690Y-112881569D01*
X154821692Y-112881569D01*
X155003671Y-112806192D01*
X155003684Y-112806185D01*
X155167462Y-112696751D01*
X155167466Y-112696748D01*
X155306748Y-112557466D01*
X155306751Y-112557462D01*
X155416185Y-112393684D01*
X155416186Y-112393682D01*
X155420129Y-112384163D01*
X155463968Y-112329757D01*
X155530261Y-112307689D01*
X155597961Y-112324965D01*
X155603400Y-112328647D01*
X155606634Y-112330514D01*
X155606635Y-112330515D01*
X155737865Y-112406281D01*
X155884234Y-112445500D01*
X155884236Y-112445500D01*
X156035764Y-112445500D01*
X156035766Y-112445500D01*
X156182135Y-112406281D01*
X156313365Y-112330515D01*
X156420515Y-112223365D01*
X156496281Y-112092135D01*
X156535500Y-111945766D01*
X156535500Y-111794499D01*
X156537443Y-111787881D01*
X156536227Y-111781094D01*
X156547160Y-111754789D01*
X156555185Y-111727460D01*
X156560395Y-111722944D01*
X156563043Y-111716576D01*
X156586464Y-111700356D01*
X156607989Y-111681705D01*
X156616186Y-111679773D01*
X156620484Y-111676797D01*
X156646927Y-111672528D01*
X156655225Y-111670573D01*
X156657370Y-111670499D01*
X156794864Y-111670499D01*
X156819991Y-111667585D01*
X156826614Y-111664660D01*
X156845725Y-111664001D01*
X156862410Y-111668281D01*
X156870540Y-111668281D01*
X156870745Y-111666510D01*
X156880007Y-111667584D01*
X156880009Y-111667585D01*
X156905135Y-111670500D01*
X157294864Y-111670499D01*
X157294879Y-111670497D01*
X157294882Y-111670497D01*
X157329258Y-111666511D01*
X157329300Y-111666874D01*
X157353710Y-111663983D01*
X157373170Y-111664565D01*
X157380009Y-111667585D01*
X157405135Y-111670500D01*
X157571424Y-111670499D01*
X157573283Y-111670555D01*
X157604788Y-111680839D01*
X157636612Y-111690183D01*
X157637873Y-111691638D01*
X157639703Y-111692236D01*
X157660652Y-111717926D01*
X157682367Y-111742987D01*
X157683376Y-111745794D01*
X157683858Y-111746385D01*
X157683982Y-111747479D01*
X157689345Y-111762398D01*
X157691404Y-111770080D01*
X157696509Y-111789132D01*
X157724797Y-111838130D01*
X157753511Y-111887865D01*
X157753515Y-111887870D01*
X157777311Y-111911666D01*
X157797014Y-111937343D01*
X157798513Y-111939938D01*
X157977513Y-112118938D01*
X158059062Y-112200487D01*
X158158938Y-112258151D01*
X158270336Y-112288000D01*
X158270338Y-112288000D01*
X158907662Y-112288000D01*
X158907664Y-112288000D01*
X159019062Y-112258151D01*
X159118938Y-112200487D01*
X159200487Y-112118938D01*
X159379487Y-111939938D01*
X159379489Y-111939935D01*
X159380983Y-111937348D01*
X159390046Y-111923793D01*
X159394971Y-111917382D01*
X159446486Y-111865869D01*
X159478459Y-111810489D01*
X159503491Y-111767132D01*
X159504758Y-111762403D01*
X159541122Y-111702745D01*
X159603969Y-111672216D01*
X159624532Y-111670499D01*
X159794856Y-111670499D01*
X159794864Y-111670499D01*
X159794879Y-111670497D01*
X159794882Y-111670497D01*
X159829258Y-111666511D01*
X159829463Y-111668281D01*
X159870540Y-111668281D01*
X159870745Y-111666510D01*
X159880007Y-111667584D01*
X159880009Y-111667585D01*
X159905135Y-111670500D01*
X160294864Y-111670499D01*
X160294879Y-111670497D01*
X160294882Y-111670497D01*
X160329258Y-111666511D01*
X160329463Y-111668281D01*
X160370540Y-111668281D01*
X160370745Y-111666510D01*
X160380007Y-111667584D01*
X160380009Y-111667585D01*
X160405135Y-111670500D01*
X160794864Y-111670499D01*
X160794879Y-111670497D01*
X160794882Y-111670497D01*
X160829258Y-111666511D01*
X160829303Y-111666901D01*
X160854275Y-111664001D01*
X160873385Y-111664660D01*
X160880009Y-111667585D01*
X160905135Y-111670500D01*
X161042645Y-111670499D01*
X161044775Y-111670573D01*
X161075979Y-111680916D01*
X161107539Y-111690183D01*
X161108991Y-111691859D01*
X161111096Y-111692557D01*
X161131756Y-111718131D01*
X161153294Y-111742987D01*
X161153831Y-111745456D01*
X161155003Y-111746907D01*
X161155858Y-111754776D01*
X161164500Y-111794499D01*
X161164500Y-111945766D01*
X161168179Y-111959496D01*
X161203719Y-112092136D01*
X161235574Y-112147309D01*
X161279485Y-112223365D01*
X161386635Y-112330515D01*
X161517865Y-112406281D01*
X161664234Y-112445500D01*
X161664236Y-112445500D01*
X161815764Y-112445500D01*
X161815766Y-112445500D01*
X161962135Y-112406281D01*
X162093365Y-112330515D01*
X162093366Y-112330513D01*
X162100403Y-112326451D01*
X162101676Y-112328656D01*
X162154956Y-112308043D01*
X162223405Y-112322063D01*
X162273407Y-112370864D01*
X162279867Y-112384157D01*
X162283809Y-112393674D01*
X162283814Y-112393684D01*
X162393248Y-112557462D01*
X162393251Y-112557466D01*
X162532533Y-112696748D01*
X162532537Y-112696751D01*
X162696315Y-112806185D01*
X162696328Y-112806192D01*
X162878308Y-112881569D01*
X162920000Y-112889862D01*
X162920000Y-112086988D01*
X162929940Y-112104205D01*
X162985795Y-112160060D01*
X163054204Y-112199556D01*
X163130504Y-112220000D01*
X163209496Y-112220000D01*
X163285796Y-112199556D01*
X163354205Y-112160060D01*
X163410060Y-112104205D01*
X163420000Y-112086988D01*
X163420000Y-112889862D01*
X163461690Y-112881569D01*
X163461692Y-112881569D01*
X163643671Y-112806192D01*
X163643684Y-112806185D01*
X163807462Y-112696751D01*
X163807466Y-112696748D01*
X163946748Y-112557466D01*
X163946751Y-112557462D01*
X164056185Y-112393684D01*
X164056192Y-112393671D01*
X164131569Y-112211693D01*
X164131572Y-112211681D01*
X164169999Y-112018495D01*
X164170000Y-112018492D01*
X164170000Y-111620000D01*
X163470000Y-111620000D01*
X163470000Y-111120000D01*
X164170000Y-111120000D01*
X164170000Y-110721508D01*
X164169999Y-110721504D01*
X164131572Y-110528318D01*
X164131569Y-110528306D01*
X164056192Y-110346328D01*
X164056185Y-110346315D01*
X163946751Y-110182537D01*
X163946748Y-110182533D01*
X163807466Y-110043251D01*
X163807462Y-110043248D01*
X163643684Y-109933814D01*
X163643671Y-109933807D01*
X163461691Y-109858429D01*
X163461683Y-109858427D01*
X163420000Y-109850135D01*
X163420000Y-110653011D01*
X163410060Y-110635795D01*
X163354205Y-110579940D01*
X163285796Y-110540444D01*
X163209496Y-110520000D01*
X163130504Y-110520000D01*
X163054204Y-110540444D01*
X162985795Y-110579940D01*
X162929940Y-110635795D01*
X162920000Y-110653011D01*
X162920000Y-109850136D01*
X162919999Y-109850135D01*
X162878314Y-109858427D01*
X162878313Y-109858428D01*
X162829612Y-109878600D01*
X162760142Y-109886067D01*
X162707850Y-109863305D01*
X162592089Y-109776647D01*
X162592085Y-109776645D01*
X162577136Y-109771069D01*
X162521204Y-109729197D01*
X162496788Y-109663732D01*
X162500000Y-109648967D01*
X162500000Y-109599999D01*
X163000000Y-109599999D01*
X163054136Y-109599999D01*
X163054152Y-109599998D01*
X163152583Y-109589943D01*
X163312072Y-109537093D01*
X163312077Y-109537091D01*
X163455080Y-109448885D01*
X163573885Y-109330080D01*
X163662091Y-109187077D01*
X163662093Y-109187072D01*
X163714942Y-109027583D01*
X163724999Y-108929150D01*
X163725000Y-108929137D01*
X163725000Y-108912500D01*
X163000000Y-108912500D01*
X163000000Y-109599999D01*
X162500000Y-109599999D01*
X162500000Y-108912500D01*
X161775001Y-108912500D01*
X161775001Y-108929152D01*
X161785056Y-109027583D01*
X161837906Y-109187072D01*
X161837908Y-109187077D01*
X161926114Y-109330080D01*
X162044919Y-109448885D01*
X162187923Y-109537091D01*
X162218657Y-109547275D01*
X162276102Y-109587047D01*
X162302927Y-109651562D01*
X162299870Y-109668638D01*
X162300000Y-109668638D01*
X162300000Y-110671000D01*
X162297449Y-110679685D01*
X162298738Y-110688647D01*
X162287759Y-110712687D01*
X162280315Y-110738039D01*
X162273474Y-110743966D01*
X162269713Y-110752203D01*
X162247478Y-110766492D01*
X162227511Y-110783794D01*
X162216996Y-110786081D01*
X162210935Y-110789977D01*
X162176000Y-110795000D01*
X161974499Y-110795000D01*
X161907460Y-110775315D01*
X161861705Y-110722511D01*
X161850499Y-110671000D01*
X161850499Y-110175143D01*
X161850499Y-110175136D01*
X161850497Y-110175117D01*
X161847586Y-110150012D01*
X161847585Y-110150010D01*
X161847585Y-110150009D01*
X161813073Y-110071847D01*
X161810566Y-110066168D01*
X161800000Y-110016082D01*
X161800000Y-109720000D01*
X161702155Y-109720000D01*
X161642627Y-109726401D01*
X161642620Y-109726403D01*
X161507913Y-109776645D01*
X161507911Y-109776647D01*
X161392813Y-109862809D01*
X161392809Y-109862813D01*
X161387569Y-109869813D01*
X161383914Y-109872548D01*
X161382017Y-109876703D01*
X161356197Y-109893295D01*
X161331634Y-109911683D01*
X161326006Y-109912698D01*
X161323239Y-109914477D01*
X161288304Y-109919500D01*
X161124500Y-109919500D01*
X161057461Y-109899815D01*
X161011706Y-109847011D01*
X161000500Y-109795500D01*
X161000500Y-109217255D01*
X161020185Y-109150216D01*
X161036819Y-109129574D01*
X161272369Y-108894024D01*
X161446463Y-108719930D01*
X164825000Y-108719930D01*
X164840122Y-108854141D01*
X164899663Y-109024301D01*
X164995577Y-109176948D01*
X165123051Y-109304422D01*
X165275698Y-109400336D01*
X165445858Y-109459877D01*
X165580069Y-109474999D01*
X165580070Y-109475000D01*
X166075000Y-109475000D01*
X166075000Y-108225000D01*
X164825000Y-108225000D01*
X164825000Y-108719930D01*
X161446463Y-108719930D01*
X161520480Y-108645913D01*
X161524191Y-108639484D01*
X161574754Y-108591268D01*
X161590623Y-108584440D01*
X161590794Y-108584381D01*
X161696423Y-108506423D01*
X161717978Y-108477217D01*
X161728570Y-108462866D01*
X161784218Y-108420615D01*
X161828340Y-108412500D01*
X163724999Y-108412500D01*
X163724999Y-108395864D01*
X163724998Y-108395847D01*
X163714943Y-108297417D01*
X163686851Y-108212643D01*
X163686850Y-108212641D01*
X163662093Y-108137927D01*
X163662091Y-108137922D01*
X163573885Y-107994919D01*
X163455079Y-107876113D01*
X163455075Y-107876110D01*
X163415053Y-107851424D01*
X163368328Y-107799476D01*
X163357107Y-107730514D01*
X163381346Y-107670961D01*
X163435846Y-107599091D01*
X163463115Y-107563132D01*
X163515479Y-107430346D01*
X163525500Y-107346902D01*
X163525500Y-107230069D01*
X164825000Y-107230069D01*
X164825000Y-107725000D01*
X166075000Y-107725000D01*
X166075000Y-106475000D01*
X165580070Y-106475000D01*
X165445858Y-106490122D01*
X165275698Y-106549663D01*
X165123051Y-106645577D01*
X164995577Y-106773051D01*
X164899663Y-106925698D01*
X164840122Y-107095858D01*
X164825000Y-107230069D01*
X163525500Y-107230069D01*
X163525500Y-106828098D01*
X163515479Y-106744654D01*
X163463115Y-106611868D01*
X163443137Y-106585523D01*
X163371742Y-106491374D01*
X163373826Y-106489792D01*
X163346716Y-106440143D01*
X163351700Y-106370451D01*
X163393572Y-106314518D01*
X163459036Y-106290101D01*
X163508838Y-106296744D01*
X163533121Y-106305241D01*
X163533120Y-106305241D01*
X163537534Y-106305654D01*
X163562543Y-106308000D01*
X163937456Y-106307999D01*
X163966879Y-106305241D01*
X164090794Y-106261881D01*
X164196423Y-106183923D01*
X164274381Y-106078294D01*
X164303166Y-105996031D01*
X164317741Y-105954381D01*
X164317741Y-105954378D01*
X164320498Y-105924976D01*
X164320500Y-105924957D01*
X164320499Y-105894845D01*
X164324724Y-105862750D01*
X164334109Y-105827727D01*
X164350500Y-105766557D01*
X164350500Y-105608443D01*
X164324724Y-105512245D01*
X164320499Y-105480152D01*
X164320499Y-105450045D01*
X164317741Y-105420625D01*
X164317741Y-105420621D01*
X164274381Y-105296706D01*
X164223378Y-105227599D01*
X164196423Y-105191076D01*
X164124860Y-105138261D01*
X164090794Y-105113119D01*
X164090792Y-105113118D01*
X163966880Y-105069758D01*
X163937461Y-105067000D01*
X163562546Y-105067000D01*
X163533125Y-105069758D01*
X163533115Y-105069760D01*
X163409205Y-105113119D01*
X163409204Y-105113119D01*
X163313633Y-105183654D01*
X163248004Y-105207625D01*
X163179834Y-105192309D01*
X163166367Y-105183654D01*
X163070794Y-105113119D01*
X162946880Y-105069758D01*
X162917461Y-105067000D01*
X162696440Y-105067000D01*
X162629401Y-105047315D01*
X162583646Y-104994511D01*
X162573702Y-104925353D01*
X162596189Y-104872354D01*
X162595748Y-104872093D01*
X162597704Y-104868784D01*
X162598464Y-104866995D01*
X162599721Y-104865373D01*
X162682031Y-104726195D01*
X162682033Y-104726190D01*
X162727144Y-104570918D01*
X162727145Y-104570912D01*
X162728790Y-104550000D01*
X162200000Y-104550000D01*
X162200000Y-105106542D01*
X162238332Y-105157901D01*
X162243216Y-105227599D01*
X162221860Y-105274700D01*
X162205618Y-105296707D01*
X162162258Y-105420618D01*
X162162258Y-105420620D01*
X162159500Y-105450038D01*
X162159500Y-105924953D01*
X162162258Y-105954374D01*
X162162259Y-105954381D01*
X162176834Y-105996031D01*
X162192541Y-106040920D01*
X162199500Y-106081874D01*
X162199500Y-106378632D01*
X162179815Y-106445671D01*
X162163764Y-106465727D01*
X162157513Y-106472061D01*
X162123133Y-106498133D01*
X162094403Y-106536018D01*
X162088735Y-106541763D01*
X162064950Y-106554956D01*
X162043081Y-106571117D01*
X162034849Y-106571654D01*
X162027636Y-106575656D01*
X162000497Y-106573896D01*
X161973360Y-106575668D01*
X161966144Y-106571669D01*
X161957913Y-106571136D01*
X161936033Y-106554983D01*
X161912246Y-106541802D01*
X161904416Y-106531642D01*
X161901701Y-106529638D01*
X161900559Y-106526637D01*
X161893738Y-106517787D01*
X161890737Y-106512714D01*
X161890731Y-106512705D01*
X161777294Y-106399268D01*
X161777285Y-106399261D01*
X161639191Y-106317593D01*
X161639188Y-106317592D01*
X161485130Y-106272834D01*
X161450000Y-106270068D01*
X161450000Y-106916000D01*
X161430315Y-106983039D01*
X161377511Y-107028794D01*
X161326000Y-107040000D01*
X161200000Y-107040000D01*
X161200000Y-107166000D01*
X161180315Y-107233039D01*
X161127511Y-107278794D01*
X161076000Y-107290000D01*
X160387155Y-107290000D01*
X160408840Y-107364641D01*
X160408640Y-107434510D01*
X160370697Y-107493180D01*
X160307059Y-107522023D01*
X160237929Y-107511881D01*
X160216130Y-107499005D01*
X160162886Y-107459709D01*
X160162880Y-107459706D01*
X160034700Y-107414853D01*
X160004270Y-107412000D01*
X160004266Y-107412000D01*
X159595734Y-107412000D01*
X159595730Y-107412000D01*
X159565305Y-107414853D01*
X159557930Y-107416464D01*
X159557397Y-107414026D01*
X159499632Y-107416969D01*
X159440788Y-107384049D01*
X159401561Y-107344821D01*
X159401552Y-107344814D01*
X159260196Y-107261217D01*
X159260193Y-107261215D01*
X159222507Y-107250267D01*
X159163621Y-107212661D01*
X159134415Y-107149188D01*
X159144161Y-107080002D01*
X159189097Y-107027502D01*
X159201799Y-107019170D01*
X159212882Y-107015293D01*
X159254139Y-106984844D01*
X159256995Y-106982971D01*
X159287281Y-106973772D01*
X159316995Y-106962919D01*
X159320454Y-106963696D01*
X159323849Y-106962665D01*
X159354295Y-106971298D01*
X159385165Y-106978234D01*
X159390230Y-106981489D01*
X159391069Y-106981727D01*
X159391683Y-106982423D01*
X159398626Y-106986885D01*
X159437118Y-107015293D01*
X159472012Y-107027503D01*
X159565299Y-107060146D01*
X159595730Y-107063000D01*
X159595734Y-107063000D01*
X160004270Y-107063000D01*
X160034699Y-107060146D01*
X160034701Y-107060146D01*
X160098790Y-107037719D01*
X160162882Y-107015293D01*
X160272150Y-106934650D01*
X160341734Y-106840365D01*
X160397381Y-106798116D01*
X160441504Y-106790000D01*
X160950000Y-106790000D01*
X160950000Y-106270068D01*
X160949999Y-106270068D01*
X160914869Y-106272834D01*
X160914868Y-106272834D01*
X160760811Y-106317592D01*
X160760808Y-106317593D01*
X160622714Y-106399261D01*
X160622705Y-106399268D01*
X160612181Y-106409793D01*
X160550858Y-106443278D01*
X160481166Y-106438294D01*
X160425233Y-106396422D01*
X160400816Y-106330958D01*
X160400500Y-106322112D01*
X160400500Y-105533230D01*
X160397646Y-105502800D01*
X160397646Y-105502798D01*
X160352793Y-105374619D01*
X160352793Y-105374618D01*
X160280978Y-105277312D01*
X160257009Y-105211684D01*
X160256750Y-105203680D01*
X160256750Y-105046119D01*
X160256750Y-105046117D01*
X160225623Y-104929950D01*
X160187461Y-104863852D01*
X160165493Y-104825801D01*
X160165489Y-104825796D01*
X159574319Y-104234626D01*
X159540834Y-104173303D01*
X159538000Y-104146945D01*
X159538000Y-103503589D01*
X159538000Y-103503587D01*
X159506873Y-103387420D01*
X159446741Y-103283268D01*
X159361701Y-103198228D01*
X158866732Y-102703259D01*
X158866731Y-102703258D01*
X158866728Y-102703256D01*
X158762582Y-102643128D01*
X158762581Y-102643127D01*
X158726435Y-102633442D01*
X158646413Y-102612000D01*
X158646410Y-102612000D01*
X156786342Y-102612000D01*
X156719303Y-102592315D01*
X156698661Y-102575681D01*
X156424319Y-102301339D01*
X156409615Y-102274411D01*
X156393023Y-102248593D01*
X156392131Y-102242392D01*
X156390834Y-102240016D01*
X156388000Y-102213658D01*
X156388000Y-102183324D01*
X156407685Y-102116285D01*
X156460489Y-102070530D01*
X156471021Y-102066291D01*
X156590794Y-102024381D01*
X156696423Y-101946423D01*
X156774381Y-101840794D01*
X156811559Y-101734547D01*
X156817741Y-101716881D01*
X156817741Y-101716879D01*
X156820500Y-101687461D01*
X156820500Y-101680000D01*
X157145496Y-101680000D01*
X157187968Y-101826195D01*
X157270278Y-101965374D01*
X157270285Y-101965383D01*
X157384616Y-102079714D01*
X157384625Y-102079721D01*
X157523804Y-102162031D01*
X157679089Y-102207145D01*
X157700000Y-102208789D01*
X158200000Y-102208789D01*
X158220910Y-102207145D01*
X158376194Y-102162032D01*
X158386875Y-102155715D01*
X158454598Y-102138530D01*
X158513125Y-102155715D01*
X158523805Y-102162032D01*
X158679089Y-102207145D01*
X158700000Y-102208789D01*
X159200000Y-102208789D01*
X159220910Y-102207145D01*
X159376195Y-102162031D01*
X159515374Y-102079721D01*
X159515383Y-102079714D01*
X159629714Y-101965383D01*
X159629721Y-101965374D01*
X159712031Y-101826195D01*
X159754504Y-101680000D01*
X159200000Y-101680000D01*
X159200000Y-102208789D01*
X158700000Y-102208789D01*
X158700000Y-101680000D01*
X158200000Y-101680000D01*
X158200000Y-102208789D01*
X157700000Y-102208789D01*
X157700000Y-101680000D01*
X157145496Y-101680000D01*
X156820500Y-101680000D01*
X156820500Y-101655095D01*
X156820499Y-101312546D01*
X156817741Y-101283125D01*
X156817741Y-101283121D01*
X156774381Y-101159206D01*
X156703844Y-101063632D01*
X156679874Y-100998005D01*
X156695189Y-100929835D01*
X156703842Y-100916370D01*
X156774381Y-100820794D01*
X156802823Y-100739513D01*
X156817741Y-100696881D01*
X156817741Y-100696879D01*
X156819913Y-100673712D01*
X156820500Y-100667457D01*
X156820499Y-100292544D01*
X156817741Y-100263121D01*
X156774381Y-100139206D01*
X156709821Y-100051730D01*
X156696421Y-100033574D01*
X156689853Y-100027006D01*
X156691735Y-100025123D01*
X156658109Y-99980822D01*
X156650000Y-99936716D01*
X156650000Y-99506340D01*
X156650456Y-99498442D01*
X156650293Y-99498433D01*
X156650497Y-99494890D01*
X156650500Y-99494865D01*
X156650499Y-97905136D01*
X156650497Y-97905117D01*
X156650292Y-97901561D01*
X156650455Y-97901551D01*
X156650000Y-97893666D01*
X156650000Y-97450000D01*
X156602155Y-97450000D01*
X156542627Y-97456401D01*
X156542620Y-97456403D01*
X156407913Y-97506645D01*
X156407906Y-97506649D01*
X156292814Y-97592808D01*
X156292804Y-97592817D01*
X156287567Y-97599814D01*
X156231632Y-97641683D01*
X156188303Y-97649500D01*
X155805143Y-97649500D01*
X155805117Y-97649502D01*
X155780014Y-97652413D01*
X155780010Y-97652414D01*
X155750083Y-97665628D01*
X155680804Y-97674697D01*
X155649915Y-97665627D01*
X155619992Y-97652415D01*
X155594865Y-97649500D01*
X155005143Y-97649500D01*
X155005117Y-97649502D01*
X154980014Y-97652413D01*
X154980010Y-97652414D01*
X154950083Y-97665628D01*
X154880804Y-97674697D01*
X154849915Y-97665627D01*
X154819992Y-97652415D01*
X154794865Y-97649500D01*
X154205143Y-97649500D01*
X154205117Y-97649502D01*
X154180014Y-97652413D01*
X154180010Y-97652414D01*
X154150083Y-97665628D01*
X154080804Y-97674697D01*
X154049915Y-97665627D01*
X154019992Y-97652415D01*
X153994865Y-97649500D01*
X153405143Y-97649500D01*
X153405117Y-97649502D01*
X153380012Y-97652413D01*
X153380008Y-97652415D01*
X153277235Y-97697793D01*
X153197794Y-97777234D01*
X153152415Y-97880006D01*
X153152415Y-97880008D01*
X153149500Y-97905131D01*
X153149500Y-98632744D01*
X153129815Y-98699783D01*
X153113181Y-98720425D01*
X149104522Y-102729084D01*
X149104518Y-102729090D01*
X149051792Y-102820413D01*
X149051791Y-102820413D01*
X149041055Y-102860487D01*
X149041055Y-102860488D01*
X149024500Y-102922273D01*
X149024500Y-105557744D01*
X149004815Y-105624783D01*
X148988181Y-105645425D01*
X148924653Y-105708953D01*
X148863330Y-105742438D01*
X148793638Y-105737454D01*
X148737705Y-105695582D01*
X148713288Y-105630118D01*
X148715355Y-105597080D01*
X148725500Y-105546080D01*
X148725500Y-105353919D01*
X148725499Y-105353917D01*
X148714119Y-105296706D01*
X148688012Y-105165457D01*
X148662687Y-105104317D01*
X148614479Y-104987931D01*
X148614478Y-104987929D01*
X148607737Y-104977841D01*
X148507720Y-104828155D01*
X148507717Y-104828151D01*
X148371848Y-104692282D01*
X148371844Y-104692279D01*
X148212070Y-104585521D01*
X148212068Y-104585520D01*
X148161467Y-104564561D01*
X148107063Y-104520720D01*
X148084998Y-104454426D01*
X148102277Y-104386727D01*
X148153414Y-104339116D01*
X148161467Y-104335439D01*
X148212068Y-104314479D01*
X148212067Y-104314479D01*
X148212073Y-104314477D01*
X148371845Y-104207720D01*
X148507720Y-104071845D01*
X148614477Y-103912073D01*
X148688012Y-103734543D01*
X148725500Y-103546078D01*
X148725500Y-103353922D01*
X148725500Y-103353919D01*
X148725499Y-103353917D01*
X148713774Y-103294972D01*
X148688012Y-103165457D01*
X148678681Y-103142929D01*
X148614479Y-102987931D01*
X148614478Y-102987929D01*
X148613736Y-102986819D01*
X148507720Y-102828155D01*
X148507717Y-102828151D01*
X148371848Y-102692282D01*
X148371844Y-102692279D01*
X148212070Y-102585521D01*
X148212068Y-102585520D01*
X148161467Y-102564561D01*
X148107063Y-102520720D01*
X148084998Y-102454426D01*
X148102277Y-102386727D01*
X148153414Y-102339116D01*
X148161467Y-102335439D01*
X148212068Y-102314479D01*
X148212067Y-102314479D01*
X148212073Y-102314477D01*
X148371845Y-102207720D01*
X148507720Y-102071845D01*
X148614477Y-101912073D01*
X148688012Y-101734543D01*
X148725500Y-101546078D01*
X148725500Y-101353922D01*
X148725500Y-101353919D01*
X148725499Y-101353917D01*
X148717268Y-101312538D01*
X148688012Y-101165457D01*
X148645836Y-101063634D01*
X148614479Y-100987931D01*
X148614478Y-100987929D01*
X148591708Y-100953852D01*
X148507720Y-100828155D01*
X148507717Y-100828151D01*
X148371848Y-100692282D01*
X148371844Y-100692279D01*
X148212070Y-100585521D01*
X148212068Y-100585520D01*
X148161467Y-100564561D01*
X148107063Y-100520720D01*
X148084998Y-100454426D01*
X148102277Y-100386727D01*
X148153414Y-100339116D01*
X148161467Y-100335439D01*
X148212068Y-100314479D01*
X148212067Y-100314479D01*
X148212073Y-100314477D01*
X148371845Y-100207720D01*
X148507720Y-100071845D01*
X148614477Y-99912073D01*
X148688012Y-99734543D01*
X148725500Y-99546078D01*
X148725500Y-99353922D01*
X148725500Y-99353919D01*
X148725499Y-99353917D01*
X148688012Y-99165457D01*
X148614477Y-98987927D01*
X148507720Y-98828155D01*
X148507717Y-98828151D01*
X148371848Y-98692282D01*
X148371844Y-98692279D01*
X148294802Y-98640801D01*
X148294800Y-98640800D01*
X148212073Y-98585523D01*
X148154535Y-98561690D01*
X148151539Y-98560000D01*
X149295496Y-98560000D01*
X149337968Y-98706195D01*
X149420278Y-98845374D01*
X149420285Y-98845383D01*
X149534616Y-98959714D01*
X149534625Y-98959721D01*
X149673804Y-99042031D01*
X149829089Y-99087145D01*
X149850000Y-99088789D01*
X150350000Y-99088789D01*
X150370910Y-99087145D01*
X150526195Y-99042031D01*
X150665374Y-98959721D01*
X150665383Y-98959714D01*
X150779714Y-98845383D01*
X150779721Y-98845374D01*
X150862031Y-98706195D01*
X150904504Y-98560000D01*
X150350000Y-98560000D01*
X150350000Y-99088789D01*
X149850000Y-99088789D01*
X149850000Y-98560000D01*
X149295496Y-98560000D01*
X148151539Y-98560000D01*
X148148003Y-98558006D01*
X148128657Y-98538121D01*
X148107063Y-98520720D01*
X148104637Y-98513432D01*
X148099281Y-98507927D01*
X148093757Y-98480743D01*
X148084998Y-98454426D01*
X148086897Y-98446983D01*
X148085368Y-98439456D01*
X148095417Y-98413603D01*
X148102277Y-98386727D01*
X148107899Y-98381492D01*
X148110682Y-98374334D01*
X148133110Y-98358019D01*
X148153414Y-98339116D01*
X148161467Y-98335439D01*
X148212068Y-98314479D01*
X148212067Y-98314479D01*
X148212073Y-98314477D01*
X148371845Y-98207720D01*
X148507720Y-98071845D01*
X148614477Y-97912073D01*
X148688012Y-97734543D01*
X148725500Y-97546078D01*
X148725500Y-97353922D01*
X148725500Y-97353919D01*
X148725499Y-97353917D01*
X148688013Y-97165464D01*
X148688012Y-97165457D01*
X148669180Y-97119993D01*
X148614479Y-96987931D01*
X148614478Y-96987929D01*
X148551732Y-96894024D01*
X148507720Y-96828155D01*
X148507717Y-96828151D01*
X148371848Y-96692282D01*
X148371844Y-96692279D01*
X148212070Y-96585521D01*
X148212068Y-96585520D01*
X148161467Y-96564561D01*
X148144469Y-96550863D01*
X148124898Y-96541194D01*
X148117800Y-96529372D01*
X148107063Y-96520720D01*
X148100169Y-96500007D01*
X148088932Y-96481292D01*
X148089352Y-96467508D01*
X148084998Y-96454426D01*
X148086128Y-96450000D01*
X149295496Y-96450000D01*
X149337968Y-96596195D01*
X149420278Y-96735374D01*
X149420285Y-96735383D01*
X149524641Y-96839739D01*
X149558126Y-96901062D01*
X149553142Y-96970754D01*
X149536734Y-97001049D01*
X149536147Y-97001843D01*
X149492291Y-97127173D01*
X149492289Y-97127185D01*
X149489500Y-97156929D01*
X149489500Y-97543070D01*
X149492289Y-97572814D01*
X149492290Y-97572822D01*
X149500200Y-97595426D01*
X149503761Y-97665205D01*
X149470841Y-97724060D01*
X149420283Y-97774619D01*
X149420278Y-97774625D01*
X149337968Y-97913804D01*
X149295496Y-98060000D01*
X150904504Y-98060000D01*
X150904241Y-98059094D01*
X150904441Y-97989225D01*
X150942384Y-97930555D01*
X151006022Y-97901712D01*
X151023318Y-97900500D01*
X151322472Y-97900500D01*
X151322474Y-97900500D01*
X151322475Y-97900500D01*
X151462485Y-97862984D01*
X151491705Y-97846114D01*
X151588015Y-97790510D01*
X151991706Y-97386817D01*
X152053029Y-97353333D01*
X152079387Y-97350499D01*
X152594856Y-97350499D01*
X152594864Y-97350499D01*
X152594879Y-97350497D01*
X152594882Y-97350497D01*
X152619987Y-97347586D01*
X152619988Y-97347585D01*
X152619991Y-97347585D01*
X152722765Y-97302206D01*
X152802206Y-97222765D01*
X152847585Y-97119991D01*
X152850500Y-97094865D01*
X152850499Y-96711694D01*
X152870183Y-96644657D01*
X152900189Y-96612428D01*
X152907190Y-96607186D01*
X152993352Y-96492088D01*
X152993354Y-96492086D01*
X153043596Y-96357379D01*
X153043598Y-96357372D01*
X153049999Y-96297844D01*
X153050000Y-96297827D01*
X153050000Y-96250000D01*
X152606347Y-96250000D01*
X152598456Y-96249543D01*
X152598447Y-96249707D01*
X152594866Y-96249500D01*
X152594865Y-96249500D01*
X152594863Y-96249500D01*
X151005143Y-96249500D01*
X151005117Y-96249502D01*
X150980012Y-96252413D01*
X150980008Y-96252415D01*
X150877235Y-96297793D01*
X150797796Y-96377232D01*
X150791300Y-96386716D01*
X150790046Y-96385857D01*
X150753217Y-96429461D01*
X150686431Y-96449990D01*
X150684867Y-96450000D01*
X149295496Y-96450000D01*
X148086128Y-96450000D01*
X148090396Y-96433274D01*
X148091062Y-96411455D01*
X148098866Y-96400087D01*
X148102277Y-96386727D01*
X148118254Y-96371851D01*
X148130610Y-96353856D01*
X148150034Y-96342262D01*
X148153414Y-96339116D01*
X148160869Y-96335688D01*
X148161146Y-96335571D01*
X148212073Y-96314477D01*
X148371845Y-96207720D01*
X148507720Y-96071845D01*
X148589135Y-95950000D01*
X149295496Y-95950000D01*
X150420000Y-95950000D01*
X150420000Y-95914500D01*
X150439685Y-95847461D01*
X150492489Y-95801706D01*
X150544000Y-95790500D01*
X151832472Y-95790500D01*
X151832474Y-95790500D01*
X151832475Y-95790500D01*
X151965993Y-95754723D01*
X151998083Y-95750499D01*
X152594856Y-95750499D01*
X152594864Y-95750499D01*
X152594871Y-95750498D01*
X152598439Y-95750292D01*
X152598448Y-95750455D01*
X152606334Y-95750000D01*
X153050000Y-95750000D01*
X153050000Y-95702172D01*
X153049999Y-95702155D01*
X153043598Y-95642627D01*
X153043596Y-95642620D01*
X152993354Y-95507913D01*
X152993352Y-95507911D01*
X152907190Y-95392813D01*
X152907185Y-95392807D01*
X152900185Y-95387567D01*
X152858316Y-95331632D01*
X152850499Y-95288306D01*
X152850499Y-94905136D01*
X152849315Y-94894926D01*
X152847586Y-94880012D01*
X152847585Y-94880010D01*
X152847585Y-94880009D01*
X152840681Y-94864374D01*
X152834373Y-94850086D01*
X152825301Y-94780808D01*
X152834374Y-94749912D01*
X152847584Y-94719995D01*
X152847584Y-94719994D01*
X152847584Y-94719993D01*
X152847585Y-94719991D01*
X152850500Y-94694865D01*
X152850499Y-94105136D01*
X152850159Y-94102206D01*
X152847586Y-94080012D01*
X152847585Y-94080010D01*
X152847585Y-94080009D01*
X152838586Y-94059628D01*
X152834373Y-94050086D01*
X152825301Y-93980808D01*
X152834374Y-93949912D01*
X152847584Y-93919995D01*
X152847584Y-93919994D01*
X152847584Y-93919993D01*
X152847585Y-93919991D01*
X152850500Y-93894865D01*
X152850499Y-93305136D01*
X152849394Y-93295606D01*
X152847586Y-93280012D01*
X152847585Y-93280010D01*
X152847585Y-93280009D01*
X152840681Y-93264374D01*
X152834373Y-93250086D01*
X152825301Y-93180808D01*
X152834374Y-93149912D01*
X152847584Y-93119995D01*
X152847584Y-93119994D01*
X152847584Y-93119993D01*
X152847585Y-93119991D01*
X152850500Y-93094865D01*
X152850499Y-92505136D01*
X152850497Y-92505117D01*
X152847586Y-92480012D01*
X152847585Y-92480010D01*
X152847585Y-92480009D01*
X152836289Y-92454426D01*
X152834373Y-92450086D01*
X152825301Y-92380808D01*
X152834374Y-92349912D01*
X152847584Y-92319995D01*
X152847584Y-92319994D01*
X152847584Y-92319993D01*
X152847585Y-92319991D01*
X152850500Y-92294865D01*
X152850499Y-91705136D01*
X152850144Y-91702072D01*
X152847586Y-91680012D01*
X152847585Y-91680010D01*
X152847585Y-91680009D01*
X152836871Y-91655744D01*
X152834373Y-91650086D01*
X152825301Y-91580808D01*
X152834374Y-91549912D01*
X152847584Y-91519995D01*
X152847584Y-91519994D01*
X152847584Y-91519993D01*
X152847585Y-91519991D01*
X152850500Y-91494865D01*
X152850499Y-90905136D01*
X152849315Y-90894926D01*
X152847586Y-90880012D01*
X152847585Y-90880010D01*
X152847585Y-90880009D01*
X152837408Y-90856961D01*
X152834373Y-90850086D01*
X152825301Y-90780808D01*
X152834374Y-90749912D01*
X152847584Y-90719995D01*
X152847584Y-90719994D01*
X152847584Y-90719993D01*
X152847585Y-90719991D01*
X152850500Y-90694865D01*
X152850499Y-90311694D01*
X152870183Y-90244657D01*
X152900189Y-90212428D01*
X152907190Y-90207186D01*
X152993352Y-90092088D01*
X152993354Y-90092086D01*
X153043596Y-89957379D01*
X153043598Y-89957372D01*
X153049999Y-89897844D01*
X153050000Y-89897827D01*
X153050000Y-89850000D01*
X152606347Y-89850000D01*
X152598456Y-89849543D01*
X152598447Y-89849707D01*
X152594866Y-89849500D01*
X152594865Y-89849500D01*
X152594863Y-89849500D01*
X152078363Y-89849500D01*
X152039820Y-89841834D01*
X152039635Y-89842527D01*
X152031785Y-89840423D01*
X152031784Y-89840423D01*
X151879057Y-89799500D01*
X151720943Y-89799500D01*
X151560367Y-89842526D01*
X151560181Y-89841833D01*
X151521637Y-89849500D01*
X151005143Y-89849500D01*
X151005117Y-89849502D01*
X150980012Y-89852413D01*
X150980008Y-89852415D01*
X150877235Y-89897793D01*
X150877234Y-89897794D01*
X150789669Y-89985360D01*
X150788566Y-89984257D01*
X150744462Y-90020260D01*
X150696288Y-90030000D01*
X150350000Y-90030000D01*
X150350000Y-90558789D01*
X150370910Y-90557145D01*
X150526195Y-90512031D01*
X150526197Y-90512030D01*
X150562378Y-90490633D01*
X150594787Y-90482409D01*
X150626967Y-90473373D01*
X150628522Y-90473849D01*
X150630102Y-90473449D01*
X150661823Y-90484057D01*
X150693769Y-90493849D01*
X150694820Y-90495091D01*
X150696364Y-90495608D01*
X150717291Y-90521652D01*
X150738896Y-90547190D01*
X150739283Y-90549022D01*
X150740128Y-90550074D01*
X150748438Y-90581170D01*
X150749500Y-90589238D01*
X150749501Y-90694864D01*
X150752415Y-90719991D01*
X150772807Y-90766177D01*
X150775130Y-90783805D01*
X150772376Y-90801468D01*
X150774697Y-90819194D01*
X150765628Y-90850083D01*
X150752415Y-90880008D01*
X150749500Y-90905131D01*
X150749500Y-91494856D01*
X150749502Y-91494882D01*
X150752413Y-91519985D01*
X150752413Y-91519986D01*
X150752414Y-91519990D01*
X150752415Y-91519991D01*
X150765626Y-91549912D01*
X150765628Y-91549915D01*
X150774697Y-91619194D01*
X150765628Y-91650083D01*
X150752415Y-91680008D01*
X150749500Y-91705131D01*
X150749500Y-92294856D01*
X150749502Y-92294882D01*
X150752413Y-92319985D01*
X150752413Y-92319986D01*
X150752414Y-92319990D01*
X150752415Y-92319991D01*
X150765626Y-92349912D01*
X150765628Y-92349915D01*
X150774697Y-92419194D01*
X150765628Y-92450083D01*
X150752415Y-92480008D01*
X150749500Y-92505131D01*
X150749500Y-93094856D01*
X150749502Y-93094882D01*
X150752413Y-93119985D01*
X150752413Y-93119986D01*
X150752414Y-93119990D01*
X150752415Y-93119991D01*
X150765626Y-93149912D01*
X150765628Y-93149915D01*
X150774697Y-93219194D01*
X150765628Y-93250083D01*
X150752415Y-93280008D01*
X150749500Y-93305131D01*
X150749500Y-93894856D01*
X150749502Y-93894882D01*
X150752413Y-93919985D01*
X150752413Y-93919986D01*
X150752414Y-93919990D01*
X150752415Y-93919991D01*
X150765626Y-93949912D01*
X150765628Y-93949915D01*
X150774697Y-94019194D01*
X150765628Y-94050083D01*
X150752415Y-94080008D01*
X150749840Y-94102206D01*
X150749500Y-94105135D01*
X150749500Y-94388012D01*
X150749501Y-94565500D01*
X150746950Y-94574186D01*
X150748239Y-94583147D01*
X150737261Y-94607183D01*
X150729817Y-94632539D01*
X150722974Y-94638467D01*
X150719214Y-94646703D01*
X150696982Y-94660989D01*
X150677013Y-94678294D01*
X150666497Y-94680581D01*
X150660436Y-94684477D01*
X150625501Y-94689500D01*
X150451648Y-94689500D01*
X150410692Y-94682541D01*
X150384655Y-94673430D01*
X150352823Y-94662291D01*
X150352814Y-94662289D01*
X150323070Y-94659500D01*
X150323066Y-94659500D01*
X149876934Y-94659500D01*
X149876930Y-94659500D01*
X149847185Y-94662289D01*
X149847173Y-94662291D01*
X149721844Y-94706147D01*
X149615001Y-94785001D01*
X149536147Y-94891844D01*
X149492291Y-95017173D01*
X149492289Y-95017185D01*
X149489500Y-95046929D01*
X149489500Y-95433070D01*
X149492289Y-95462814D01*
X149492290Y-95462822D01*
X149500200Y-95485426D01*
X149503761Y-95555205D01*
X149470841Y-95614060D01*
X149420283Y-95664619D01*
X149420278Y-95664625D01*
X149337968Y-95803804D01*
X149295496Y-95950000D01*
X148589135Y-95950000D01*
X148614477Y-95912073D01*
X148688012Y-95734543D01*
X148725500Y-95546078D01*
X148725500Y-95353922D01*
X148725500Y-95353919D01*
X148725499Y-95353917D01*
X148719519Y-95323852D01*
X148688012Y-95165457D01*
X148647793Y-95068359D01*
X148614479Y-94987931D01*
X148614478Y-94987929D01*
X148611231Y-94983070D01*
X148507720Y-94828155D01*
X148507717Y-94828151D01*
X148371848Y-94692282D01*
X148371842Y-94692277D01*
X148343633Y-94673428D01*
X148298828Y-94619815D01*
X148290122Y-94550490D01*
X148320278Y-94487463D01*
X148356235Y-94459839D01*
X148365843Y-94454943D01*
X148365845Y-94454942D01*
X148386430Y-94439984D01*
X148386431Y-94439983D01*
X147796448Y-93850000D01*
X147802661Y-93850000D01*
X147904394Y-93822741D01*
X147995606Y-93770080D01*
X148070080Y-93695606D01*
X148122741Y-93604394D01*
X148150000Y-93502661D01*
X148150000Y-93496448D01*
X148739983Y-94086431D01*
X148739984Y-94086430D01*
X148754942Y-94065845D01*
X148754947Y-94065836D01*
X148838915Y-93901043D01*
X148838916Y-93901040D01*
X148896066Y-93725147D01*
X148925000Y-93542473D01*
X148925000Y-93357526D01*
X148896066Y-93174852D01*
X148838916Y-92998959D01*
X148838915Y-92998956D01*
X148754949Y-92834165D01*
X148739983Y-92813568D01*
X148150000Y-93403551D01*
X148150000Y-93397339D01*
X148122741Y-93295606D01*
X148070080Y-93204394D01*
X147995606Y-93129920D01*
X147904394Y-93077259D01*
X147802661Y-93050000D01*
X147796447Y-93050000D01*
X148386431Y-92460016D01*
X148386430Y-92460015D01*
X148365834Y-92445050D01*
X148356232Y-92440158D01*
X148305435Y-92392184D01*
X148288639Y-92324364D01*
X148311175Y-92258228D01*
X148343633Y-92226570D01*
X148371845Y-92207720D01*
X148507720Y-92071845D01*
X148614477Y-91912073D01*
X148688012Y-91734543D01*
X148725500Y-91546078D01*
X148725500Y-91353922D01*
X148725500Y-91353919D01*
X148725499Y-91353917D01*
X148686824Y-91159482D01*
X148689231Y-91159003D01*
X148688685Y-91099939D01*
X148720297Y-91046094D01*
X149320480Y-90445913D01*
X149323986Y-90439839D01*
X149374548Y-90391623D01*
X149443154Y-90378396D01*
X149508021Y-90404360D01*
X149519056Y-90414154D01*
X149534616Y-90429714D01*
X149534625Y-90429721D01*
X149673804Y-90512031D01*
X149829089Y-90557145D01*
X149850000Y-90558789D01*
X149850000Y-89904000D01*
X149869685Y-89836961D01*
X149922489Y-89791206D01*
X149974000Y-89780000D01*
X150100000Y-89780000D01*
X150100000Y-89654000D01*
X150119685Y-89586961D01*
X150172489Y-89541206D01*
X150224000Y-89530000D01*
X150420000Y-89530000D01*
X150420000Y-89494500D01*
X150439685Y-89427461D01*
X150492489Y-89381706D01*
X150544000Y-89370500D01*
X151852473Y-89370500D01*
X151852474Y-89370500D01*
X151852475Y-89370500D01*
X151911350Y-89354724D01*
X151943444Y-89350499D01*
X152594856Y-89350499D01*
X152594864Y-89350499D01*
X152594871Y-89350498D01*
X152598439Y-89350292D01*
X152598448Y-89350455D01*
X152606334Y-89350000D01*
X153050000Y-89350000D01*
X153050000Y-89302172D01*
X153049999Y-89302155D01*
X153043598Y-89242627D01*
X153043596Y-89242620D01*
X152993354Y-89107913D01*
X152993352Y-89107911D01*
X152907190Y-88992813D01*
X152907185Y-88992807D01*
X152900185Y-88987567D01*
X152858316Y-88931632D01*
X152850499Y-88888306D01*
X152850499Y-88624499D01*
X152870184Y-88557461D01*
X152922988Y-88511706D01*
X152974499Y-88500500D01*
X154954725Y-88500500D01*
X154954727Y-88500500D01*
X155056588Y-88473207D01*
X155147913Y-88420480D01*
X155605066Y-87963327D01*
X155610560Y-87959563D01*
X155612727Y-87956283D01*
X155642653Y-87937577D01*
X155649909Y-87934373D01*
X155719185Y-87925299D01*
X155750087Y-87934373D01*
X155779096Y-87947182D01*
X155780007Y-87947584D01*
X155780009Y-87947585D01*
X155805135Y-87950500D01*
X156394864Y-87950499D01*
X156394879Y-87950497D01*
X156394882Y-87950497D01*
X156419987Y-87947586D01*
X156419987Y-87947585D01*
X156419991Y-87947585D01*
X156449913Y-87934372D01*
X156519190Y-87925301D01*
X156550086Y-87934373D01*
X156574431Y-87945122D01*
X156579096Y-87947182D01*
X156580007Y-87947584D01*
X156580009Y-87947585D01*
X156605135Y-87950500D01*
X157194864Y-87950499D01*
X157194879Y-87950497D01*
X157194882Y-87950497D01*
X157219987Y-87947586D01*
X157219987Y-87947585D01*
X157219991Y-87947585D01*
X157249913Y-87934372D01*
X157319190Y-87925301D01*
X157350086Y-87934373D01*
X157374431Y-87945122D01*
X157379096Y-87947182D01*
X157380007Y-87947584D01*
X157380009Y-87947585D01*
X157405135Y-87950500D01*
X157994864Y-87950499D01*
X157994879Y-87950497D01*
X157994882Y-87950497D01*
X158019987Y-87947586D01*
X158019987Y-87947585D01*
X158019991Y-87947585D01*
X158049913Y-87934372D01*
X158119190Y-87925301D01*
X158150086Y-87934373D01*
X158174431Y-87945122D01*
X158179096Y-87947182D01*
X158180007Y-87947584D01*
X158180009Y-87947585D01*
X158205135Y-87950500D01*
X158794864Y-87950499D01*
X158794879Y-87950497D01*
X158794882Y-87950497D01*
X158819987Y-87947586D01*
X158819987Y-87947585D01*
X158819991Y-87947585D01*
X158849913Y-87934372D01*
X158919190Y-87925301D01*
X158950086Y-87934373D01*
X158974431Y-87945122D01*
X158979096Y-87947182D01*
X158980007Y-87947584D01*
X158980009Y-87947585D01*
X159005135Y-87950500D01*
X159594864Y-87950499D01*
X159594879Y-87950497D01*
X159594882Y-87950497D01*
X159619987Y-87947586D01*
X159619987Y-87947585D01*
X159619991Y-87947585D01*
X159649913Y-87934372D01*
X159719190Y-87925301D01*
X159750086Y-87934373D01*
X159774431Y-87945122D01*
X159779096Y-87947182D01*
X159780007Y-87947584D01*
X159780009Y-87947585D01*
X159805135Y-87950500D01*
X160394864Y-87950499D01*
X160394879Y-87950497D01*
X160394882Y-87950497D01*
X160419987Y-87947586D01*
X160419987Y-87947585D01*
X160419991Y-87947585D01*
X160449913Y-87934372D01*
X160519190Y-87925301D01*
X160550086Y-87934373D01*
X160574431Y-87945122D01*
X160579096Y-87947182D01*
X160580007Y-87947584D01*
X160580009Y-87947585D01*
X160605135Y-87950500D01*
X160988304Y-87950499D01*
X161055342Y-87970183D01*
X161087566Y-88000184D01*
X161092808Y-88007186D01*
X161092812Y-88007190D01*
X161207906Y-88093350D01*
X161207913Y-88093354D01*
X161342620Y-88143596D01*
X161342627Y-88143598D01*
X161402155Y-88149999D01*
X161402172Y-88150000D01*
X161450000Y-88150000D01*
X161950000Y-88150000D01*
X161997828Y-88150000D01*
X161997844Y-88149999D01*
X162057372Y-88143598D01*
X162057379Y-88143596D01*
X162192086Y-88093354D01*
X162192093Y-88093350D01*
X162307187Y-88007190D01*
X162307190Y-88007187D01*
X162393350Y-87892093D01*
X162393354Y-87892086D01*
X162443596Y-87757379D01*
X162443598Y-87757372D01*
X162449999Y-87697844D01*
X162450000Y-87697827D01*
X162450000Y-87150000D01*
X161950000Y-87150000D01*
X161950000Y-88150000D01*
X161450000Y-88150000D01*
X161450000Y-87706340D01*
X161450456Y-87698442D01*
X161450293Y-87698433D01*
X161450500Y-87694857D01*
X161450500Y-86116364D01*
X161950000Y-86116364D01*
X161950000Y-86650000D01*
X162450000Y-86650000D01*
X162450000Y-86102172D01*
X162449999Y-86102155D01*
X162443598Y-86042627D01*
X162443597Y-86042623D01*
X162397793Y-85919818D01*
X162392809Y-85850126D01*
X162426293Y-85788803D01*
X162499717Y-85715379D01*
X162499721Y-85715374D01*
X162582031Y-85576195D01*
X162582033Y-85576190D01*
X162627144Y-85420918D01*
X162627145Y-85420912D01*
X162628790Y-85400000D01*
X162100000Y-85400000D01*
X162100000Y-85966000D01*
X162095363Y-85981789D01*
X162095735Y-85998241D01*
X162085723Y-86014621D01*
X162080315Y-86033039D01*
X162067879Y-86043814D01*
X162059297Y-86057856D01*
X162030044Y-86077603D01*
X161950000Y-86116364D01*
X161450500Y-86116364D01*
X161450500Y-85644000D01*
X161470185Y-85576961D01*
X161522989Y-85531206D01*
X161574500Y-85520000D01*
X161600000Y-85520000D01*
X161600000Y-85274000D01*
X161619685Y-85206961D01*
X161672489Y-85161206D01*
X161724000Y-85150000D01*
X161850000Y-85150000D01*
X161850000Y-85024000D01*
X161869685Y-84956961D01*
X161922489Y-84911206D01*
X161974000Y-84900000D01*
X162628790Y-84900000D01*
X162627145Y-84879089D01*
X162582030Y-84723801D01*
X162582007Y-84723747D01*
X162582001Y-84723700D01*
X162579855Y-84716313D01*
X162581046Y-84715966D01*
X162573447Y-84654404D01*
X162603736Y-84591441D01*
X162663258Y-84554849D01*
X162695808Y-84550500D01*
X164732745Y-84550500D01*
X164799784Y-84570185D01*
G37*
%TD.AperFunction*%
%TA.AperFunction,Conductor*%
G36*
X146955703Y-110025056D02*
G01*
X146977601Y-110049877D01*
X146984722Y-110060534D01*
X146992281Y-110071847D01*
X147128151Y-110207717D01*
X147128155Y-110207720D01*
X147156365Y-110226570D01*
X147201170Y-110280183D01*
X147209877Y-110349508D01*
X147179722Y-110412535D01*
X147143773Y-110440155D01*
X147134168Y-110445049D01*
X147113568Y-110460015D01*
X147703554Y-111050000D01*
X147697339Y-111050000D01*
X147595606Y-111077259D01*
X147504394Y-111129920D01*
X147429920Y-111204394D01*
X147377259Y-111295606D01*
X147350000Y-111397339D01*
X147350000Y-111403552D01*
X146786819Y-110840371D01*
X146753334Y-110779048D01*
X146750500Y-110752690D01*
X146750500Y-110118769D01*
X146770185Y-110051730D01*
X146822989Y-110005975D01*
X146892147Y-109996031D01*
X146955703Y-110025056D01*
G37*
%TD.AperFunction*%
%TA.AperFunction,Conductor*%
G36*
X154643039Y-106669685D02*
G01*
X154688794Y-106722489D01*
X154700000Y-106774000D01*
X154700000Y-107300000D01*
X154862683Y-107300000D01*
X154862697Y-107299999D01*
X154975104Y-107285199D01*
X154975105Y-107285199D01*
X155017896Y-107267475D01*
X155087365Y-107260006D01*
X155149845Y-107291281D01*
X155172387Y-107323208D01*
X155173623Y-107322478D01*
X155259261Y-107467285D01*
X155259268Y-107467294D01*
X155329742Y-107537768D01*
X155363227Y-107599091D01*
X155359103Y-107666403D01*
X155332258Y-107743121D01*
X155329500Y-107772538D01*
X155329500Y-108147453D01*
X155332258Y-108176874D01*
X155332260Y-108176884D01*
X155352437Y-108234545D01*
X155355999Y-108304324D01*
X155321271Y-108364951D01*
X155259278Y-108397179D01*
X155235396Y-108399500D01*
X154879387Y-108399500D01*
X154812348Y-108379815D01*
X154791706Y-108363181D01*
X153863787Y-107435262D01*
X153830302Y-107373939D01*
X153835286Y-107304247D01*
X153877158Y-107248314D01*
X153942622Y-107223897D01*
X153998920Y-107233020D01*
X154124891Y-107285198D01*
X154124895Y-107285199D01*
X154237302Y-107299999D01*
X154237317Y-107300000D01*
X154400000Y-107300000D01*
X154400000Y-106774000D01*
X154402550Y-106765314D01*
X154401262Y-106756353D01*
X154412240Y-106732312D01*
X154419685Y-106706961D01*
X154426525Y-106701033D01*
X154430287Y-106692797D01*
X154452521Y-106678507D01*
X154472489Y-106661206D01*
X154483003Y-106658918D01*
X154489065Y-106655023D01*
X154524000Y-106650000D01*
X154576000Y-106650000D01*
X154643039Y-106669685D01*
G37*
%TD.AperFunction*%
%TA.AperFunction,Conductor*%
G36*
X162224184Y-102516016D02*
G01*
X162224500Y-102524862D01*
X162224500Y-102571455D01*
X162224500Y-102571457D01*
X162224499Y-102571457D01*
X162252379Y-102711614D01*
X162252381Y-102711620D01*
X162307069Y-102843650D01*
X162307074Y-102843659D01*
X162346569Y-102902767D01*
X162367447Y-102969445D01*
X162348962Y-103036825D01*
X162296983Y-103083515D01*
X162228013Y-103094691D01*
X162163950Y-103066805D01*
X162155786Y-103059339D01*
X161860904Y-102764457D01*
X161839195Y-102724701D01*
X161900272Y-102750000D01*
X161999728Y-102750000D01*
X162091614Y-102711940D01*
X162161940Y-102641614D01*
X162200000Y-102549728D01*
X162200000Y-102451176D01*
X162224184Y-102516016D01*
G37*
%TD.AperFunction*%
%TA.AperFunction,Conductor*%
G36*
X147350000Y-93502661D02*
G01*
X147377259Y-93604394D01*
X147429920Y-93695606D01*
X147504394Y-93770080D01*
X147595606Y-93822741D01*
X147697339Y-93850000D01*
X147703553Y-93850000D01*
X147113568Y-94439983D01*
X147113568Y-94439984D01*
X147134166Y-94454950D01*
X147134169Y-94454952D01*
X147143770Y-94459844D01*
X147194565Y-94507819D01*
X147211360Y-94575640D01*
X147188822Y-94641774D01*
X147156365Y-94673430D01*
X147128155Y-94692279D01*
X147128151Y-94692282D01*
X146992282Y-94828151D01*
X146992277Y-94828157D01*
X146977601Y-94850122D01*
X146923989Y-94894926D01*
X146854664Y-94903633D01*
X146791636Y-94873478D01*
X146754918Y-94814034D01*
X146750500Y-94781230D01*
X146750500Y-94147309D01*
X146770185Y-94080270D01*
X146786819Y-94059628D01*
X147350000Y-93496447D01*
X147350000Y-93502661D01*
G37*
%TD.AperFunction*%
%TA.AperFunction,Conductor*%
G36*
X146955703Y-92025056D02*
G01*
X146977601Y-92049877D01*
X146982486Y-92057187D01*
X146992281Y-92071847D01*
X147128151Y-92207717D01*
X147128155Y-92207720D01*
X147156365Y-92226570D01*
X147201170Y-92280183D01*
X147209877Y-92349508D01*
X147179722Y-92412535D01*
X147143773Y-92440155D01*
X147134168Y-92445049D01*
X147113568Y-92460015D01*
X147703554Y-93050000D01*
X147697339Y-93050000D01*
X147595606Y-93077259D01*
X147504394Y-93129920D01*
X147429920Y-93204394D01*
X147377259Y-93295606D01*
X147350000Y-93397339D01*
X147350000Y-93403552D01*
X146786819Y-92840371D01*
X146753334Y-92779048D01*
X146750500Y-92752690D01*
X146750500Y-92118769D01*
X146770185Y-92051730D01*
X146822989Y-92005975D01*
X146892147Y-91996031D01*
X146955703Y-92025056D01*
G37*
%TD.AperFunction*%
%TA.AperFunction,Conductor*%
G36*
X165399784Y-83170185D02*
G01*
X165420426Y-83186819D01*
X169279700Y-87046092D01*
X169313185Y-87107415D01*
X169311116Y-87159072D01*
X169313176Y-87159482D01*
X169274500Y-87353917D01*
X169274500Y-87546077D01*
X169284645Y-87597082D01*
X169278416Y-87666673D01*
X169235553Y-87721850D01*
X169169663Y-87745094D01*
X169101666Y-87729026D01*
X169075346Y-87708953D01*
X165195915Y-83829522D01*
X165195913Y-83829520D01*
X165150250Y-83803156D01*
X165104589Y-83776793D01*
X165017670Y-83753504D01*
X165002727Y-83749500D01*
X160602727Y-83749500D01*
X160497273Y-83749500D01*
X160497268Y-83749500D01*
X160492960Y-83750655D01*
X160423110Y-83748987D01*
X160365251Y-83709821D01*
X160337751Y-83645590D01*
X160349342Y-83576689D01*
X160373191Y-83543200D01*
X160729573Y-83186819D01*
X160790896Y-83153334D01*
X160817254Y-83150500D01*
X165332745Y-83150500D01*
X165399784Y-83170185D01*
G37*
%TD.AperFunction*%
%TA.AperFunction,Conductor*%
G36*
X152623039Y-84919685D02*
G01*
X152668794Y-84972489D01*
X152680000Y-85024000D01*
X152680000Y-85150000D01*
X152806000Y-85150000D01*
X152873039Y-85169685D01*
X152918794Y-85222489D01*
X152930000Y-85274000D01*
X152930000Y-85962844D01*
X152990905Y-85945150D01*
X153060774Y-85945349D01*
X153119444Y-85983291D01*
X153148288Y-86046929D01*
X153149500Y-86064226D01*
X153149500Y-86972477D01*
X153149501Y-87575500D01*
X153129817Y-87642539D01*
X153077013Y-87688294D01*
X153025501Y-87699500D01*
X150066255Y-87699500D01*
X149999216Y-87679815D01*
X149953461Y-87627011D01*
X149943517Y-87557853D01*
X149972542Y-87494297D01*
X149978574Y-87487819D01*
X150316393Y-87150000D01*
X150720480Y-86745913D01*
X150773207Y-86654588D01*
X150800500Y-86552727D01*
X150800500Y-86447273D01*
X150800500Y-85992254D01*
X150820185Y-85925215D01*
X150836814Y-85904578D01*
X151341392Y-85400000D01*
X151910069Y-85400000D01*
X151912832Y-85435122D01*
X151912833Y-85435128D01*
X151957592Y-85589188D01*
X151957593Y-85589191D01*
X152039261Y-85727285D01*
X152039268Y-85727294D01*
X152152705Y-85840731D01*
X152152714Y-85840738D01*
X152290805Y-85922404D01*
X152430000Y-85962844D01*
X152430000Y-85400000D01*
X151910069Y-85400000D01*
X151341392Y-85400000D01*
X151805075Y-84936317D01*
X151866396Y-84902834D01*
X151892754Y-84900000D01*
X152556000Y-84900000D01*
X152623039Y-84919685D01*
G37*
%TD.AperFunction*%
%TA.AperFunction,Conductor*%
G36*
X155199784Y-82145185D02*
G01*
X155220426Y-82161819D01*
X157263181Y-84204574D01*
X157296666Y-84265897D01*
X157299500Y-84292255D01*
X157299500Y-84583745D01*
X157279815Y-84650784D01*
X157227011Y-84696539D01*
X157157853Y-84706483D01*
X157094297Y-84677458D01*
X157087819Y-84671426D01*
X155095915Y-82679522D01*
X155095913Y-82679520D01*
X155050250Y-82653156D01*
X155004589Y-82626793D01*
X154924362Y-82605297D01*
X154902727Y-82599500D01*
X151627727Y-82599500D01*
X151522273Y-82599500D01*
X151420410Y-82626793D01*
X151329087Y-82679520D01*
X151329084Y-82679522D01*
X149129522Y-84879084D01*
X149129518Y-84879090D01*
X149076792Y-84970413D01*
X149076791Y-84970415D01*
X149069596Y-84997271D01*
X149069596Y-84997273D01*
X149049500Y-85072273D01*
X149049500Y-86532744D01*
X149029815Y-86599783D01*
X149013181Y-86620425D01*
X148733814Y-86899791D01*
X148672491Y-86933276D01*
X148602799Y-86928292D01*
X148546866Y-86886420D01*
X148543031Y-86881001D01*
X148507720Y-86828155D01*
X148507717Y-86828151D01*
X148371847Y-86692281D01*
X148353211Y-86679829D01*
X148312460Y-86652600D01*
X148267656Y-86598990D01*
X148258949Y-86529665D01*
X148289103Y-86466637D01*
X148348546Y-86429917D01*
X148381351Y-86425499D01*
X148469864Y-86425499D01*
X148469879Y-86425497D01*
X148469882Y-86425497D01*
X148494987Y-86422586D01*
X148494988Y-86422585D01*
X148494991Y-86422585D01*
X148597765Y-86377206D01*
X148677206Y-86297765D01*
X148722585Y-86194991D01*
X148725500Y-86169865D01*
X148725499Y-84730136D01*
X148725497Y-84730117D01*
X148722586Y-84705012D01*
X148722585Y-84705010D01*
X148722585Y-84705009D01*
X148677206Y-84602235D01*
X148677205Y-84602234D01*
X148672565Y-84591724D01*
X148674575Y-84590836D01*
X148657628Y-84538817D01*
X148675337Y-84471229D01*
X148693890Y-84447502D01*
X150979574Y-82161819D01*
X151040897Y-82128334D01*
X151067255Y-82125500D01*
X155132745Y-82125500D01*
X155199784Y-82145185D01*
G37*
%TD.AperFunction*%
%TA.AperFunction,Conductor*%
G36*
X154699784Y-83420185D02*
G01*
X154720426Y-83436819D01*
X156463181Y-85179574D01*
X156496666Y-85240897D01*
X156499500Y-85267255D01*
X156499500Y-85631745D01*
X156479815Y-85698784D01*
X156427011Y-85744539D01*
X156357853Y-85754483D01*
X156294297Y-85725458D01*
X156287819Y-85719426D01*
X154597915Y-84029522D01*
X154597913Y-84029520D01*
X154552250Y-84003156D01*
X154506589Y-83976793D01*
X154455657Y-83963146D01*
X154404727Y-83949500D01*
X151772273Y-83949500D01*
X151670413Y-83976793D01*
X151670410Y-83976794D01*
X151591639Y-84022272D01*
X151591639Y-84022273D01*
X151579087Y-84029520D01*
X151579084Y-84029522D01*
X150079522Y-85529084D01*
X150074572Y-85535536D01*
X150072495Y-85533942D01*
X150031315Y-85573205D01*
X149962708Y-85586425D01*
X149897844Y-85560454D01*
X149857318Y-85503538D01*
X149850500Y-85462987D01*
X149850500Y-85342255D01*
X149870185Y-85275216D01*
X149886819Y-85254574D01*
X151704574Y-83436819D01*
X151765897Y-83403334D01*
X151792255Y-83400500D01*
X154632745Y-83400500D01*
X154699784Y-83420185D01*
G37*
%TD.AperFunction*%
%TA.AperFunction,Conductor*%
G36*
X167274784Y-82070185D02*
G01*
X167295426Y-82086819D01*
X169502579Y-84293972D01*
X169536064Y-84355295D01*
X169531080Y-84424987D01*
X169489208Y-84480920D01*
X169464985Y-84495087D01*
X169402234Y-84522794D01*
X169322794Y-84602234D01*
X169277415Y-84705006D01*
X169277415Y-84705008D01*
X169274500Y-84730131D01*
X169274500Y-85608745D01*
X169254815Y-85675784D01*
X169202011Y-85721539D01*
X169132853Y-85731483D01*
X169069297Y-85702458D01*
X169062819Y-85696426D01*
X165795915Y-82429522D01*
X165795914Y-82429521D01*
X165795913Y-82429520D01*
X165750250Y-82403156D01*
X165704589Y-82376793D01*
X165653657Y-82363146D01*
X165602727Y-82349500D01*
X165602726Y-82349500D01*
X160660339Y-82349500D01*
X160660323Y-82349499D01*
X160652727Y-82349499D01*
X160547273Y-82349499D01*
X160479366Y-82367695D01*
X160445412Y-82376793D01*
X160354084Y-82429522D01*
X159112181Y-83671426D01*
X159050858Y-83704911D01*
X158981166Y-83699927D01*
X158925233Y-83658055D01*
X158900816Y-83592591D01*
X158900500Y-83583745D01*
X158900500Y-83142255D01*
X158920185Y-83075216D01*
X158936819Y-83054574D01*
X159904574Y-82086819D01*
X159965897Y-82053334D01*
X159992255Y-82050500D01*
X167207745Y-82050500D01*
X167274784Y-82070185D01*
G37*
%TD.AperFunction*%
%TA.AperFunction,Conductor*%
G36*
X167753032Y-80450648D02*
G01*
X168086929Y-80467052D01*
X168099037Y-80468245D01*
X168202146Y-80483539D01*
X168426699Y-80516849D01*
X168438617Y-80519219D01*
X168759951Y-80599709D01*
X168771588Y-80603240D01*
X168842806Y-80628722D01*
X169083467Y-80714832D01*
X169094688Y-80719479D01*
X169394163Y-80861120D01*
X169404871Y-80866844D01*
X169688988Y-81037137D01*
X169699106Y-81043897D01*
X169965170Y-81241224D01*
X169974576Y-81248944D01*
X170220013Y-81471395D01*
X170228604Y-81479986D01*
X170415755Y-81686475D01*
X170451055Y-81725423D01*
X170458775Y-81734829D01*
X170656102Y-82000893D01*
X170662862Y-82011011D01*
X170791776Y-82226092D01*
X170833148Y-82295116D01*
X170838883Y-82305844D01*
X170897378Y-82429522D01*
X170980514Y-82605297D01*
X170985170Y-82616540D01*
X171096759Y-82928411D01*
X171100292Y-82940055D01*
X171180777Y-83261369D01*
X171183151Y-83273305D01*
X171231754Y-83600962D01*
X171232947Y-83613071D01*
X171249351Y-83946966D01*
X171249500Y-83953051D01*
X171249500Y-84399490D01*
X171229815Y-84466529D01*
X171177011Y-84512284D01*
X171107853Y-84522228D01*
X171075414Y-84512925D01*
X171035014Y-84495087D01*
X170994991Y-84477415D01*
X170988709Y-84476686D01*
X170969868Y-84474500D01*
X170969865Y-84474500D01*
X170759643Y-84474500D01*
X170692604Y-84454815D01*
X170646849Y-84402011D01*
X170639868Y-84382594D01*
X170623206Y-84320411D01*
X170623205Y-84320410D01*
X170591732Y-84265897D01*
X170570480Y-84229087D01*
X170495913Y-84154520D01*
X167670913Y-81329520D01*
X167625250Y-81303156D01*
X167579589Y-81276793D01*
X167528657Y-81263146D01*
X167477727Y-81249500D01*
X159827727Y-81249500D01*
X159722273Y-81249500D01*
X159620410Y-81276793D01*
X159529087Y-81329520D01*
X159529084Y-81329522D01*
X158179522Y-82679084D01*
X158179520Y-82679087D01*
X158126794Y-82770410D01*
X158106697Y-82845413D01*
X158099500Y-82872270D01*
X158099500Y-83608745D01*
X158079815Y-83675784D01*
X158027011Y-83721539D01*
X157957853Y-83731483D01*
X157894297Y-83702458D01*
X157887819Y-83696426D01*
X155595915Y-81404522D01*
X155595913Y-81404520D01*
X155550250Y-81378156D01*
X155504589Y-81351793D01*
X155453657Y-81338146D01*
X155402727Y-81324500D01*
X150902727Y-81324500D01*
X150797273Y-81324500D01*
X150695410Y-81351793D01*
X150604087Y-81404520D01*
X150604084Y-81404522D01*
X147570424Y-84438181D01*
X147509101Y-84471666D01*
X147482743Y-84474500D01*
X147030143Y-84474500D01*
X147030117Y-84474502D01*
X147005012Y-84477413D01*
X147005011Y-84477414D01*
X146924585Y-84512925D01*
X146855307Y-84521996D01*
X146792122Y-84492172D01*
X146755092Y-84432922D01*
X146750500Y-84399490D01*
X146750500Y-83953051D01*
X146750649Y-83946967D01*
X146750649Y-83946966D01*
X146767052Y-83613068D01*
X146768245Y-83600962D01*
X146797981Y-83400500D01*
X146816849Y-83273296D01*
X146819218Y-83261385D01*
X146899710Y-82940043D01*
X146903240Y-82928411D01*
X147014835Y-82616525D01*
X147019476Y-82605318D01*
X147161124Y-82305828D01*
X147166840Y-82295136D01*
X147337145Y-82010998D01*
X147343888Y-82000905D01*
X147541232Y-81734818D01*
X147548935Y-81725433D01*
X147771405Y-81479975D01*
X147779975Y-81471405D01*
X148025433Y-81248935D01*
X148034818Y-81241232D01*
X148300905Y-81043888D01*
X148310998Y-81037145D01*
X148595136Y-80866840D01*
X148605828Y-80861124D01*
X148905318Y-80719476D01*
X148916525Y-80714835D01*
X149228412Y-80603239D01*
X149240043Y-80599710D01*
X149561385Y-80519218D01*
X149573296Y-80516849D01*
X149900962Y-80468244D01*
X149913068Y-80467052D01*
X150246967Y-80450648D01*
X150253051Y-80450500D01*
X150315892Y-80450500D01*
X167684108Y-80450500D01*
X167746949Y-80450500D01*
X167753032Y-80450648D01*
G37*
%TD.AperFunction*%
%TD*%
M02*
