M48
; DRILL file {KiCad 9.0.4} date 2025-11-28T03:43:46-0800
; FORMAT={-:-/ absolute / inch / decimal}
; #@! TF.CreationDate,2025-11-28T03:43:46-08:00
; #@! TF.GenerationSoftware,Kicad,Pcbnew,9.0.4
; #@! TF.FileFunction,Plated,1,4,PTH
FMAT,2
INCH
; #@! TA.AperFunction,Plated,PTH,ViaDrill
T1C0.0118
; #@! TA.AperFunction,Plated,PTH,ComponentDrill
T2C0.0197
; #@! TA.AperFunction,Plated,PTH,ComponentDrill
T3C0.0236
; #@! TA.AperFunction,Plated,PTH,ComponentDrill
T4C0.0315
%
G90
G05
T1
X5.8799Y-3.2283
X5.9094Y-3.4969
X5.9094Y-3.5346
X5.9094Y-3.7874
X5.9094Y-3.8327
X5.9094Y-3.8705
X5.9705Y-4.3071
X5.9764Y-3.5276
X5.9764Y-3.5591
X5.9764Y-3.5906
X5.9764Y-3.622
X5.9764Y-3.6535
X5.9764Y-3.685
X5.9764Y-3.7165
X5.9764Y-3.7795
X6.011Y-3.3524
X6.0433Y-3.9535
X6.0433Y-3.9913
X6.0827Y-3.4213
X6.0846Y-4.164
X6.1024Y-4.2343
X6.1142Y-3.4213
X6.128Y-4.362
X6.1398Y-4.2102
X6.1594Y-4.362
X6.1772Y-3.8858
X6.2185Y-3.9933
X6.2539Y-4.1772
X6.2539Y-4.2776
X6.2579Y-3.9555
X6.2579Y-3.9933
X6.2657Y-3.189
X6.2717Y-3.8858
X6.3346Y-3.3528
X6.3382Y-4.1063
X6.3465Y-4.2142
X6.3484Y-4.362
X6.3661Y-3.4213
X6.372Y-3.3524
X6.376Y-4.1063
X6.3799Y-4.362
X6.4087Y-4.1555
X6.4409Y-3.4961
X6.4409Y-3.5276
X6.4409Y-3.5591
X6.4409Y-3.5906
X6.4409Y-3.622
X6.4409Y-3.7165
X6.4409Y-3.811
X6.4488Y-4.2736
X6.4921Y-4.0709
X6.5079Y-3.748
X6.5157Y-4.2726
X6.5325Y-3.6752
X6.5453Y-3.748
X6.5551Y-4.1555
X6.5827Y-3.5236
X6.6004Y-3.7697
X6.6014Y-3.5846
X6.6575Y-3.2283
T2
X6.3366Y-3.9961
X6.3366Y-4.0354
X6.376Y-3.9961
X6.376Y-4.0354
X6.4154Y-3.9961
X6.4154Y-4.0354
T4
X5.8169Y-3.3642
X5.8169Y-3.4429
X5.8169Y-3.5217
X5.8169Y-3.6004
X5.8169Y-3.6791
X5.8169Y-3.7579
X5.8169Y-3.8366
X5.8169Y-3.9154
X5.8169Y-3.9941
X5.8169Y-4.0728
X5.8169Y-4.1516
X5.8169Y-4.2303
X5.8169Y-4.3091
X5.8169Y-4.3878
X6.7028Y-3.3642
X6.7028Y-3.4429
X6.7028Y-3.5217
X6.7028Y-3.6004
X6.7028Y-3.6791
X6.7028Y-3.7579
X6.7028Y-3.8366
X6.7028Y-3.9154
X6.7028Y-3.9941
X6.7028Y-4.0728
X6.7028Y-4.1516
X6.7028Y-4.2303
X6.7028Y-4.3091
X6.7028Y-4.3878
T3
G00X6.0839Y-4.363
M15
G01X6.0839Y-4.4063
M16
G05
G00X6.0839Y-4.5335
M15
G01X6.0839Y-4.565
M16
G05
G00X6.424Y-4.363
M15
G01X6.424Y-4.4063
M16
G05
G00X6.424Y-4.5335
M15
G01X6.424Y-4.565
M16
G05
M30
