M48
; DRILL file {KiCad 9.0.4} date 2025-12-31T00:41:27-0800
; FORMAT={-:-/ absolute / inch / decimal}
; #@! TF.CreationDate,2025-12-31T00:41:27-08:00
; #@! TF.GenerationSoftware,Kicad,Pcbnew,9.0.4
; #@! TF.FileFunction,Plated,1,4,PTH
FMAT,2
INCH
; #@! TA.AperFunction,Plated,PTH,ViaDrill
T1C0.0118
; #@! TA.AperFunction,Plated,PTH,ComponentDrill
T2C0.0236
; #@! TA.AperFunction,Plated,PTH,ComponentDrill
T3C0.0315
%
G90
G05
T1
X5.9045Y-3.1516
X5.9094Y-3.4181
X5.9094Y-3.4559
X5.9094Y-3.7087
X5.9094Y-3.7539
X5.9094Y-3.7917
X5.9331Y-3.2175
X5.9567Y-4.4833
X5.9705Y-4.3071
X5.9764Y-3.4488
X5.9764Y-3.4803
X5.9764Y-3.5118
X5.9764Y-3.5433
X5.9764Y-3.5748
X5.9764Y-3.6063
X5.9764Y-3.6378
X5.9764Y-3.7008
X6.011Y-3.2736
X6.0325Y-3.8776
X6.0325Y-3.9154
X6.0453Y-3.2224
X6.065Y-4.0571
X6.0827Y-3.3425
X6.0846Y-4.164
X6.1024Y-4.2343
X6.128Y-4.362
X6.1309Y-3.4636
X6.1309Y-3.6713
X6.1398Y-4.2102
X6.1594Y-4.362
X6.1772Y-3.8071
X6.2165Y-3.9146
X6.2303Y-3.125
X6.2539Y-4.1772
X6.2539Y-4.2776
X6.2559Y-3.8768
X6.2559Y-3.9146
X6.2559Y-3.9612
X6.2559Y-3.999
X6.2717Y-3.8071
X6.3258Y-3.4636
X6.3258Y-3.6713
X6.3346Y-3.274
X6.3465Y-4.2142
X6.3484Y-4.362
X6.3661Y-3.3425
X6.372Y-3.2736
X6.3799Y-4.362
X6.4056Y-4.2853
X6.4341Y-3.2579
X6.4409Y-3.4173
X6.4409Y-3.4488
X6.4409Y-3.4803
X6.4409Y-3.5118
X6.4409Y-3.5433
X6.4409Y-3.6378
X6.4409Y-3.7323
X6.4588Y-4.2528
X6.4636Y-4.128
X6.5079Y-3.6693
X6.5325Y-3.5965
X6.5453Y-3.6693
X6.5512Y-4.4833
X6.5531Y-3.3337
X6.5531Y-4.3406
X6.5827Y-3.2136
X6.5827Y-3.4449
X6.6004Y-3.6909
X6.6014Y-3.5059
X6.6053Y-3.1535
T3
X5.8169Y-3.1935
X5.8169Y-3.2935
X5.8169Y-3.3935
X5.8169Y-3.4935
X5.8169Y-3.5935
X5.8169Y-3.6935
X5.8169Y-3.7935
X5.8169Y-3.8935
X5.8169Y-3.9935
X5.8169Y-4.0935
X5.8169Y-4.1935
X5.8169Y-4.2935
X5.8169Y-4.3988
X5.8169Y-4.4935
X6.3301Y-3.9451
X6.3301Y-4.0451
X6.4301Y-3.9451
X6.4301Y-4.0451
X6.5301Y-3.9451
X6.5301Y-4.0451
X6.7028Y-3.1935
X6.7028Y-3.2935
X6.7028Y-3.3935
X6.7028Y-3.4935
X6.7028Y-3.5935
X6.7028Y-3.6935
X6.7028Y-3.7935
X6.7028Y-3.8935
X6.7028Y-3.9935
X6.7028Y-4.0935
X6.7028Y-4.1935
X6.7028Y-4.2935
X6.7028Y-4.3988
X6.7028Y-4.4935
T2
G00X6.0839Y-4.363
M15
G01X6.0839Y-4.4063
M16
G05
G00X6.0839Y-4.5335
M15
G01X6.0839Y-4.565
M16
G05
G00X6.424Y-4.363
M15
G01X6.424Y-4.4063
M16
G05
G00X6.424Y-4.5335
M15
G01X6.424Y-4.565
M16
G05
M30
