%TF.GenerationSoftware,KiCad,Pcbnew,9.0.4*%
%TF.CreationDate,2025-12-31T00:41:08-08:00*%
%TF.ProjectId,ATmega32u4_Dev,41546d65-6761-4333-9275-345f4465762e,rev?*%
%TF.SameCoordinates,Original*%
%TF.FileFunction,Copper,L2,Inr*%
%TF.FilePolarity,Positive*%
%FSLAX46Y46*%
G04 Gerber Fmt 4.6, Leading zero omitted, Abs format (unit mm)*
G04 Created by KiCad (PCBNEW 9.0.4) date 2025-12-31 00:41:08*
%MOMM*%
%LPD*%
G01*
G04 APERTURE LIST*
%TA.AperFunction,ComponentPad*%
%ADD10C,1.750000*%
%TD*%
%TA.AperFunction,ComponentPad*%
%ADD11O,1.000000X2.100000*%
%TD*%
%TA.AperFunction,ComponentPad*%
%ADD12O,1.000000X1.800000*%
%TD*%
%TA.AperFunction,ViaPad*%
%ADD13C,0.600000*%
%TD*%
G04 APERTURE END LIST*
D10*
%TO.N,/PD7*%
%TO.C,J3*%
X170250000Y-81115000D03*
%TO.N,/PD6*%
X170250000Y-83655000D03*
%TO.N,/PD4*%
X170250000Y-86195000D03*
%TO.N,/PD5*%
X170250000Y-88735000D03*
%TO.N,/PD3*%
X170250000Y-91275000D03*
%TO.N,/PD2*%
X170250000Y-93815000D03*
%TO.N,/PD1*%
X170250000Y-96355000D03*
%TO.N,/PD0*%
X170250000Y-98895000D03*
%TO.N,/PB7*%
X170250000Y-101435000D03*
%TO.N,/PB0*%
X170250000Y-103975000D03*
%TO.N,MOSI*%
X170250000Y-106515000D03*
%TO.N,SCL*%
X170250000Y-109055000D03*
%TO.N,MISO*%
X170250000Y-111730012D03*
%TO.N,Reset*%
X170250000Y-114135000D03*
%TD*%
%TO.N,MISO*%
%TO.C,J2*%
X160785000Y-102745000D03*
%TO.N,MCU_5V*%
X160785000Y-100205000D03*
%TO.N,SCL*%
X163325000Y-102745000D03*
%TO.N,MOSI*%
X163325000Y-100205000D03*
%TO.N,Reset*%
X165865000Y-102745000D03*
%TO.N,GND*%
X165865000Y-100205000D03*
%TD*%
D11*
%TO.N,GND*%
%TO.C,J1*%
X154530000Y-111370000D03*
X163170000Y-111370000D03*
D12*
X154530000Y-115550000D03*
X163170000Y-115550000D03*
%TD*%
D10*
%TO.N,/PB4*%
%TO.C,J4*%
X147750000Y-81115000D03*
%TO.N,/PB5*%
X147750000Y-83655000D03*
%TO.N,/PB6*%
X147750000Y-86195000D03*
%TO.N,/PC6*%
X147750000Y-88735000D03*
%TO.N,GND*%
X147750000Y-91275000D03*
%TO.N,/PF7*%
X147750000Y-93815000D03*
%TO.N,/PF6*%
X147750000Y-96355000D03*
%TO.N,/PF0*%
X147750000Y-98895000D03*
%TO.N,/PF1*%
X147750000Y-101435000D03*
%TO.N,/PF4*%
X147750000Y-103975000D03*
%TO.N,/PF5*%
X147750000Y-106515000D03*
%TO.N,/PE6*%
X147750000Y-109055000D03*
%TO.N,MCU_5V*%
X147750000Y-111730012D03*
%TO.N,GND*%
X147750000Y-114135000D03*
%TD*%
D13*
%TO.N,GND*%
X164175000Y-104850000D03*
X156900000Y-96700000D03*
X161850000Y-83150000D03*
X152680000Y-83150000D03*
X167775000Y-80100000D03*
X151800000Y-87600000D03*
X160675000Y-87975000D03*
X151800000Y-94000000D03*
X158900000Y-101575000D03*
X153550000Y-81850000D03*
X155000000Y-107550000D03*
X149975000Y-80050000D03*
X166250000Y-93200000D03*
X166400000Y-113875000D03*
X158250000Y-79375000D03*
X155650000Y-110795000D03*
X153225000Y-99450000D03*
X160675000Y-93250000D03*
X167200000Y-81625000D03*
X150100000Y-96310000D03*
X158850000Y-108650000D03*
X151300000Y-113875000D03*
X167675000Y-89050000D03*
X167200000Y-87500000D03*
X162702500Y-108847500D03*
X155725000Y-93250000D03*
X155950000Y-106940000D03*
X155725000Y-87975000D03*
X157900000Y-99430000D03*
X151650000Y-109400000D03*
X163425000Y-82750000D03*
X162050000Y-110795000D03*
X150100000Y-94200000D03*
X161700000Y-84900000D03*
X163600000Y-92400000D03*
X167650000Y-93750000D03*
X150100000Y-87780000D03*
X154050000Y-103050000D03*
X158900000Y-99430000D03*
X165925000Y-91350000D03*
X161200000Y-107040000D03*
X150700000Y-81725000D03*
X166450000Y-110250000D03*
%TO.N,MCU_5V*%
X158850000Y-106100000D03*
X150100000Y-86820000D03*
X158900000Y-98470000D03*
X160900000Y-83160000D03*
X153225000Y-98490000D03*
X158900000Y-100615000D03*
X150100000Y-95350000D03*
X164052500Y-108020000D03*
X165300000Y-93200000D03*
X154550000Y-105765000D03*
%TO.N,/VBUS*%
X156450000Y-110795000D03*
X161250000Y-110795000D03*
%TO.N,/PD2*%
X163600000Y-88400000D03*
%TO.N,/PB7*%
X163600000Y-94800000D03*
%TO.N,/PD0*%
X163600000Y-90000000D03*
%TO.N,/PB0*%
X159300000Y-96700000D03*
%TO.N,/PD3*%
X163600000Y-87600000D03*
%TO.N,/PC7*%
X154500000Y-84900000D03*
X166450000Y-84675000D03*
%TO.N,/PD1*%
X163600000Y-89200000D03*
%TO.N,/PF4*%
X151800000Y-90800000D03*
%TO.N,/PF5*%
X151800000Y-90000000D03*
%TO.N,/PD5*%
X163600000Y-86800000D03*
%TO.N,/PF7*%
X151800000Y-88400000D03*
%TO.N,/PF6*%
X151800000Y-89200000D03*
%TO.N,/PF1*%
X151800000Y-91600000D03*
%TO.N,/PF0*%
X151800000Y-92400000D03*
%TD*%
%TA.AperFunction,Conductor*%
%TO.N,GND*%
G36*
X165465000Y-100257661D02*
G01*
X165492259Y-100359394D01*
X165544920Y-100450606D01*
X165619394Y-100525080D01*
X165710606Y-100577741D01*
X165812339Y-100605000D01*
X165818553Y-100605000D01*
X165085382Y-101338168D01*
X165144342Y-101381005D01*
X165331695Y-101476467D01*
X165382491Y-101524442D01*
X165399286Y-101592263D01*
X165376748Y-101658398D01*
X165331696Y-101697436D01*
X165248906Y-101739620D01*
X165174058Y-101794000D01*
X165099213Y-101848379D01*
X165099211Y-101848381D01*
X165099210Y-101848381D01*
X164968381Y-101979210D01*
X164968381Y-101979211D01*
X164968379Y-101979213D01*
X164921672Y-102043499D01*
X164859622Y-102128903D01*
X164775620Y-102293764D01*
X164775619Y-102293767D01*
X164718445Y-102469734D01*
X164717473Y-102475872D01*
X164687544Y-102539007D01*
X164628232Y-102575938D01*
X164558370Y-102574940D01*
X164500137Y-102536330D01*
X164472527Y-102475872D01*
X164472356Y-102474798D01*
X164471555Y-102469736D01*
X164426678Y-102331618D01*
X164414380Y-102293767D01*
X164414379Y-102293764D01*
X164330377Y-102128903D01*
X164221621Y-101979213D01*
X164090787Y-101848379D01*
X163941096Y-101739622D01*
X163883478Y-101710264D01*
X163776235Y-101655620D01*
X163776232Y-101655619D01*
X163600269Y-101598446D01*
X163600265Y-101598445D01*
X163600264Y-101598445D01*
X163594126Y-101597472D01*
X163530994Y-101567545D01*
X163494062Y-101508234D01*
X163495058Y-101438371D01*
X163533667Y-101380138D01*
X163594126Y-101352527D01*
X163600264Y-101351555D01*
X163776235Y-101294379D01*
X163941096Y-101210378D01*
X164090787Y-101101621D01*
X164221621Y-100970787D01*
X164330378Y-100821096D01*
X164372562Y-100738304D01*
X164420536Y-100687508D01*
X164488357Y-100670713D01*
X164554492Y-100693250D01*
X164593532Y-100738304D01*
X164688996Y-100925660D01*
X164731829Y-100984615D01*
X164731830Y-100984616D01*
X165465000Y-100251446D01*
X165465000Y-100257661D01*
G37*
%TD.AperFunction*%
%TA.AperFunction,Conductor*%
G36*
X167753032Y-77950648D02*
G01*
X168086929Y-77967052D01*
X168099037Y-77968245D01*
X168202146Y-77983539D01*
X168426699Y-78016849D01*
X168438617Y-78019219D01*
X168759951Y-78099709D01*
X168771588Y-78103240D01*
X168842806Y-78128722D01*
X169083467Y-78214832D01*
X169094688Y-78219479D01*
X169394163Y-78361120D01*
X169404871Y-78366844D01*
X169688988Y-78537137D01*
X169699106Y-78543897D01*
X169965170Y-78741224D01*
X169974576Y-78748944D01*
X170220013Y-78971395D01*
X170228604Y-78979986D01*
X170415755Y-79186475D01*
X170451055Y-79225423D01*
X170458775Y-79234829D01*
X170656102Y-79500893D01*
X170662862Y-79511011D01*
X170791776Y-79726092D01*
X170833148Y-79795116D01*
X170838885Y-79805848D01*
X170864250Y-79859478D01*
X170875118Y-79928498D01*
X170846946Y-79992436D01*
X170788679Y-80030994D01*
X170718816Y-80031929D01*
X170704713Y-80027060D01*
X170701245Y-80025623D01*
X170525265Y-79968445D01*
X170365527Y-79943145D01*
X170342514Y-79939500D01*
X170157486Y-79939500D01*
X170134473Y-79943145D01*
X169974734Y-79968445D01*
X169798767Y-80025619D01*
X169798764Y-80025620D01*
X169633903Y-80109622D01*
X169548499Y-80171672D01*
X169484213Y-80218379D01*
X169484211Y-80218381D01*
X169484210Y-80218381D01*
X169353381Y-80349210D01*
X169353381Y-80349211D01*
X169353379Y-80349213D01*
X169306672Y-80413499D01*
X169244622Y-80498903D01*
X169160620Y-80663764D01*
X169160619Y-80663767D01*
X169103445Y-80839734D01*
X169074500Y-81022486D01*
X169074500Y-81207513D01*
X169103445Y-81390265D01*
X169160619Y-81566232D01*
X169160620Y-81566235D01*
X169244622Y-81731096D01*
X169353379Y-81880787D01*
X169484213Y-82011621D01*
X169633904Y-82120378D01*
X169714763Y-82161577D01*
X169798764Y-82204379D01*
X169798767Y-82204380D01*
X169886750Y-82232967D01*
X169974736Y-82261555D01*
X169979798Y-82262356D01*
X169980872Y-82262527D01*
X170044007Y-82292456D01*
X170080938Y-82351768D01*
X170079940Y-82421630D01*
X170041330Y-82479863D01*
X169980872Y-82507473D01*
X169974734Y-82508445D01*
X169798767Y-82565619D01*
X169798764Y-82565620D01*
X169633903Y-82649622D01*
X169548499Y-82711672D01*
X169484213Y-82758379D01*
X169484211Y-82758381D01*
X169484210Y-82758381D01*
X169353381Y-82889210D01*
X169353381Y-82889211D01*
X169353379Y-82889213D01*
X169325047Y-82928209D01*
X169244622Y-83038903D01*
X169160620Y-83203764D01*
X169160619Y-83203767D01*
X169103445Y-83379734D01*
X169074500Y-83562486D01*
X169074500Y-83747513D01*
X169103445Y-83930265D01*
X169160619Y-84106232D01*
X169160620Y-84106235D01*
X169244622Y-84271096D01*
X169353379Y-84420787D01*
X169484213Y-84551621D01*
X169633904Y-84660378D01*
X169714763Y-84701577D01*
X169798764Y-84744379D01*
X169798767Y-84744380D01*
X169886750Y-84772967D01*
X169974736Y-84801555D01*
X169979798Y-84802356D01*
X169980872Y-84802527D01*
X170044007Y-84832456D01*
X170080938Y-84891768D01*
X170079940Y-84961630D01*
X170041330Y-85019863D01*
X169980872Y-85047473D01*
X169974734Y-85048445D01*
X169798767Y-85105619D01*
X169798764Y-85105620D01*
X169633903Y-85189622D01*
X169548499Y-85251672D01*
X169484213Y-85298379D01*
X169484211Y-85298381D01*
X169484210Y-85298381D01*
X169353381Y-85429210D01*
X169353381Y-85429211D01*
X169353379Y-85429213D01*
X169306672Y-85493499D01*
X169244622Y-85578903D01*
X169160620Y-85743764D01*
X169160619Y-85743767D01*
X169103445Y-85919734D01*
X169074500Y-86102486D01*
X169074500Y-86287513D01*
X169103445Y-86470265D01*
X169160619Y-86646232D01*
X169160620Y-86646235D01*
X169208877Y-86740943D01*
X169244622Y-86811096D01*
X169353379Y-86960787D01*
X169484213Y-87091621D01*
X169633904Y-87200378D01*
X169714763Y-87241577D01*
X169798764Y-87284379D01*
X169798767Y-87284380D01*
X169886750Y-87312967D01*
X169974736Y-87341555D01*
X169979798Y-87342356D01*
X169980872Y-87342527D01*
X170044007Y-87372456D01*
X170080938Y-87431768D01*
X170079940Y-87501630D01*
X170041330Y-87559863D01*
X169980872Y-87587473D01*
X169974734Y-87588445D01*
X169798767Y-87645619D01*
X169798764Y-87645620D01*
X169633903Y-87729622D01*
X169548499Y-87791672D01*
X169484213Y-87838379D01*
X169484211Y-87838381D01*
X169484210Y-87838381D01*
X169353381Y-87969210D01*
X169353381Y-87969211D01*
X169353379Y-87969213D01*
X169331011Y-88000000D01*
X169244622Y-88118903D01*
X169160620Y-88283764D01*
X169160619Y-88283767D01*
X169103445Y-88459734D01*
X169074500Y-88642486D01*
X169074500Y-88827513D01*
X169103445Y-89010265D01*
X169160619Y-89186232D01*
X169160620Y-89186235D01*
X169207916Y-89279057D01*
X169244622Y-89351096D01*
X169353379Y-89500787D01*
X169484213Y-89631621D01*
X169633904Y-89740378D01*
X169688537Y-89768215D01*
X169798764Y-89824379D01*
X169798767Y-89824380D01*
X169886750Y-89852967D01*
X169974736Y-89881555D01*
X169979798Y-89882356D01*
X169980872Y-89882527D01*
X170044007Y-89912456D01*
X170080938Y-89971768D01*
X170079940Y-90041630D01*
X170041330Y-90099863D01*
X169980872Y-90127473D01*
X169974734Y-90128445D01*
X169798767Y-90185619D01*
X169798764Y-90185620D01*
X169633903Y-90269622D01*
X169574571Y-90312730D01*
X169484213Y-90378379D01*
X169484211Y-90378381D01*
X169484210Y-90378381D01*
X169353381Y-90509210D01*
X169353381Y-90509211D01*
X169353379Y-90509213D01*
X169310511Y-90568216D01*
X169244622Y-90658903D01*
X169160620Y-90823764D01*
X169160619Y-90823767D01*
X169103445Y-90999734D01*
X169074500Y-91182486D01*
X169074500Y-91367513D01*
X169103445Y-91550265D01*
X169160619Y-91726232D01*
X169160620Y-91726235D01*
X169214400Y-91831783D01*
X169244622Y-91891096D01*
X169353379Y-92040787D01*
X169484213Y-92171621D01*
X169633904Y-92280378D01*
X169713517Y-92320943D01*
X169798764Y-92364379D01*
X169798767Y-92364380D01*
X169882112Y-92391460D01*
X169974736Y-92421555D01*
X169979798Y-92422356D01*
X169980872Y-92422527D01*
X170044007Y-92452456D01*
X170080938Y-92511768D01*
X170079940Y-92581630D01*
X170041330Y-92639863D01*
X169980872Y-92667473D01*
X169974734Y-92668445D01*
X169798767Y-92725619D01*
X169798764Y-92725620D01*
X169633903Y-92809622D01*
X169548499Y-92871672D01*
X169484213Y-92918379D01*
X169484211Y-92918381D01*
X169484210Y-92918381D01*
X169353381Y-93049210D01*
X169353381Y-93049211D01*
X169353379Y-93049213D01*
X169306672Y-93113499D01*
X169244622Y-93198903D01*
X169160620Y-93363764D01*
X169160619Y-93363767D01*
X169103445Y-93539734D01*
X169074500Y-93722486D01*
X169074500Y-93907513D01*
X169103445Y-94090265D01*
X169160619Y-94266232D01*
X169160620Y-94266235D01*
X169187751Y-94319481D01*
X169244622Y-94431096D01*
X169353379Y-94580787D01*
X169484213Y-94711621D01*
X169633904Y-94820378D01*
X169714763Y-94861577D01*
X169798764Y-94904379D01*
X169798767Y-94904380D01*
X169886750Y-94932967D01*
X169974736Y-94961555D01*
X169979798Y-94962356D01*
X169980872Y-94962527D01*
X170044007Y-94992456D01*
X170080938Y-95051768D01*
X170079940Y-95121630D01*
X170041330Y-95179863D01*
X169980872Y-95207473D01*
X169974734Y-95208445D01*
X169798767Y-95265619D01*
X169798764Y-95265620D01*
X169633903Y-95349622D01*
X169548499Y-95411672D01*
X169484213Y-95458379D01*
X169484211Y-95458381D01*
X169484210Y-95458381D01*
X169353381Y-95589210D01*
X169353381Y-95589211D01*
X169353379Y-95589213D01*
X169306672Y-95653499D01*
X169244622Y-95738903D01*
X169160620Y-95903764D01*
X169160619Y-95903767D01*
X169103445Y-96079734D01*
X169074500Y-96262486D01*
X169074500Y-96447513D01*
X169103445Y-96630265D01*
X169160619Y-96806232D01*
X169160620Y-96806235D01*
X169244622Y-96971096D01*
X169353379Y-97120787D01*
X169484213Y-97251621D01*
X169633904Y-97360378D01*
X169714763Y-97401577D01*
X169798764Y-97444379D01*
X169798767Y-97444380D01*
X169886750Y-97472967D01*
X169974736Y-97501555D01*
X169979798Y-97502356D01*
X169980872Y-97502527D01*
X170044007Y-97532456D01*
X170080938Y-97591768D01*
X170079940Y-97661630D01*
X170041330Y-97719863D01*
X169980872Y-97747473D01*
X169974734Y-97748445D01*
X169798767Y-97805619D01*
X169798764Y-97805620D01*
X169633903Y-97889622D01*
X169548499Y-97951672D01*
X169484213Y-97998379D01*
X169484211Y-97998381D01*
X169484210Y-97998381D01*
X169353381Y-98129210D01*
X169353381Y-98129211D01*
X169353379Y-98129213D01*
X169306672Y-98193499D01*
X169244622Y-98278903D01*
X169160620Y-98443764D01*
X169160619Y-98443767D01*
X169103445Y-98619734D01*
X169074500Y-98802486D01*
X169074500Y-98987513D01*
X169103445Y-99170265D01*
X169160619Y-99346232D01*
X169160620Y-99346235D01*
X169230990Y-99484342D01*
X169244622Y-99511096D01*
X169353379Y-99660787D01*
X169484213Y-99791621D01*
X169633904Y-99900378D01*
X169703565Y-99935872D01*
X169798764Y-99984379D01*
X169798767Y-99984380D01*
X169886750Y-100012967D01*
X169974736Y-100041555D01*
X169979798Y-100042356D01*
X169980872Y-100042527D01*
X170044007Y-100072456D01*
X170080938Y-100131768D01*
X170079940Y-100201630D01*
X170041330Y-100259863D01*
X169980872Y-100287473D01*
X169974734Y-100288445D01*
X169798767Y-100345619D01*
X169798764Y-100345620D01*
X169633903Y-100429622D01*
X169548499Y-100491672D01*
X169484213Y-100538379D01*
X169484211Y-100538381D01*
X169484210Y-100538381D01*
X169353381Y-100669210D01*
X169353381Y-100669211D01*
X169353379Y-100669213D01*
X169335329Y-100694057D01*
X169244622Y-100818903D01*
X169160620Y-100983764D01*
X169160619Y-100983767D01*
X169103445Y-101159734D01*
X169101094Y-101174577D01*
X169074500Y-101342486D01*
X169074500Y-101527514D01*
X169083073Y-101581641D01*
X169103445Y-101710265D01*
X169160619Y-101886232D01*
X169160620Y-101886235D01*
X169244622Y-102051096D01*
X169353379Y-102200787D01*
X169484213Y-102331621D01*
X169633904Y-102440378D01*
X169703565Y-102475872D01*
X169798764Y-102524379D01*
X169798767Y-102524380D01*
X169886750Y-102552967D01*
X169974736Y-102581555D01*
X169979798Y-102582356D01*
X169980872Y-102582527D01*
X170044007Y-102612456D01*
X170080938Y-102671768D01*
X170079940Y-102741630D01*
X170041330Y-102799863D01*
X169980872Y-102827473D01*
X169974734Y-102828445D01*
X169798767Y-102885619D01*
X169798764Y-102885620D01*
X169633903Y-102969622D01*
X169548499Y-103031672D01*
X169484213Y-103078379D01*
X169484211Y-103078381D01*
X169484210Y-103078381D01*
X169353381Y-103209210D01*
X169353381Y-103209211D01*
X169353379Y-103209213D01*
X169306672Y-103273499D01*
X169244622Y-103358903D01*
X169160620Y-103523764D01*
X169160619Y-103523767D01*
X169103445Y-103699734D01*
X169074500Y-103882486D01*
X169074500Y-104067513D01*
X169103445Y-104250265D01*
X169160619Y-104426232D01*
X169160620Y-104426235D01*
X169244622Y-104591096D01*
X169353379Y-104740787D01*
X169484213Y-104871621D01*
X169633904Y-104980378D01*
X169714763Y-105021577D01*
X169798764Y-105064379D01*
X169798767Y-105064380D01*
X169886750Y-105092967D01*
X169974736Y-105121555D01*
X169979798Y-105122356D01*
X169980872Y-105122527D01*
X170044007Y-105152456D01*
X170080938Y-105211768D01*
X170079940Y-105281630D01*
X170041330Y-105339863D01*
X169980872Y-105367473D01*
X169974734Y-105368445D01*
X169798767Y-105425619D01*
X169798764Y-105425620D01*
X169633903Y-105509622D01*
X169548499Y-105571672D01*
X169484213Y-105618379D01*
X169484211Y-105618381D01*
X169484210Y-105618381D01*
X169353381Y-105749210D01*
X169353381Y-105749211D01*
X169353379Y-105749213D01*
X169306672Y-105813499D01*
X169244622Y-105898903D01*
X169160620Y-106063764D01*
X169160619Y-106063767D01*
X169103445Y-106239734D01*
X169074500Y-106422486D01*
X169074500Y-106607513D01*
X169103445Y-106790265D01*
X169160619Y-106966232D01*
X169160620Y-106966235D01*
X169244622Y-107131096D01*
X169353379Y-107280787D01*
X169484213Y-107411621D01*
X169633904Y-107520378D01*
X169671384Y-107539475D01*
X169798764Y-107604379D01*
X169798767Y-107604380D01*
X169886750Y-107632967D01*
X169974736Y-107661555D01*
X169979798Y-107662356D01*
X169980872Y-107662527D01*
X170044007Y-107692456D01*
X170080938Y-107751768D01*
X170079940Y-107821630D01*
X170041330Y-107879863D01*
X169980872Y-107907473D01*
X169974734Y-107908445D01*
X169798767Y-107965619D01*
X169798764Y-107965620D01*
X169633903Y-108049622D01*
X169548499Y-108111672D01*
X169484213Y-108158379D01*
X169484211Y-108158381D01*
X169484210Y-108158381D01*
X169353381Y-108289210D01*
X169353381Y-108289211D01*
X169353379Y-108289213D01*
X169306672Y-108353499D01*
X169244622Y-108438903D01*
X169160620Y-108603764D01*
X169160619Y-108603767D01*
X169103445Y-108779734D01*
X169074500Y-108962486D01*
X169074500Y-109147513D01*
X169103445Y-109330265D01*
X169160619Y-109506232D01*
X169160620Y-109506235D01*
X169244622Y-109671096D01*
X169353379Y-109820787D01*
X169484213Y-109951621D01*
X169633904Y-110060378D01*
X169714763Y-110101577D01*
X169798764Y-110144379D01*
X169798767Y-110144380D01*
X169886750Y-110172967D01*
X169974736Y-110201555D01*
X170157486Y-110230500D01*
X170157487Y-110230500D01*
X170342513Y-110230500D01*
X170342514Y-110230500D01*
X170525264Y-110201555D01*
X170701235Y-110144379D01*
X170866096Y-110060378D01*
X171015787Y-109951621D01*
X171037819Y-109929589D01*
X171099142Y-109896104D01*
X171168834Y-109901088D01*
X171224767Y-109942960D01*
X171249184Y-110008424D01*
X171249500Y-110017270D01*
X171249500Y-110767742D01*
X171229815Y-110834781D01*
X171177011Y-110880536D01*
X171107853Y-110890480D01*
X171044297Y-110861455D01*
X171037819Y-110855423D01*
X171015789Y-110833393D01*
X171015788Y-110833392D01*
X171015787Y-110833391D01*
X170866096Y-110724634D01*
X170826000Y-110704204D01*
X170701235Y-110640632D01*
X170701232Y-110640631D01*
X170525265Y-110583457D01*
X170397424Y-110563209D01*
X170342514Y-110554512D01*
X170157486Y-110554512D01*
X170102576Y-110563209D01*
X169974734Y-110583457D01*
X169798767Y-110640631D01*
X169798764Y-110640632D01*
X169633903Y-110724634D01*
X169557006Y-110780504D01*
X169484213Y-110833391D01*
X169484211Y-110833393D01*
X169484210Y-110833393D01*
X169353381Y-110964222D01*
X169353381Y-110964223D01*
X169353379Y-110964225D01*
X169307928Y-111026783D01*
X169244622Y-111113915D01*
X169160620Y-111278776D01*
X169160619Y-111278779D01*
X169103445Y-111454746D01*
X169074500Y-111637498D01*
X169074500Y-111822525D01*
X169103445Y-112005277D01*
X169160619Y-112181244D01*
X169160620Y-112181247D01*
X169225227Y-112308043D01*
X169244622Y-112346108D01*
X169353379Y-112495799D01*
X169484213Y-112626633D01*
X169633904Y-112735390D01*
X169764142Y-112801749D01*
X169803106Y-112821603D01*
X169802147Y-112823483D01*
X169849680Y-112861791D01*
X169871741Y-112928086D01*
X169854459Y-112995785D01*
X169803319Y-113043393D01*
X169801568Y-113044192D01*
X169633903Y-113129622D01*
X169574571Y-113172730D01*
X169484213Y-113238379D01*
X169484211Y-113238381D01*
X169484210Y-113238381D01*
X169353381Y-113369210D01*
X169353381Y-113369211D01*
X169353379Y-113369213D01*
X169320591Y-113414342D01*
X169244622Y-113518903D01*
X169160620Y-113683764D01*
X169160619Y-113683767D01*
X169103445Y-113859734D01*
X169074500Y-114042486D01*
X169074500Y-114227513D01*
X169103445Y-114410265D01*
X169160619Y-114586232D01*
X169160620Y-114586235D01*
X169206897Y-114677057D01*
X169244622Y-114751096D01*
X169353379Y-114900787D01*
X169484213Y-115031621D01*
X169633904Y-115140378D01*
X169714763Y-115181577D01*
X169798764Y-115224379D01*
X169798767Y-115224380D01*
X169882676Y-115251643D01*
X169974736Y-115281555D01*
X170157486Y-115310500D01*
X170157487Y-115310500D01*
X170342513Y-115310500D01*
X170342514Y-115310500D01*
X170525264Y-115281555D01*
X170695430Y-115226264D01*
X170714218Y-115225728D01*
X170732185Y-115220206D01*
X170748419Y-115224751D01*
X170765271Y-115224270D01*
X170781367Y-115233976D01*
X170799467Y-115239044D01*
X170810665Y-115251643D01*
X170825104Y-115260350D01*
X170833398Y-115277219D01*
X170845884Y-115291267D01*
X170848493Y-115307921D01*
X170855932Y-115323051D01*
X170853789Y-115341723D01*
X170856699Y-115360294D01*
X170848158Y-115390799D01*
X170847967Y-115392465D01*
X170847183Y-115394282D01*
X170832524Y-115427482D01*
X170827418Y-115437735D01*
X170653234Y-115750452D01*
X170647205Y-115760190D01*
X170444906Y-116055512D01*
X170438003Y-116064652D01*
X170209328Y-116340035D01*
X170201612Y-116348499D01*
X169948499Y-116601612D01*
X169940035Y-116609328D01*
X169664652Y-116838003D01*
X169655512Y-116844906D01*
X169360190Y-117047205D01*
X169350452Y-117053234D01*
X169037735Y-117227418D01*
X169027482Y-117232523D01*
X168700035Y-117377105D01*
X168689355Y-117381243D01*
X168349947Y-117495001D01*
X168338931Y-117498135D01*
X167990490Y-117580087D01*
X167979231Y-117582192D01*
X167624707Y-117631646D01*
X167613303Y-117632703D01*
X167252855Y-117649368D01*
X167247128Y-117649500D01*
X150752872Y-117649500D01*
X150747145Y-117649368D01*
X150386696Y-117632703D01*
X150375292Y-117631646D01*
X150020768Y-117582192D01*
X150009509Y-117580087D01*
X149661068Y-117498135D01*
X149650052Y-117495001D01*
X149310644Y-117381243D01*
X149299964Y-117377105D01*
X148972517Y-117232523D01*
X148962264Y-117227418D01*
X148649547Y-117053234D01*
X148639809Y-117047205D01*
X148344487Y-116844906D01*
X148335347Y-116838003D01*
X148059964Y-116609328D01*
X148051500Y-116601612D01*
X147798387Y-116348499D01*
X147790671Y-116340035D01*
X147708999Y-116241681D01*
X147561994Y-116064649D01*
X147555093Y-116055512D01*
X147550286Y-116048495D01*
X147392884Y-115818714D01*
X147352794Y-115760189D01*
X147346765Y-115750453D01*
X147295359Y-115658162D01*
X147279935Y-115590019D01*
X147303801Y-115524352D01*
X147359380Y-115482012D01*
X147422963Y-115476926D01*
X147423208Y-115475381D01*
X147641780Y-115510000D01*
X147858220Y-115510000D01*
X148071981Y-115476142D01*
X148277814Y-115409264D01*
X148277817Y-115409263D01*
X148470656Y-115311006D01*
X148529615Y-115268168D01*
X148529616Y-115268168D01*
X148394546Y-115133098D01*
X148312952Y-115051504D01*
X153530000Y-115051504D01*
X153530000Y-115300000D01*
X154230000Y-115300000D01*
X154230000Y-115800000D01*
X153530000Y-115800000D01*
X153530000Y-116048495D01*
X153568427Y-116241681D01*
X153568430Y-116241693D01*
X153643807Y-116423671D01*
X153643814Y-116423684D01*
X153753248Y-116587462D01*
X153753251Y-116587466D01*
X153892533Y-116726748D01*
X153892537Y-116726751D01*
X154056315Y-116836185D01*
X154056328Y-116836192D01*
X154238308Y-116911569D01*
X154280000Y-116919862D01*
X154280000Y-116116988D01*
X154289940Y-116134205D01*
X154345795Y-116190060D01*
X154414204Y-116229556D01*
X154490504Y-116250000D01*
X154569496Y-116250000D01*
X154645796Y-116229556D01*
X154714205Y-116190060D01*
X154770060Y-116134205D01*
X154780000Y-116116988D01*
X154780000Y-116919862D01*
X154821690Y-116911569D01*
X154821692Y-116911569D01*
X155003671Y-116836192D01*
X155003684Y-116836185D01*
X155167462Y-116726751D01*
X155167466Y-116726748D01*
X155306748Y-116587466D01*
X155306751Y-116587462D01*
X155416185Y-116423684D01*
X155416192Y-116423671D01*
X155491569Y-116241693D01*
X155491572Y-116241681D01*
X155529999Y-116048495D01*
X155530000Y-116048492D01*
X155530000Y-115800000D01*
X154830000Y-115800000D01*
X154830000Y-115300000D01*
X155530000Y-115300000D01*
X155530000Y-115051508D01*
X155529999Y-115051504D01*
X162170000Y-115051504D01*
X162170000Y-115300000D01*
X162870000Y-115300000D01*
X162870000Y-115800000D01*
X162170000Y-115800000D01*
X162170000Y-116048495D01*
X162208427Y-116241681D01*
X162208430Y-116241693D01*
X162283807Y-116423671D01*
X162283814Y-116423684D01*
X162393248Y-116587462D01*
X162393251Y-116587466D01*
X162532533Y-116726748D01*
X162532537Y-116726751D01*
X162696315Y-116836185D01*
X162696328Y-116836192D01*
X162878308Y-116911569D01*
X162920000Y-116919862D01*
X162920000Y-116116988D01*
X162929940Y-116134205D01*
X162985795Y-116190060D01*
X163054204Y-116229556D01*
X163130504Y-116250000D01*
X163209496Y-116250000D01*
X163285796Y-116229556D01*
X163354205Y-116190060D01*
X163410060Y-116134205D01*
X163420000Y-116116988D01*
X163420000Y-116919862D01*
X163461690Y-116911569D01*
X163461692Y-116911569D01*
X163643671Y-116836192D01*
X163643684Y-116836185D01*
X163807462Y-116726751D01*
X163807466Y-116726748D01*
X163946748Y-116587466D01*
X163946751Y-116587462D01*
X164056185Y-116423684D01*
X164056192Y-116423671D01*
X164131569Y-116241693D01*
X164131572Y-116241681D01*
X164169999Y-116048495D01*
X164170000Y-116048492D01*
X164170000Y-115800000D01*
X163470000Y-115800000D01*
X163470000Y-115300000D01*
X164170000Y-115300000D01*
X164170000Y-115051508D01*
X164169999Y-115051504D01*
X164131572Y-114858318D01*
X164131569Y-114858306D01*
X164056192Y-114676328D01*
X164056185Y-114676315D01*
X163946751Y-114512537D01*
X163946748Y-114512533D01*
X163807466Y-114373251D01*
X163807462Y-114373248D01*
X163643684Y-114263814D01*
X163643671Y-114263807D01*
X163461691Y-114188429D01*
X163461683Y-114188427D01*
X163420000Y-114180135D01*
X163420000Y-114983011D01*
X163410060Y-114965795D01*
X163354205Y-114909940D01*
X163285796Y-114870444D01*
X163209496Y-114850000D01*
X163130504Y-114850000D01*
X163054204Y-114870444D01*
X162985795Y-114909940D01*
X162929940Y-114965795D01*
X162920000Y-114983011D01*
X162920000Y-114180136D01*
X162919999Y-114180135D01*
X162878316Y-114188427D01*
X162878308Y-114188429D01*
X162696328Y-114263807D01*
X162696315Y-114263814D01*
X162532537Y-114373248D01*
X162532533Y-114373251D01*
X162393251Y-114512533D01*
X162393248Y-114512537D01*
X162283814Y-114676315D01*
X162283807Y-114676328D01*
X162208430Y-114858306D01*
X162208427Y-114858318D01*
X162170000Y-115051504D01*
X155529999Y-115051504D01*
X155491572Y-114858318D01*
X155491569Y-114858306D01*
X155416192Y-114676328D01*
X155416185Y-114676315D01*
X155306751Y-114512537D01*
X155306748Y-114512533D01*
X155167466Y-114373251D01*
X155167462Y-114373248D01*
X155003684Y-114263814D01*
X155003671Y-114263807D01*
X154821691Y-114188429D01*
X154821683Y-114188427D01*
X154780000Y-114180135D01*
X154780000Y-114983011D01*
X154770060Y-114965795D01*
X154714205Y-114909940D01*
X154645796Y-114870444D01*
X154569496Y-114850000D01*
X154490504Y-114850000D01*
X154414204Y-114870444D01*
X154345795Y-114909940D01*
X154289940Y-114965795D01*
X154280000Y-114983011D01*
X154280000Y-114180136D01*
X154279999Y-114180135D01*
X154238316Y-114188427D01*
X154238308Y-114188429D01*
X154056328Y-114263807D01*
X154056315Y-114263814D01*
X153892537Y-114373248D01*
X153892533Y-114373251D01*
X153753251Y-114512533D01*
X153753248Y-114512537D01*
X153643814Y-114676315D01*
X153643807Y-114676328D01*
X153568430Y-114858306D01*
X153568427Y-114858318D01*
X153530000Y-115051504D01*
X148312952Y-115051504D01*
X147796447Y-114535000D01*
X147802661Y-114535000D01*
X147904394Y-114507741D01*
X147995606Y-114455080D01*
X148070080Y-114380606D01*
X148122741Y-114289394D01*
X148150000Y-114187661D01*
X148150000Y-114181448D01*
X148883168Y-114914616D01*
X148883168Y-114914615D01*
X148926006Y-114855656D01*
X149024263Y-114662817D01*
X149024264Y-114662814D01*
X149091142Y-114456981D01*
X149125000Y-114243220D01*
X149125000Y-114026779D01*
X149091142Y-113813018D01*
X149024264Y-113607185D01*
X149024263Y-113607182D01*
X148926005Y-113414342D01*
X148883168Y-113355383D01*
X148883168Y-113355382D01*
X148150000Y-114088551D01*
X148150000Y-114082339D01*
X148122741Y-113980606D01*
X148070080Y-113889394D01*
X147995606Y-113814920D01*
X147904394Y-113762259D01*
X147802661Y-113735000D01*
X147796446Y-113735000D01*
X148529616Y-113001830D01*
X148529615Y-113001829D01*
X148470658Y-112958994D01*
X148408592Y-112927369D01*
X148357796Y-112879394D01*
X148341002Y-112811573D01*
X148363540Y-112745438D01*
X148392001Y-112716568D01*
X148515787Y-112626633D01*
X148646621Y-112495799D01*
X148755378Y-112346108D01*
X148839379Y-112181247D01*
X148896555Y-112005276D01*
X148925500Y-111822526D01*
X148925500Y-111637498D01*
X148896555Y-111454748D01*
X148839379Y-111278777D01*
X148839379Y-111278776D01*
X148780749Y-111163709D01*
X148755378Y-111113916D01*
X148646621Y-110964225D01*
X148515787Y-110833391D01*
X148366096Y-110724634D01*
X148359953Y-110721504D01*
X153530000Y-110721504D01*
X153530000Y-111120000D01*
X154230000Y-111120000D01*
X154230000Y-111620000D01*
X153530000Y-111620000D01*
X153530000Y-112018495D01*
X153568427Y-112211681D01*
X153568430Y-112211693D01*
X153643807Y-112393671D01*
X153643814Y-112393684D01*
X153753248Y-112557462D01*
X153753251Y-112557466D01*
X153892533Y-112696748D01*
X153892537Y-112696751D01*
X154056315Y-112806185D01*
X154056328Y-112806192D01*
X154238308Y-112881569D01*
X154280000Y-112889862D01*
X154280000Y-112086988D01*
X154289940Y-112104205D01*
X154345795Y-112160060D01*
X154414204Y-112199556D01*
X154490504Y-112220000D01*
X154569496Y-112220000D01*
X154645796Y-112199556D01*
X154714205Y-112160060D01*
X154770060Y-112104205D01*
X154780000Y-112086988D01*
X154780000Y-112889862D01*
X154821690Y-112881569D01*
X154821692Y-112881569D01*
X155003671Y-112806192D01*
X155003684Y-112806185D01*
X155167462Y-112696751D01*
X155167466Y-112696748D01*
X155306748Y-112557466D01*
X155306751Y-112557462D01*
X155416185Y-112393684D01*
X155416186Y-112393682D01*
X155420129Y-112384163D01*
X155463968Y-112329757D01*
X155530261Y-112307689D01*
X155597961Y-112324965D01*
X155603400Y-112328647D01*
X155606634Y-112330514D01*
X155606635Y-112330515D01*
X155737865Y-112406281D01*
X155884234Y-112445500D01*
X155884236Y-112445500D01*
X156035764Y-112445500D01*
X156035766Y-112445500D01*
X156182135Y-112406281D01*
X156313365Y-112330515D01*
X156420515Y-112223365D01*
X156496281Y-112092135D01*
X156535500Y-111945766D01*
X156535500Y-111794234D01*
X156496281Y-111647865D01*
X156455288Y-111576864D01*
X156438816Y-111508966D01*
X156461668Y-111442939D01*
X156516589Y-111399748D01*
X156530565Y-111395095D01*
X156681784Y-111354577D01*
X156818716Y-111275520D01*
X156930520Y-111163716D01*
X157009577Y-111026784D01*
X157050500Y-110874057D01*
X157050500Y-110715943D01*
X160649500Y-110715943D01*
X160649500Y-110874057D01*
X160673661Y-110964225D01*
X160690423Y-111026783D01*
X160690426Y-111026790D01*
X160769475Y-111163709D01*
X160769479Y-111163714D01*
X160769480Y-111163716D01*
X160881284Y-111275520D01*
X160881286Y-111275521D01*
X160881290Y-111275524D01*
X160982090Y-111333720D01*
X161018216Y-111354577D01*
X161169418Y-111395091D01*
X161229077Y-111431455D01*
X161259606Y-111494302D01*
X161251311Y-111563677D01*
X161244710Y-111576865D01*
X161203720Y-111647861D01*
X161203720Y-111647862D01*
X161203720Y-111647863D01*
X161203719Y-111647865D01*
X161164500Y-111794234D01*
X161164500Y-111945766D01*
X161180446Y-112005277D01*
X161203719Y-112092136D01*
X161241602Y-112157750D01*
X161279485Y-112223365D01*
X161386635Y-112330515D01*
X161517865Y-112406281D01*
X161664234Y-112445500D01*
X161664236Y-112445500D01*
X161815764Y-112445500D01*
X161815766Y-112445500D01*
X161962135Y-112406281D01*
X162093365Y-112330515D01*
X162093366Y-112330513D01*
X162100403Y-112326451D01*
X162101676Y-112328656D01*
X162154956Y-112308043D01*
X162223405Y-112322063D01*
X162273407Y-112370864D01*
X162279867Y-112384157D01*
X162283809Y-112393674D01*
X162283814Y-112393684D01*
X162393248Y-112557462D01*
X162393251Y-112557466D01*
X162532533Y-112696748D01*
X162532537Y-112696751D01*
X162696315Y-112806185D01*
X162696328Y-112806192D01*
X162878308Y-112881569D01*
X162920000Y-112889862D01*
X162920000Y-112086988D01*
X162929940Y-112104205D01*
X162985795Y-112160060D01*
X163054204Y-112199556D01*
X163130504Y-112220000D01*
X163209496Y-112220000D01*
X163285796Y-112199556D01*
X163354205Y-112160060D01*
X163410060Y-112104205D01*
X163420000Y-112086988D01*
X163420000Y-112889862D01*
X163461690Y-112881569D01*
X163461692Y-112881569D01*
X163643671Y-112806192D01*
X163643684Y-112806185D01*
X163807462Y-112696751D01*
X163807466Y-112696748D01*
X163946748Y-112557466D01*
X163946751Y-112557462D01*
X164056185Y-112393684D01*
X164056192Y-112393671D01*
X164131569Y-112211693D01*
X164131572Y-112211681D01*
X164169999Y-112018495D01*
X164170000Y-112018492D01*
X164170000Y-111620000D01*
X163470000Y-111620000D01*
X163470000Y-111120000D01*
X164170000Y-111120000D01*
X164170000Y-110721508D01*
X164169999Y-110721504D01*
X164131572Y-110528318D01*
X164131569Y-110528306D01*
X164056192Y-110346328D01*
X164056185Y-110346315D01*
X163946751Y-110182537D01*
X163946748Y-110182533D01*
X163807466Y-110043251D01*
X163807462Y-110043248D01*
X163643684Y-109933814D01*
X163643671Y-109933807D01*
X163461691Y-109858429D01*
X163461683Y-109858427D01*
X163420000Y-109850135D01*
X163420000Y-110653011D01*
X163410060Y-110635795D01*
X163354205Y-110579940D01*
X163285796Y-110540444D01*
X163209496Y-110520000D01*
X163130504Y-110520000D01*
X163054204Y-110540444D01*
X162985795Y-110579940D01*
X162929940Y-110635795D01*
X162920000Y-110653011D01*
X162920000Y-109850136D01*
X162919999Y-109850135D01*
X162878316Y-109858427D01*
X162878308Y-109858429D01*
X162696328Y-109933807D01*
X162696315Y-109933814D01*
X162532537Y-110043248D01*
X162532533Y-110043251D01*
X162393251Y-110182533D01*
X162393248Y-110182537D01*
X162283814Y-110346315D01*
X162283807Y-110346328D01*
X162208430Y-110528306D01*
X162208427Y-110528318D01*
X162170000Y-110721504D01*
X162170000Y-111120000D01*
X162870000Y-111120000D01*
X162870000Y-111620000D01*
X162331784Y-111620000D01*
X162264745Y-111600315D01*
X162224397Y-111558000D01*
X162200515Y-111516635D01*
X162093365Y-111409485D01*
X162027750Y-111371602D01*
X161962136Y-111333719D01*
X161877482Y-111311036D01*
X161832641Y-111299021D01*
X161772981Y-111262657D01*
X161742452Y-111199810D01*
X161750747Y-111130435D01*
X161757343Y-111117255D01*
X161809577Y-111026784D01*
X161850500Y-110874057D01*
X161850500Y-110715943D01*
X161809577Y-110563216D01*
X161789422Y-110528306D01*
X161730524Y-110426290D01*
X161730518Y-110426282D01*
X161618717Y-110314481D01*
X161618709Y-110314475D01*
X161481790Y-110235426D01*
X161481786Y-110235424D01*
X161481784Y-110235423D01*
X161329057Y-110194500D01*
X161170943Y-110194500D01*
X161018216Y-110235423D01*
X161018209Y-110235426D01*
X160881290Y-110314475D01*
X160881282Y-110314481D01*
X160769481Y-110426282D01*
X160769475Y-110426290D01*
X160690426Y-110563209D01*
X160690423Y-110563216D01*
X160649500Y-110715943D01*
X157050500Y-110715943D01*
X157009577Y-110563216D01*
X156989422Y-110528306D01*
X156930524Y-110426290D01*
X156930518Y-110426282D01*
X156818717Y-110314481D01*
X156818709Y-110314475D01*
X156681790Y-110235426D01*
X156681786Y-110235424D01*
X156681784Y-110235423D01*
X156529057Y-110194500D01*
X156370943Y-110194500D01*
X156218216Y-110235423D01*
X156218209Y-110235426D01*
X156081290Y-110314475D01*
X156081282Y-110314481D01*
X155969481Y-110426282D01*
X155969475Y-110426290D01*
X155890426Y-110563209D01*
X155890423Y-110563216D01*
X155849500Y-110715943D01*
X155849500Y-110874057D01*
X155873661Y-110964225D01*
X155890423Y-111026783D01*
X155890423Y-111026784D01*
X155942652Y-111117248D01*
X155959124Y-111185148D01*
X155936271Y-111251175D01*
X155881349Y-111294365D01*
X155867360Y-111299021D01*
X155737865Y-111333719D01*
X155737863Y-111333719D01*
X155737863Y-111333720D01*
X155606635Y-111409485D01*
X155606632Y-111409487D01*
X155499487Y-111516632D01*
X155499483Y-111516638D01*
X155475603Y-111558000D01*
X155425036Y-111606216D01*
X155368216Y-111620000D01*
X154830000Y-111620000D01*
X154830000Y-111120000D01*
X155530000Y-111120000D01*
X155530000Y-110721508D01*
X155529999Y-110721504D01*
X155491572Y-110528318D01*
X155491569Y-110528306D01*
X155416192Y-110346328D01*
X155416185Y-110346315D01*
X155306751Y-110182537D01*
X155306748Y-110182533D01*
X155167466Y-110043251D01*
X155167462Y-110043248D01*
X155003684Y-109933814D01*
X155003671Y-109933807D01*
X154821691Y-109858429D01*
X154821683Y-109858427D01*
X154780000Y-109850135D01*
X154780000Y-110653011D01*
X154770060Y-110635795D01*
X154714205Y-110579940D01*
X154645796Y-110540444D01*
X154569496Y-110520000D01*
X154490504Y-110520000D01*
X154414204Y-110540444D01*
X154345795Y-110579940D01*
X154289940Y-110635795D01*
X154280000Y-110653011D01*
X154280000Y-109850136D01*
X154279999Y-109850135D01*
X154238316Y-109858427D01*
X154238308Y-109858429D01*
X154056328Y-109933807D01*
X154056315Y-109933814D01*
X153892537Y-110043248D01*
X153892533Y-110043251D01*
X153753251Y-110182533D01*
X153753248Y-110182537D01*
X153643814Y-110346315D01*
X153643807Y-110346328D01*
X153568430Y-110528306D01*
X153568427Y-110528318D01*
X153530000Y-110721504D01*
X148359953Y-110721504D01*
X148326000Y-110704204D01*
X148201235Y-110640632D01*
X148201232Y-110640631D01*
X148025265Y-110583457D01*
X147897424Y-110563209D01*
X147842514Y-110554512D01*
X147657486Y-110554512D01*
X147602576Y-110563209D01*
X147474734Y-110583457D01*
X147298767Y-110640631D01*
X147298764Y-110640632D01*
X147133903Y-110724634D01*
X147057006Y-110780504D01*
X146984213Y-110833391D01*
X146984211Y-110833393D01*
X146984210Y-110833393D01*
X146962181Y-110855423D01*
X146900858Y-110888908D01*
X146831166Y-110883924D01*
X146775233Y-110842052D01*
X146750816Y-110776588D01*
X146750500Y-110767742D01*
X146750500Y-110017270D01*
X146770185Y-109950231D01*
X146822989Y-109904476D01*
X146892147Y-109894532D01*
X146955703Y-109923557D01*
X146962181Y-109929589D01*
X146984213Y-109951621D01*
X147133904Y-110060378D01*
X147214763Y-110101577D01*
X147298764Y-110144379D01*
X147298767Y-110144380D01*
X147386750Y-110172967D01*
X147474736Y-110201555D01*
X147657486Y-110230500D01*
X147657487Y-110230500D01*
X147842513Y-110230500D01*
X147842514Y-110230500D01*
X148025264Y-110201555D01*
X148201235Y-110144379D01*
X148366096Y-110060378D01*
X148515787Y-109951621D01*
X148646621Y-109820787D01*
X148755378Y-109671096D01*
X148839379Y-109506235D01*
X148896555Y-109330264D01*
X148925500Y-109147514D01*
X148925500Y-108962486D01*
X148896555Y-108779736D01*
X148867967Y-108691750D01*
X148839380Y-108603767D01*
X148839379Y-108603764D01*
X148755377Y-108438903D01*
X148646621Y-108289213D01*
X148515787Y-108158379D01*
X148366096Y-108049622D01*
X148330202Y-108031333D01*
X148201235Y-107965620D01*
X148201232Y-107965619D01*
X148125286Y-107940943D01*
X163452000Y-107940943D01*
X163452000Y-108099057D01*
X163467896Y-108158379D01*
X163492923Y-108251783D01*
X163492926Y-108251790D01*
X163571975Y-108388709D01*
X163571979Y-108388714D01*
X163571980Y-108388716D01*
X163683784Y-108500520D01*
X163683786Y-108500521D01*
X163683790Y-108500524D01*
X163820709Y-108579573D01*
X163820716Y-108579577D01*
X163973443Y-108620500D01*
X163973445Y-108620500D01*
X164131555Y-108620500D01*
X164131557Y-108620500D01*
X164284284Y-108579577D01*
X164421216Y-108500520D01*
X164533020Y-108388716D01*
X164612077Y-108251784D01*
X164653000Y-108099057D01*
X164653000Y-107940943D01*
X164612077Y-107788216D01*
X164589073Y-107748371D01*
X164533024Y-107651290D01*
X164533018Y-107651282D01*
X164421217Y-107539481D01*
X164421209Y-107539475D01*
X164284290Y-107460426D01*
X164284286Y-107460424D01*
X164284284Y-107460423D01*
X164131557Y-107419500D01*
X163973443Y-107419500D01*
X163820716Y-107460423D01*
X163820709Y-107460426D01*
X163683790Y-107539475D01*
X163683782Y-107539481D01*
X163571981Y-107651282D01*
X163571975Y-107651290D01*
X163492926Y-107788209D01*
X163492923Y-107788216D01*
X163452000Y-107940943D01*
X148125286Y-107940943D01*
X148025269Y-107908446D01*
X148025265Y-107908445D01*
X148025264Y-107908445D01*
X148019126Y-107907472D01*
X147955994Y-107877545D01*
X147919062Y-107818234D01*
X147920058Y-107748371D01*
X147958667Y-107690138D01*
X148019126Y-107662527D01*
X148025264Y-107661555D01*
X148201235Y-107604379D01*
X148366096Y-107520378D01*
X148515787Y-107411621D01*
X148646621Y-107280787D01*
X148755378Y-107131096D01*
X148839379Y-106966235D01*
X148896555Y-106790264D01*
X148925500Y-106607514D01*
X148925500Y-106422486D01*
X148896555Y-106239736D01*
X148839379Y-106063765D01*
X148839379Y-106063764D01*
X148755377Y-105898903D01*
X148646621Y-105749213D01*
X148583351Y-105685943D01*
X153949500Y-105685943D01*
X153949500Y-105844057D01*
X153986120Y-105980723D01*
X153990423Y-105996783D01*
X153990426Y-105996790D01*
X154069475Y-106133709D01*
X154069479Y-106133714D01*
X154069480Y-106133716D01*
X154181284Y-106245520D01*
X154181286Y-106245521D01*
X154181290Y-106245524D01*
X154318209Y-106324573D01*
X154318216Y-106324577D01*
X154470943Y-106365500D01*
X154470945Y-106365500D01*
X154629055Y-106365500D01*
X154629057Y-106365500D01*
X154781784Y-106324577D01*
X154918716Y-106245520D01*
X155030520Y-106133716D01*
X155095629Y-106020943D01*
X158249500Y-106020943D01*
X158249500Y-106179057D01*
X158265759Y-106239734D01*
X158290423Y-106331783D01*
X158290426Y-106331790D01*
X158369475Y-106468709D01*
X158369479Y-106468714D01*
X158369480Y-106468716D01*
X158481284Y-106580520D01*
X158481286Y-106580521D01*
X158481290Y-106580524D01*
X158528039Y-106607514D01*
X158618216Y-106659577D01*
X158770943Y-106700500D01*
X158770945Y-106700500D01*
X158929055Y-106700500D01*
X158929057Y-106700500D01*
X159081784Y-106659577D01*
X159218716Y-106580520D01*
X159330520Y-106468716D01*
X159409577Y-106331784D01*
X159450500Y-106179057D01*
X159450500Y-106020943D01*
X159409577Y-105868216D01*
X159341730Y-105750700D01*
X159330524Y-105731290D01*
X159330518Y-105731282D01*
X159218717Y-105619481D01*
X159218709Y-105619475D01*
X159081790Y-105540426D01*
X159081786Y-105540424D01*
X159081784Y-105540423D01*
X158929057Y-105499500D01*
X158770943Y-105499500D01*
X158618216Y-105540423D01*
X158618209Y-105540426D01*
X158481290Y-105619475D01*
X158481282Y-105619481D01*
X158369481Y-105731282D01*
X158369475Y-105731290D01*
X158290426Y-105868209D01*
X158290423Y-105868216D01*
X158249500Y-106020943D01*
X155095629Y-106020943D01*
X155109577Y-105996784D01*
X155150500Y-105844057D01*
X155150500Y-105685943D01*
X155109577Y-105533216D01*
X155047457Y-105425620D01*
X155030524Y-105396290D01*
X155030518Y-105396282D01*
X154918717Y-105284481D01*
X154918709Y-105284475D01*
X154781790Y-105205426D01*
X154781786Y-105205424D01*
X154781784Y-105205423D01*
X154629057Y-105164500D01*
X154470943Y-105164500D01*
X154318216Y-105205423D01*
X154318209Y-105205426D01*
X154181290Y-105284475D01*
X154181282Y-105284481D01*
X154069481Y-105396282D01*
X154069475Y-105396290D01*
X153990426Y-105533209D01*
X153990423Y-105533216D01*
X153949500Y-105685943D01*
X148583351Y-105685943D01*
X148515787Y-105618379D01*
X148366096Y-105509622D01*
X148201235Y-105425620D01*
X148201232Y-105425619D01*
X148025269Y-105368446D01*
X148025265Y-105368445D01*
X148025264Y-105368445D01*
X148019126Y-105367472D01*
X147955994Y-105337545D01*
X147919062Y-105278234D01*
X147920058Y-105208371D01*
X147958667Y-105150138D01*
X148019126Y-105122527D01*
X148025264Y-105121555D01*
X148201235Y-105064379D01*
X148366096Y-104980378D01*
X148515787Y-104871621D01*
X148646621Y-104740787D01*
X148755378Y-104591096D01*
X148839379Y-104426235D01*
X148896555Y-104250264D01*
X148925500Y-104067514D01*
X148925500Y-103882486D01*
X148896555Y-103699736D01*
X148839379Y-103523765D01*
X148839379Y-103523764D01*
X148796577Y-103439763D01*
X148755378Y-103358904D01*
X148646621Y-103209213D01*
X148515787Y-103078379D01*
X148366096Y-102969622D01*
X148329537Y-102950994D01*
X148201235Y-102885620D01*
X148201232Y-102885619D01*
X148025269Y-102828446D01*
X148025265Y-102828445D01*
X148025264Y-102828445D01*
X148019126Y-102827472D01*
X147955994Y-102797545D01*
X147919062Y-102738234D01*
X147920058Y-102668371D01*
X147958667Y-102610138D01*
X148019126Y-102582527D01*
X148025264Y-102581555D01*
X148201235Y-102524379D01*
X148366096Y-102440378D01*
X148515787Y-102331621D01*
X148646621Y-102200787D01*
X148755378Y-102051096D01*
X148839379Y-101886235D01*
X148896555Y-101710264D01*
X148925500Y-101527514D01*
X148925500Y-101342486D01*
X148896555Y-101159736D01*
X148839656Y-100984616D01*
X148839380Y-100983767D01*
X148839379Y-100983764D01*
X148796577Y-100899763D01*
X148755378Y-100818904D01*
X148646621Y-100669213D01*
X148515787Y-100538379D01*
X148512434Y-100535943D01*
X158299500Y-100535943D01*
X158299500Y-100694057D01*
X158333540Y-100821094D01*
X158340423Y-100846783D01*
X158340426Y-100846790D01*
X158419475Y-100983709D01*
X158419479Y-100983714D01*
X158419480Y-100983716D01*
X158531284Y-101095520D01*
X158531286Y-101095521D01*
X158531290Y-101095524D01*
X158642507Y-101159734D01*
X158668216Y-101174577D01*
X158820943Y-101215500D01*
X158820945Y-101215500D01*
X158979055Y-101215500D01*
X158979057Y-101215500D01*
X159131784Y-101174577D01*
X159268716Y-101095520D01*
X159380520Y-100983716D01*
X159459577Y-100846784D01*
X159490782Y-100730323D01*
X159527146Y-100670665D01*
X159589993Y-100640136D01*
X159659368Y-100648431D01*
X159713246Y-100692916D01*
X159721039Y-100706120D01*
X159779622Y-100821096D01*
X159888379Y-100970787D01*
X160019213Y-101101621D01*
X160168904Y-101210378D01*
X160249763Y-101251577D01*
X160333764Y-101294379D01*
X160333767Y-101294380D01*
X160421750Y-101322967D01*
X160509736Y-101351555D01*
X160514798Y-101352356D01*
X160515872Y-101352527D01*
X160579007Y-101382456D01*
X160615938Y-101441768D01*
X160614940Y-101511630D01*
X160576330Y-101569863D01*
X160515872Y-101597473D01*
X160509734Y-101598445D01*
X160333767Y-101655619D01*
X160333764Y-101655620D01*
X160168903Y-101739622D01*
X160083499Y-101801672D01*
X160019213Y-101848379D01*
X160019211Y-101848381D01*
X160019210Y-101848381D01*
X159888381Y-101979210D01*
X159888381Y-101979211D01*
X159888379Y-101979213D01*
X159841672Y-102043499D01*
X159779622Y-102128903D01*
X159695620Y-102293764D01*
X159695619Y-102293767D01*
X159638445Y-102469734D01*
X159616207Y-102610138D01*
X159609500Y-102652486D01*
X159609500Y-102837514D01*
X159621624Y-102914062D01*
X159638445Y-103020265D01*
X159695619Y-103196232D01*
X159695620Y-103196235D01*
X159778505Y-103358903D01*
X159779622Y-103361096D01*
X159888379Y-103510787D01*
X160019213Y-103641621D01*
X160168904Y-103750378D01*
X160249763Y-103791577D01*
X160333764Y-103834379D01*
X160333767Y-103834380D01*
X160421750Y-103862967D01*
X160509736Y-103891555D01*
X160692486Y-103920500D01*
X160692487Y-103920500D01*
X160877513Y-103920500D01*
X160877514Y-103920500D01*
X161060264Y-103891555D01*
X161236235Y-103834379D01*
X161401096Y-103750378D01*
X161550787Y-103641621D01*
X161681621Y-103510787D01*
X161790378Y-103361096D01*
X161874379Y-103196235D01*
X161931555Y-103020264D01*
X161932527Y-103014126D01*
X161962455Y-102950994D01*
X162021766Y-102914062D01*
X162091629Y-102915058D01*
X162149862Y-102953667D01*
X162177472Y-103014126D01*
X162178445Y-103020264D01*
X162178446Y-103020269D01*
X162235619Y-103196232D01*
X162235620Y-103196235D01*
X162318505Y-103358903D01*
X162319622Y-103361096D01*
X162428379Y-103510787D01*
X162559213Y-103641621D01*
X162708904Y-103750378D01*
X162789763Y-103791577D01*
X162873764Y-103834379D01*
X162873767Y-103834380D01*
X162961750Y-103862967D01*
X163049736Y-103891555D01*
X163232486Y-103920500D01*
X163232487Y-103920500D01*
X163417513Y-103920500D01*
X163417514Y-103920500D01*
X163600264Y-103891555D01*
X163776235Y-103834379D01*
X163941096Y-103750378D01*
X164090787Y-103641621D01*
X164221621Y-103510787D01*
X164330378Y-103361096D01*
X164414379Y-103196235D01*
X164471555Y-103020264D01*
X164472527Y-103014126D01*
X164502455Y-102950994D01*
X164561766Y-102914062D01*
X164631629Y-102915058D01*
X164689862Y-102953667D01*
X164717472Y-103014126D01*
X164718445Y-103020264D01*
X164718446Y-103020269D01*
X164775619Y-103196232D01*
X164775620Y-103196235D01*
X164858505Y-103358903D01*
X164859622Y-103361096D01*
X164968379Y-103510787D01*
X165099213Y-103641621D01*
X165248904Y-103750378D01*
X165329763Y-103791577D01*
X165413764Y-103834379D01*
X165413767Y-103834380D01*
X165501750Y-103862967D01*
X165589736Y-103891555D01*
X165772486Y-103920500D01*
X165772487Y-103920500D01*
X165957513Y-103920500D01*
X165957514Y-103920500D01*
X166140264Y-103891555D01*
X166316235Y-103834379D01*
X166481096Y-103750378D01*
X166630787Y-103641621D01*
X166761621Y-103510787D01*
X166870378Y-103361096D01*
X166954379Y-103196235D01*
X167011555Y-103020264D01*
X167040500Y-102837514D01*
X167040500Y-102652486D01*
X167011555Y-102469736D01*
X166966678Y-102331618D01*
X166954380Y-102293767D01*
X166954379Y-102293764D01*
X166870377Y-102128903D01*
X166761621Y-101979213D01*
X166630787Y-101848379D01*
X166481096Y-101739622D01*
X166423478Y-101710264D01*
X166398304Y-101697437D01*
X166347508Y-101649462D01*
X166330713Y-101581641D01*
X166353251Y-101515506D01*
X166398304Y-101476467D01*
X166585656Y-101381006D01*
X166644615Y-101338168D01*
X166644616Y-101338168D01*
X165911447Y-100605000D01*
X165917661Y-100605000D01*
X166019394Y-100577741D01*
X166110606Y-100525080D01*
X166185080Y-100450606D01*
X166237741Y-100359394D01*
X166265000Y-100257661D01*
X166265000Y-100251448D01*
X166998168Y-100984616D01*
X166998168Y-100984615D01*
X167041006Y-100925656D01*
X167139263Y-100732817D01*
X167139264Y-100732814D01*
X167206142Y-100526981D01*
X167240000Y-100313220D01*
X167240000Y-100096779D01*
X167206142Y-99883018D01*
X167139264Y-99677185D01*
X167139263Y-99677182D01*
X167041005Y-99484342D01*
X166998168Y-99425383D01*
X166998168Y-99425382D01*
X166265000Y-100158551D01*
X166265000Y-100152339D01*
X166237741Y-100050606D01*
X166185080Y-99959394D01*
X166110606Y-99884920D01*
X166019394Y-99832259D01*
X165917661Y-99805000D01*
X165911446Y-99805000D01*
X166644616Y-99071830D01*
X166644615Y-99071829D01*
X166585660Y-99028996D01*
X166392817Y-98930736D01*
X166392814Y-98930735D01*
X166186981Y-98863857D01*
X165973220Y-98830000D01*
X165756780Y-98830000D01*
X165543018Y-98863857D01*
X165337185Y-98930735D01*
X165337182Y-98930736D01*
X165144346Y-99028992D01*
X165085383Y-99071830D01*
X165818554Y-99805000D01*
X165812339Y-99805000D01*
X165710606Y-99832259D01*
X165619394Y-99884920D01*
X165544920Y-99959394D01*
X165492259Y-100050606D01*
X165465000Y-100152339D01*
X165465000Y-100158553D01*
X164731830Y-99425383D01*
X164688990Y-99484349D01*
X164593531Y-99671696D01*
X164545557Y-99722491D01*
X164477736Y-99739286D01*
X164411601Y-99716748D01*
X164372562Y-99671695D01*
X164330377Y-99588903D01*
X164221621Y-99439213D01*
X164090787Y-99308379D01*
X163968326Y-99219406D01*
X163968325Y-99219404D01*
X163941100Y-99199624D01*
X163776235Y-99115620D01*
X163776232Y-99115619D01*
X163600265Y-99058445D01*
X163508889Y-99043972D01*
X163417514Y-99029500D01*
X163232486Y-99029500D01*
X163171569Y-99039148D01*
X163049734Y-99058445D01*
X162873767Y-99115619D01*
X162873764Y-99115620D01*
X162708903Y-99199622D01*
X162681676Y-99219404D01*
X162559213Y-99308379D01*
X162559211Y-99308381D01*
X162559210Y-99308381D01*
X162428381Y-99439210D01*
X162428381Y-99439211D01*
X162428379Y-99439213D01*
X162395591Y-99484342D01*
X162319622Y-99588903D01*
X162235620Y-99753764D01*
X162235619Y-99753767D01*
X162178445Y-99929734D01*
X162177473Y-99935872D01*
X162147544Y-99999007D01*
X162088232Y-100035938D01*
X162018370Y-100034940D01*
X161960137Y-99996330D01*
X161932527Y-99935872D01*
X161932356Y-99934798D01*
X161931555Y-99929736D01*
X161886678Y-99791618D01*
X161874380Y-99753767D01*
X161874379Y-99753764D01*
X161790377Y-99588903D01*
X161681621Y-99439213D01*
X161550787Y-99308379D01*
X161401096Y-99199622D01*
X161343478Y-99170264D01*
X161236235Y-99115620D01*
X161236232Y-99115619D01*
X161060265Y-99058445D01*
X160968889Y-99043972D01*
X160877514Y-99029500D01*
X160692486Y-99029500D01*
X160631569Y-99039148D01*
X160509734Y-99058445D01*
X160333767Y-99115619D01*
X160333764Y-99115620D01*
X160168903Y-99199622D01*
X160141676Y-99219404D01*
X160019213Y-99308379D01*
X160019211Y-99308381D01*
X160019210Y-99308381D01*
X159888381Y-99439210D01*
X159888381Y-99439211D01*
X159888379Y-99439213D01*
X159855591Y-99484342D01*
X159779622Y-99588903D01*
X159695620Y-99753764D01*
X159695619Y-99753767D01*
X159638445Y-99929734D01*
X159609500Y-100112486D01*
X159609500Y-100180114D01*
X159589815Y-100247153D01*
X159537011Y-100292908D01*
X159467853Y-100302852D01*
X159404297Y-100273827D01*
X159386333Y-100252072D01*
X159385470Y-100252735D01*
X159380518Y-100246282D01*
X159268717Y-100134481D01*
X159268709Y-100134475D01*
X159131790Y-100055426D01*
X159131786Y-100055424D01*
X159131784Y-100055423D01*
X158979057Y-100014500D01*
X158820943Y-100014500D01*
X158668216Y-100055423D01*
X158668209Y-100055426D01*
X158531290Y-100134475D01*
X158531282Y-100134481D01*
X158419481Y-100246282D01*
X158419475Y-100246290D01*
X158340426Y-100383209D01*
X158340423Y-100383216D01*
X158299500Y-100535943D01*
X148512434Y-100535943D01*
X148366096Y-100429622D01*
X148329537Y-100410994D01*
X148201235Y-100345620D01*
X148201232Y-100345619D01*
X148025269Y-100288446D01*
X148025265Y-100288445D01*
X148025264Y-100288445D01*
X148019126Y-100287472D01*
X147955994Y-100257545D01*
X147919062Y-100198234D01*
X147920058Y-100128371D01*
X147958667Y-100070138D01*
X148019126Y-100042527D01*
X148025264Y-100041555D01*
X148201235Y-99984379D01*
X148366096Y-99900378D01*
X148515787Y-99791621D01*
X148646621Y-99660787D01*
X148755378Y-99511096D01*
X148839379Y-99346235D01*
X148896555Y-99170264D01*
X148925500Y-98987514D01*
X148925500Y-98802486D01*
X148896555Y-98619736D01*
X148839379Y-98443765D01*
X148822655Y-98410943D01*
X152624500Y-98410943D01*
X152624500Y-98569057D01*
X152638080Y-98619736D01*
X152665423Y-98721783D01*
X152665426Y-98721790D01*
X152744475Y-98858709D01*
X152744479Y-98858714D01*
X152744480Y-98858716D01*
X152856284Y-98970520D01*
X152856286Y-98970521D01*
X152856290Y-98970524D01*
X152993209Y-99049573D01*
X152993216Y-99049577D01*
X153145943Y-99090500D01*
X153145945Y-99090500D01*
X153304055Y-99090500D01*
X153304057Y-99090500D01*
X153456784Y-99049577D01*
X153593716Y-98970520D01*
X153705520Y-98858716D01*
X153784577Y-98721784D01*
X153825500Y-98569057D01*
X153825500Y-98410943D01*
X153820141Y-98390943D01*
X158299500Y-98390943D01*
X158299500Y-98549057D01*
X158318439Y-98619736D01*
X158340423Y-98701783D01*
X158340426Y-98701790D01*
X158419475Y-98838709D01*
X158419479Y-98838714D01*
X158419480Y-98838716D01*
X158531284Y-98950520D01*
X158531286Y-98950521D01*
X158531290Y-98950524D01*
X158565925Y-98970520D01*
X158668216Y-99029577D01*
X158820943Y-99070500D01*
X158820945Y-99070500D01*
X158979055Y-99070500D01*
X158979057Y-99070500D01*
X159131784Y-99029577D01*
X159268716Y-98950520D01*
X159380520Y-98838716D01*
X159459577Y-98701784D01*
X159500500Y-98549057D01*
X159500500Y-98390943D01*
X159459577Y-98238216D01*
X159396643Y-98129210D01*
X159380524Y-98101290D01*
X159380518Y-98101282D01*
X159268717Y-97989481D01*
X159268709Y-97989475D01*
X159131790Y-97910426D01*
X159131786Y-97910424D01*
X159131784Y-97910423D01*
X158979057Y-97869500D01*
X158820943Y-97869500D01*
X158668216Y-97910423D01*
X158668209Y-97910426D01*
X158531290Y-97989475D01*
X158531282Y-97989481D01*
X158419481Y-98101282D01*
X158419475Y-98101290D01*
X158340426Y-98238209D01*
X158340423Y-98238216D01*
X158299500Y-98390943D01*
X153820141Y-98390943D01*
X153784577Y-98258216D01*
X153710097Y-98129211D01*
X153705524Y-98121290D01*
X153705518Y-98121282D01*
X153593717Y-98009481D01*
X153593709Y-98009475D01*
X153456790Y-97930426D01*
X153456786Y-97930424D01*
X153456784Y-97930423D01*
X153304057Y-97889500D01*
X153145943Y-97889500D01*
X152993216Y-97930423D01*
X152993209Y-97930426D01*
X152856290Y-98009475D01*
X152856282Y-98009481D01*
X152744481Y-98121282D01*
X152744475Y-98121290D01*
X152665426Y-98258209D01*
X152665423Y-98258216D01*
X152624500Y-98410943D01*
X148822655Y-98410943D01*
X148755378Y-98278904D01*
X148646621Y-98129213D01*
X148515787Y-97998379D01*
X148366096Y-97889622D01*
X148365857Y-97889500D01*
X148201235Y-97805620D01*
X148201232Y-97805619D01*
X148025269Y-97748446D01*
X148025265Y-97748445D01*
X148025264Y-97748445D01*
X148019126Y-97747472D01*
X147955994Y-97717545D01*
X147919062Y-97658234D01*
X147920058Y-97588371D01*
X147958667Y-97530138D01*
X148019126Y-97502527D01*
X148025264Y-97501555D01*
X148201235Y-97444379D01*
X148366096Y-97360378D01*
X148515787Y-97251621D01*
X148646621Y-97120787D01*
X148755378Y-96971096D01*
X148839379Y-96806235D01*
X148896555Y-96630264D01*
X148898031Y-96620943D01*
X158699500Y-96620943D01*
X158699500Y-96779057D01*
X158706783Y-96806235D01*
X158740423Y-96931783D01*
X158740426Y-96931790D01*
X158819475Y-97068709D01*
X158819479Y-97068714D01*
X158819480Y-97068716D01*
X158931284Y-97180520D01*
X158931286Y-97180521D01*
X158931290Y-97180524D01*
X159039434Y-97242960D01*
X159068216Y-97259577D01*
X159220943Y-97300500D01*
X159220945Y-97300500D01*
X159379055Y-97300500D01*
X159379057Y-97300500D01*
X159531784Y-97259577D01*
X159668716Y-97180520D01*
X159780520Y-97068716D01*
X159859577Y-96931784D01*
X159900500Y-96779057D01*
X159900500Y-96620943D01*
X159859577Y-96468216D01*
X159847624Y-96447513D01*
X159780524Y-96331290D01*
X159780518Y-96331282D01*
X159668717Y-96219481D01*
X159668709Y-96219475D01*
X159531790Y-96140426D01*
X159531786Y-96140424D01*
X159531784Y-96140423D01*
X159379057Y-96099500D01*
X159220943Y-96099500D01*
X159068216Y-96140423D01*
X159068209Y-96140426D01*
X158931290Y-96219475D01*
X158931282Y-96219481D01*
X158819481Y-96331282D01*
X158819475Y-96331290D01*
X158740426Y-96468209D01*
X158740423Y-96468216D01*
X158699500Y-96620943D01*
X148898031Y-96620943D01*
X148925500Y-96447514D01*
X148925500Y-96262486D01*
X148896555Y-96079736D01*
X148854564Y-95950499D01*
X148839380Y-95903767D01*
X148839379Y-95903764D01*
X148755377Y-95738903D01*
X148646621Y-95589213D01*
X148515787Y-95458379D01*
X148379798Y-95359577D01*
X148366097Y-95349622D01*
X148211682Y-95270943D01*
X149499500Y-95270943D01*
X149499500Y-95429057D01*
X149522233Y-95513896D01*
X149540423Y-95581783D01*
X149540426Y-95581790D01*
X149619475Y-95718709D01*
X149619479Y-95718714D01*
X149619480Y-95718716D01*
X149731284Y-95830520D01*
X149731286Y-95830521D01*
X149731290Y-95830524D01*
X149858147Y-95903764D01*
X149868216Y-95909577D01*
X150020943Y-95950500D01*
X150020945Y-95950500D01*
X150179055Y-95950500D01*
X150179057Y-95950500D01*
X150331784Y-95909577D01*
X150468716Y-95830520D01*
X150580520Y-95718716D01*
X150659577Y-95581784D01*
X150700500Y-95429057D01*
X150700500Y-95270943D01*
X150659577Y-95118216D01*
X150621214Y-95051768D01*
X150580524Y-94981290D01*
X150580518Y-94981282D01*
X150468717Y-94869481D01*
X150468716Y-94869480D01*
X150331784Y-94790423D01*
X150179057Y-94749500D01*
X150020943Y-94749500D01*
X149868216Y-94790423D01*
X149868209Y-94790426D01*
X149731290Y-94869475D01*
X149731282Y-94869481D01*
X149619481Y-94981282D01*
X149619475Y-94981290D01*
X149540426Y-95118209D01*
X149540423Y-95118216D01*
X149499500Y-95270943D01*
X148211682Y-95270943D01*
X148201235Y-95265620D01*
X148201232Y-95265619D01*
X148025269Y-95208446D01*
X148025265Y-95208445D01*
X148025264Y-95208445D01*
X148019126Y-95207472D01*
X147955994Y-95177545D01*
X147919062Y-95118234D01*
X147920058Y-95048371D01*
X147958667Y-94990138D01*
X148019126Y-94962527D01*
X148025264Y-94961555D01*
X148201235Y-94904379D01*
X148366096Y-94820378D01*
X148502956Y-94720943D01*
X162999500Y-94720943D01*
X162999500Y-94879057D01*
X163021866Y-94962526D01*
X163040423Y-95031783D01*
X163040426Y-95031790D01*
X163119475Y-95168709D01*
X163119479Y-95168714D01*
X163119480Y-95168716D01*
X163231284Y-95280520D01*
X163231286Y-95280521D01*
X163231290Y-95280524D01*
X163350973Y-95349622D01*
X163368216Y-95359577D01*
X163520943Y-95400500D01*
X163520945Y-95400500D01*
X163679055Y-95400500D01*
X163679057Y-95400500D01*
X163831784Y-95359577D01*
X163968716Y-95280520D01*
X164080520Y-95168716D01*
X164159577Y-95031784D01*
X164200500Y-94879057D01*
X164200500Y-94720943D01*
X164159577Y-94568216D01*
X164159573Y-94568209D01*
X164080524Y-94431290D01*
X164080518Y-94431282D01*
X163968717Y-94319481D01*
X163968709Y-94319475D01*
X163831790Y-94240426D01*
X163831786Y-94240424D01*
X163831784Y-94240423D01*
X163679057Y-94199500D01*
X163520943Y-94199500D01*
X163368216Y-94240423D01*
X163368209Y-94240426D01*
X163231290Y-94319475D01*
X163231282Y-94319481D01*
X163119481Y-94431282D01*
X163119475Y-94431290D01*
X163040426Y-94568209D01*
X163040423Y-94568216D01*
X162999500Y-94720943D01*
X148502956Y-94720943D01*
X148515787Y-94711621D01*
X148646621Y-94580787D01*
X148755378Y-94431096D01*
X148839379Y-94266235D01*
X148896555Y-94090264D01*
X148925500Y-93907514D01*
X148925500Y-93722486D01*
X148896555Y-93539736D01*
X148867967Y-93451750D01*
X148839380Y-93363767D01*
X148839379Y-93363764D01*
X148755377Y-93198903D01*
X148698736Y-93120943D01*
X164699500Y-93120943D01*
X164699500Y-93279057D01*
X164722198Y-93363765D01*
X164740423Y-93431783D01*
X164740426Y-93431790D01*
X164819475Y-93568709D01*
X164819479Y-93568714D01*
X164819480Y-93568716D01*
X164931284Y-93680520D01*
X164931286Y-93680521D01*
X164931290Y-93680524D01*
X165068209Y-93759573D01*
X165068216Y-93759577D01*
X165220943Y-93800500D01*
X165220945Y-93800500D01*
X165379055Y-93800500D01*
X165379057Y-93800500D01*
X165531784Y-93759577D01*
X165668716Y-93680520D01*
X165780520Y-93568716D01*
X165859577Y-93431784D01*
X165900500Y-93279057D01*
X165900500Y-93120943D01*
X165859577Y-92968216D01*
X165854587Y-92959573D01*
X165780524Y-92831290D01*
X165780518Y-92831282D01*
X165668717Y-92719481D01*
X165668709Y-92719475D01*
X165531790Y-92640426D01*
X165531786Y-92640424D01*
X165531784Y-92640423D01*
X165379057Y-92599500D01*
X165220943Y-92599500D01*
X165068216Y-92640423D01*
X165068209Y-92640426D01*
X164931290Y-92719475D01*
X164931282Y-92719481D01*
X164819481Y-92831282D01*
X164819475Y-92831290D01*
X164740426Y-92968209D01*
X164740423Y-92968216D01*
X164699500Y-93120943D01*
X148698736Y-93120943D01*
X148646621Y-93049213D01*
X148515787Y-92918379D01*
X148366096Y-92809622D01*
X148285800Y-92768709D01*
X148283304Y-92767437D01*
X148232508Y-92719462D01*
X148215713Y-92651641D01*
X148238251Y-92585506D01*
X148283304Y-92546467D01*
X148470656Y-92451006D01*
X148529615Y-92408168D01*
X148529616Y-92408168D01*
X147796447Y-91675000D01*
X147802661Y-91675000D01*
X147904394Y-91647741D01*
X147995606Y-91595080D01*
X148070080Y-91520606D01*
X148122741Y-91429394D01*
X148150000Y-91327661D01*
X148150000Y-91321448D01*
X148883168Y-92054616D01*
X148883168Y-92054615D01*
X148926006Y-91995656D01*
X149024263Y-91802817D01*
X149024264Y-91802814D01*
X149091142Y-91596981D01*
X149125000Y-91383220D01*
X149125000Y-91166779D01*
X149091142Y-90953018D01*
X149024264Y-90747185D01*
X149024263Y-90747182D01*
X148926005Y-90554342D01*
X148883168Y-90495383D01*
X148883168Y-90495382D01*
X148150000Y-91228551D01*
X148150000Y-91222339D01*
X148122741Y-91120606D01*
X148070080Y-91029394D01*
X147995606Y-90954920D01*
X147904394Y-90902259D01*
X147802661Y-90875000D01*
X147796446Y-90875000D01*
X148529616Y-90141830D01*
X148529615Y-90141829D01*
X148470660Y-90098996D01*
X148283304Y-90003532D01*
X148232508Y-89955557D01*
X148215713Y-89887736D01*
X148238251Y-89821601D01*
X148283305Y-89782562D01*
X148311475Y-89768209D01*
X148366096Y-89740378D01*
X148515787Y-89631621D01*
X148646621Y-89500787D01*
X148755378Y-89351096D01*
X148839379Y-89186235D01*
X148896555Y-89010264D01*
X148925500Y-88827514D01*
X148925500Y-88642486D01*
X148896555Y-88459736D01*
X148884260Y-88421898D01*
X148861269Y-88351134D01*
X148851459Y-88320943D01*
X151199500Y-88320943D01*
X151199500Y-88479056D01*
X151240423Y-88631783D01*
X151240423Y-88631784D01*
X151301746Y-88738001D01*
X151318217Y-88805902D01*
X151301746Y-88861999D01*
X151240423Y-88968215D01*
X151240423Y-88968216D01*
X151199500Y-89120943D01*
X151199500Y-89279057D01*
X151220971Y-89359186D01*
X151240423Y-89431783D01*
X151240423Y-89431784D01*
X151301746Y-89538001D01*
X151318217Y-89605902D01*
X151301746Y-89661999D01*
X151240423Y-89768215D01*
X151240423Y-89768216D01*
X151199500Y-89920943D01*
X151199500Y-90079057D01*
X151228054Y-90185620D01*
X151240423Y-90231783D01*
X151240423Y-90231784D01*
X151301746Y-90338001D01*
X151318217Y-90405902D01*
X151301746Y-90461999D01*
X151240423Y-90568215D01*
X151240423Y-90568216D01*
X151199500Y-90720943D01*
X151199500Y-90879057D01*
X151234732Y-91010542D01*
X151240423Y-91031783D01*
X151240423Y-91031784D01*
X151301746Y-91138001D01*
X151318217Y-91205902D01*
X151301746Y-91261999D01*
X151240423Y-91368215D01*
X151240423Y-91368216D01*
X151199500Y-91520943D01*
X151199500Y-91679057D01*
X151232662Y-91802817D01*
X151240423Y-91831783D01*
X151240423Y-91831784D01*
X151301746Y-91938001D01*
X151318217Y-92005902D01*
X151301746Y-92061999D01*
X151240423Y-92168215D01*
X151240423Y-92168216D01*
X151199500Y-92320943D01*
X151199500Y-92479057D01*
X151230418Y-92594442D01*
X151240423Y-92631783D01*
X151240426Y-92631790D01*
X151319475Y-92768709D01*
X151319479Y-92768714D01*
X151319480Y-92768716D01*
X151431284Y-92880520D01*
X151431286Y-92880521D01*
X151431290Y-92880524D01*
X151535019Y-92940411D01*
X151568216Y-92959577D01*
X151720943Y-93000500D01*
X151720945Y-93000500D01*
X151879055Y-93000500D01*
X151879057Y-93000500D01*
X152031784Y-92959577D01*
X152168716Y-92880520D01*
X152280520Y-92768716D01*
X152359577Y-92631784D01*
X152400500Y-92479057D01*
X152400500Y-92320943D01*
X152359577Y-92168216D01*
X152359573Y-92168209D01*
X152298254Y-92061999D01*
X152281781Y-91994099D01*
X152298254Y-91938001D01*
X152335853Y-91872873D01*
X152359577Y-91831784D01*
X152400500Y-91679057D01*
X152400500Y-91520943D01*
X152359577Y-91368216D01*
X152336163Y-91327661D01*
X152298254Y-91261999D01*
X152281781Y-91194099D01*
X152298254Y-91138001D01*
X152346237Y-91054889D01*
X152359577Y-91031784D01*
X152400500Y-90879057D01*
X152400500Y-90720943D01*
X152359577Y-90568216D01*
X152325511Y-90509211D01*
X152298254Y-90461999D01*
X152281781Y-90394099D01*
X152298254Y-90338001D01*
X152337731Y-90269622D01*
X152359577Y-90231784D01*
X152400500Y-90079057D01*
X152400500Y-89920943D01*
X152359577Y-89768216D01*
X152359573Y-89768209D01*
X152298254Y-89661999D01*
X152281781Y-89594099D01*
X152298254Y-89538001D01*
X152335853Y-89472873D01*
X152359577Y-89431784D01*
X152400500Y-89279057D01*
X152400500Y-89120943D01*
X152359577Y-88968216D01*
X152359573Y-88968209D01*
X152298254Y-88861999D01*
X152281781Y-88794099D01*
X152298254Y-88738001D01*
X152353398Y-88642486D01*
X152359577Y-88631784D01*
X152400500Y-88479057D01*
X152400500Y-88320943D01*
X152359577Y-88168216D01*
X152331107Y-88118904D01*
X152280524Y-88031290D01*
X152280518Y-88031282D01*
X152168717Y-87919481D01*
X152168709Y-87919475D01*
X152031790Y-87840426D01*
X152031786Y-87840424D01*
X152031784Y-87840423D01*
X151879057Y-87799500D01*
X151720943Y-87799500D01*
X151568216Y-87840423D01*
X151568209Y-87840426D01*
X151431290Y-87919475D01*
X151431282Y-87919481D01*
X151319481Y-88031282D01*
X151319475Y-88031290D01*
X151240426Y-88168209D01*
X151240423Y-88168216D01*
X151199500Y-88320943D01*
X148851459Y-88320943D01*
X148839380Y-88283767D01*
X148839379Y-88283764D01*
X148755377Y-88118903D01*
X148646621Y-87969213D01*
X148515787Y-87838379D01*
X148366096Y-87729622D01*
X148201235Y-87645620D01*
X148201232Y-87645619D01*
X148025269Y-87588446D01*
X148025265Y-87588445D01*
X148025264Y-87588445D01*
X148019126Y-87587472D01*
X147955994Y-87557545D01*
X147919062Y-87498234D01*
X147920058Y-87428371D01*
X147958667Y-87370138D01*
X148019126Y-87342527D01*
X148025264Y-87341555D01*
X148201235Y-87284379D01*
X148366096Y-87200378D01*
X148515787Y-87091621D01*
X148646621Y-86960787D01*
X148755378Y-86811096D01*
X148791123Y-86740943D01*
X149499500Y-86740943D01*
X149499500Y-86899057D01*
X149535801Y-87034532D01*
X149540423Y-87051783D01*
X149540426Y-87051790D01*
X149619475Y-87188709D01*
X149619479Y-87188714D01*
X149619480Y-87188716D01*
X149731284Y-87300520D01*
X149731286Y-87300521D01*
X149731290Y-87300524D01*
X149848526Y-87368209D01*
X149868216Y-87379577D01*
X150020943Y-87420500D01*
X150020945Y-87420500D01*
X150179055Y-87420500D01*
X150179057Y-87420500D01*
X150331784Y-87379577D01*
X150468716Y-87300520D01*
X150580520Y-87188716D01*
X150659577Y-87051784D01*
X150700500Y-86899057D01*
X150700500Y-86740943D01*
X150695141Y-86720943D01*
X162999500Y-86720943D01*
X162999500Y-86879057D01*
X163021400Y-86960787D01*
X163040423Y-87031783D01*
X163040423Y-87031784D01*
X163101746Y-87138001D01*
X163118217Y-87205902D01*
X163101746Y-87261999D01*
X163040423Y-87368215D01*
X163040423Y-87368216D01*
X162999500Y-87520943D01*
X162999500Y-87679056D01*
X163040423Y-87831783D01*
X163040423Y-87831784D01*
X163101746Y-87938001D01*
X163118217Y-88005902D01*
X163101746Y-88061999D01*
X163040423Y-88168215D01*
X163040423Y-88168216D01*
X162999500Y-88320943D01*
X162999500Y-88479056D01*
X163040423Y-88631783D01*
X163040423Y-88631784D01*
X163101746Y-88738001D01*
X163118217Y-88805902D01*
X163101746Y-88861999D01*
X163040423Y-88968215D01*
X163040423Y-88968216D01*
X162999500Y-89120943D01*
X162999500Y-89279057D01*
X163020971Y-89359186D01*
X163040423Y-89431783D01*
X163040423Y-89431784D01*
X163101746Y-89538001D01*
X163118217Y-89605902D01*
X163101746Y-89661999D01*
X163040423Y-89768215D01*
X163040423Y-89768216D01*
X162999500Y-89920943D01*
X162999500Y-90079057D01*
X163028054Y-90185620D01*
X163040423Y-90231783D01*
X163040426Y-90231790D01*
X163119475Y-90368709D01*
X163119479Y-90368714D01*
X163119480Y-90368716D01*
X163231284Y-90480520D01*
X163231286Y-90480521D01*
X163231290Y-90480524D01*
X163280982Y-90509213D01*
X163368216Y-90559577D01*
X163520943Y-90600500D01*
X163520945Y-90600500D01*
X163679055Y-90600500D01*
X163679057Y-90600500D01*
X163831784Y-90559577D01*
X163968716Y-90480520D01*
X164080520Y-90368716D01*
X164159577Y-90231784D01*
X164200500Y-90079057D01*
X164200500Y-89920943D01*
X164159577Y-89768216D01*
X164159573Y-89768209D01*
X164098254Y-89661999D01*
X164081781Y-89594099D01*
X164098254Y-89538001D01*
X164135853Y-89472873D01*
X164159577Y-89431784D01*
X164200500Y-89279057D01*
X164200500Y-89120943D01*
X164159577Y-88968216D01*
X164159573Y-88968209D01*
X164098254Y-88861999D01*
X164081781Y-88794099D01*
X164098254Y-88738001D01*
X164153398Y-88642486D01*
X164159577Y-88631784D01*
X164200500Y-88479057D01*
X164200500Y-88320943D01*
X164159577Y-88168216D01*
X164131107Y-88118904D01*
X164098254Y-88061999D01*
X164081781Y-87994099D01*
X164098254Y-87938001D01*
X164150769Y-87847040D01*
X164159577Y-87831784D01*
X164200500Y-87679057D01*
X164200500Y-87520943D01*
X164159577Y-87368216D01*
X164144745Y-87342526D01*
X164098254Y-87261999D01*
X164081781Y-87194099D01*
X164098254Y-87138001D01*
X164141233Y-87063557D01*
X164159577Y-87031784D01*
X164200500Y-86879057D01*
X164200500Y-86720943D01*
X164159577Y-86568216D01*
X164159573Y-86568209D01*
X164080524Y-86431290D01*
X164080518Y-86431282D01*
X163968717Y-86319481D01*
X163968709Y-86319475D01*
X163831790Y-86240426D01*
X163831786Y-86240424D01*
X163831784Y-86240423D01*
X163679057Y-86199500D01*
X163520943Y-86199500D01*
X163368216Y-86240423D01*
X163368209Y-86240426D01*
X163231290Y-86319475D01*
X163231282Y-86319481D01*
X163119481Y-86431282D01*
X163119475Y-86431290D01*
X163040426Y-86568209D01*
X163040423Y-86568216D01*
X162999500Y-86720943D01*
X150695141Y-86720943D01*
X150659577Y-86588216D01*
X150591478Y-86470264D01*
X150580524Y-86451290D01*
X150580518Y-86451282D01*
X150468717Y-86339481D01*
X150468709Y-86339475D01*
X150331790Y-86260426D01*
X150331786Y-86260424D01*
X150331784Y-86260423D01*
X150179057Y-86219500D01*
X150020943Y-86219500D01*
X149868216Y-86260423D01*
X149868209Y-86260426D01*
X149731290Y-86339475D01*
X149731282Y-86339481D01*
X149619481Y-86451282D01*
X149619475Y-86451290D01*
X149540426Y-86588209D01*
X149540423Y-86588216D01*
X149499500Y-86740943D01*
X148791123Y-86740943D01*
X148801313Y-86720943D01*
X148823948Y-86676521D01*
X148823949Y-86676519D01*
X148839376Y-86646241D01*
X148839380Y-86646232D01*
X148858230Y-86588216D01*
X148896555Y-86470264D01*
X148925500Y-86287514D01*
X148925500Y-86102486D01*
X148896555Y-85919736D01*
X148839379Y-85743765D01*
X148839379Y-85743764D01*
X148755377Y-85578903D01*
X148646621Y-85429213D01*
X148515787Y-85298379D01*
X148366096Y-85189622D01*
X148201235Y-85105620D01*
X148201232Y-85105619D01*
X148025269Y-85048446D01*
X148025265Y-85048445D01*
X148025264Y-85048445D01*
X148019126Y-85047472D01*
X147955994Y-85017545D01*
X147919062Y-84958234D01*
X147920058Y-84888371D01*
X147958667Y-84830138D01*
X147978801Y-84820943D01*
X153899500Y-84820943D01*
X153899500Y-84979057D01*
X153933413Y-85105620D01*
X153940423Y-85131783D01*
X153940426Y-85131790D01*
X154019475Y-85268709D01*
X154019479Y-85268714D01*
X154019480Y-85268716D01*
X154131284Y-85380520D01*
X154131286Y-85380521D01*
X154131290Y-85380524D01*
X154268209Y-85459573D01*
X154268216Y-85459577D01*
X154420943Y-85500500D01*
X154420945Y-85500500D01*
X154579055Y-85500500D01*
X154579057Y-85500500D01*
X154731784Y-85459577D01*
X154868716Y-85380520D01*
X154980520Y-85268716D01*
X155059577Y-85131784D01*
X155100500Y-84979057D01*
X155100500Y-84820943D01*
X155059577Y-84668216D01*
X155030164Y-84617270D01*
X155017851Y-84595943D01*
X165849500Y-84595943D01*
X165849500Y-84754057D01*
X165886400Y-84891768D01*
X165890423Y-84906783D01*
X165890426Y-84906790D01*
X165969475Y-85043709D01*
X165969479Y-85043714D01*
X165969480Y-85043716D01*
X166081284Y-85155520D01*
X166081286Y-85155521D01*
X166081290Y-85155524D01*
X166215017Y-85232730D01*
X166218216Y-85234577D01*
X166370943Y-85275500D01*
X166370945Y-85275500D01*
X166529055Y-85275500D01*
X166529057Y-85275500D01*
X166681784Y-85234577D01*
X166818716Y-85155520D01*
X166930520Y-85043716D01*
X167009577Y-84906784D01*
X167050500Y-84754057D01*
X167050500Y-84595943D01*
X167009577Y-84443216D01*
X166950230Y-84340423D01*
X166930524Y-84306290D01*
X166930518Y-84306282D01*
X166818717Y-84194481D01*
X166818709Y-84194475D01*
X166681790Y-84115426D01*
X166681786Y-84115424D01*
X166681784Y-84115423D01*
X166529057Y-84074500D01*
X166370943Y-84074500D01*
X166218216Y-84115423D01*
X166218209Y-84115426D01*
X166081290Y-84194475D01*
X166081282Y-84194481D01*
X165969481Y-84306282D01*
X165969475Y-84306290D01*
X165890426Y-84443209D01*
X165890423Y-84443216D01*
X165849500Y-84595943D01*
X155017851Y-84595943D01*
X154980524Y-84531290D01*
X154980518Y-84531282D01*
X154868717Y-84419481D01*
X154868709Y-84419475D01*
X154731790Y-84340426D01*
X154731786Y-84340424D01*
X154731784Y-84340423D01*
X154579057Y-84299500D01*
X154420943Y-84299500D01*
X154268216Y-84340423D01*
X154268209Y-84340426D01*
X154131290Y-84419475D01*
X154131282Y-84419481D01*
X154019481Y-84531282D01*
X154019475Y-84531290D01*
X153940426Y-84668209D01*
X153940423Y-84668216D01*
X153899500Y-84820943D01*
X147978801Y-84820943D01*
X148019126Y-84802527D01*
X148025264Y-84801555D01*
X148201235Y-84744379D01*
X148366096Y-84660378D01*
X148515787Y-84551621D01*
X148646621Y-84420787D01*
X148755378Y-84271096D01*
X148839379Y-84106235D01*
X148896555Y-83930264D01*
X148925500Y-83747514D01*
X148925500Y-83562486D01*
X148896555Y-83379736D01*
X148850846Y-83239056D01*
X148839380Y-83203767D01*
X148839379Y-83203764D01*
X148801341Y-83129111D01*
X148776798Y-83080943D01*
X160299500Y-83080943D01*
X160299500Y-83239056D01*
X160340423Y-83391783D01*
X160340426Y-83391790D01*
X160419475Y-83528709D01*
X160419479Y-83528714D01*
X160419480Y-83528716D01*
X160531284Y-83640520D01*
X160531286Y-83640521D01*
X160531290Y-83640524D01*
X160668209Y-83719573D01*
X160668216Y-83719577D01*
X160820943Y-83760500D01*
X160820945Y-83760500D01*
X160979055Y-83760500D01*
X160979057Y-83760500D01*
X161131784Y-83719577D01*
X161268716Y-83640520D01*
X161380520Y-83528716D01*
X161459577Y-83391784D01*
X161500500Y-83239057D01*
X161500500Y-83080943D01*
X161459577Y-82928216D01*
X161393575Y-82813896D01*
X161380524Y-82791290D01*
X161380518Y-82791282D01*
X161268717Y-82679481D01*
X161268709Y-82679475D01*
X161131790Y-82600426D01*
X161131786Y-82600424D01*
X161131784Y-82600423D01*
X160979057Y-82559500D01*
X160820943Y-82559500D01*
X160668216Y-82600423D01*
X160668209Y-82600426D01*
X160531290Y-82679475D01*
X160531282Y-82679481D01*
X160419481Y-82791282D01*
X160419475Y-82791290D01*
X160340426Y-82928209D01*
X160340423Y-82928216D01*
X160299500Y-83080943D01*
X148776798Y-83080943D01*
X148755377Y-83038903D01*
X148646621Y-82889213D01*
X148515787Y-82758379D01*
X148366096Y-82649622D01*
X148201235Y-82565620D01*
X148201232Y-82565619D01*
X148025269Y-82508446D01*
X148025265Y-82508445D01*
X148025264Y-82508445D01*
X148019126Y-82507472D01*
X147955994Y-82477545D01*
X147919062Y-82418234D01*
X147920058Y-82348371D01*
X147958667Y-82290138D01*
X148019126Y-82262527D01*
X148025264Y-82261555D01*
X148201235Y-82204379D01*
X148366096Y-82120378D01*
X148515787Y-82011621D01*
X148646621Y-81880787D01*
X148755378Y-81731096D01*
X148839379Y-81566235D01*
X148896555Y-81390264D01*
X148925500Y-81207514D01*
X148925500Y-81022486D01*
X148896555Y-80839736D01*
X148839379Y-80663765D01*
X148839379Y-80663764D01*
X148755377Y-80498903D01*
X148646621Y-80349213D01*
X148515787Y-80218379D01*
X148366096Y-80109622D01*
X148201235Y-80025620D01*
X148201232Y-80025619D01*
X148025265Y-79968445D01*
X147865527Y-79943145D01*
X147842514Y-79939500D01*
X147657486Y-79939500D01*
X147634473Y-79943145D01*
X147474734Y-79968445D01*
X147298762Y-80025621D01*
X147295281Y-80027063D01*
X147270339Y-80029740D01*
X147246184Y-80036484D01*
X147236199Y-80033406D01*
X147225811Y-80034522D01*
X147203385Y-80023292D01*
X147179414Y-80015904D01*
X147172677Y-80007915D01*
X147163336Y-80003238D01*
X147150542Y-79981668D01*
X147134370Y-79962492D01*
X147133021Y-79952130D01*
X147127692Y-79943145D01*
X147128590Y-79918082D01*
X147125353Y-79893207D01*
X147130025Y-79878047D01*
X147130195Y-79873320D01*
X147135742Y-79859493D01*
X147161124Y-79805828D01*
X147166840Y-79795136D01*
X147337145Y-79510998D01*
X147343888Y-79500905D01*
X147541232Y-79234818D01*
X147548935Y-79225433D01*
X147771405Y-78979975D01*
X147779975Y-78971405D01*
X148025433Y-78748935D01*
X148034818Y-78741232D01*
X148300905Y-78543888D01*
X148310998Y-78537145D01*
X148595136Y-78366840D01*
X148605828Y-78361124D01*
X148905318Y-78219476D01*
X148916525Y-78214835D01*
X149228412Y-78103239D01*
X149240043Y-78099710D01*
X149561385Y-78019218D01*
X149573296Y-78016849D01*
X149900962Y-77968244D01*
X149913068Y-77967052D01*
X150246967Y-77950648D01*
X150253051Y-77950500D01*
X150315892Y-77950500D01*
X167684108Y-77950500D01*
X167746949Y-77950500D01*
X167753032Y-77950648D01*
G37*
%TD.AperFunction*%
%TD*%
M02*
