%TF.GenerationSoftware,KiCad,Pcbnew,9.0.4*%
%TF.CreationDate,2025-12-31T00:41:08-08:00*%
%TF.ProjectId,ATmega32u4_Dev,41546d65-6761-4333-9275-345f4465762e,rev?*%
%TF.SameCoordinates,Original*%
%TF.FileFunction,Paste,Top*%
%TF.FilePolarity,Positive*%
%FSLAX46Y46*%
G04 Gerber Fmt 4.6, Leading zero omitted, Abs format (unit mm)*
G04 Created by KiCad (PCBNEW 9.0.4) date 2025-12-31 00:41:08*
%MOMM*%
%LPD*%
G01*
G04 APERTURE LIST*
G04 Aperture macros list*
%AMRoundRect*
0 Rectangle with rounded corners*
0 $1 Rounding radius*
0 $2 $3 $4 $5 $6 $7 $8 $9 X,Y pos of 4 corners*
0 Add a 4 corners polygon primitive as box body*
4,1,4,$2,$3,$4,$5,$6,$7,$8,$9,$2,$3,0*
0 Add four circle primitives for the rounded corners*
1,1,$1+$1,$2,$3*
1,1,$1+$1,$4,$5*
1,1,$1+$1,$6,$7*
1,1,$1+$1,$8,$9*
0 Add four rect primitives between the rounded corners*
20,1,$1+$1,$2,$3,$4,$5,0*
20,1,$1+$1,$4,$5,$6,$7,0*
20,1,$1+$1,$6,$7,$8,$9,0*
20,1,$1+$1,$8,$9,$2,$3,0*%
G04 Aperture macros list end*
%ADD10RoundRect,0.140000X-0.140000X-0.170000X0.140000X-0.170000X0.140000X0.170000X-0.140000X0.170000X0*%
%ADD11RoundRect,0.140000X-0.170000X0.140000X-0.170000X-0.140000X0.170000X-0.140000X0.170000X0.140000X0*%
%ADD12RoundRect,0.135000X-0.185000X0.135000X-0.185000X-0.135000X0.185000X-0.135000X0.185000X0.135000X0*%
%ADD13RoundRect,0.218750X-0.218750X-0.256250X0.218750X-0.256250X0.218750X0.256250X-0.218750X0.256250X0*%
%ADD14R,0.600000X1.150000*%
%ADD15R,0.300000X1.150000*%
%ADD16RoundRect,0.135000X0.185000X-0.135000X0.185000X0.135000X-0.185000X0.135000X-0.185000X-0.135000X0*%
%ADD17RoundRect,0.250000X-0.275000X-0.350000X0.275000X-0.350000X0.275000X0.350000X-0.275000X0.350000X0*%
%ADD18RoundRect,0.250000X0.325000X0.450000X-0.325000X0.450000X-0.325000X-0.450000X0.325000X-0.450000X0*%
%ADD19RoundRect,0.218750X0.256250X-0.218750X0.256250X0.218750X-0.256250X0.218750X-0.256250X-0.218750X0*%
%ADD20RoundRect,0.135000X-0.135000X-0.185000X0.135000X-0.185000X0.135000X0.185000X-0.135000X0.185000X0*%
%ADD21R,0.500000X1.500000*%
%ADD22R,1.500000X0.500000*%
%ADD23RoundRect,0.140000X0.170000X-0.140000X0.170000X0.140000X-0.170000X0.140000X-0.170000X-0.140000X0*%
%ADD24RoundRect,0.150000X0.150000X-0.512500X0.150000X0.512500X-0.150000X0.512500X-0.150000X-0.512500X0*%
%ADD25R,1.050000X1.300000*%
%ADD26RoundRect,0.075000X-0.275000X0.390000X-0.275000X-0.390000X0.275000X-0.390000X0.275000X0.390000X0*%
%ADD27RoundRect,0.075000X-0.275000X0.075000X-0.275000X-0.075000X0.275000X-0.075000X0.275000X0.075000X0*%
%ADD28RoundRect,0.300000X-0.700000X-0.700000X0.700000X-0.700000X0.700000X0.700000X-0.700000X0.700000X0*%
G04 APERTURE END LIST*
D10*
%TO.C,C1*%
X150690000Y-109400000D03*
X151650000Y-109400000D03*
%TD*%
%TO.C,C9*%
X166240000Y-87500000D03*
X167200000Y-87500000D03*
%TD*%
D11*
%TO.C,C5*%
X150100000Y-95350000D03*
X150100000Y-96310000D03*
%TD*%
D12*
%TO.C,R1*%
X155950000Y-106940000D03*
X155950000Y-107960000D03*
%TD*%
D13*
%TO.C,D1*%
X163425000Y-82750000D03*
X165000000Y-82750000D03*
%TD*%
D14*
%TO.C,J1*%
X155650000Y-110795000D03*
X156450000Y-110795000D03*
D15*
X157600000Y-110795000D03*
X158600000Y-110795000D03*
X159100000Y-110795000D03*
X160100000Y-110795000D03*
D14*
X162050000Y-110795000D03*
X161250000Y-110795000D03*
D15*
X160600000Y-110795000D03*
X159600000Y-110795000D03*
X158100000Y-110795000D03*
X157100000Y-110795000D03*
%TD*%
D16*
%TO.C,R2*%
X161200000Y-108060000D03*
X161200000Y-107040000D03*
%TD*%
D10*
%TO.C,C3*%
X160890000Y-83150000D03*
X161850000Y-83150000D03*
%TD*%
D17*
%TO.C,FB1*%
X150675000Y-105850000D03*
X152975000Y-105850000D03*
%TD*%
D18*
%TO.C,F1*%
X152750000Y-107850000D03*
X150700000Y-107850000D03*
%TD*%
D19*
%TO.C,D3*%
X162702500Y-108847500D03*
X162702500Y-107272500D03*
%TD*%
D20*
%TO.C,R6*%
X152680000Y-83150000D03*
X153700000Y-83150000D03*
%TD*%
D12*
%TO.C,R5*%
X166200000Y-94500000D03*
X166200000Y-95520000D03*
%TD*%
D21*
%TO.C,U1*%
X153700000Y-96700000D03*
X154500000Y-96700000D03*
X155300000Y-96700000D03*
X156100000Y-96700000D03*
X156900000Y-96700000D03*
X157700000Y-96700000D03*
X158500000Y-96700000D03*
X159300000Y-96700000D03*
X160100000Y-96700000D03*
X160900000Y-96700000D03*
X161700000Y-96700000D03*
D22*
X163600000Y-94800000D03*
X163600000Y-94000000D03*
X163600000Y-93200000D03*
X163600000Y-92400000D03*
X163600000Y-91600000D03*
X163600000Y-90800000D03*
X163600000Y-90000000D03*
X163600000Y-89200000D03*
X163600000Y-88400000D03*
X163600000Y-87600000D03*
X163600000Y-86800000D03*
D21*
X161700000Y-84900000D03*
X160900000Y-84900000D03*
X160100000Y-84900000D03*
X159300000Y-84900000D03*
X158500000Y-84900000D03*
X157700000Y-84900000D03*
X156900000Y-84900000D03*
X156100000Y-84900000D03*
X155300000Y-84900000D03*
X154500000Y-84900000D03*
X153700000Y-84900000D03*
D22*
X151800000Y-86800000D03*
X151800000Y-87600000D03*
X151800000Y-88400000D03*
X151800000Y-89200000D03*
X151800000Y-90000000D03*
X151800000Y-90800000D03*
X151800000Y-91600000D03*
X151800000Y-92400000D03*
X151800000Y-93200000D03*
X151800000Y-94000000D03*
X151800000Y-94800000D03*
%TD*%
D23*
%TO.C,C10*%
X150100000Y-94200000D03*
X150100000Y-93240000D03*
%TD*%
D11*
%TO.C,C4*%
X150100000Y-86820000D03*
X150100000Y-87780000D03*
%TD*%
D24*
%TO.C,U2*%
X157900000Y-108375000D03*
X158850000Y-108375000D03*
X159800000Y-108375000D03*
X159800000Y-106100000D03*
X158850000Y-106100000D03*
X157900000Y-106100000D03*
%TD*%
D11*
%TO.C,C7*%
X157900000Y-98470000D03*
X157900000Y-99430000D03*
%TD*%
D25*
%TO.C,Y1*%
X165925000Y-89050000D03*
X165925000Y-91350000D03*
X167675000Y-91350000D03*
X167675000Y-89050000D03*
%TD*%
D11*
%TO.C,C13*%
X158900000Y-98470000D03*
X158900000Y-99430000D03*
%TD*%
D26*
%TO.C,D2*%
X154550000Y-105765000D03*
D27*
X154550000Y-106650000D03*
%TD*%
D16*
%TO.C,R7*%
X164052500Y-108020000D03*
X164052500Y-107000000D03*
%TD*%
%TO.C,R8*%
X166450000Y-84675000D03*
X166450000Y-83655000D03*
%TD*%
D28*
%TO.C,SW1*%
X166450000Y-110250000D03*
X166450000Y-106250000D03*
%TD*%
D16*
%TO.C,R3*%
X156200000Y-99500000D03*
X156200000Y-98480000D03*
%TD*%
D11*
%TO.C,C11*%
X158900000Y-100615000D03*
X158900000Y-101575000D03*
%TD*%
D10*
%TO.C,C12*%
X165290000Y-93200000D03*
X166250000Y-93200000D03*
%TD*%
D16*
%TO.C,R4*%
X155200000Y-99500000D03*
X155200000Y-98480000D03*
%TD*%
D11*
%TO.C,C8*%
X167650000Y-92790000D03*
X167650000Y-93750000D03*
%TD*%
%TO.C,C6*%
X153225000Y-98490000D03*
X153225000Y-99450000D03*
%TD*%
M02*
