%TF.GenerationSoftware,KiCad,Pcbnew,9.0.4*%
%TF.CreationDate,2025-12-31T00:41:08-08:00*%
%TF.ProjectId,ATmega32u4_Dev,41546d65-6761-4333-9275-345f4465762e,rev?*%
%TF.SameCoordinates,Original*%
%TF.FileFunction,Legend,Bot*%
%TF.FilePolarity,Positive*%
%FSLAX46Y46*%
G04 Gerber Fmt 4.6, Leading zero omitted, Abs format (unit mm)*
G04 Created by KiCad (PCBNEW 9.0.4) date 2025-12-31 00:41:08*
%MOMM*%
%LPD*%
G01*
G04 APERTURE LIST*
%ADD10C,0.100000*%
G04 APERTURE END LIST*
D10*
X149517580Y-114478258D02*
X149541390Y-114525877D01*
X149541390Y-114525877D02*
X149541390Y-114597306D01*
X149541390Y-114597306D02*
X149517580Y-114668734D01*
X149517580Y-114668734D02*
X149469961Y-114716353D01*
X149469961Y-114716353D02*
X149422342Y-114740163D01*
X149422342Y-114740163D02*
X149327104Y-114763972D01*
X149327104Y-114763972D02*
X149255676Y-114763972D01*
X149255676Y-114763972D02*
X149160438Y-114740163D01*
X149160438Y-114740163D02*
X149112819Y-114716353D01*
X149112819Y-114716353D02*
X149065200Y-114668734D01*
X149065200Y-114668734D02*
X149041390Y-114597306D01*
X149041390Y-114597306D02*
X149041390Y-114549687D01*
X149041390Y-114549687D02*
X149065200Y-114478258D01*
X149065200Y-114478258D02*
X149089009Y-114454449D01*
X149089009Y-114454449D02*
X149255676Y-114454449D01*
X149255676Y-114454449D02*
X149255676Y-114549687D01*
X149041390Y-114240163D02*
X149541390Y-114240163D01*
X149541390Y-114240163D02*
X149041390Y-113954449D01*
X149041390Y-113954449D02*
X149541390Y-113954449D01*
X149041390Y-113716353D02*
X149541390Y-113716353D01*
X149541390Y-113716353D02*
X149541390Y-113597305D01*
X149541390Y-113597305D02*
X149517580Y-113525877D01*
X149517580Y-113525877D02*
X149469961Y-113478258D01*
X149469961Y-113478258D02*
X149422342Y-113454448D01*
X149422342Y-113454448D02*
X149327104Y-113430639D01*
X149327104Y-113430639D02*
X149255676Y-113430639D01*
X149255676Y-113430639D02*
X149160438Y-113454448D01*
X149160438Y-113454448D02*
X149112819Y-113478258D01*
X149112819Y-113478258D02*
X149065200Y-113525877D01*
X149065200Y-113525877D02*
X149041390Y-113597305D01*
X149041390Y-113597305D02*
X149041390Y-113716353D01*
X149303295Y-81198496D02*
X149279485Y-81127068D01*
X149279485Y-81127068D02*
X149255676Y-81103258D01*
X149255676Y-81103258D02*
X149208057Y-81079449D01*
X149208057Y-81079449D02*
X149136628Y-81079449D01*
X149136628Y-81079449D02*
X149089009Y-81103258D01*
X149089009Y-81103258D02*
X149065200Y-81127068D01*
X149065200Y-81127068D02*
X149041390Y-81174687D01*
X149041390Y-81174687D02*
X149041390Y-81365163D01*
X149041390Y-81365163D02*
X149541390Y-81365163D01*
X149541390Y-81365163D02*
X149541390Y-81198496D01*
X149541390Y-81198496D02*
X149517580Y-81150877D01*
X149517580Y-81150877D02*
X149493771Y-81127068D01*
X149493771Y-81127068D02*
X149446152Y-81103258D01*
X149446152Y-81103258D02*
X149398533Y-81103258D01*
X149398533Y-81103258D02*
X149350914Y-81127068D01*
X149350914Y-81127068D02*
X149327104Y-81150877D01*
X149327104Y-81150877D02*
X149303295Y-81198496D01*
X149303295Y-81198496D02*
X149303295Y-81365163D01*
X149374723Y-80650877D02*
X149041390Y-80650877D01*
X149565200Y-80769925D02*
X149208057Y-80888972D01*
X149208057Y-80888972D02*
X149208057Y-80579449D01*
X149303295Y-99048496D02*
X149303295Y-99215163D01*
X149041390Y-99215163D02*
X149541390Y-99215163D01*
X149541390Y-99215163D02*
X149541390Y-98977068D01*
X149541390Y-98691354D02*
X149541390Y-98643735D01*
X149541390Y-98643735D02*
X149517580Y-98596116D01*
X149517580Y-98596116D02*
X149493771Y-98572306D01*
X149493771Y-98572306D02*
X149446152Y-98548497D01*
X149446152Y-98548497D02*
X149350914Y-98524687D01*
X149350914Y-98524687D02*
X149231866Y-98524687D01*
X149231866Y-98524687D02*
X149136628Y-98548497D01*
X149136628Y-98548497D02*
X149089009Y-98572306D01*
X149089009Y-98572306D02*
X149065200Y-98596116D01*
X149065200Y-98596116D02*
X149041390Y-98643735D01*
X149041390Y-98643735D02*
X149041390Y-98691354D01*
X149041390Y-98691354D02*
X149065200Y-98738973D01*
X149065200Y-98738973D02*
X149089009Y-98762782D01*
X149089009Y-98762782D02*
X149136628Y-98786592D01*
X149136628Y-98786592D02*
X149231866Y-98810401D01*
X149231866Y-98810401D02*
X149350914Y-98810401D01*
X149350914Y-98810401D02*
X149446152Y-98786592D01*
X149446152Y-98786592D02*
X149493771Y-98762782D01*
X149493771Y-98762782D02*
X149517580Y-98738973D01*
X149517580Y-98738973D02*
X149541390Y-98691354D01*
X168908609Y-80859836D02*
X168408609Y-80859836D01*
X168408609Y-80859836D02*
X168408609Y-80978884D01*
X168408609Y-80978884D02*
X168432419Y-81050312D01*
X168432419Y-81050312D02*
X168480038Y-81097931D01*
X168480038Y-81097931D02*
X168527657Y-81121741D01*
X168527657Y-81121741D02*
X168622895Y-81145550D01*
X168622895Y-81145550D02*
X168694323Y-81145550D01*
X168694323Y-81145550D02*
X168789561Y-81121741D01*
X168789561Y-81121741D02*
X168837180Y-81097931D01*
X168837180Y-81097931D02*
X168884800Y-81050312D01*
X168884800Y-81050312D02*
X168908609Y-80978884D01*
X168908609Y-80978884D02*
X168908609Y-80859836D01*
X168408609Y-81312217D02*
X168408609Y-81645550D01*
X168408609Y-81645550D02*
X168908609Y-81431265D01*
X168646704Y-111601503D02*
X168670514Y-111672931D01*
X168670514Y-111672931D02*
X168694323Y-111696741D01*
X168694323Y-111696741D02*
X168741942Y-111720550D01*
X168741942Y-111720550D02*
X168813371Y-111720550D01*
X168813371Y-111720550D02*
X168860990Y-111696741D01*
X168860990Y-111696741D02*
X168884800Y-111672931D01*
X168884800Y-111672931D02*
X168908609Y-111625312D01*
X168908609Y-111625312D02*
X168908609Y-111434836D01*
X168908609Y-111434836D02*
X168408609Y-111434836D01*
X168408609Y-111434836D02*
X168408609Y-111601503D01*
X168408609Y-111601503D02*
X168432419Y-111649122D01*
X168432419Y-111649122D02*
X168456228Y-111672931D01*
X168456228Y-111672931D02*
X168503847Y-111696741D01*
X168503847Y-111696741D02*
X168551466Y-111696741D01*
X168551466Y-111696741D02*
X168599085Y-111672931D01*
X168599085Y-111672931D02*
X168622895Y-111649122D01*
X168622895Y-111649122D02*
X168646704Y-111601503D01*
X168646704Y-111601503D02*
X168646704Y-111434836D01*
X168456228Y-111911027D02*
X168432419Y-111934836D01*
X168432419Y-111934836D02*
X168408609Y-111982455D01*
X168408609Y-111982455D02*
X168408609Y-112101503D01*
X168408609Y-112101503D02*
X168432419Y-112149122D01*
X168432419Y-112149122D02*
X168456228Y-112172931D01*
X168456228Y-112172931D02*
X168503847Y-112196741D01*
X168503847Y-112196741D02*
X168551466Y-112196741D01*
X168551466Y-112196741D02*
X168622895Y-112172931D01*
X168622895Y-112172931D02*
X168908609Y-111887217D01*
X168908609Y-111887217D02*
X168908609Y-112196741D01*
X168908609Y-88459836D02*
X168408609Y-88459836D01*
X168408609Y-88459836D02*
X168408609Y-88578884D01*
X168408609Y-88578884D02*
X168432419Y-88650312D01*
X168432419Y-88650312D02*
X168480038Y-88697931D01*
X168480038Y-88697931D02*
X168527657Y-88721741D01*
X168527657Y-88721741D02*
X168622895Y-88745550D01*
X168622895Y-88745550D02*
X168694323Y-88745550D01*
X168694323Y-88745550D02*
X168789561Y-88721741D01*
X168789561Y-88721741D02*
X168837180Y-88697931D01*
X168837180Y-88697931D02*
X168884800Y-88650312D01*
X168884800Y-88650312D02*
X168908609Y-88578884D01*
X168908609Y-88578884D02*
X168908609Y-88459836D01*
X168408609Y-89197931D02*
X168408609Y-88959836D01*
X168408609Y-88959836D02*
X168646704Y-88936027D01*
X168646704Y-88936027D02*
X168622895Y-88959836D01*
X168622895Y-88959836D02*
X168599085Y-89007455D01*
X168599085Y-89007455D02*
X168599085Y-89126503D01*
X168599085Y-89126503D02*
X168622895Y-89174122D01*
X168622895Y-89174122D02*
X168646704Y-89197931D01*
X168646704Y-89197931D02*
X168694323Y-89221741D01*
X168694323Y-89221741D02*
X168813371Y-89221741D01*
X168813371Y-89221741D02*
X168860990Y-89197931D01*
X168860990Y-89197931D02*
X168884800Y-89174122D01*
X168884800Y-89174122D02*
X168908609Y-89126503D01*
X168908609Y-89126503D02*
X168908609Y-89007455D01*
X168908609Y-89007455D02*
X168884800Y-88959836D01*
X168884800Y-88959836D02*
X168860990Y-88936027D01*
X168646704Y-108876503D02*
X168670514Y-108947931D01*
X168670514Y-108947931D02*
X168694323Y-108971741D01*
X168694323Y-108971741D02*
X168741942Y-108995550D01*
X168741942Y-108995550D02*
X168813371Y-108995550D01*
X168813371Y-108995550D02*
X168860990Y-108971741D01*
X168860990Y-108971741D02*
X168884800Y-108947931D01*
X168884800Y-108947931D02*
X168908609Y-108900312D01*
X168908609Y-108900312D02*
X168908609Y-108709836D01*
X168908609Y-108709836D02*
X168408609Y-108709836D01*
X168408609Y-108709836D02*
X168408609Y-108876503D01*
X168408609Y-108876503D02*
X168432419Y-108924122D01*
X168432419Y-108924122D02*
X168456228Y-108947931D01*
X168456228Y-108947931D02*
X168503847Y-108971741D01*
X168503847Y-108971741D02*
X168551466Y-108971741D01*
X168551466Y-108971741D02*
X168599085Y-108947931D01*
X168599085Y-108947931D02*
X168622895Y-108924122D01*
X168622895Y-108924122D02*
X168646704Y-108876503D01*
X168646704Y-108876503D02*
X168646704Y-108709836D01*
X168408609Y-109162217D02*
X168408609Y-109471741D01*
X168408609Y-109471741D02*
X168599085Y-109305074D01*
X168599085Y-109305074D02*
X168599085Y-109376503D01*
X168599085Y-109376503D02*
X168622895Y-109424122D01*
X168622895Y-109424122D02*
X168646704Y-109447931D01*
X168646704Y-109447931D02*
X168694323Y-109471741D01*
X168694323Y-109471741D02*
X168813371Y-109471741D01*
X168813371Y-109471741D02*
X168860990Y-109447931D01*
X168860990Y-109447931D02*
X168884800Y-109424122D01*
X168884800Y-109424122D02*
X168908609Y-109376503D01*
X168908609Y-109376503D02*
X168908609Y-109233646D01*
X168908609Y-109233646D02*
X168884800Y-109186027D01*
X168884800Y-109186027D02*
X168860990Y-109162217D01*
X149303295Y-96548496D02*
X149303295Y-96715163D01*
X149041390Y-96715163D02*
X149541390Y-96715163D01*
X149541390Y-96715163D02*
X149541390Y-96477068D01*
X149541390Y-96072306D02*
X149541390Y-96167544D01*
X149541390Y-96167544D02*
X149517580Y-96215163D01*
X149517580Y-96215163D02*
X149493771Y-96238973D01*
X149493771Y-96238973D02*
X149422342Y-96286592D01*
X149422342Y-96286592D02*
X149327104Y-96310401D01*
X149327104Y-96310401D02*
X149136628Y-96310401D01*
X149136628Y-96310401D02*
X149089009Y-96286592D01*
X149089009Y-96286592D02*
X149065200Y-96262782D01*
X149065200Y-96262782D02*
X149041390Y-96215163D01*
X149041390Y-96215163D02*
X149041390Y-96119925D01*
X149041390Y-96119925D02*
X149065200Y-96072306D01*
X149065200Y-96072306D02*
X149089009Y-96048497D01*
X149089009Y-96048497D02*
X149136628Y-96024687D01*
X149136628Y-96024687D02*
X149255676Y-96024687D01*
X149255676Y-96024687D02*
X149303295Y-96048497D01*
X149303295Y-96048497D02*
X149327104Y-96072306D01*
X149327104Y-96072306D02*
X149350914Y-96119925D01*
X149350914Y-96119925D02*
X149350914Y-96215163D01*
X149350914Y-96215163D02*
X149327104Y-96262782D01*
X149327104Y-96262782D02*
X149303295Y-96286592D01*
X149303295Y-96286592D02*
X149255676Y-96310401D01*
X168646704Y-103876503D02*
X168670514Y-103947931D01*
X168670514Y-103947931D02*
X168694323Y-103971741D01*
X168694323Y-103971741D02*
X168741942Y-103995550D01*
X168741942Y-103995550D02*
X168813371Y-103995550D01*
X168813371Y-103995550D02*
X168860990Y-103971741D01*
X168860990Y-103971741D02*
X168884800Y-103947931D01*
X168884800Y-103947931D02*
X168908609Y-103900312D01*
X168908609Y-103900312D02*
X168908609Y-103709836D01*
X168908609Y-103709836D02*
X168408609Y-103709836D01*
X168408609Y-103709836D02*
X168408609Y-103876503D01*
X168408609Y-103876503D02*
X168432419Y-103924122D01*
X168432419Y-103924122D02*
X168456228Y-103947931D01*
X168456228Y-103947931D02*
X168503847Y-103971741D01*
X168503847Y-103971741D02*
X168551466Y-103971741D01*
X168551466Y-103971741D02*
X168599085Y-103947931D01*
X168599085Y-103947931D02*
X168622895Y-103924122D01*
X168622895Y-103924122D02*
X168646704Y-103876503D01*
X168646704Y-103876503D02*
X168646704Y-103709836D01*
X168408609Y-104305074D02*
X168408609Y-104352693D01*
X168408609Y-104352693D02*
X168432419Y-104400312D01*
X168432419Y-104400312D02*
X168456228Y-104424122D01*
X168456228Y-104424122D02*
X168503847Y-104447931D01*
X168503847Y-104447931D02*
X168599085Y-104471741D01*
X168599085Y-104471741D02*
X168718133Y-104471741D01*
X168718133Y-104471741D02*
X168813371Y-104447931D01*
X168813371Y-104447931D02*
X168860990Y-104424122D01*
X168860990Y-104424122D02*
X168884800Y-104400312D01*
X168884800Y-104400312D02*
X168908609Y-104352693D01*
X168908609Y-104352693D02*
X168908609Y-104305074D01*
X168908609Y-104305074D02*
X168884800Y-104257455D01*
X168884800Y-104257455D02*
X168860990Y-104233646D01*
X168860990Y-104233646D02*
X168813371Y-104209836D01*
X168813371Y-104209836D02*
X168718133Y-104186027D01*
X168718133Y-104186027D02*
X168599085Y-104186027D01*
X168599085Y-104186027D02*
X168503847Y-104209836D01*
X168503847Y-104209836D02*
X168456228Y-104233646D01*
X168456228Y-104233646D02*
X168432419Y-104257455D01*
X168432419Y-104257455D02*
X168408609Y-104305074D01*
X149303295Y-83873496D02*
X149279485Y-83802068D01*
X149279485Y-83802068D02*
X149255676Y-83778258D01*
X149255676Y-83778258D02*
X149208057Y-83754449D01*
X149208057Y-83754449D02*
X149136628Y-83754449D01*
X149136628Y-83754449D02*
X149089009Y-83778258D01*
X149089009Y-83778258D02*
X149065200Y-83802068D01*
X149065200Y-83802068D02*
X149041390Y-83849687D01*
X149041390Y-83849687D02*
X149041390Y-84040163D01*
X149041390Y-84040163D02*
X149541390Y-84040163D01*
X149541390Y-84040163D02*
X149541390Y-83873496D01*
X149541390Y-83873496D02*
X149517580Y-83825877D01*
X149517580Y-83825877D02*
X149493771Y-83802068D01*
X149493771Y-83802068D02*
X149446152Y-83778258D01*
X149446152Y-83778258D02*
X149398533Y-83778258D01*
X149398533Y-83778258D02*
X149350914Y-83802068D01*
X149350914Y-83802068D02*
X149327104Y-83825877D01*
X149327104Y-83825877D02*
X149303295Y-83873496D01*
X149303295Y-83873496D02*
X149303295Y-84040163D01*
X149541390Y-83302068D02*
X149541390Y-83540163D01*
X149541390Y-83540163D02*
X149303295Y-83563972D01*
X149303295Y-83563972D02*
X149327104Y-83540163D01*
X149327104Y-83540163D02*
X149350914Y-83492544D01*
X149350914Y-83492544D02*
X149350914Y-83373496D01*
X149350914Y-83373496D02*
X149327104Y-83325877D01*
X149327104Y-83325877D02*
X149303295Y-83302068D01*
X149303295Y-83302068D02*
X149255676Y-83278258D01*
X149255676Y-83278258D02*
X149136628Y-83278258D01*
X149136628Y-83278258D02*
X149089009Y-83302068D01*
X149089009Y-83302068D02*
X149065200Y-83325877D01*
X149065200Y-83325877D02*
X149041390Y-83373496D01*
X149041390Y-83373496D02*
X149041390Y-83492544D01*
X149041390Y-83492544D02*
X149065200Y-83540163D01*
X149065200Y-83540163D02*
X149089009Y-83563972D01*
X168908609Y-93534836D02*
X168408609Y-93534836D01*
X168408609Y-93534836D02*
X168408609Y-93653884D01*
X168408609Y-93653884D02*
X168432419Y-93725312D01*
X168432419Y-93725312D02*
X168480038Y-93772931D01*
X168480038Y-93772931D02*
X168527657Y-93796741D01*
X168527657Y-93796741D02*
X168622895Y-93820550D01*
X168622895Y-93820550D02*
X168694323Y-93820550D01*
X168694323Y-93820550D02*
X168789561Y-93796741D01*
X168789561Y-93796741D02*
X168837180Y-93772931D01*
X168837180Y-93772931D02*
X168884800Y-93725312D01*
X168884800Y-93725312D02*
X168908609Y-93653884D01*
X168908609Y-93653884D02*
X168908609Y-93534836D01*
X168456228Y-94011027D02*
X168432419Y-94034836D01*
X168432419Y-94034836D02*
X168408609Y-94082455D01*
X168408609Y-94082455D02*
X168408609Y-94201503D01*
X168408609Y-94201503D02*
X168432419Y-94249122D01*
X168432419Y-94249122D02*
X168456228Y-94272931D01*
X168456228Y-94272931D02*
X168503847Y-94296741D01*
X168503847Y-94296741D02*
X168551466Y-94296741D01*
X168551466Y-94296741D02*
X168622895Y-94272931D01*
X168622895Y-94272931D02*
X168908609Y-93987217D01*
X168908609Y-93987217D02*
X168908609Y-94296741D01*
X149541390Y-111777068D02*
X149541390Y-112015163D01*
X149541390Y-112015163D02*
X149303295Y-112038972D01*
X149303295Y-112038972D02*
X149327104Y-112015163D01*
X149327104Y-112015163D02*
X149350914Y-111967544D01*
X149350914Y-111967544D02*
X149350914Y-111848496D01*
X149350914Y-111848496D02*
X149327104Y-111800877D01*
X149327104Y-111800877D02*
X149303295Y-111777068D01*
X149303295Y-111777068D02*
X149255676Y-111753258D01*
X149255676Y-111753258D02*
X149136628Y-111753258D01*
X149136628Y-111753258D02*
X149089009Y-111777068D01*
X149089009Y-111777068D02*
X149065200Y-111800877D01*
X149065200Y-111800877D02*
X149041390Y-111848496D01*
X149041390Y-111848496D02*
X149041390Y-111967544D01*
X149041390Y-111967544D02*
X149065200Y-112015163D01*
X149065200Y-112015163D02*
X149089009Y-112038972D01*
X149541390Y-111610401D02*
X149041390Y-111443735D01*
X149041390Y-111443735D02*
X149541390Y-111277068D01*
X168908609Y-83334836D02*
X168408609Y-83334836D01*
X168408609Y-83334836D02*
X168408609Y-83453884D01*
X168408609Y-83453884D02*
X168432419Y-83525312D01*
X168432419Y-83525312D02*
X168480038Y-83572931D01*
X168480038Y-83572931D02*
X168527657Y-83596741D01*
X168527657Y-83596741D02*
X168622895Y-83620550D01*
X168622895Y-83620550D02*
X168694323Y-83620550D01*
X168694323Y-83620550D02*
X168789561Y-83596741D01*
X168789561Y-83596741D02*
X168837180Y-83572931D01*
X168837180Y-83572931D02*
X168884800Y-83525312D01*
X168884800Y-83525312D02*
X168908609Y-83453884D01*
X168908609Y-83453884D02*
X168908609Y-83334836D01*
X168408609Y-84049122D02*
X168408609Y-83953884D01*
X168408609Y-83953884D02*
X168432419Y-83906265D01*
X168432419Y-83906265D02*
X168456228Y-83882455D01*
X168456228Y-83882455D02*
X168527657Y-83834836D01*
X168527657Y-83834836D02*
X168622895Y-83811027D01*
X168622895Y-83811027D02*
X168813371Y-83811027D01*
X168813371Y-83811027D02*
X168860990Y-83834836D01*
X168860990Y-83834836D02*
X168884800Y-83858646D01*
X168884800Y-83858646D02*
X168908609Y-83906265D01*
X168908609Y-83906265D02*
X168908609Y-84001503D01*
X168908609Y-84001503D02*
X168884800Y-84049122D01*
X168884800Y-84049122D02*
X168860990Y-84072931D01*
X168860990Y-84072931D02*
X168813371Y-84096741D01*
X168813371Y-84096741D02*
X168694323Y-84096741D01*
X168694323Y-84096741D02*
X168646704Y-84072931D01*
X168646704Y-84072931D02*
X168622895Y-84049122D01*
X168622895Y-84049122D02*
X168599085Y-84001503D01*
X168599085Y-84001503D02*
X168599085Y-83906265D01*
X168599085Y-83906265D02*
X168622895Y-83858646D01*
X168622895Y-83858646D02*
X168646704Y-83834836D01*
X168646704Y-83834836D02*
X168694323Y-83811027D01*
X168646704Y-101326503D02*
X168670514Y-101397931D01*
X168670514Y-101397931D02*
X168694323Y-101421741D01*
X168694323Y-101421741D02*
X168741942Y-101445550D01*
X168741942Y-101445550D02*
X168813371Y-101445550D01*
X168813371Y-101445550D02*
X168860990Y-101421741D01*
X168860990Y-101421741D02*
X168884800Y-101397931D01*
X168884800Y-101397931D02*
X168908609Y-101350312D01*
X168908609Y-101350312D02*
X168908609Y-101159836D01*
X168908609Y-101159836D02*
X168408609Y-101159836D01*
X168408609Y-101159836D02*
X168408609Y-101326503D01*
X168408609Y-101326503D02*
X168432419Y-101374122D01*
X168432419Y-101374122D02*
X168456228Y-101397931D01*
X168456228Y-101397931D02*
X168503847Y-101421741D01*
X168503847Y-101421741D02*
X168551466Y-101421741D01*
X168551466Y-101421741D02*
X168599085Y-101397931D01*
X168599085Y-101397931D02*
X168622895Y-101374122D01*
X168622895Y-101374122D02*
X168646704Y-101326503D01*
X168646704Y-101326503D02*
X168646704Y-101159836D01*
X168408609Y-101612217D02*
X168408609Y-101945550D01*
X168408609Y-101945550D02*
X168908609Y-101731265D01*
X149303295Y-101623496D02*
X149303295Y-101790163D01*
X149041390Y-101790163D02*
X149541390Y-101790163D01*
X149541390Y-101790163D02*
X149541390Y-101552068D01*
X149041390Y-101099687D02*
X149041390Y-101385401D01*
X149041390Y-101242544D02*
X149541390Y-101242544D01*
X149541390Y-101242544D02*
X149469961Y-101290163D01*
X149469961Y-101290163D02*
X149422342Y-101337782D01*
X149422342Y-101337782D02*
X149398533Y-101385401D01*
X149303295Y-104023496D02*
X149303295Y-104190163D01*
X149041390Y-104190163D02*
X149541390Y-104190163D01*
X149541390Y-104190163D02*
X149541390Y-103952068D01*
X149374723Y-103547306D02*
X149041390Y-103547306D01*
X149565200Y-103666354D02*
X149208057Y-103785401D01*
X149208057Y-103785401D02*
X149208057Y-103475878D01*
X168908609Y-85884836D02*
X168408609Y-85884836D01*
X168408609Y-85884836D02*
X168408609Y-86003884D01*
X168408609Y-86003884D02*
X168432419Y-86075312D01*
X168432419Y-86075312D02*
X168480038Y-86122931D01*
X168480038Y-86122931D02*
X168527657Y-86146741D01*
X168527657Y-86146741D02*
X168622895Y-86170550D01*
X168622895Y-86170550D02*
X168694323Y-86170550D01*
X168694323Y-86170550D02*
X168789561Y-86146741D01*
X168789561Y-86146741D02*
X168837180Y-86122931D01*
X168837180Y-86122931D02*
X168884800Y-86075312D01*
X168884800Y-86075312D02*
X168908609Y-86003884D01*
X168908609Y-86003884D02*
X168908609Y-85884836D01*
X168575276Y-86599122D02*
X168908609Y-86599122D01*
X168384800Y-86480074D02*
X168741942Y-86361027D01*
X168741942Y-86361027D02*
X168741942Y-86670550D01*
X168908609Y-91034836D02*
X168408609Y-91034836D01*
X168408609Y-91034836D02*
X168408609Y-91153884D01*
X168408609Y-91153884D02*
X168432419Y-91225312D01*
X168432419Y-91225312D02*
X168480038Y-91272931D01*
X168480038Y-91272931D02*
X168527657Y-91296741D01*
X168527657Y-91296741D02*
X168622895Y-91320550D01*
X168622895Y-91320550D02*
X168694323Y-91320550D01*
X168694323Y-91320550D02*
X168789561Y-91296741D01*
X168789561Y-91296741D02*
X168837180Y-91272931D01*
X168837180Y-91272931D02*
X168884800Y-91225312D01*
X168884800Y-91225312D02*
X168908609Y-91153884D01*
X168908609Y-91153884D02*
X168908609Y-91034836D01*
X168408609Y-91487217D02*
X168408609Y-91796741D01*
X168408609Y-91796741D02*
X168599085Y-91630074D01*
X168599085Y-91630074D02*
X168599085Y-91701503D01*
X168599085Y-91701503D02*
X168622895Y-91749122D01*
X168622895Y-91749122D02*
X168646704Y-91772931D01*
X168646704Y-91772931D02*
X168694323Y-91796741D01*
X168694323Y-91796741D02*
X168813371Y-91796741D01*
X168813371Y-91796741D02*
X168860990Y-91772931D01*
X168860990Y-91772931D02*
X168884800Y-91749122D01*
X168884800Y-91749122D02*
X168908609Y-91701503D01*
X168908609Y-91701503D02*
X168908609Y-91558646D01*
X168908609Y-91558646D02*
X168884800Y-91511027D01*
X168884800Y-91511027D02*
X168860990Y-91487217D01*
X168908609Y-113920550D02*
X168670514Y-113753884D01*
X168908609Y-113634836D02*
X168408609Y-113634836D01*
X168408609Y-113634836D02*
X168408609Y-113825312D01*
X168408609Y-113825312D02*
X168432419Y-113872931D01*
X168432419Y-113872931D02*
X168456228Y-113896741D01*
X168456228Y-113896741D02*
X168503847Y-113920550D01*
X168503847Y-113920550D02*
X168575276Y-113920550D01*
X168575276Y-113920550D02*
X168622895Y-113896741D01*
X168622895Y-113896741D02*
X168646704Y-113872931D01*
X168646704Y-113872931D02*
X168670514Y-113825312D01*
X168670514Y-113825312D02*
X168670514Y-113634836D01*
X168646704Y-114134836D02*
X168646704Y-114301503D01*
X168908609Y-114372931D02*
X168908609Y-114134836D01*
X168908609Y-114134836D02*
X168408609Y-114134836D01*
X168408609Y-114134836D02*
X168408609Y-114372931D01*
X168884800Y-114563408D02*
X168908609Y-114634836D01*
X168908609Y-114634836D02*
X168908609Y-114753884D01*
X168908609Y-114753884D02*
X168884800Y-114801503D01*
X168884800Y-114801503D02*
X168860990Y-114825312D01*
X168860990Y-114825312D02*
X168813371Y-114849122D01*
X168813371Y-114849122D02*
X168765752Y-114849122D01*
X168765752Y-114849122D02*
X168718133Y-114825312D01*
X168718133Y-114825312D02*
X168694323Y-114801503D01*
X168694323Y-114801503D02*
X168670514Y-114753884D01*
X168670514Y-114753884D02*
X168646704Y-114658646D01*
X168646704Y-114658646D02*
X168622895Y-114611027D01*
X168622895Y-114611027D02*
X168599085Y-114587217D01*
X168599085Y-114587217D02*
X168551466Y-114563408D01*
X168551466Y-114563408D02*
X168503847Y-114563408D01*
X168503847Y-114563408D02*
X168456228Y-114587217D01*
X168456228Y-114587217D02*
X168432419Y-114611027D01*
X168432419Y-114611027D02*
X168408609Y-114658646D01*
X168408609Y-114658646D02*
X168408609Y-114777693D01*
X168408609Y-114777693D02*
X168432419Y-114849122D01*
X149303295Y-109390163D02*
X149303295Y-109223496D01*
X149041390Y-109152068D02*
X149041390Y-109390163D01*
X149041390Y-109390163D02*
X149541390Y-109390163D01*
X149541390Y-109390163D02*
X149541390Y-109152068D01*
X149541390Y-108723496D02*
X149541390Y-108818734D01*
X149541390Y-108818734D02*
X149517580Y-108866353D01*
X149517580Y-108866353D02*
X149493771Y-108890163D01*
X149493771Y-108890163D02*
X149422342Y-108937782D01*
X149422342Y-108937782D02*
X149327104Y-108961591D01*
X149327104Y-108961591D02*
X149136628Y-108961591D01*
X149136628Y-108961591D02*
X149089009Y-108937782D01*
X149089009Y-108937782D02*
X149065200Y-108913972D01*
X149065200Y-108913972D02*
X149041390Y-108866353D01*
X149041390Y-108866353D02*
X149041390Y-108771115D01*
X149041390Y-108771115D02*
X149065200Y-108723496D01*
X149065200Y-108723496D02*
X149089009Y-108699687D01*
X149089009Y-108699687D02*
X149136628Y-108675877D01*
X149136628Y-108675877D02*
X149255676Y-108675877D01*
X149255676Y-108675877D02*
X149303295Y-108699687D01*
X149303295Y-108699687D02*
X149327104Y-108723496D01*
X149327104Y-108723496D02*
X149350914Y-108771115D01*
X149350914Y-108771115D02*
X149350914Y-108866353D01*
X149350914Y-108866353D02*
X149327104Y-108913972D01*
X149327104Y-108913972D02*
X149303295Y-108937782D01*
X149303295Y-108937782D02*
X149255676Y-108961591D01*
X149303295Y-106598496D02*
X149303295Y-106765163D01*
X149041390Y-106765163D02*
X149541390Y-106765163D01*
X149541390Y-106765163D02*
X149541390Y-106527068D01*
X149541390Y-106098497D02*
X149541390Y-106336592D01*
X149541390Y-106336592D02*
X149303295Y-106360401D01*
X149303295Y-106360401D02*
X149327104Y-106336592D01*
X149327104Y-106336592D02*
X149350914Y-106288973D01*
X149350914Y-106288973D02*
X149350914Y-106169925D01*
X149350914Y-106169925D02*
X149327104Y-106122306D01*
X149327104Y-106122306D02*
X149303295Y-106098497D01*
X149303295Y-106098497D02*
X149255676Y-106074687D01*
X149255676Y-106074687D02*
X149136628Y-106074687D01*
X149136628Y-106074687D02*
X149089009Y-106098497D01*
X149089009Y-106098497D02*
X149065200Y-106122306D01*
X149065200Y-106122306D02*
X149041390Y-106169925D01*
X149041390Y-106169925D02*
X149041390Y-106288973D01*
X149041390Y-106288973D02*
X149065200Y-106336592D01*
X149065200Y-106336592D02*
X149089009Y-106360401D01*
X168908609Y-98659836D02*
X168408609Y-98659836D01*
X168408609Y-98659836D02*
X168408609Y-98778884D01*
X168408609Y-98778884D02*
X168432419Y-98850312D01*
X168432419Y-98850312D02*
X168480038Y-98897931D01*
X168480038Y-98897931D02*
X168527657Y-98921741D01*
X168527657Y-98921741D02*
X168622895Y-98945550D01*
X168622895Y-98945550D02*
X168694323Y-98945550D01*
X168694323Y-98945550D02*
X168789561Y-98921741D01*
X168789561Y-98921741D02*
X168837180Y-98897931D01*
X168837180Y-98897931D02*
X168884800Y-98850312D01*
X168884800Y-98850312D02*
X168908609Y-98778884D01*
X168908609Y-98778884D02*
X168908609Y-98659836D01*
X168408609Y-99255074D02*
X168408609Y-99302693D01*
X168408609Y-99302693D02*
X168432419Y-99350312D01*
X168432419Y-99350312D02*
X168456228Y-99374122D01*
X168456228Y-99374122D02*
X168503847Y-99397931D01*
X168503847Y-99397931D02*
X168599085Y-99421741D01*
X168599085Y-99421741D02*
X168718133Y-99421741D01*
X168718133Y-99421741D02*
X168813371Y-99397931D01*
X168813371Y-99397931D02*
X168860990Y-99374122D01*
X168860990Y-99374122D02*
X168884800Y-99350312D01*
X168884800Y-99350312D02*
X168908609Y-99302693D01*
X168908609Y-99302693D02*
X168908609Y-99255074D01*
X168908609Y-99255074D02*
X168884800Y-99207455D01*
X168884800Y-99207455D02*
X168860990Y-99183646D01*
X168860990Y-99183646D02*
X168813371Y-99159836D01*
X168813371Y-99159836D02*
X168718133Y-99136027D01*
X168718133Y-99136027D02*
X168599085Y-99136027D01*
X168599085Y-99136027D02*
X168503847Y-99159836D01*
X168503847Y-99159836D02*
X168456228Y-99183646D01*
X168456228Y-99183646D02*
X168432419Y-99207455D01*
X168432419Y-99207455D02*
X168408609Y-99255074D01*
X168908609Y-96134836D02*
X168408609Y-96134836D01*
X168408609Y-96134836D02*
X168408609Y-96253884D01*
X168408609Y-96253884D02*
X168432419Y-96325312D01*
X168432419Y-96325312D02*
X168480038Y-96372931D01*
X168480038Y-96372931D02*
X168527657Y-96396741D01*
X168527657Y-96396741D02*
X168622895Y-96420550D01*
X168622895Y-96420550D02*
X168694323Y-96420550D01*
X168694323Y-96420550D02*
X168789561Y-96396741D01*
X168789561Y-96396741D02*
X168837180Y-96372931D01*
X168837180Y-96372931D02*
X168884800Y-96325312D01*
X168884800Y-96325312D02*
X168908609Y-96253884D01*
X168908609Y-96253884D02*
X168908609Y-96134836D01*
X168908609Y-96896741D02*
X168908609Y-96611027D01*
X168908609Y-96753884D02*
X168408609Y-96753884D01*
X168408609Y-96753884D02*
X168480038Y-96706265D01*
X168480038Y-96706265D02*
X168527657Y-96658646D01*
X168527657Y-96658646D02*
X168551466Y-96611027D01*
X149089009Y-88854449D02*
X149065200Y-88878258D01*
X149065200Y-88878258D02*
X149041390Y-88949687D01*
X149041390Y-88949687D02*
X149041390Y-88997306D01*
X149041390Y-88997306D02*
X149065200Y-89068734D01*
X149065200Y-89068734D02*
X149112819Y-89116353D01*
X149112819Y-89116353D02*
X149160438Y-89140163D01*
X149160438Y-89140163D02*
X149255676Y-89163972D01*
X149255676Y-89163972D02*
X149327104Y-89163972D01*
X149327104Y-89163972D02*
X149422342Y-89140163D01*
X149422342Y-89140163D02*
X149469961Y-89116353D01*
X149469961Y-89116353D02*
X149517580Y-89068734D01*
X149517580Y-89068734D02*
X149541390Y-88997306D01*
X149541390Y-88997306D02*
X149541390Y-88949687D01*
X149541390Y-88949687D02*
X149517580Y-88878258D01*
X149517580Y-88878258D02*
X149493771Y-88854449D01*
X149541390Y-88425877D02*
X149541390Y-88521115D01*
X149541390Y-88521115D02*
X149517580Y-88568734D01*
X149517580Y-88568734D02*
X149493771Y-88592544D01*
X149493771Y-88592544D02*
X149422342Y-88640163D01*
X149422342Y-88640163D02*
X149327104Y-88663972D01*
X149327104Y-88663972D02*
X149136628Y-88663972D01*
X149136628Y-88663972D02*
X149089009Y-88640163D01*
X149089009Y-88640163D02*
X149065200Y-88616353D01*
X149065200Y-88616353D02*
X149041390Y-88568734D01*
X149041390Y-88568734D02*
X149041390Y-88473496D01*
X149041390Y-88473496D02*
X149065200Y-88425877D01*
X149065200Y-88425877D02*
X149089009Y-88402068D01*
X149089009Y-88402068D02*
X149136628Y-88378258D01*
X149136628Y-88378258D02*
X149255676Y-88378258D01*
X149255676Y-88378258D02*
X149303295Y-88402068D01*
X149303295Y-88402068D02*
X149327104Y-88425877D01*
X149327104Y-88425877D02*
X149350914Y-88473496D01*
X149350914Y-88473496D02*
X149350914Y-88568734D01*
X149350914Y-88568734D02*
X149327104Y-88616353D01*
X149327104Y-88616353D02*
X149303295Y-88640163D01*
X149303295Y-88640163D02*
X149255676Y-88663972D01*
X149517580Y-91603258D02*
X149541390Y-91650877D01*
X149541390Y-91650877D02*
X149541390Y-91722306D01*
X149541390Y-91722306D02*
X149517580Y-91793734D01*
X149517580Y-91793734D02*
X149469961Y-91841353D01*
X149469961Y-91841353D02*
X149422342Y-91865163D01*
X149422342Y-91865163D02*
X149327104Y-91888972D01*
X149327104Y-91888972D02*
X149255676Y-91888972D01*
X149255676Y-91888972D02*
X149160438Y-91865163D01*
X149160438Y-91865163D02*
X149112819Y-91841353D01*
X149112819Y-91841353D02*
X149065200Y-91793734D01*
X149065200Y-91793734D02*
X149041390Y-91722306D01*
X149041390Y-91722306D02*
X149041390Y-91674687D01*
X149041390Y-91674687D02*
X149065200Y-91603258D01*
X149065200Y-91603258D02*
X149089009Y-91579449D01*
X149089009Y-91579449D02*
X149255676Y-91579449D01*
X149255676Y-91579449D02*
X149255676Y-91674687D01*
X149041390Y-91365163D02*
X149541390Y-91365163D01*
X149541390Y-91365163D02*
X149041390Y-91079449D01*
X149041390Y-91079449D02*
X149541390Y-91079449D01*
X149041390Y-90841353D02*
X149541390Y-90841353D01*
X149541390Y-90841353D02*
X149541390Y-90722305D01*
X149541390Y-90722305D02*
X149517580Y-90650877D01*
X149517580Y-90650877D02*
X149469961Y-90603258D01*
X149469961Y-90603258D02*
X149422342Y-90579448D01*
X149422342Y-90579448D02*
X149327104Y-90555639D01*
X149327104Y-90555639D02*
X149255676Y-90555639D01*
X149255676Y-90555639D02*
X149160438Y-90579448D01*
X149160438Y-90579448D02*
X149112819Y-90603258D01*
X149112819Y-90603258D02*
X149065200Y-90650877D01*
X149065200Y-90650877D02*
X149041390Y-90722305D01*
X149041390Y-90722305D02*
X149041390Y-90841353D01*
X149303295Y-93998496D02*
X149303295Y-94165163D01*
X149041390Y-94165163D02*
X149541390Y-94165163D01*
X149541390Y-94165163D02*
X149541390Y-93927068D01*
X149541390Y-93784211D02*
X149541390Y-93450878D01*
X149541390Y-93450878D02*
X149041390Y-93665163D01*
X149303295Y-86448496D02*
X149279485Y-86377068D01*
X149279485Y-86377068D02*
X149255676Y-86353258D01*
X149255676Y-86353258D02*
X149208057Y-86329449D01*
X149208057Y-86329449D02*
X149136628Y-86329449D01*
X149136628Y-86329449D02*
X149089009Y-86353258D01*
X149089009Y-86353258D02*
X149065200Y-86377068D01*
X149065200Y-86377068D02*
X149041390Y-86424687D01*
X149041390Y-86424687D02*
X149041390Y-86615163D01*
X149041390Y-86615163D02*
X149541390Y-86615163D01*
X149541390Y-86615163D02*
X149541390Y-86448496D01*
X149541390Y-86448496D02*
X149517580Y-86400877D01*
X149517580Y-86400877D02*
X149493771Y-86377068D01*
X149493771Y-86377068D02*
X149446152Y-86353258D01*
X149446152Y-86353258D02*
X149398533Y-86353258D01*
X149398533Y-86353258D02*
X149350914Y-86377068D01*
X149350914Y-86377068D02*
X149327104Y-86400877D01*
X149327104Y-86400877D02*
X149303295Y-86448496D01*
X149303295Y-86448496D02*
X149303295Y-86615163D01*
X149541390Y-85900877D02*
X149541390Y-85996115D01*
X149541390Y-85996115D02*
X149517580Y-86043734D01*
X149517580Y-86043734D02*
X149493771Y-86067544D01*
X149493771Y-86067544D02*
X149422342Y-86115163D01*
X149422342Y-86115163D02*
X149327104Y-86138972D01*
X149327104Y-86138972D02*
X149136628Y-86138972D01*
X149136628Y-86138972D02*
X149089009Y-86115163D01*
X149089009Y-86115163D02*
X149065200Y-86091353D01*
X149065200Y-86091353D02*
X149041390Y-86043734D01*
X149041390Y-86043734D02*
X149041390Y-85948496D01*
X149041390Y-85948496D02*
X149065200Y-85900877D01*
X149065200Y-85900877D02*
X149089009Y-85877068D01*
X149089009Y-85877068D02*
X149136628Y-85853258D01*
X149136628Y-85853258D02*
X149255676Y-85853258D01*
X149255676Y-85853258D02*
X149303295Y-85877068D01*
X149303295Y-85877068D02*
X149327104Y-85900877D01*
X149327104Y-85900877D02*
X149350914Y-85948496D01*
X149350914Y-85948496D02*
X149350914Y-86043734D01*
X149350914Y-86043734D02*
X149327104Y-86091353D01*
X149327104Y-86091353D02*
X149303295Y-86115163D01*
X149303295Y-86115163D02*
X149255676Y-86138972D01*
X168646704Y-106376503D02*
X168670514Y-106447931D01*
X168670514Y-106447931D02*
X168694323Y-106471741D01*
X168694323Y-106471741D02*
X168741942Y-106495550D01*
X168741942Y-106495550D02*
X168813371Y-106495550D01*
X168813371Y-106495550D02*
X168860990Y-106471741D01*
X168860990Y-106471741D02*
X168884800Y-106447931D01*
X168884800Y-106447931D02*
X168908609Y-106400312D01*
X168908609Y-106400312D02*
X168908609Y-106209836D01*
X168908609Y-106209836D02*
X168408609Y-106209836D01*
X168408609Y-106209836D02*
X168408609Y-106376503D01*
X168408609Y-106376503D02*
X168432419Y-106424122D01*
X168432419Y-106424122D02*
X168456228Y-106447931D01*
X168456228Y-106447931D02*
X168503847Y-106471741D01*
X168503847Y-106471741D02*
X168551466Y-106471741D01*
X168551466Y-106471741D02*
X168599085Y-106447931D01*
X168599085Y-106447931D02*
X168622895Y-106424122D01*
X168622895Y-106424122D02*
X168646704Y-106376503D01*
X168646704Y-106376503D02*
X168646704Y-106209836D01*
X168908609Y-106971741D02*
X168908609Y-106686027D01*
X168908609Y-106828884D02*
X168408609Y-106828884D01*
X168408609Y-106828884D02*
X168480038Y-106781265D01*
X168480038Y-106781265D02*
X168527657Y-106733646D01*
X168527657Y-106733646D02*
X168551466Y-106686027D01*
M02*
