%TF.GenerationSoftware,KiCad,Pcbnew,9.0.4*%
%TF.CreationDate,2025-12-31T00:41:08-08:00*%
%TF.ProjectId,ATmega32u4_Dev,41546d65-6761-4333-9275-345f4465762e,rev?*%
%TF.SameCoordinates,Original*%
%TF.FileFunction,Soldermask,Top*%
%TF.FilePolarity,Negative*%
%FSLAX46Y46*%
G04 Gerber Fmt 4.6, Leading zero omitted, Abs format (unit mm)*
G04 Created by KiCad (PCBNEW 9.0.4) date 2025-12-31 00:41:08*
%MOMM*%
%LPD*%
G01*
G04 APERTURE LIST*
G04 Aperture macros list*
%AMRoundRect*
0 Rectangle with rounded corners*
0 $1 Rounding radius*
0 $2 $3 $4 $5 $6 $7 $8 $9 X,Y pos of 4 corners*
0 Add a 4 corners polygon primitive as box body*
4,1,4,$2,$3,$4,$5,$6,$7,$8,$9,$2,$3,0*
0 Add four circle primitives for the rounded corners*
1,1,$1+$1,$2,$3*
1,1,$1+$1,$4,$5*
1,1,$1+$1,$6,$7*
1,1,$1+$1,$8,$9*
0 Add four rect primitives between the rounded corners*
20,1,$1+$1,$2,$3,$4,$5,0*
20,1,$1+$1,$4,$5,$6,$7,0*
20,1,$1+$1,$6,$7,$8,$9,0*
20,1,$1+$1,$8,$9,$2,$3,0*%
G04 Aperture macros list end*
%ADD10C,0.010000*%
%ADD11RoundRect,0.140000X-0.140000X-0.170000X0.140000X-0.170000X0.140000X0.170000X-0.140000X0.170000X0*%
%ADD12C,1.750000*%
%ADD13RoundRect,0.140000X-0.170000X0.140000X-0.170000X-0.140000X0.170000X-0.140000X0.170000X0.140000X0*%
%ADD14RoundRect,0.135000X-0.185000X0.135000X-0.185000X-0.135000X0.185000X-0.135000X0.185000X0.135000X0*%
%ADD15RoundRect,0.218750X-0.218750X-0.256250X0.218750X-0.256250X0.218750X0.256250X-0.218750X0.256250X0*%
%ADD16C,0.650000*%
%ADD17O,1.204000X2.304000*%
%ADD18O,1.204000X2.004000*%
%ADD19RoundRect,0.135000X0.185000X-0.135000X0.185000X0.135000X-0.185000X0.135000X-0.185000X-0.135000X0*%
%ADD20RoundRect,0.250000X-0.275000X-0.350000X0.275000X-0.350000X0.275000X0.350000X-0.275000X0.350000X0*%
%ADD21RoundRect,0.250000X0.325000X0.450000X-0.325000X0.450000X-0.325000X-0.450000X0.325000X-0.450000X0*%
%ADD22RoundRect,0.218750X0.256250X-0.218750X0.256250X0.218750X-0.256250X0.218750X-0.256250X-0.218750X0*%
%ADD23RoundRect,0.135000X-0.135000X-0.185000X0.135000X-0.185000X0.135000X0.185000X-0.135000X0.185000X0*%
%ADD24RoundRect,0.102000X0.250000X-0.750000X0.250000X0.750000X-0.250000X0.750000X-0.250000X-0.750000X0*%
%ADD25RoundRect,0.102000X0.750000X-0.250000X0.750000X0.250000X-0.750000X0.250000X-0.750000X-0.250000X0*%
%ADD26RoundRect,0.140000X0.170000X-0.140000X0.170000X0.140000X-0.170000X0.140000X-0.170000X-0.140000X0*%
%ADD27RoundRect,0.150000X0.150000X-0.512500X0.150000X0.512500X-0.150000X0.512500X-0.150000X-0.512500X0*%
%ADD28RoundRect,0.102000X-0.525000X-0.650000X0.525000X-0.650000X0.525000X0.650000X-0.525000X0.650000X0*%
%ADD29RoundRect,0.075000X-0.275000X0.390000X-0.275000X-0.390000X0.275000X-0.390000X0.275000X0.390000X0*%
%ADD30RoundRect,0.075000X-0.275000X0.075000X-0.275000X-0.075000X0.275000X-0.075000X0.275000X0.075000X0*%
%ADD31RoundRect,0.300000X-0.700000X-0.700000X0.700000X-0.700000X0.700000X0.700000X-0.700000X0.700000X0*%
G04 APERTURE END LIST*
D10*
%TO.C,J1*%
X156000000Y-111420000D02*
X155300000Y-111420000D01*
X155300000Y-110170000D01*
X156000000Y-110170000D01*
X156000000Y-111420000D01*
G36*
X156000000Y-111420000D02*
G01*
X155300000Y-111420000D01*
X155300000Y-110170000D01*
X156000000Y-110170000D01*
X156000000Y-111420000D01*
G37*
X156800000Y-111420000D02*
X156100000Y-111420000D01*
X156100000Y-110170000D01*
X156800000Y-110170000D01*
X156800000Y-111420000D01*
G36*
X156800000Y-111420000D02*
G01*
X156100000Y-111420000D01*
X156100000Y-110170000D01*
X156800000Y-110170000D01*
X156800000Y-111420000D01*
G37*
X157300000Y-111420000D02*
X156900000Y-111420000D01*
X156900000Y-110170000D01*
X157300000Y-110170000D01*
X157300000Y-111420000D01*
G36*
X157300000Y-111420000D02*
G01*
X156900000Y-111420000D01*
X156900000Y-110170000D01*
X157300000Y-110170000D01*
X157300000Y-111420000D01*
G37*
X157800000Y-111420000D02*
X157400000Y-111420000D01*
X157400000Y-110170000D01*
X157800000Y-110170000D01*
X157800000Y-111420000D01*
G36*
X157800000Y-111420000D02*
G01*
X157400000Y-111420000D01*
X157400000Y-110170000D01*
X157800000Y-110170000D01*
X157800000Y-111420000D01*
G37*
X158300000Y-111420000D02*
X157900000Y-111420000D01*
X157900000Y-110170000D01*
X158300000Y-110170000D01*
X158300000Y-111420000D01*
G36*
X158300000Y-111420000D02*
G01*
X157900000Y-111420000D01*
X157900000Y-110170000D01*
X158300000Y-110170000D01*
X158300000Y-111420000D01*
G37*
X158800000Y-111420000D02*
X158400000Y-111420000D01*
X158400000Y-110170000D01*
X158800000Y-110170000D01*
X158800000Y-111420000D01*
G36*
X158800000Y-111420000D02*
G01*
X158400000Y-111420000D01*
X158400000Y-110170000D01*
X158800000Y-110170000D01*
X158800000Y-111420000D01*
G37*
X159300000Y-111420000D02*
X158900000Y-111420000D01*
X158900000Y-110170000D01*
X159300000Y-110170000D01*
X159300000Y-111420000D01*
G36*
X159300000Y-111420000D02*
G01*
X158900000Y-111420000D01*
X158900000Y-110170000D01*
X159300000Y-110170000D01*
X159300000Y-111420000D01*
G37*
X159800000Y-111420000D02*
X159400000Y-111420000D01*
X159400000Y-110170000D01*
X159800000Y-110170000D01*
X159800000Y-111420000D01*
G36*
X159800000Y-111420000D02*
G01*
X159400000Y-111420000D01*
X159400000Y-110170000D01*
X159800000Y-110170000D01*
X159800000Y-111420000D01*
G37*
X160300000Y-111420000D02*
X159900000Y-111420000D01*
X159900000Y-110170000D01*
X160300000Y-110170000D01*
X160300000Y-111420000D01*
G36*
X160300000Y-111420000D02*
G01*
X159900000Y-111420000D01*
X159900000Y-110170000D01*
X160300000Y-110170000D01*
X160300000Y-111420000D01*
G37*
X160800000Y-111420000D02*
X160400000Y-111420000D01*
X160400000Y-110170000D01*
X160800000Y-110170000D01*
X160800000Y-111420000D01*
G36*
X160800000Y-111420000D02*
G01*
X160400000Y-111420000D01*
X160400000Y-110170000D01*
X160800000Y-110170000D01*
X160800000Y-111420000D01*
G37*
X161600000Y-111420000D02*
X160900000Y-111420000D01*
X160900000Y-110170000D01*
X161600000Y-110170000D01*
X161600000Y-111420000D01*
G36*
X161600000Y-111420000D02*
G01*
X160900000Y-111420000D01*
X160900000Y-110170000D01*
X161600000Y-110170000D01*
X161600000Y-111420000D01*
G37*
X162400000Y-111420000D02*
X161700000Y-111420000D01*
X161700000Y-110170000D01*
X162400000Y-110170000D01*
X162400000Y-111420000D01*
G36*
X162400000Y-111420000D02*
G01*
X161700000Y-111420000D01*
X161700000Y-110170000D01*
X162400000Y-110170000D01*
X162400000Y-111420000D01*
G37*
%TD*%
D11*
%TO.C,C1*%
X150690000Y-109400000D03*
X151650000Y-109400000D03*
%TD*%
%TO.C,C9*%
X166240000Y-87500000D03*
X167200000Y-87500000D03*
%TD*%
D12*
%TO.C,J3*%
X170250000Y-81115000D03*
X170250000Y-83655000D03*
X170250000Y-86195000D03*
X170250000Y-88735000D03*
X170250000Y-91275000D03*
X170250000Y-93815000D03*
X170250000Y-96355000D03*
X170250000Y-98895000D03*
X170250000Y-101435000D03*
X170250000Y-103975000D03*
X170250000Y-106515000D03*
X170250000Y-109055000D03*
X170250000Y-111730012D03*
X170250000Y-114135000D03*
%TD*%
D13*
%TO.C,C5*%
X150100000Y-95350000D03*
X150100000Y-96310000D03*
%TD*%
D14*
%TO.C,R1*%
X155950000Y-106940000D03*
X155950000Y-107960000D03*
%TD*%
D12*
%TO.C,J2*%
X160785000Y-102745000D03*
X160785000Y-100205000D03*
X163325000Y-102745000D03*
X163325000Y-100205000D03*
X165865000Y-102745000D03*
X165865000Y-100205000D03*
%TD*%
D15*
%TO.C,D1*%
X163425000Y-82750000D03*
X165000000Y-82750000D03*
%TD*%
D16*
%TO.C,J1*%
X155960000Y-111870000D03*
X161740000Y-111870000D03*
D17*
X154530000Y-111370000D03*
X163170000Y-111370000D03*
D18*
X154530000Y-115550000D03*
X163170000Y-115550000D03*
%TD*%
D19*
%TO.C,R2*%
X161200000Y-108060000D03*
X161200000Y-107040000D03*
%TD*%
D11*
%TO.C,C3*%
X160890000Y-83150000D03*
X161850000Y-83150000D03*
%TD*%
D20*
%TO.C,FB1*%
X150675000Y-105850000D03*
X152975000Y-105850000D03*
%TD*%
D21*
%TO.C,F1*%
X152750000Y-107850000D03*
X150700000Y-107850000D03*
%TD*%
D22*
%TO.C,D3*%
X162702500Y-108847500D03*
X162702500Y-107272500D03*
%TD*%
D23*
%TO.C,R6*%
X152680000Y-83150000D03*
X153700000Y-83150000D03*
%TD*%
D14*
%TO.C,R5*%
X166200000Y-94500000D03*
X166200000Y-95520000D03*
%TD*%
D24*
%TO.C,U1*%
X153700000Y-96700000D03*
X154500000Y-96700000D03*
X155300000Y-96700000D03*
X156100000Y-96700000D03*
X156900000Y-96700000D03*
X157700000Y-96700000D03*
X158500000Y-96700000D03*
X159300000Y-96700000D03*
X160100000Y-96700000D03*
X160900000Y-96700000D03*
X161700000Y-96700000D03*
D25*
X163600000Y-94800000D03*
X163600000Y-94000000D03*
X163600000Y-93200000D03*
X163600000Y-92400000D03*
X163600000Y-91600000D03*
X163600000Y-90800000D03*
X163600000Y-90000000D03*
X163600000Y-89200000D03*
X163600000Y-88400000D03*
X163600000Y-87600000D03*
X163600000Y-86800000D03*
D24*
X161700000Y-84900000D03*
X160900000Y-84900000D03*
X160100000Y-84900000D03*
X159300000Y-84900000D03*
X158500000Y-84900000D03*
X157700000Y-84900000D03*
X156900000Y-84900000D03*
X156100000Y-84900000D03*
X155300000Y-84900000D03*
X154500000Y-84900000D03*
X153700000Y-84900000D03*
D25*
X151800000Y-86800000D03*
X151800000Y-87600000D03*
X151800000Y-88400000D03*
X151800000Y-89200000D03*
X151800000Y-90000000D03*
X151800000Y-90800000D03*
X151800000Y-91600000D03*
X151800000Y-92400000D03*
X151800000Y-93200000D03*
X151800000Y-94000000D03*
X151800000Y-94800000D03*
%TD*%
D26*
%TO.C,C10*%
X150100000Y-94200000D03*
X150100000Y-93240000D03*
%TD*%
D13*
%TO.C,C4*%
X150100000Y-86820000D03*
X150100000Y-87780000D03*
%TD*%
D27*
%TO.C,U2*%
X157900000Y-108375000D03*
X158850000Y-108375000D03*
X159800000Y-108375000D03*
X159800000Y-106100000D03*
X158850000Y-106100000D03*
X157900000Y-106100000D03*
%TD*%
D13*
%TO.C,C7*%
X157900000Y-98470000D03*
X157900000Y-99430000D03*
%TD*%
D28*
%TO.C,Y1*%
X165925000Y-89050000D03*
X165925000Y-91350000D03*
X167675000Y-91350000D03*
X167675000Y-89050000D03*
%TD*%
D13*
%TO.C,C13*%
X158900000Y-98470000D03*
X158900000Y-99430000D03*
%TD*%
D29*
%TO.C,D2*%
X154550000Y-105765000D03*
D30*
X154550000Y-106650000D03*
%TD*%
D19*
%TO.C,R7*%
X164052500Y-108020000D03*
X164052500Y-107000000D03*
%TD*%
%TO.C,R8*%
X166450000Y-84675000D03*
X166450000Y-83655000D03*
%TD*%
D31*
%TO.C,SW1*%
X166450000Y-110250000D03*
X166450000Y-106250000D03*
%TD*%
D19*
%TO.C,R3*%
X156200000Y-99500000D03*
X156200000Y-98480000D03*
%TD*%
D13*
%TO.C,C11*%
X158900000Y-100615000D03*
X158900000Y-101575000D03*
%TD*%
D11*
%TO.C,C12*%
X165290000Y-93200000D03*
X166250000Y-93200000D03*
%TD*%
D19*
%TO.C,R4*%
X155200000Y-99500000D03*
X155200000Y-98480000D03*
%TD*%
D12*
%TO.C,J4*%
X147750000Y-81115000D03*
X147750000Y-83655000D03*
X147750000Y-86195000D03*
X147750000Y-88735000D03*
X147750000Y-91275000D03*
X147750000Y-93815000D03*
X147750000Y-96355000D03*
X147750000Y-98895000D03*
X147750000Y-101435000D03*
X147750000Y-103975000D03*
X147750000Y-106515000D03*
X147750000Y-109055000D03*
X147750000Y-111730012D03*
X147750000Y-114135000D03*
%TD*%
D13*
%TO.C,C8*%
X167650000Y-92790000D03*
X167650000Y-93750000D03*
%TD*%
%TO.C,C6*%
X153225000Y-98490000D03*
X153225000Y-99450000D03*
%TD*%
M02*
