%TF.GenerationSoftware,KiCad,Pcbnew,9.0.4*%
%TF.CreationDate,2025-12-31T00:41:08-08:00*%
%TF.ProjectId,ATmega32u4_Dev,41546d65-6761-4333-9275-345f4465762e,rev?*%
%TF.SameCoordinates,Original*%
%TF.FileFunction,Copper,L1,Top*%
%TF.FilePolarity,Positive*%
%FSLAX46Y46*%
G04 Gerber Fmt 4.6, Leading zero omitted, Abs format (unit mm)*
G04 Created by KiCad (PCBNEW 9.0.4) date 2025-12-31 00:41:08*
%MOMM*%
%LPD*%
G01*
G04 APERTURE LIST*
G04 Aperture macros list*
%AMRoundRect*
0 Rectangle with rounded corners*
0 $1 Rounding radius*
0 $2 $3 $4 $5 $6 $7 $8 $9 X,Y pos of 4 corners*
0 Add a 4 corners polygon primitive as box body*
4,1,4,$2,$3,$4,$5,$6,$7,$8,$9,$2,$3,0*
0 Add four circle primitives for the rounded corners*
1,1,$1+$1,$2,$3*
1,1,$1+$1,$4,$5*
1,1,$1+$1,$6,$7*
1,1,$1+$1,$8,$9*
0 Add four rect primitives between the rounded corners*
20,1,$1+$1,$2,$3,$4,$5,0*
20,1,$1+$1,$4,$5,$6,$7,0*
20,1,$1+$1,$6,$7,$8,$9,0*
20,1,$1+$1,$8,$9,$2,$3,0*%
G04 Aperture macros list end*
%TA.AperFunction,SMDPad,CuDef*%
%ADD10RoundRect,0.140000X-0.140000X-0.170000X0.140000X-0.170000X0.140000X0.170000X-0.140000X0.170000X0*%
%TD*%
%TA.AperFunction,ComponentPad*%
%ADD11C,1.750000*%
%TD*%
%TA.AperFunction,SMDPad,CuDef*%
%ADD12RoundRect,0.140000X-0.170000X0.140000X-0.170000X-0.140000X0.170000X-0.140000X0.170000X0.140000X0*%
%TD*%
%TA.AperFunction,SMDPad,CuDef*%
%ADD13RoundRect,0.135000X-0.185000X0.135000X-0.185000X-0.135000X0.185000X-0.135000X0.185000X0.135000X0*%
%TD*%
%TA.AperFunction,SMDPad,CuDef*%
%ADD14RoundRect,0.218750X-0.218750X-0.256250X0.218750X-0.256250X0.218750X0.256250X-0.218750X0.256250X0*%
%TD*%
%TA.AperFunction,SMDPad,CuDef*%
%ADD15R,0.600000X1.150000*%
%TD*%
%TA.AperFunction,SMDPad,CuDef*%
%ADD16R,0.300000X1.150000*%
%TD*%
%TA.AperFunction,ComponentPad*%
%ADD17O,1.000000X2.100000*%
%TD*%
%TA.AperFunction,ComponentPad*%
%ADD18O,1.000000X1.800000*%
%TD*%
%TA.AperFunction,SMDPad,CuDef*%
%ADD19RoundRect,0.135000X0.185000X-0.135000X0.185000X0.135000X-0.185000X0.135000X-0.185000X-0.135000X0*%
%TD*%
%TA.AperFunction,SMDPad,CuDef*%
%ADD20RoundRect,0.250000X-0.275000X-0.350000X0.275000X-0.350000X0.275000X0.350000X-0.275000X0.350000X0*%
%TD*%
%TA.AperFunction,SMDPad,CuDef*%
%ADD21RoundRect,0.250000X0.325000X0.450000X-0.325000X0.450000X-0.325000X-0.450000X0.325000X-0.450000X0*%
%TD*%
%TA.AperFunction,SMDPad,CuDef*%
%ADD22RoundRect,0.218750X0.256250X-0.218750X0.256250X0.218750X-0.256250X0.218750X-0.256250X-0.218750X0*%
%TD*%
%TA.AperFunction,SMDPad,CuDef*%
%ADD23RoundRect,0.135000X-0.135000X-0.185000X0.135000X-0.185000X0.135000X0.185000X-0.135000X0.185000X0*%
%TD*%
%TA.AperFunction,SMDPad,CuDef*%
%ADD24R,0.500000X1.500000*%
%TD*%
%TA.AperFunction,SMDPad,CuDef*%
%ADD25R,1.500000X0.500000*%
%TD*%
%TA.AperFunction,SMDPad,CuDef*%
%ADD26RoundRect,0.140000X0.170000X-0.140000X0.170000X0.140000X-0.170000X0.140000X-0.170000X-0.140000X0*%
%TD*%
%TA.AperFunction,SMDPad,CuDef*%
%ADD27RoundRect,0.150000X0.150000X-0.512500X0.150000X0.512500X-0.150000X0.512500X-0.150000X-0.512500X0*%
%TD*%
%TA.AperFunction,SMDPad,CuDef*%
%ADD28R,1.050000X1.300000*%
%TD*%
%TA.AperFunction,SMDPad,CuDef*%
%ADD29RoundRect,0.075000X-0.275000X0.390000X-0.275000X-0.390000X0.275000X-0.390000X0.275000X0.390000X0*%
%TD*%
%TA.AperFunction,SMDPad,CuDef*%
%ADD30RoundRect,0.075000X-0.275000X0.075000X-0.275000X-0.075000X0.275000X-0.075000X0.275000X0.075000X0*%
%TD*%
%TA.AperFunction,SMDPad,CuDef*%
%ADD31RoundRect,0.300000X-0.700000X-0.700000X0.700000X-0.700000X0.700000X0.700000X-0.700000X0.700000X0*%
%TD*%
%TA.AperFunction,ViaPad*%
%ADD32C,0.600000*%
%TD*%
%TA.AperFunction,Conductor*%
%ADD33C,0.500000*%
%TD*%
%TA.AperFunction,Conductor*%
%ADD34C,0.400000*%
%TD*%
%TA.AperFunction,Conductor*%
%ADD35C,0.200000*%
%TD*%
%TA.AperFunction,Conductor*%
%ADD36C,0.300000*%
%TD*%
%TA.AperFunction,Conductor*%
%ADD37C,0.312500*%
%TD*%
%TA.AperFunction,Conductor*%
%ADD38C,0.275000*%
%TD*%
%TA.AperFunction,Conductor*%
%ADD39C,0.265000*%
%TD*%
G04 APERTURE END LIST*
D10*
%TO.P,C1,1*%
%TO.N,Net-(C1-Pad1)*%
X150690000Y-109400000D03*
%TO.P,C1,2*%
%TO.N,GND*%
X151650000Y-109400000D03*
%TD*%
%TO.P,C9,1*%
%TO.N,Xin*%
X166240000Y-87500000D03*
%TO.P,C9,2*%
%TO.N,GND*%
X167200000Y-87500000D03*
%TD*%
D11*
%TO.P,J3,1,Pin_1*%
%TO.N,/PD7*%
X170250000Y-81115000D03*
%TO.P,J3,2,Pin_2*%
%TO.N,/PD6*%
X170250000Y-83655000D03*
%TO.P,J3,3,Pin_3*%
%TO.N,/PD4*%
X170250000Y-86195000D03*
%TO.P,J3,4,Pin_4*%
%TO.N,/PD5*%
X170250000Y-88735000D03*
%TO.P,J3,5,Pin_5*%
%TO.N,/PD3*%
X170250000Y-91275000D03*
%TO.P,J3,6,Pin_6*%
%TO.N,/PD2*%
X170250000Y-93815000D03*
%TO.P,J3,7,Pin_7*%
%TO.N,/PD1*%
X170250000Y-96355000D03*
%TO.P,J3,8,Pin_8*%
%TO.N,/PD0*%
X170250000Y-98895000D03*
%TO.P,J3,9,Pin_9*%
%TO.N,/PB7*%
X170250000Y-101435000D03*
%TO.P,J3,10,Pin_10*%
%TO.N,/PB0*%
X170250000Y-103975000D03*
%TO.P,J3,11,Pin_11*%
%TO.N,MOSI*%
X170250000Y-106515000D03*
%TO.P,J3,12,Pin_12*%
%TO.N,SCL*%
X170250000Y-109055000D03*
%TO.P,J3,13,Pin_13*%
%TO.N,MISO*%
X170250000Y-111730012D03*
%TO.P,J3,14,Pin_14*%
%TO.N,Reset*%
X170250000Y-114135000D03*
%TD*%
D12*
%TO.P,C5,1*%
%TO.N,MCU_5V*%
X150100000Y-95350000D03*
%TO.P,C5,2*%
%TO.N,GND*%
X150100000Y-96310000D03*
%TD*%
D13*
%TO.P,R1,1*%
%TO.N,GND*%
X155950000Y-106940000D03*
%TO.P,R1,2*%
%TO.N,Net-(J1-CC1)*%
X155950000Y-107960000D03*
%TD*%
D11*
%TO.P,J2,1,Pin_1*%
%TO.N,MISO*%
X160785000Y-102745000D03*
%TO.P,J2,2,Pin_2*%
%TO.N,MCU_5V*%
X160785000Y-100205000D03*
%TO.P,J2,3,Pin_3*%
%TO.N,SCL*%
X163325000Y-102745000D03*
%TO.P,J2,4,Pin_4*%
%TO.N,MOSI*%
X163325000Y-100205000D03*
%TO.P,J2,5,Pin_5*%
%TO.N,Reset*%
X165865000Y-102745000D03*
%TO.P,J2,6,Pin_6*%
%TO.N,GND*%
X165865000Y-100205000D03*
%TD*%
D14*
%TO.P,D1,1,K*%
%TO.N,GND*%
X163425000Y-82750000D03*
%TO.P,D1,2,A*%
%TO.N,Net-(D1-A)*%
X165000000Y-82750000D03*
%TD*%
D15*
%TO.P,J1,A1_B12,GND*%
%TO.N,GND*%
X155650000Y-110795000D03*
%TO.P,J1,A4_B9,VBUS*%
%TO.N,/VBUS*%
X156450000Y-110795000D03*
D16*
%TO.P,J1,A5,CC1*%
%TO.N,Net-(J1-CC1)*%
X157600000Y-110795000D03*
%TO.P,J1,A6,DP1*%
%TO.N,Net-(J1-DP1)*%
X158600000Y-110795000D03*
%TO.P,J1,A7,DN1*%
%TO.N,Net-(J1-DN1)*%
X159100000Y-110795000D03*
%TO.P,J1,A8,SBU1*%
%TO.N,unconnected-(J1-SBU1-PadA8)*%
X160100000Y-110795000D03*
D15*
%TO.P,J1,B1_A12,GND*%
%TO.N,GND*%
X162050000Y-110795000D03*
%TO.P,J1,B4_A9,VBUS*%
%TO.N,/VBUS*%
X161250000Y-110795000D03*
D16*
%TO.P,J1,B5,CC2*%
%TO.N,Net-(J1-CC2)*%
X160600000Y-110795000D03*
%TO.P,J1,B6,DP2*%
%TO.N,Net-(J1-DP1)*%
X159600000Y-110795000D03*
%TO.P,J1,B7,DN2*%
%TO.N,Net-(J1-DN1)*%
X158100000Y-110795000D03*
%TO.P,J1,B8,SBU2*%
%TO.N,unconnected-(J1-SBU2-PadB8)*%
X157100000Y-110795000D03*
D17*
%TO.P,J1,SH1,SHELL_GND*%
%TO.N,GND*%
X154530000Y-111370000D03*
%TO.P,J1,SH2,SHELL_GND*%
X163170000Y-111370000D03*
D18*
%TO.P,J1,SH3,SHELL_GND*%
X154530000Y-115550000D03*
%TO.P,J1,SH4,SHELL_GND*%
X163170000Y-115550000D03*
%TD*%
D19*
%TO.P,R2,1*%
%TO.N,Net-(J1-CC2)*%
X161200000Y-108060000D03*
%TO.P,R2,2*%
%TO.N,GND*%
X161200000Y-107040000D03*
%TD*%
D10*
%TO.P,C3,1*%
%TO.N,MCU_5V*%
X160890000Y-83150000D03*
%TO.P,C3,2*%
%TO.N,GND*%
X161850000Y-83150000D03*
%TD*%
D20*
%TO.P,FB1,1*%
%TO.N,Net-(C1-Pad1)*%
X150675000Y-105850000D03*
%TO.P,FB1,2*%
%TO.N,MCU_5V*%
X152975000Y-105850000D03*
%TD*%
D21*
%TO.P,F1,1*%
%TO.N,/VBUS*%
X152750000Y-107850000D03*
%TO.P,F1,2*%
%TO.N,Net-(C1-Pad1)*%
X150700000Y-107850000D03*
%TD*%
D22*
%TO.P,D3,1,K*%
%TO.N,GND*%
X162702500Y-108847500D03*
%TO.P,D3,2,A*%
%TO.N,Net-(D3-A)*%
X162702500Y-107272500D03*
%TD*%
D23*
%TO.P,R6,1*%
%TO.N,GND*%
X152680000Y-83150000D03*
%TO.P,R6,2*%
%TO.N,Net-(U1-~{HWB}{slash}PE2)*%
X153700000Y-83150000D03*
%TD*%
D13*
%TO.P,R5,1*%
%TO.N,MCU_5V*%
X166200000Y-94500000D03*
%TO.P,R5,2*%
%TO.N,Reset*%
X166200000Y-95520000D03*
%TD*%
D24*
%TO.P,U1,1,PE6*%
%TO.N,/PE6*%
X153700000Y-96700000D03*
%TO.P,U1,2,UVCC*%
%TO.N,MCU_5V*%
X154500000Y-96700000D03*
%TO.P,U1,3,D-*%
%TO.N,Net-(U1-D-)*%
X155300000Y-96700000D03*
%TO.P,U1,4,D+*%
%TO.N,Net-(U1-D+)*%
X156100000Y-96700000D03*
%TO.P,U1,5,UGND*%
%TO.N,GND*%
X156900000Y-96700000D03*
%TO.P,U1,6,UCAP*%
%TO.N,Net-(U1-UCAP)*%
X157700000Y-96700000D03*
%TO.P,U1,7,VBUS*%
%TO.N,MCU_5V*%
X158500000Y-96700000D03*
%TO.P,U1,8,PB0*%
%TO.N,/PB0*%
X159300000Y-96700000D03*
%TO.P,U1,9,PB1*%
%TO.N,SCL*%
X160100000Y-96700000D03*
%TO.P,U1,10,PB2*%
%TO.N,MOSI*%
X160900000Y-96700000D03*
%TO.P,U1,11,PB3*%
%TO.N,MISO*%
X161700000Y-96700000D03*
D25*
%TO.P,U1,12,PB7*%
%TO.N,/PB7*%
X163600000Y-94800000D03*
%TO.P,U1,13,~{RESET}*%
%TO.N,Reset*%
X163600000Y-94000000D03*
%TO.P,U1,14,VCC*%
%TO.N,MCU_5V*%
X163600000Y-93200000D03*
%TO.P,U1,15,GND*%
%TO.N,GND*%
X163600000Y-92400000D03*
%TO.P,U1,16,XTAL2*%
%TO.N,Xout*%
X163600000Y-91600000D03*
%TO.P,U1,17,XTAL1*%
%TO.N,Xin*%
X163600000Y-90800000D03*
%TO.P,U1,18,PD0*%
%TO.N,/PD0*%
X163600000Y-90000000D03*
%TO.P,U1,19,PD1*%
%TO.N,/PD1*%
X163600000Y-89200000D03*
%TO.P,U1,20,PD2*%
%TO.N,/PD2*%
X163600000Y-88400000D03*
%TO.P,U1,21,PD3*%
%TO.N,/PD3*%
X163600000Y-87600000D03*
%TO.P,U1,22,PD5*%
%TO.N,/PD5*%
X163600000Y-86800000D03*
D24*
%TO.P,U1,23,GND*%
%TO.N,GND*%
X161700000Y-84900000D03*
%TO.P,U1,24,AVCC*%
%TO.N,MCU_5V*%
X160900000Y-84900000D03*
%TO.P,U1,25,PD4*%
%TO.N,/PD4*%
X160100000Y-84900000D03*
%TO.P,U1,26,PD6*%
%TO.N,/PD6*%
X159300000Y-84900000D03*
%TO.P,U1,27,PD7*%
%TO.N,/PD7*%
X158500000Y-84900000D03*
%TO.P,U1,28,PB4*%
%TO.N,/PB4*%
X157700000Y-84900000D03*
%TO.P,U1,29,PB5*%
%TO.N,/PB5*%
X156900000Y-84900000D03*
%TO.P,U1,30,PB6*%
%TO.N,/PB6*%
X156100000Y-84900000D03*
%TO.P,U1,31,PC6*%
%TO.N,/PC6*%
X155300000Y-84900000D03*
%TO.P,U1,32,PC7*%
%TO.N,/PC7*%
X154500000Y-84900000D03*
%TO.P,U1,33,~{HWB}/PE2*%
%TO.N,Net-(U1-~{HWB}{slash}PE2)*%
X153700000Y-84900000D03*
D25*
%TO.P,U1,34,VCC*%
%TO.N,MCU_5V*%
X151800000Y-86800000D03*
%TO.P,U1,35,GND*%
%TO.N,GND*%
X151800000Y-87600000D03*
%TO.P,U1,36,PF7*%
%TO.N,/PF7*%
X151800000Y-88400000D03*
%TO.P,U1,37,PF6*%
%TO.N,/PF6*%
X151800000Y-89200000D03*
%TO.P,U1,38,PF5*%
%TO.N,/PF5*%
X151800000Y-90000000D03*
%TO.P,U1,39,PF4*%
%TO.N,/PF4*%
X151800000Y-90800000D03*
%TO.P,U1,40,PF1*%
%TO.N,/PF1*%
X151800000Y-91600000D03*
%TO.P,U1,41,PF0*%
%TO.N,/PF0*%
X151800000Y-92400000D03*
%TO.P,U1,42,AREF*%
%TO.N,Net-(U1-AREF)*%
X151800000Y-93200000D03*
%TO.P,U1,43,GND*%
%TO.N,GND*%
X151800000Y-94000000D03*
%TO.P,U1,44,AVCC*%
%TO.N,MCU_5V*%
X151800000Y-94800000D03*
%TD*%
D26*
%TO.P,C10,1*%
%TO.N,GND*%
X150100000Y-94200000D03*
%TO.P,C10,2*%
%TO.N,Net-(U1-AREF)*%
X150100000Y-93240000D03*
%TD*%
D12*
%TO.P,C4,1*%
%TO.N,MCU_5V*%
X150100000Y-86820000D03*
%TO.P,C4,2*%
%TO.N,GND*%
X150100000Y-87780000D03*
%TD*%
D27*
%TO.P,U2,1,I/O1*%
%TO.N,Net-(J1-DN1)*%
X157900000Y-108375000D03*
%TO.P,U2,2,GND*%
%TO.N,GND*%
X158850000Y-108375000D03*
%TO.P,U2,3,I/O2*%
%TO.N,Net-(J1-DP1)*%
X159800000Y-108375000D03*
%TO.P,U2,4,I/O2*%
%TO.N,/USB_P*%
X159800000Y-106100000D03*
%TO.P,U2,5,VBUS*%
%TO.N,MCU_5V*%
X158850000Y-106100000D03*
%TO.P,U2,6,I/O1*%
%TO.N,/USB_N*%
X157900000Y-106100000D03*
%TD*%
D12*
%TO.P,C7,1*%
%TO.N,Net-(U1-UCAP)*%
X157900000Y-98470000D03*
%TO.P,C7,2*%
%TO.N,GND*%
X157900000Y-99430000D03*
%TD*%
D28*
%TO.P,Y1,1*%
%TO.N,Xin*%
X165925000Y-89050000D03*
%TO.P,Y1,2,GND*%
%TO.N,GND*%
X165925000Y-91350000D03*
%TO.P,Y1,3*%
%TO.N,Xout*%
X167675000Y-91350000D03*
%TO.P,Y1,4,GND*%
%TO.N,GND*%
X167675000Y-89050000D03*
%TD*%
D12*
%TO.P,C13,1*%
%TO.N,MCU_5V*%
X158900000Y-98470000D03*
%TO.P,C13,2*%
%TO.N,GND*%
X158900000Y-99430000D03*
%TD*%
D29*
%TO.P,D2,1,K*%
%TO.N,MCU_5V*%
X154550000Y-105765000D03*
D30*
%TO.P,D2,2,A*%
%TO.N,GND*%
X154550000Y-106650000D03*
%TD*%
D19*
%TO.P,R7,1*%
%TO.N,MCU_5V*%
X164052500Y-108020000D03*
%TO.P,R7,2*%
%TO.N,Net-(D3-A)*%
X164052500Y-107000000D03*
%TD*%
%TO.P,R8,1*%
%TO.N,/PC7*%
X166450000Y-84675000D03*
%TO.P,R8,2*%
%TO.N,Net-(D1-A)*%
X166450000Y-83655000D03*
%TD*%
D31*
%TO.P,SW1,1,1*%
%TO.N,GND*%
X166450000Y-110250000D03*
%TO.P,SW1,2,2*%
%TO.N,Reset*%
X166450000Y-106250000D03*
%TD*%
D19*
%TO.P,R3,1*%
%TO.N,/USB_P*%
X156200000Y-99500000D03*
%TO.P,R3,2*%
%TO.N,Net-(U1-D+)*%
X156200000Y-98480000D03*
%TD*%
D12*
%TO.P,C11,1*%
%TO.N,MCU_5V*%
X158900000Y-100615000D03*
%TO.P,C11,2*%
%TO.N,GND*%
X158900000Y-101575000D03*
%TD*%
D10*
%TO.P,C12,1*%
%TO.N,MCU_5V*%
X165290000Y-93200000D03*
%TO.P,C12,2*%
%TO.N,GND*%
X166250000Y-93200000D03*
%TD*%
D19*
%TO.P,R4,1*%
%TO.N,/USB_N*%
X155200000Y-99500000D03*
%TO.P,R4,2*%
%TO.N,Net-(U1-D-)*%
X155200000Y-98480000D03*
%TD*%
D11*
%TO.P,J4,1,Pin_1*%
%TO.N,/PB4*%
X147750000Y-81115000D03*
%TO.P,J4,2,Pin_2*%
%TO.N,/PB5*%
X147750000Y-83655000D03*
%TO.P,J4,3,Pin_3*%
%TO.N,/PB6*%
X147750000Y-86195000D03*
%TO.P,J4,4,Pin_4*%
%TO.N,/PC6*%
X147750000Y-88735000D03*
%TO.P,J4,5,Pin_5*%
%TO.N,GND*%
X147750000Y-91275000D03*
%TO.P,J4,6,Pin_6*%
%TO.N,/PF7*%
X147750000Y-93815000D03*
%TO.P,J4,7,Pin_7*%
%TO.N,/PF6*%
X147750000Y-96355000D03*
%TO.P,J4,8,Pin_8*%
%TO.N,/PF0*%
X147750000Y-98895000D03*
%TO.P,J4,9,Pin_9*%
%TO.N,/PF1*%
X147750000Y-101435000D03*
%TO.P,J4,10,Pin_10*%
%TO.N,/PF4*%
X147750000Y-103975000D03*
%TO.P,J4,11,Pin_11*%
%TO.N,/PF5*%
X147750000Y-106515000D03*
%TO.P,J4,12,Pin_12*%
%TO.N,/PE6*%
X147750000Y-109055000D03*
%TO.P,J4,13,Pin_13*%
%TO.N,MCU_5V*%
X147750000Y-111730012D03*
%TO.P,J4,14,Pin_14*%
%TO.N,GND*%
X147750000Y-114135000D03*
%TD*%
D12*
%TO.P,C8,1*%
%TO.N,Xout*%
X167650000Y-92790000D03*
%TO.P,C8,2*%
%TO.N,GND*%
X167650000Y-93750000D03*
%TD*%
%TO.P,C6,1*%
%TO.N,MCU_5V*%
X153225000Y-98490000D03*
%TO.P,C6,2*%
%TO.N,GND*%
X153225000Y-99450000D03*
%TD*%
D32*
%TO.N,GND*%
X164175000Y-104850000D03*
X156900000Y-96700000D03*
X161850000Y-83150000D03*
X152680000Y-83150000D03*
X167775000Y-80100000D03*
X151800000Y-87600000D03*
X160675000Y-87975000D03*
X151800000Y-94000000D03*
X158900000Y-101575000D03*
X153550000Y-81850000D03*
X155000000Y-107550000D03*
X149975000Y-80050000D03*
X166250000Y-93200000D03*
X166400000Y-113875000D03*
X158250000Y-79375000D03*
X155650000Y-110795000D03*
X153225000Y-99450000D03*
X160675000Y-93250000D03*
X167200000Y-81625000D03*
X150100000Y-96310000D03*
X158850000Y-108650000D03*
X151300000Y-113875000D03*
X167675000Y-89050000D03*
X167200000Y-87500000D03*
X162702500Y-108847500D03*
X155725000Y-93250000D03*
X155950000Y-106940000D03*
X155725000Y-87975000D03*
X157900000Y-99430000D03*
X151650000Y-109400000D03*
X163425000Y-82750000D03*
X162050000Y-110795000D03*
X150100000Y-94200000D03*
X161700000Y-84900000D03*
X163600000Y-92400000D03*
X167650000Y-93750000D03*
X150100000Y-87780000D03*
X154050000Y-103050000D03*
X158900000Y-99430000D03*
X165925000Y-91350000D03*
X161200000Y-107040000D03*
X150700000Y-81725000D03*
X166450000Y-110250000D03*
%TO.N,MCU_5V*%
X158850000Y-106100000D03*
X150100000Y-86820000D03*
X158900000Y-98470000D03*
X160900000Y-83160000D03*
X153225000Y-98490000D03*
X158900000Y-100615000D03*
X150100000Y-95350000D03*
X164052500Y-108020000D03*
X165300000Y-93200000D03*
X154550000Y-105765000D03*
%TO.N,/VBUS*%
X156450000Y-110795000D03*
X161250000Y-110795000D03*
%TO.N,/PD2*%
X163600000Y-88400000D03*
%TO.N,/PB7*%
X163600000Y-94800000D03*
%TO.N,/PD0*%
X163600000Y-90000000D03*
%TO.N,/PB0*%
X159300000Y-96700000D03*
%TO.N,/PD3*%
X163600000Y-87600000D03*
%TO.N,/PC7*%
X154500000Y-84900000D03*
X166450000Y-84675000D03*
%TO.N,/PD1*%
X163600000Y-89200000D03*
%TO.N,/PF4*%
X151800000Y-90800000D03*
%TO.N,/PF5*%
X151800000Y-90000000D03*
%TO.N,/PD5*%
X163600000Y-86800000D03*
%TO.N,/PF7*%
X151800000Y-88400000D03*
%TO.N,/PF6*%
X151800000Y-89200000D03*
%TO.N,/PF1*%
X151800000Y-91600000D03*
%TO.N,/PF0*%
X151800000Y-92400000D03*
%TD*%
D33*
%TO.N,GND*%
X155650000Y-110795000D02*
X155105000Y-110795000D01*
D34*
X155000000Y-107550000D02*
X155000000Y-107400000D01*
D33*
X162595000Y-110795000D02*
X163170000Y-111370000D01*
D34*
X154550000Y-106950000D02*
X154550000Y-106650000D01*
X155000000Y-107400000D02*
X154550000Y-106950000D01*
D33*
X155105000Y-110795000D02*
X154530000Y-111370000D01*
X162050000Y-110795000D02*
X162595000Y-110795000D01*
%TO.N,Net-(C1-Pad1)*%
X150690000Y-107860000D02*
X150700000Y-107850000D01*
X150690000Y-109400000D02*
X150690000Y-107860000D01*
D35*
X150700000Y-105875000D02*
X150675000Y-105850000D01*
D33*
X150700000Y-107850000D02*
X150700000Y-105875000D01*
D36*
%TO.N,MCU_5V*%
X166025000Y-93850000D02*
X165500000Y-93850000D01*
D33*
X165300000Y-93200000D02*
X163600000Y-93200000D01*
X154500000Y-97375000D02*
X154500000Y-96700000D01*
X150100000Y-86820000D02*
X151780000Y-86820000D01*
D36*
X165500000Y-93850000D02*
X165290000Y-93640000D01*
D33*
X151780000Y-86820000D02*
X151800000Y-86800000D01*
X152975000Y-105850000D02*
X154465000Y-105850000D01*
D36*
X166200000Y-94025000D02*
X166025000Y-93850000D01*
D33*
X158500000Y-96700000D02*
X158500000Y-98070000D01*
X153225000Y-98490000D02*
X153385000Y-98490000D01*
D36*
X166200000Y-94500000D02*
X166200000Y-94025000D01*
X165290000Y-93640000D02*
X165290000Y-93200000D01*
D33*
X154465000Y-105850000D02*
X154550000Y-105765000D01*
X151250000Y-95350000D02*
X151800000Y-94800000D01*
X160900000Y-83160000D02*
X160900000Y-84900000D01*
X150100000Y-95350000D02*
X151250000Y-95350000D01*
X158500000Y-98070000D02*
X158900000Y-98470000D01*
X153385000Y-98490000D02*
X154500000Y-97375000D01*
D34*
%TO.N,Net-(U1-UCAP)*%
X157675000Y-96725000D02*
X157700000Y-96700000D01*
D33*
X157700000Y-98270000D02*
X157900000Y-98470000D01*
X157700000Y-96700000D02*
X157700000Y-98270000D01*
D35*
%TO.N,Xin*%
X164573000Y-90800000D02*
X165800000Y-89573000D01*
X166240000Y-88735000D02*
X165925000Y-89050000D01*
X163600000Y-90800000D02*
X164573000Y-90800000D01*
X165800000Y-89573000D02*
X165800000Y-89050000D01*
X166240000Y-87500000D02*
X166240000Y-88735000D01*
%TO.N,Xout*%
X167650000Y-91375000D02*
X167675000Y-91350000D01*
X166724000Y-92301000D02*
X167675000Y-91350000D01*
X163600000Y-91600000D02*
X164550000Y-91600000D01*
X165251000Y-92301000D02*
X166724000Y-92301000D01*
X164550000Y-91600000D02*
X165251000Y-92301000D01*
X167650000Y-92790000D02*
X167650000Y-91375000D01*
D33*
%TO.N,Net-(U1-AREF)*%
X150150000Y-93240000D02*
X151760000Y-93240000D01*
X151760000Y-93240000D02*
X151800000Y-93200000D01*
D35*
%TO.N,Net-(D3-A)*%
X162975000Y-107000000D02*
X162702500Y-107272500D01*
D36*
X164052500Y-107000000D02*
X162975000Y-107000000D01*
D33*
%TO.N,/VBUS*%
X155380000Y-108950000D02*
X154600000Y-108950000D01*
X156450000Y-110795000D02*
X156450000Y-110020000D01*
X154600000Y-108950000D02*
X153500000Y-107850000D01*
X153500000Y-107850000D02*
X152750000Y-107850000D01*
X156450000Y-110020000D02*
X155380000Y-108950000D01*
D35*
%TO.N,Net-(J1-CC1)*%
X157600000Y-110795000D02*
X157600000Y-110133550D01*
X155950000Y-108740768D02*
X155950000Y-107960000D01*
X157600000Y-110133550D02*
X157166450Y-109700000D01*
X156909232Y-109700000D02*
X155950000Y-108740768D01*
X157166450Y-109700000D02*
X156909232Y-109700000D01*
%TO.N,Net-(J1-CC2)*%
X160600000Y-109000000D02*
X161200000Y-108400000D01*
X160600000Y-110795000D02*
X160600000Y-109000000D01*
X161200000Y-108400000D02*
X161200000Y-108060000D01*
%TO.N,SCL*%
X160100000Y-96700000D02*
X160100000Y-97650000D01*
X162075000Y-101495000D02*
X163325000Y-102745000D01*
X162075000Y-99625000D02*
X162075000Y-101495000D01*
X160100000Y-97650000D02*
X162075000Y-99625000D01*
%TO.N,MOSI*%
X160900000Y-96700000D02*
X160900000Y-97375000D01*
X160900000Y-97375000D02*
X163325000Y-99800000D01*
X163325000Y-99800000D02*
X163325000Y-100205000D01*
%TO.N,/PB4*%
X157700000Y-80525000D02*
X156300000Y-79125000D01*
X156300000Y-79125000D02*
X149740000Y-79125000D01*
X157700000Y-84900000D02*
X157700000Y-80525000D01*
X149740000Y-79125000D02*
X147750000Y-81115000D01*
%TO.N,/PB5*%
X156900000Y-84900000D02*
X156900000Y-81450000D01*
X151205000Y-80200000D02*
X147750000Y-83655000D01*
X156900000Y-81450000D02*
X155650000Y-80200000D01*
X155650000Y-80200000D02*
X151205000Y-80200000D01*
%TO.N,/PB6*%
X156100000Y-82450000D02*
X154900000Y-81250000D01*
X156100000Y-84900000D02*
X156100000Y-82450000D01*
X147750000Y-85682900D02*
X147750000Y-86195000D01*
X154900000Y-81250000D02*
X152182900Y-81250000D01*
X152182900Y-81250000D02*
X147750000Y-85682900D01*
%TO.N,MISO*%
X164600000Y-103500000D02*
X163825000Y-104275000D01*
X160785000Y-103760000D02*
X160785000Y-102745000D01*
X161300000Y-104275000D02*
X160785000Y-103760000D01*
X161700000Y-96700000D02*
X164600000Y-99600000D01*
X163825000Y-104275000D02*
X161300000Y-104275000D01*
X164600000Y-99600000D02*
X164600000Y-103500000D01*
%TO.N,/PC6*%
X151825000Y-82450000D02*
X149275000Y-85000000D01*
X149275000Y-85000000D02*
X149275000Y-87210000D01*
X155300000Y-83000000D02*
X154750000Y-82450000D01*
X149275000Y-87210000D02*
X147750000Y-88735000D01*
X154750000Y-82450000D02*
X151825000Y-82450000D01*
X155300000Y-84900000D02*
X155300000Y-83000000D01*
%TO.N,/PE6*%
X153700000Y-96700000D02*
X149625000Y-100775000D01*
X149625000Y-100775000D02*
X149625000Y-107180000D01*
X149625000Y-107180000D02*
X147750000Y-109055000D01*
%TO.N,/PD4*%
X160100000Y-84900000D02*
X160100000Y-82575000D01*
X165784576Y-81100000D02*
X170250000Y-85565424D01*
X161575000Y-81100000D02*
X165784576Y-81100000D01*
X170250000Y-85565424D02*
X170250000Y-86195000D01*
X160100000Y-82575000D02*
X161575000Y-81100000D01*
%TO.N,/PD7*%
X158500000Y-80750000D02*
X160300000Y-78950000D01*
X167600000Y-78950000D02*
X169765000Y-81115000D01*
X169765000Y-81115000D02*
X170250000Y-81115000D01*
X160300000Y-78950000D02*
X167600000Y-78950000D01*
X158500000Y-84900000D02*
X158500000Y-80750000D01*
%TO.N,/PD6*%
X159300000Y-81650000D02*
X160925000Y-80025000D01*
X166620000Y-80025000D02*
X170250000Y-83655000D01*
X159300000Y-84900000D02*
X159300000Y-81650000D01*
X160925000Y-80025000D02*
X166620000Y-80025000D01*
D36*
%TO.N,Reset*%
X168475000Y-101600000D02*
X168475000Y-101700000D01*
X168475000Y-105750000D02*
X168475000Y-113250000D01*
X166475000Y-107325000D02*
X166900000Y-107325000D01*
X168475000Y-101700000D02*
X168475000Y-105750000D01*
X166200000Y-95520000D02*
X168475000Y-97795000D01*
X167430000Y-102745000D02*
X168475000Y-101700000D01*
X166875000Y-106250000D02*
X168450000Y-104675000D01*
X163600000Y-94000000D02*
X164680000Y-94000000D01*
X164680000Y-94000000D02*
X166200000Y-95520000D01*
X168475000Y-97795000D02*
X168475000Y-101600000D01*
X165865000Y-102745000D02*
X167430000Y-102745000D01*
X168475000Y-113250000D02*
X169360000Y-114135000D01*
X169360000Y-114135000D02*
X170250000Y-114135000D01*
D35*
%TO.N,Net-(U1-D+)*%
X156100000Y-98380000D02*
X156200000Y-98480000D01*
D37*
X156100000Y-96700000D02*
X156100000Y-98380000D01*
D35*
%TO.N,Net-(U1-D-)*%
X155300000Y-98380000D02*
X155200000Y-98480000D01*
D37*
X155300000Y-96700000D02*
X155300000Y-98380000D01*
D33*
%TO.N,Net-(U1-~{HWB}{slash}PE2)*%
X153700000Y-84900000D02*
X153700000Y-83200000D01*
D38*
%TO.N,Net-(J1-DP1)*%
X159600000Y-109968000D02*
X159800000Y-109768000D01*
X159432000Y-109800000D02*
X159600000Y-109968000D01*
X158768000Y-109800000D02*
X159432000Y-109800000D01*
X159800000Y-109768000D02*
X159800000Y-108650000D01*
X159600000Y-109968000D02*
X159600000Y-110795000D01*
X158600000Y-109968000D02*
X158768000Y-109800000D01*
X158600000Y-110795000D02*
X158600000Y-109968000D01*
%TO.N,Net-(J1-DN1)*%
X158328000Y-111850000D02*
X158149000Y-111671000D01*
D39*
X158100000Y-111622000D02*
X158100000Y-110795000D01*
D38*
X158100000Y-110795000D02*
X158100000Y-109800000D01*
D39*
X159100000Y-110795000D02*
X159100000Y-111600000D01*
D38*
X158100000Y-109800000D02*
X157900000Y-109600000D01*
D39*
X158149000Y-111671000D02*
X158100000Y-111622000D01*
D38*
X158850000Y-111850000D02*
X158328000Y-111850000D01*
X159029000Y-111671000D02*
X158850000Y-111850000D01*
X157900000Y-109600000D02*
X157900000Y-108650000D01*
D39*
X159100000Y-111600000D02*
X159029000Y-111671000D01*
D35*
X158100000Y-108900000D02*
X157850000Y-108650000D01*
D37*
%TO.N,/USB_P*%
X155931250Y-100629212D02*
X155931250Y-100248751D01*
X159800000Y-106100000D02*
X159800000Y-105106249D01*
X159800000Y-105106249D02*
X159081250Y-104387499D01*
X159081250Y-103779212D02*
X155931250Y-100629212D01*
X155931250Y-100248751D02*
X156200000Y-99980001D01*
X159081250Y-104387499D02*
X159081250Y-103779212D01*
X156200000Y-99980001D02*
X156200000Y-99500000D01*
%TO.N,/USB_N*%
X155200000Y-99980001D02*
X155200000Y-99500000D01*
X158618750Y-103970788D02*
X155468750Y-100820788D01*
X155468750Y-100820788D02*
X155468750Y-100248751D01*
X157900000Y-106100000D02*
X157900000Y-105106249D01*
X157900000Y-105106249D02*
X158618750Y-104387499D01*
X158618750Y-104387499D02*
X158618750Y-103970788D01*
X155468750Y-100248751D02*
X155200000Y-99980001D01*
D36*
%TO.N,Net-(D1-A)*%
X165545000Y-82750000D02*
X166450000Y-83655000D01*
X165000000Y-82750000D02*
X165545000Y-82750000D01*
%TD*%
%TA.AperFunction,Conductor*%
%TO.N,GND*%
G36*
X165634360Y-81520185D02*
G01*
X165655002Y-81536819D01*
X169362705Y-85244522D01*
X169396190Y-85305845D01*
X169391206Y-85375537D01*
X169362712Y-85419877D01*
X169353387Y-85429202D01*
X169353383Y-85429207D01*
X169244622Y-85578903D01*
X169160620Y-85743764D01*
X169160619Y-85743767D01*
X169103445Y-85919734D01*
X169074500Y-86102486D01*
X169074500Y-86287513D01*
X169103445Y-86470265D01*
X169160619Y-86646232D01*
X169160620Y-86646235D01*
X169244622Y-86811096D01*
X169353379Y-86960787D01*
X169484213Y-87091621D01*
X169633904Y-87200378D01*
X169698609Y-87233347D01*
X169798764Y-87284379D01*
X169798767Y-87284380D01*
X169878391Y-87310251D01*
X169974736Y-87341555D01*
X169979798Y-87342356D01*
X169980872Y-87342527D01*
X170044007Y-87372456D01*
X170080938Y-87431768D01*
X170079940Y-87501630D01*
X170041330Y-87559863D01*
X169980872Y-87587473D01*
X169974734Y-87588445D01*
X169798767Y-87645619D01*
X169798764Y-87645620D01*
X169633903Y-87729622D01*
X169549141Y-87791206D01*
X169484213Y-87838379D01*
X169484211Y-87838381D01*
X169484210Y-87838381D01*
X169353381Y-87969210D01*
X169353381Y-87969211D01*
X169353379Y-87969213D01*
X169344955Y-87980808D01*
X169244622Y-88118903D01*
X169160620Y-88283764D01*
X169160619Y-88283767D01*
X169103445Y-88459734D01*
X169074500Y-88642486D01*
X169074500Y-88827514D01*
X169082815Y-88880012D01*
X169103445Y-89010265D01*
X169160619Y-89186232D01*
X169160620Y-89186235D01*
X169208557Y-89280315D01*
X169244622Y-89351096D01*
X169353379Y-89500787D01*
X169484213Y-89631621D01*
X169633904Y-89740378D01*
X169692023Y-89769991D01*
X169798764Y-89824379D01*
X169798767Y-89824380D01*
X169886750Y-89852967D01*
X169974736Y-89881555D01*
X169979798Y-89882356D01*
X169980872Y-89882527D01*
X170044007Y-89912456D01*
X170080938Y-89971768D01*
X170079940Y-90041630D01*
X170041330Y-90099863D01*
X169980872Y-90127473D01*
X169974734Y-90128445D01*
X169798767Y-90185619D01*
X169798764Y-90185620D01*
X169633903Y-90269622D01*
X169548499Y-90331672D01*
X169484213Y-90378379D01*
X169484211Y-90378381D01*
X169484210Y-90378381D01*
X169353381Y-90509210D01*
X169353381Y-90509211D01*
X169353379Y-90509213D01*
X169320591Y-90554342D01*
X169244622Y-90658903D01*
X169160620Y-90823764D01*
X169160619Y-90823767D01*
X169103445Y-90999734D01*
X169074500Y-91182486D01*
X169074500Y-91367513D01*
X169103445Y-91550265D01*
X169160619Y-91726232D01*
X169160620Y-91726235D01*
X169244622Y-91891096D01*
X169353379Y-92040787D01*
X169484213Y-92171621D01*
X169633904Y-92280378D01*
X169667675Y-92297585D01*
X169798764Y-92364379D01*
X169798767Y-92364380D01*
X169882112Y-92391460D01*
X169974736Y-92421555D01*
X169979798Y-92422356D01*
X169980872Y-92422527D01*
X170044007Y-92452456D01*
X170080938Y-92511768D01*
X170079940Y-92581630D01*
X170041330Y-92639863D01*
X169980872Y-92667473D01*
X169974734Y-92668445D01*
X169798767Y-92725619D01*
X169798764Y-92725620D01*
X169633903Y-92809622D01*
X169548499Y-92871672D01*
X169484213Y-92918379D01*
X169484211Y-92918381D01*
X169484210Y-92918381D01*
X169353381Y-93049210D01*
X169353381Y-93049211D01*
X169353379Y-93049213D01*
X169339469Y-93068359D01*
X169244622Y-93198903D01*
X169160620Y-93363764D01*
X169160619Y-93363767D01*
X169103445Y-93539734D01*
X169083665Y-93664619D01*
X169074500Y-93722486D01*
X169074500Y-93907514D01*
X169081229Y-93950000D01*
X169103445Y-94090265D01*
X169160619Y-94266232D01*
X169160620Y-94266235D01*
X169228778Y-94400000D01*
X169244622Y-94431096D01*
X169353379Y-94580787D01*
X169484213Y-94711621D01*
X169633904Y-94820378D01*
X169673969Y-94840792D01*
X169798764Y-94904379D01*
X169798767Y-94904380D01*
X169886750Y-94932967D01*
X169974736Y-94961555D01*
X169979798Y-94962356D01*
X169980872Y-94962527D01*
X170044007Y-94992456D01*
X170080938Y-95051768D01*
X170079940Y-95121630D01*
X170041330Y-95179863D01*
X169980872Y-95207473D01*
X169974734Y-95208445D01*
X169798767Y-95265619D01*
X169798764Y-95265620D01*
X169633903Y-95349622D01*
X169548499Y-95411672D01*
X169484213Y-95458379D01*
X169484211Y-95458381D01*
X169484210Y-95458381D01*
X169353381Y-95589210D01*
X169353381Y-95589211D01*
X169353379Y-95589213D01*
X169350765Y-95592811D01*
X169244622Y-95738903D01*
X169160620Y-95903764D01*
X169160619Y-95903767D01*
X169103445Y-96079734D01*
X169074500Y-96262486D01*
X169074500Y-96447513D01*
X169103445Y-96630265D01*
X169160619Y-96806232D01*
X169160620Y-96806235D01*
X169238823Y-96959714D01*
X169244622Y-96971096D01*
X169353379Y-97120787D01*
X169484213Y-97251621D01*
X169633904Y-97360378D01*
X169714763Y-97401577D01*
X169798764Y-97444379D01*
X169798767Y-97444380D01*
X169886750Y-97472967D01*
X169974736Y-97501555D01*
X169979798Y-97502356D01*
X169980872Y-97502527D01*
X170044007Y-97532456D01*
X170080938Y-97591768D01*
X170079940Y-97661630D01*
X170041330Y-97719863D01*
X169980872Y-97747473D01*
X169974734Y-97748445D01*
X169798767Y-97805619D01*
X169798764Y-97805620D01*
X169633903Y-97889622D01*
X169559464Y-97943706D01*
X169484213Y-97998379D01*
X169484211Y-97998381D01*
X169484210Y-97998381D01*
X169353381Y-98129210D01*
X169353381Y-98129211D01*
X169353379Y-98129213D01*
X169346119Y-98139206D01*
X169244622Y-98278903D01*
X169159985Y-98445012D01*
X169112010Y-98495808D01*
X169044189Y-98512603D01*
X168978054Y-98490065D01*
X168934603Y-98435350D01*
X168925500Y-98388717D01*
X168925500Y-97735692D01*
X168920637Y-97717545D01*
X168901286Y-97645326D01*
X168901286Y-97645325D01*
X168901286Y-97645324D01*
X168898042Y-97633219D01*
X168894799Y-97621113D01*
X168835490Y-97518386D01*
X167832800Y-96515696D01*
X166856818Y-95539714D01*
X166823333Y-95478391D01*
X166820499Y-95452033D01*
X166820499Y-95332545D01*
X166817741Y-95303125D01*
X166817741Y-95303121D01*
X166817420Y-95302205D01*
X166789623Y-95222764D01*
X166774381Y-95179206D01*
X166703844Y-95083632D01*
X166679874Y-95018005D01*
X166695189Y-94949835D01*
X166703845Y-94936366D01*
X166725544Y-94906965D01*
X166774381Y-94840794D01*
X166799705Y-94768424D01*
X166817741Y-94716881D01*
X166817741Y-94716879D01*
X166819046Y-94702960D01*
X166820500Y-94687457D01*
X166820499Y-94434957D01*
X166840183Y-94367920D01*
X166892987Y-94322165D01*
X166962146Y-94312221D01*
X167025701Y-94341246D01*
X167032180Y-94347278D01*
X167084616Y-94399714D01*
X167084625Y-94399721D01*
X167223804Y-94482031D01*
X167379089Y-94527145D01*
X167400000Y-94528789D01*
X167900000Y-94528789D01*
X167920910Y-94527145D01*
X168076195Y-94482031D01*
X168215374Y-94399721D01*
X168215383Y-94399714D01*
X168329714Y-94285383D01*
X168329721Y-94285374D01*
X168412031Y-94146195D01*
X168454504Y-94000000D01*
X167900000Y-94000000D01*
X167900000Y-94528789D01*
X167400000Y-94528789D01*
X167400000Y-93874000D01*
X167419685Y-93806961D01*
X167472489Y-93761206D01*
X167524000Y-93750000D01*
X167650000Y-93750000D01*
X167650000Y-93624000D01*
X167669685Y-93556961D01*
X167722489Y-93511206D01*
X167774000Y-93500000D01*
X168454504Y-93500000D01*
X168412031Y-93353804D01*
X168329721Y-93214625D01*
X168329714Y-93214616D01*
X168279159Y-93164061D01*
X168245674Y-93102738D01*
X168249798Y-93035428D01*
X168257710Y-93012819D01*
X168260500Y-92983066D01*
X168260500Y-92596934D01*
X168260266Y-92594442D01*
X168257710Y-92567185D01*
X168257710Y-92567181D01*
X168215474Y-92446481D01*
X168211912Y-92376703D01*
X168246641Y-92316075D01*
X168282425Y-92292094D01*
X168372765Y-92252206D01*
X168452206Y-92172765D01*
X168497585Y-92069991D01*
X168500500Y-92044865D01*
X168500499Y-90655136D01*
X168499998Y-90650813D01*
X168497586Y-90630012D01*
X168497585Y-90630010D01*
X168497585Y-90630009D01*
X168452206Y-90527235D01*
X168372765Y-90447794D01*
X168372764Y-90447793D01*
X168309553Y-90419883D01*
X168256176Y-90374797D01*
X168235649Y-90308011D01*
X168254487Y-90240729D01*
X168306711Y-90194313D01*
X168316306Y-90190267D01*
X168442086Y-90143354D01*
X168442093Y-90143350D01*
X168557187Y-90057190D01*
X168557190Y-90057187D01*
X168643350Y-89942093D01*
X168643354Y-89942086D01*
X168693596Y-89807379D01*
X168693598Y-89807372D01*
X168699999Y-89747844D01*
X168700000Y-89747827D01*
X168700000Y-89300000D01*
X167799000Y-89300000D01*
X167731961Y-89280315D01*
X167686206Y-89227511D01*
X167675000Y-89176000D01*
X167675000Y-88924000D01*
X167694685Y-88856961D01*
X167747489Y-88811206D01*
X167799000Y-88800000D01*
X168700000Y-88800000D01*
X168700000Y-88352172D01*
X168699999Y-88352155D01*
X168693598Y-88292627D01*
X168693596Y-88292620D01*
X168643354Y-88157913D01*
X168643350Y-88157906D01*
X168557190Y-88042812D01*
X168557187Y-88042809D01*
X168442093Y-87956649D01*
X168442086Y-87956645D01*
X168307379Y-87906403D01*
X168307372Y-87906401D01*
X168247844Y-87900000D01*
X168101128Y-87900000D01*
X168034089Y-87880315D01*
X167988334Y-87827511D01*
X167977510Y-87766271D01*
X167978790Y-87750000D01*
X167324000Y-87750000D01*
X167256961Y-87730315D01*
X167211206Y-87677511D01*
X167200000Y-87626000D01*
X167200000Y-87500000D01*
X167074000Y-87500000D01*
X167006961Y-87480315D01*
X166961206Y-87427511D01*
X166950000Y-87376000D01*
X166950000Y-86695494D01*
X167450000Y-86695494D01*
X167450000Y-87250000D01*
X167978790Y-87250000D01*
X167977145Y-87229089D01*
X167932031Y-87073804D01*
X167849721Y-86934625D01*
X167849714Y-86934616D01*
X167735383Y-86820285D01*
X167735374Y-86820278D01*
X167596193Y-86737967D01*
X167596190Y-86737965D01*
X167450001Y-86695493D01*
X167450000Y-86695494D01*
X166950000Y-86695494D01*
X166949998Y-86695493D01*
X166803809Y-86737965D01*
X166803806Y-86737967D01*
X166664625Y-86820278D01*
X166664619Y-86820283D01*
X166614060Y-86870841D01*
X166552736Y-86904325D01*
X166485426Y-86900200D01*
X166462822Y-86892290D01*
X166462814Y-86892289D01*
X166433070Y-86889500D01*
X166433066Y-86889500D01*
X166046934Y-86889500D01*
X166046930Y-86889500D01*
X166017185Y-86892289D01*
X166017173Y-86892291D01*
X165891844Y-86936147D01*
X165785001Y-87015001D01*
X165706147Y-87121844D01*
X165662291Y-87247173D01*
X165662289Y-87247185D01*
X165659500Y-87276929D01*
X165659500Y-87723070D01*
X165662289Y-87752814D01*
X165662291Y-87752826D01*
X165697140Y-87852415D01*
X165706148Y-87878157D01*
X165718492Y-87894882D01*
X165723647Y-87901867D01*
X165747617Y-87967496D01*
X165732301Y-88035666D01*
X165682561Y-88084734D01*
X165623876Y-88099500D01*
X165355143Y-88099500D01*
X165355117Y-88099502D01*
X165330012Y-88102413D01*
X165330008Y-88102415D01*
X165227235Y-88147793D01*
X165147794Y-88227234D01*
X165102415Y-88330006D01*
X165102415Y-88330008D01*
X165099500Y-88355131D01*
X165099500Y-89655744D01*
X165092823Y-89678481D01*
X165090521Y-89702072D01*
X165082201Y-89714655D01*
X165079815Y-89722783D01*
X165072822Y-89728842D01*
X165063181Y-89743425D01*
X164862180Y-89944426D01*
X164800857Y-89977911D01*
X164731165Y-89972927D01*
X164675232Y-89931055D01*
X164650815Y-89865591D01*
X164650499Y-89856745D01*
X164650499Y-89705143D01*
X164650499Y-89705136D01*
X164648561Y-89688424D01*
X164647586Y-89680012D01*
X164647585Y-89680010D01*
X164647585Y-89680009D01*
X164636871Y-89655744D01*
X164634373Y-89650086D01*
X164632518Y-89635922D01*
X164625999Y-89623212D01*
X164628072Y-89601970D01*
X164625301Y-89580808D01*
X164632545Y-89556139D01*
X164632786Y-89553672D01*
X164633556Y-89552696D01*
X164634374Y-89549912D01*
X164647584Y-89519995D01*
X164647584Y-89519994D01*
X164647584Y-89519993D01*
X164647585Y-89519991D01*
X164650500Y-89494865D01*
X164650499Y-88905136D01*
X164650497Y-88905117D01*
X164647586Y-88880012D01*
X164647585Y-88880010D01*
X164647585Y-88880009D01*
X164637408Y-88856961D01*
X164634373Y-88850086D01*
X164625301Y-88780808D01*
X164634374Y-88749912D01*
X164647584Y-88719995D01*
X164647584Y-88719994D01*
X164647584Y-88719993D01*
X164647585Y-88719991D01*
X164650500Y-88694865D01*
X164650499Y-88105136D01*
X164650497Y-88105117D01*
X164647586Y-88080012D01*
X164647585Y-88080010D01*
X164647585Y-88080009D01*
X164640681Y-88064374D01*
X164634373Y-88050086D01*
X164625301Y-87980808D01*
X164634374Y-87949912D01*
X164647584Y-87919995D01*
X164647584Y-87919994D01*
X164647584Y-87919993D01*
X164647585Y-87919991D01*
X164650500Y-87894865D01*
X164650499Y-87305136D01*
X164650159Y-87302206D01*
X164647586Y-87280012D01*
X164647585Y-87280010D01*
X164647585Y-87280009D01*
X164640681Y-87264374D01*
X164634373Y-87250086D01*
X164625301Y-87180808D01*
X164634374Y-87149912D01*
X164647584Y-87119995D01*
X164647584Y-87119994D01*
X164647584Y-87119993D01*
X164647585Y-87119991D01*
X164650500Y-87094865D01*
X164650499Y-86505136D01*
X164650497Y-86505117D01*
X164647586Y-86480012D01*
X164647585Y-86480010D01*
X164647585Y-86480009D01*
X164602206Y-86377235D01*
X164522765Y-86297794D01*
X164496389Y-86286148D01*
X164419992Y-86252415D01*
X164394868Y-86249500D01*
X164394865Y-86249500D01*
X163878363Y-86249500D01*
X163839820Y-86241834D01*
X163839635Y-86242527D01*
X163831785Y-86240423D01*
X163831784Y-86240423D01*
X163679057Y-86199500D01*
X163520943Y-86199500D01*
X163360367Y-86242526D01*
X163360181Y-86241833D01*
X163321637Y-86249500D01*
X162805143Y-86249500D01*
X162805117Y-86249502D01*
X162780012Y-86252413D01*
X162780008Y-86252415D01*
X162677235Y-86297793D01*
X162597794Y-86377234D01*
X162552415Y-86480006D01*
X162552415Y-86480008D01*
X162549500Y-86505131D01*
X162549500Y-87094856D01*
X162549502Y-87094882D01*
X162552413Y-87119985D01*
X162552413Y-87119986D01*
X162552414Y-87119990D01*
X162552415Y-87119991D01*
X162565626Y-87149912D01*
X162565628Y-87149915D01*
X162574697Y-87219194D01*
X162565628Y-87250083D01*
X162552415Y-87280008D01*
X162549500Y-87305131D01*
X162549500Y-87894856D01*
X162549502Y-87894882D01*
X162552413Y-87919985D01*
X162552413Y-87919986D01*
X162552414Y-87919990D01*
X162552415Y-87919991D01*
X162565626Y-87949912D01*
X162565628Y-87949915D01*
X162574697Y-88019194D01*
X162565628Y-88050083D01*
X162552415Y-88080008D01*
X162549500Y-88105131D01*
X162549500Y-88694856D01*
X162549502Y-88694882D01*
X162552413Y-88719985D01*
X162552413Y-88719986D01*
X162552414Y-88719990D01*
X162552415Y-88719991D01*
X162565626Y-88749912D01*
X162565628Y-88749915D01*
X162574697Y-88819194D01*
X162565628Y-88850083D01*
X162552415Y-88880008D01*
X162549500Y-88905131D01*
X162549500Y-89494856D01*
X162549502Y-89494882D01*
X162552413Y-89519985D01*
X162552413Y-89519986D01*
X162552414Y-89519990D01*
X162552415Y-89519991D01*
X162565626Y-89549912D01*
X162565628Y-89549915D01*
X162574697Y-89619194D01*
X162565628Y-89650083D01*
X162552415Y-89680008D01*
X162549500Y-89705131D01*
X162549500Y-90294856D01*
X162549502Y-90294882D01*
X162552413Y-90319985D01*
X162552413Y-90319986D01*
X162552414Y-90319990D01*
X162552415Y-90319991D01*
X162565626Y-90349912D01*
X162565628Y-90349915D01*
X162574697Y-90419194D01*
X162565628Y-90450083D01*
X162552415Y-90480008D01*
X162549500Y-90505131D01*
X162549500Y-91094856D01*
X162549502Y-91094882D01*
X162552413Y-91119985D01*
X162552413Y-91119986D01*
X162552414Y-91119990D01*
X162552415Y-91119991D01*
X162565626Y-91149912D01*
X162565628Y-91149915D01*
X162574697Y-91219194D01*
X162565628Y-91250083D01*
X162552415Y-91280008D01*
X162549500Y-91305131D01*
X162549500Y-91688303D01*
X162529815Y-91755342D01*
X162499815Y-91787566D01*
X162492818Y-91792804D01*
X162492808Y-91792814D01*
X162406649Y-91907906D01*
X162406645Y-91907913D01*
X162356403Y-92042620D01*
X162356401Y-92042627D01*
X162350000Y-92102155D01*
X162350000Y-92150000D01*
X162793653Y-92150000D01*
X162801543Y-92150456D01*
X162801553Y-92150293D01*
X162805115Y-92150497D01*
X162805135Y-92150500D01*
X163476001Y-92150499D01*
X163543039Y-92170183D01*
X163588794Y-92222987D01*
X163600000Y-92274499D01*
X163600000Y-92525500D01*
X163580315Y-92592539D01*
X163527511Y-92638294D01*
X163476000Y-92649500D01*
X162805143Y-92649500D01*
X162801561Y-92649708D01*
X162801551Y-92649544D01*
X162793666Y-92650000D01*
X162350000Y-92650000D01*
X162350000Y-92697844D01*
X162356401Y-92757372D01*
X162356403Y-92757379D01*
X162406645Y-92892086D01*
X162406647Y-92892088D01*
X162492809Y-93007186D01*
X162492811Y-93007188D01*
X162499809Y-93012427D01*
X162541681Y-93068359D01*
X162549500Y-93111695D01*
X162549500Y-93494856D01*
X162549502Y-93494882D01*
X162552413Y-93519985D01*
X162552413Y-93519986D01*
X162552414Y-93519990D01*
X162552415Y-93519991D01*
X162561133Y-93539736D01*
X162565628Y-93549915D01*
X162574697Y-93619194D01*
X162565628Y-93650083D01*
X162552415Y-93680008D01*
X162549500Y-93705131D01*
X162549500Y-94294856D01*
X162549502Y-94294882D01*
X162552413Y-94319985D01*
X162552413Y-94319986D01*
X162552414Y-94319990D01*
X162552415Y-94319991D01*
X162564463Y-94347278D01*
X162565628Y-94349915D01*
X162574697Y-94419194D01*
X162565628Y-94450083D01*
X162552415Y-94480008D01*
X162549500Y-94505131D01*
X162549500Y-95094856D01*
X162549502Y-95094882D01*
X162552413Y-95119987D01*
X162552415Y-95119991D01*
X162597793Y-95222764D01*
X162597794Y-95222765D01*
X162677235Y-95302206D01*
X162780009Y-95347585D01*
X162805135Y-95350500D01*
X163321635Y-95350499D01*
X163360179Y-95358165D01*
X163360365Y-95357473D01*
X163368214Y-95359576D01*
X163368216Y-95359577D01*
X163520943Y-95400500D01*
X163520945Y-95400500D01*
X163679055Y-95400500D01*
X163679057Y-95400500D01*
X163831784Y-95359577D01*
X163831785Y-95359576D01*
X163839635Y-95357473D01*
X163839820Y-95358165D01*
X163878365Y-95350499D01*
X164394856Y-95350499D01*
X164394864Y-95350499D01*
X164394879Y-95350497D01*
X164394882Y-95350497D01*
X164419987Y-95347586D01*
X164419988Y-95347585D01*
X164419991Y-95347585D01*
X164522765Y-95302206D01*
X164602206Y-95222765D01*
X164647585Y-95119991D01*
X164650500Y-95094865D01*
X164650499Y-94906962D01*
X164670183Y-94839925D01*
X164722987Y-94794170D01*
X164792145Y-94784226D01*
X164855701Y-94813251D01*
X164862176Y-94819279D01*
X165220441Y-95177545D01*
X165543181Y-95500285D01*
X165576666Y-95561608D01*
X165579500Y-95587965D01*
X165579500Y-95707453D01*
X165582258Y-95736875D01*
X165582260Y-95736884D01*
X165601025Y-95790510D01*
X165625619Y-95860794D01*
X165639803Y-95880012D01*
X165703576Y-95966423D01*
X165756391Y-96005402D01*
X165809206Y-96044381D01*
X165850511Y-96058834D01*
X165933119Y-96087741D01*
X165946707Y-96089015D01*
X165962543Y-96090500D01*
X166082034Y-96090499D01*
X166149073Y-96110183D01*
X166169715Y-96126818D01*
X167988181Y-97945284D01*
X168021666Y-98006607D01*
X168024500Y-98032965D01*
X168024500Y-101462035D01*
X168004815Y-101529074D01*
X167988181Y-101549716D01*
X167279716Y-102258181D01*
X167252788Y-102272884D01*
X167226970Y-102289477D01*
X167220769Y-102290368D01*
X167218393Y-102291666D01*
X167192035Y-102294500D01*
X167030741Y-102294500D01*
X166963702Y-102274815D01*
X166920256Y-102226795D01*
X166870377Y-102128903D01*
X166860900Y-102115859D01*
X166761621Y-101979213D01*
X166630787Y-101848379D01*
X166481096Y-101739622D01*
X166423478Y-101710264D01*
X166398304Y-101697437D01*
X166347508Y-101649462D01*
X166330713Y-101581641D01*
X166353251Y-101515506D01*
X166398304Y-101476467D01*
X166585656Y-101381006D01*
X166644615Y-101338168D01*
X166644616Y-101338168D01*
X165911446Y-100605000D01*
X165917661Y-100605000D01*
X166019394Y-100577741D01*
X166110606Y-100525080D01*
X166185080Y-100450606D01*
X166237741Y-100359394D01*
X166265000Y-100257661D01*
X166265000Y-100251448D01*
X166998168Y-100984616D01*
X166998168Y-100984615D01*
X167041006Y-100925656D01*
X167139263Y-100732817D01*
X167139264Y-100732814D01*
X167206142Y-100526981D01*
X167240000Y-100313220D01*
X167240000Y-100096779D01*
X167206142Y-99883018D01*
X167139264Y-99677185D01*
X167139263Y-99677182D01*
X167041005Y-99484342D01*
X166998168Y-99425383D01*
X166998168Y-99425382D01*
X166265000Y-100158551D01*
X166265000Y-100152339D01*
X166237741Y-100050606D01*
X166185080Y-99959394D01*
X166110606Y-99884920D01*
X166019394Y-99832259D01*
X165917661Y-99805000D01*
X165911446Y-99805000D01*
X166644616Y-99071830D01*
X166644615Y-99071829D01*
X166585660Y-99028996D01*
X166392817Y-98930736D01*
X166392814Y-98930735D01*
X166186981Y-98863857D01*
X165973220Y-98830000D01*
X165756780Y-98830000D01*
X165543018Y-98863857D01*
X165337185Y-98930735D01*
X165337182Y-98930736D01*
X165144346Y-99028992D01*
X165085383Y-99071830D01*
X165818554Y-99805000D01*
X165812339Y-99805000D01*
X165710606Y-99832259D01*
X165619394Y-99884920D01*
X165544920Y-99959394D01*
X165492259Y-100050606D01*
X165465000Y-100152339D01*
X165465000Y-100158553D01*
X165036819Y-99730372D01*
X165003334Y-99669049D01*
X165000500Y-99642691D01*
X165000500Y-99547275D01*
X165000500Y-99547273D01*
X164973207Y-99445413D01*
X164920480Y-99354087D01*
X164845913Y-99279520D01*
X162286818Y-96720425D01*
X162253333Y-96659102D01*
X162250499Y-96632744D01*
X162250499Y-95905143D01*
X162250499Y-95905137D01*
X162250499Y-95905136D01*
X162250102Y-95901712D01*
X162247586Y-95880012D01*
X162247585Y-95880010D01*
X162247585Y-95880009D01*
X162202206Y-95777235D01*
X162122765Y-95697794D01*
X162122763Y-95697793D01*
X162019992Y-95652415D01*
X161994865Y-95649500D01*
X161405143Y-95649500D01*
X161405117Y-95649502D01*
X161380014Y-95652413D01*
X161380010Y-95652414D01*
X161350083Y-95665628D01*
X161280804Y-95674697D01*
X161249915Y-95665627D01*
X161219992Y-95652415D01*
X161194865Y-95649500D01*
X160605143Y-95649500D01*
X160605117Y-95649502D01*
X160580014Y-95652413D01*
X160580010Y-95652414D01*
X160550083Y-95665628D01*
X160480804Y-95674697D01*
X160449915Y-95665627D01*
X160419992Y-95652415D01*
X160394865Y-95649500D01*
X159805143Y-95649500D01*
X159805117Y-95649502D01*
X159780014Y-95652413D01*
X159780010Y-95652414D01*
X159750083Y-95665628D01*
X159680804Y-95674697D01*
X159649915Y-95665627D01*
X159619992Y-95652415D01*
X159594865Y-95649500D01*
X159005143Y-95649500D01*
X159005117Y-95649502D01*
X158980014Y-95652413D01*
X158980010Y-95652414D01*
X158950083Y-95665628D01*
X158880804Y-95674697D01*
X158849915Y-95665627D01*
X158819992Y-95652415D01*
X158794865Y-95649500D01*
X158205143Y-95649500D01*
X158205117Y-95649502D01*
X158180014Y-95652413D01*
X158180010Y-95652414D01*
X158150083Y-95665628D01*
X158080804Y-95674697D01*
X158049915Y-95665627D01*
X158019992Y-95652415D01*
X157994868Y-95649500D01*
X157611696Y-95649500D01*
X157544657Y-95629815D01*
X157512428Y-95599810D01*
X157507189Y-95592811D01*
X157507185Y-95592808D01*
X157392093Y-95506649D01*
X157392086Y-95506645D01*
X157257379Y-95456403D01*
X157257372Y-95456401D01*
X157197844Y-95450000D01*
X157150000Y-95450000D01*
X157150000Y-95893653D01*
X157149543Y-95901543D01*
X157149707Y-95901553D01*
X157149500Y-95905131D01*
X157149500Y-95905135D01*
X157149500Y-96627523D01*
X157149500Y-96627525D01*
X157149500Y-98197526D01*
X157149500Y-98342474D01*
X157187016Y-98482485D01*
X157259490Y-98608015D01*
X157259492Y-98608017D01*
X157264436Y-98614460D01*
X157262209Y-98616168D01*
X157288213Y-98662631D01*
X157290261Y-98671183D01*
X157292290Y-98692819D01*
X157302278Y-98721363D01*
X157303748Y-98727501D01*
X157302288Y-98756351D01*
X157303761Y-98785205D01*
X157300537Y-98790968D01*
X157300218Y-98797282D01*
X157285577Y-98817713D01*
X157270841Y-98844060D01*
X157220283Y-98894619D01*
X157220278Y-98894625D01*
X157137968Y-99033804D01*
X157095496Y-99180000D01*
X159704504Y-99180000D01*
X159662031Y-99033804D01*
X159579721Y-98894625D01*
X159579714Y-98894616D01*
X159529159Y-98844061D01*
X159495674Y-98782738D01*
X159499798Y-98715428D01*
X159507710Y-98692819D01*
X159510088Y-98667461D01*
X159510500Y-98663070D01*
X159510500Y-98276929D01*
X159508650Y-98257204D01*
X159507710Y-98247181D01*
X159507708Y-98247177D01*
X159507708Y-98247173D01*
X159469928Y-98139207D01*
X159463852Y-98121843D01*
X159384999Y-98015001D01*
X159329808Y-97974268D01*
X159311398Y-97950021D01*
X159291216Y-97927235D01*
X159290477Y-97922465D01*
X159287558Y-97918621D01*
X159285179Y-97888268D01*
X159280520Y-97858189D01*
X159282477Y-97853777D01*
X159282100Y-97848965D01*
X159296508Y-97822147D01*
X159308852Y-97794321D01*
X159312883Y-97791667D01*
X159315168Y-97787416D01*
X159341785Y-97772646D01*
X159367216Y-97755909D01*
X159373690Y-97754942D01*
X159376262Y-97753515D01*
X159402094Y-97750506D01*
X159402737Y-97750499D01*
X159594864Y-97750499D01*
X159614760Y-97748191D01*
X159621247Y-97748121D01*
X159648882Y-97755909D01*
X159677172Y-97760770D01*
X159682084Y-97765268D01*
X159688496Y-97767075D01*
X159707532Y-97788567D01*
X159728705Y-97807952D01*
X159729978Y-97810105D01*
X159779520Y-97895913D01*
X159779521Y-97895914D01*
X159779522Y-97895915D01*
X160710858Y-98827251D01*
X160744343Y-98888574D01*
X160739359Y-98958266D01*
X160697487Y-99014199D01*
X160642575Y-99037405D01*
X160509734Y-99058445D01*
X160333767Y-99115619D01*
X160333764Y-99115620D01*
X160168903Y-99199622D01*
X160083499Y-99261672D01*
X160019213Y-99308379D01*
X160019211Y-99308381D01*
X160019210Y-99308381D01*
X159888381Y-99439210D01*
X159888381Y-99439211D01*
X159888379Y-99439213D01*
X159855704Y-99484185D01*
X159779620Y-99588905D01*
X159767704Y-99612294D01*
X159719730Y-99663091D01*
X159657219Y-99680000D01*
X158150000Y-99680000D01*
X158150000Y-100208789D01*
X158172733Y-100207001D01*
X158241110Y-100221367D01*
X158290865Y-100270420D01*
X158306202Y-100338586D01*
X158299501Y-100371571D01*
X158292290Y-100392178D01*
X158292289Y-100392185D01*
X158289500Y-100421929D01*
X158289500Y-100808070D01*
X158292289Y-100837814D01*
X158292290Y-100837822D01*
X158300200Y-100860426D01*
X158303761Y-100930205D01*
X158270841Y-100989060D01*
X158220283Y-101039619D01*
X158220278Y-101039625D01*
X158137968Y-101178804D01*
X158095496Y-101325000D01*
X159704504Y-101325000D01*
X159662031Y-101178804D01*
X159579721Y-101039625D01*
X159579714Y-101039616D01*
X159529159Y-100989061D01*
X159495674Y-100927738D01*
X159495065Y-100877996D01*
X159496784Y-100869042D01*
X159507710Y-100837819D01*
X159510500Y-100808066D01*
X159510500Y-100797615D01*
X159512725Y-100786028D01*
X159523532Y-100765029D01*
X159530185Y-100742373D01*
X159539223Y-100734541D01*
X159544698Y-100723904D01*
X159565144Y-100712080D01*
X159582989Y-100696618D01*
X159594826Y-100694915D01*
X159605183Y-100688927D01*
X159628774Y-100690034D01*
X159652147Y-100686674D01*
X159663027Y-100691642D01*
X159674976Y-100692204D01*
X159694221Y-100705888D01*
X159715703Y-100715699D01*
X159725343Y-100728018D01*
X159731918Y-100732693D01*
X159734984Y-100740338D01*
X159744984Y-100753116D01*
X159779622Y-100821096D01*
X159888379Y-100970787D01*
X160019213Y-101101621D01*
X160168904Y-101210378D01*
X160249763Y-101251577D01*
X160333764Y-101294379D01*
X160333767Y-101294380D01*
X160421750Y-101322967D01*
X160509736Y-101351555D01*
X160514798Y-101352356D01*
X160515872Y-101352527D01*
X160579007Y-101382456D01*
X160615938Y-101441768D01*
X160614940Y-101511630D01*
X160576330Y-101569863D01*
X160515872Y-101597473D01*
X160509734Y-101598445D01*
X160333767Y-101655619D01*
X160333764Y-101655620D01*
X160168903Y-101739622D01*
X160019214Y-101848378D01*
X159907554Y-101960038D01*
X159846231Y-101993522D01*
X159776539Y-101988538D01*
X159720606Y-101946666D01*
X159696189Y-101881202D01*
X159700797Y-101837761D01*
X159704504Y-101825000D01*
X159150000Y-101825000D01*
X159150000Y-102353789D01*
X159170910Y-102352145D01*
X159326195Y-102307031D01*
X159465374Y-102224721D01*
X159465382Y-102224715D01*
X159474448Y-102215649D01*
X159535770Y-102182162D01*
X159605462Y-102187144D01*
X159661397Y-102229013D01*
X159685816Y-102294477D01*
X159680063Y-102341644D01*
X159638445Y-102469732D01*
X159616207Y-102610138D01*
X159609500Y-102652486D01*
X159609500Y-102837514D01*
X159621624Y-102914062D01*
X159638445Y-103020265D01*
X159695619Y-103196232D01*
X159695620Y-103196235D01*
X159778505Y-103358903D01*
X159779622Y-103361096D01*
X159888379Y-103510787D01*
X160019213Y-103641621D01*
X160168904Y-103750378D01*
X160217475Y-103775126D01*
X160333764Y-103834379D01*
X160338265Y-103836243D01*
X160337627Y-103837782D01*
X160389316Y-103873108D01*
X160407076Y-103907747D01*
X160408684Y-103907082D01*
X160411792Y-103914587D01*
X160411793Y-103914588D01*
X160464520Y-104005913D01*
X161054087Y-104595480D01*
X161145412Y-104648207D01*
X161247273Y-104675500D01*
X161247275Y-104675500D01*
X163877725Y-104675500D01*
X163877727Y-104675500D01*
X163979588Y-104648207D01*
X164070913Y-104595480D01*
X164845910Y-103820481D01*
X164845913Y-103820480D01*
X164920480Y-103745913D01*
X164952269Y-103690851D01*
X164959207Y-103682574D01*
X164979647Y-103668957D01*
X164997423Y-103652007D01*
X165008212Y-103649927D01*
X165017356Y-103643836D01*
X165041911Y-103643431D01*
X165066030Y-103638783D01*
X165076797Y-103642857D01*
X165087216Y-103642686D01*
X165104270Y-103653253D01*
X165127129Y-103661903D01*
X165248904Y-103750378D01*
X165297475Y-103775126D01*
X165413764Y-103834379D01*
X165413767Y-103834380D01*
X165476661Y-103854815D01*
X165589736Y-103891555D01*
X165772486Y-103920500D01*
X165772487Y-103920500D01*
X165957513Y-103920500D01*
X165957514Y-103920500D01*
X166140264Y-103891555D01*
X166316235Y-103834379D01*
X166481096Y-103750378D01*
X166630787Y-103641621D01*
X166761621Y-103510787D01*
X166870378Y-103361096D01*
X166920256Y-103263204D01*
X166968231Y-103212409D01*
X167030741Y-103195500D01*
X167489308Y-103195500D01*
X167489309Y-103195500D01*
X167579673Y-103171286D01*
X167603887Y-103164799D01*
X167706614Y-103105489D01*
X167812819Y-102999284D01*
X167874142Y-102965799D01*
X167943834Y-102970783D01*
X167999767Y-103012655D01*
X168024184Y-103078119D01*
X168024500Y-103086965D01*
X168024500Y-104412034D01*
X168004815Y-104479073D01*
X167988181Y-104499715D01*
X167518209Y-104969686D01*
X167456886Y-105003171D01*
X167387194Y-104998187D01*
X167383075Y-104996566D01*
X167380180Y-104995367D01*
X167306762Y-104964956D01*
X167306760Y-104964955D01*
X167189370Y-104949501D01*
X167189367Y-104949500D01*
X167189361Y-104949500D01*
X167189354Y-104949500D01*
X165710636Y-104949500D01*
X165593246Y-104964953D01*
X165593237Y-104964956D01*
X165447160Y-105025463D01*
X165321718Y-105121718D01*
X165225463Y-105247160D01*
X165164956Y-105393237D01*
X165164955Y-105393239D01*
X165149501Y-105510629D01*
X165149500Y-105510645D01*
X165149500Y-106989363D01*
X165164953Y-107106753D01*
X165164956Y-107106762D01*
X165191280Y-107170315D01*
X165225464Y-107252841D01*
X165321718Y-107378282D01*
X165447159Y-107474536D01*
X165593238Y-107535044D01*
X165710639Y-107550500D01*
X166014140Y-107550499D01*
X166081179Y-107570183D01*
X166112515Y-107599011D01*
X166114509Y-107601610D01*
X166114511Y-107601613D01*
X166198387Y-107685489D01*
X166301114Y-107744799D01*
X166415691Y-107775500D01*
X166415694Y-107775500D01*
X166959306Y-107775500D01*
X166959309Y-107775500D01*
X167073886Y-107744799D01*
X167176613Y-107685489D01*
X167260489Y-107601613D01*
X167275411Y-107575766D01*
X167325977Y-107527550D01*
X167335346Y-107523204D01*
X167338197Y-107522023D01*
X167452841Y-107474536D01*
X167578282Y-107378282D01*
X167674536Y-107252841D01*
X167735044Y-107106762D01*
X167750500Y-106989361D01*
X167750499Y-106062964D01*
X167759145Y-106033518D01*
X167765667Y-106003538D01*
X167769419Y-105998524D01*
X167770183Y-105995926D01*
X167786818Y-105975284D01*
X167812819Y-105949283D01*
X167874142Y-105915798D01*
X167943834Y-105920782D01*
X167999767Y-105962654D01*
X168024184Y-106028118D01*
X168024500Y-106036964D01*
X168024500Y-109007676D01*
X168004815Y-109074715D01*
X167952011Y-109120470D01*
X167882853Y-109130414D01*
X167819297Y-109101389D01*
X167795507Y-109073649D01*
X167779424Y-109048053D01*
X167651948Y-108920577D01*
X167499301Y-108824663D01*
X167329141Y-108765122D01*
X167194930Y-108750000D01*
X166700000Y-108750000D01*
X166700000Y-111750000D01*
X167194930Y-111750000D01*
X167194930Y-111749999D01*
X167329141Y-111734877D01*
X167499301Y-111675336D01*
X167651948Y-111579422D01*
X167779422Y-111451948D01*
X167779424Y-111451945D01*
X167795506Y-111426352D01*
X167847840Y-111380060D01*
X167916893Y-111369411D01*
X167980742Y-111397786D01*
X168019114Y-111456175D01*
X168024500Y-111492323D01*
X168024500Y-113309308D01*
X168048712Y-113399672D01*
X168055200Y-113423885D01*
X168055200Y-113423886D01*
X168055201Y-113423887D01*
X168114511Y-113526614D01*
X169083386Y-114495489D01*
X169083387Y-114495490D01*
X169083389Y-114495491D01*
X169100937Y-114505622D01*
X169149154Y-114556188D01*
X169156870Y-114574691D01*
X169160621Y-114586235D01*
X169160620Y-114586235D01*
X169206897Y-114677057D01*
X169244622Y-114751096D01*
X169353379Y-114900787D01*
X169484213Y-115031621D01*
X169633904Y-115140378D01*
X169714763Y-115181577D01*
X169798764Y-115224379D01*
X169798767Y-115224380D01*
X169882676Y-115251643D01*
X169974736Y-115281555D01*
X170157486Y-115310500D01*
X170157487Y-115310500D01*
X170342513Y-115310500D01*
X170342514Y-115310500D01*
X170525264Y-115281555D01*
X170695430Y-115226264D01*
X170714218Y-115225728D01*
X170732185Y-115220206D01*
X170748419Y-115224751D01*
X170765271Y-115224270D01*
X170781367Y-115233976D01*
X170799467Y-115239044D01*
X170810665Y-115251643D01*
X170825104Y-115260350D01*
X170833398Y-115277219D01*
X170845884Y-115291267D01*
X170848493Y-115307921D01*
X170855932Y-115323051D01*
X170853789Y-115341723D01*
X170856699Y-115360294D01*
X170848158Y-115390799D01*
X170847967Y-115392465D01*
X170847183Y-115394282D01*
X170832524Y-115427482D01*
X170827418Y-115437735D01*
X170653234Y-115750452D01*
X170647205Y-115760190D01*
X170444906Y-116055512D01*
X170438003Y-116064652D01*
X170209328Y-116340035D01*
X170201612Y-116348499D01*
X169948499Y-116601612D01*
X169940035Y-116609328D01*
X169664652Y-116838003D01*
X169655512Y-116844906D01*
X169360190Y-117047205D01*
X169350452Y-117053234D01*
X169037735Y-117227418D01*
X169027482Y-117232523D01*
X168700035Y-117377105D01*
X168689355Y-117381243D01*
X168349947Y-117495001D01*
X168338931Y-117498135D01*
X167990490Y-117580087D01*
X167979231Y-117582192D01*
X167624707Y-117631646D01*
X167613303Y-117632703D01*
X167252855Y-117649368D01*
X167247128Y-117649500D01*
X150752872Y-117649500D01*
X150747145Y-117649368D01*
X150386696Y-117632703D01*
X150375292Y-117631646D01*
X150020768Y-117582192D01*
X150009509Y-117580087D01*
X149661068Y-117498135D01*
X149650052Y-117495001D01*
X149310644Y-117381243D01*
X149299964Y-117377105D01*
X148972517Y-117232523D01*
X148962264Y-117227418D01*
X148649547Y-117053234D01*
X148639809Y-117047205D01*
X148344487Y-116844906D01*
X148335347Y-116838003D01*
X148059964Y-116609328D01*
X148051500Y-116601612D01*
X147798387Y-116348499D01*
X147790671Y-116340035D01*
X147708999Y-116241681D01*
X147561994Y-116064649D01*
X147555093Y-116055512D01*
X147550286Y-116048495D01*
X147392884Y-115818714D01*
X147352794Y-115760189D01*
X147346765Y-115750453D01*
X147295359Y-115658162D01*
X147279935Y-115590019D01*
X147303801Y-115524352D01*
X147359380Y-115482012D01*
X147422963Y-115476926D01*
X147423208Y-115475381D01*
X147641780Y-115510000D01*
X147858220Y-115510000D01*
X148071981Y-115476142D01*
X148277814Y-115409264D01*
X148277817Y-115409263D01*
X148470656Y-115311006D01*
X148529615Y-115268168D01*
X148529616Y-115268168D01*
X148394546Y-115133098D01*
X148312952Y-115051504D01*
X153530000Y-115051504D01*
X153530000Y-115300000D01*
X154230000Y-115300000D01*
X154230000Y-115800000D01*
X153530000Y-115800000D01*
X153530000Y-116048495D01*
X153568427Y-116241681D01*
X153568430Y-116241693D01*
X153643807Y-116423671D01*
X153643814Y-116423684D01*
X153753248Y-116587462D01*
X153753251Y-116587466D01*
X153892533Y-116726748D01*
X153892537Y-116726751D01*
X154056315Y-116836185D01*
X154056328Y-116836192D01*
X154238308Y-116911569D01*
X154280000Y-116919862D01*
X154280000Y-116116988D01*
X154289940Y-116134205D01*
X154345795Y-116190060D01*
X154414204Y-116229556D01*
X154490504Y-116250000D01*
X154569496Y-116250000D01*
X154645796Y-116229556D01*
X154714205Y-116190060D01*
X154770060Y-116134205D01*
X154780000Y-116116988D01*
X154780000Y-116919862D01*
X154821690Y-116911569D01*
X154821692Y-116911569D01*
X155003671Y-116836192D01*
X155003684Y-116836185D01*
X155167462Y-116726751D01*
X155167466Y-116726748D01*
X155306748Y-116587466D01*
X155306751Y-116587462D01*
X155416185Y-116423684D01*
X155416192Y-116423671D01*
X155491569Y-116241693D01*
X155491572Y-116241681D01*
X155529999Y-116048495D01*
X155530000Y-116048492D01*
X155530000Y-115800000D01*
X154830000Y-115800000D01*
X154830000Y-115300000D01*
X155530000Y-115300000D01*
X155530000Y-115051508D01*
X155529999Y-115051504D01*
X162170000Y-115051504D01*
X162170000Y-115300000D01*
X162870000Y-115300000D01*
X162870000Y-115800000D01*
X162170000Y-115800000D01*
X162170000Y-116048495D01*
X162208427Y-116241681D01*
X162208430Y-116241693D01*
X162283807Y-116423671D01*
X162283814Y-116423684D01*
X162393248Y-116587462D01*
X162393251Y-116587466D01*
X162532533Y-116726748D01*
X162532537Y-116726751D01*
X162696315Y-116836185D01*
X162696328Y-116836192D01*
X162878308Y-116911569D01*
X162920000Y-116919862D01*
X162920000Y-116116988D01*
X162929940Y-116134205D01*
X162985795Y-116190060D01*
X163054204Y-116229556D01*
X163130504Y-116250000D01*
X163209496Y-116250000D01*
X163285796Y-116229556D01*
X163354205Y-116190060D01*
X163410060Y-116134205D01*
X163420000Y-116116988D01*
X163420000Y-116919862D01*
X163461690Y-116911569D01*
X163461692Y-116911569D01*
X163643671Y-116836192D01*
X163643684Y-116836185D01*
X163807462Y-116726751D01*
X163807466Y-116726748D01*
X163946748Y-116587466D01*
X163946751Y-116587462D01*
X164056185Y-116423684D01*
X164056192Y-116423671D01*
X164131569Y-116241693D01*
X164131572Y-116241681D01*
X164169999Y-116048495D01*
X164170000Y-116048492D01*
X164170000Y-115800000D01*
X163470000Y-115800000D01*
X163470000Y-115300000D01*
X164170000Y-115300000D01*
X164170000Y-115051508D01*
X164169999Y-115051504D01*
X164131572Y-114858318D01*
X164131569Y-114858306D01*
X164056192Y-114676328D01*
X164056185Y-114676315D01*
X163946751Y-114512537D01*
X163946748Y-114512533D01*
X163807466Y-114373251D01*
X163807462Y-114373248D01*
X163643684Y-114263814D01*
X163643671Y-114263807D01*
X163461691Y-114188429D01*
X163461683Y-114188427D01*
X163420000Y-114180135D01*
X163420000Y-114983011D01*
X163410060Y-114965795D01*
X163354205Y-114909940D01*
X163285796Y-114870444D01*
X163209496Y-114850000D01*
X163130504Y-114850000D01*
X163054204Y-114870444D01*
X162985795Y-114909940D01*
X162929940Y-114965795D01*
X162920000Y-114983011D01*
X162920000Y-114180136D01*
X162919999Y-114180135D01*
X162878316Y-114188427D01*
X162878308Y-114188429D01*
X162696328Y-114263807D01*
X162696315Y-114263814D01*
X162532537Y-114373248D01*
X162532533Y-114373251D01*
X162393251Y-114512533D01*
X162393248Y-114512537D01*
X162283814Y-114676315D01*
X162283807Y-114676328D01*
X162208430Y-114858306D01*
X162208427Y-114858318D01*
X162170000Y-115051504D01*
X155529999Y-115051504D01*
X155491572Y-114858318D01*
X155491569Y-114858306D01*
X155416192Y-114676328D01*
X155416185Y-114676315D01*
X155306751Y-114512537D01*
X155306748Y-114512533D01*
X155167466Y-114373251D01*
X155167462Y-114373248D01*
X155003684Y-114263814D01*
X155003671Y-114263807D01*
X154821691Y-114188429D01*
X154821683Y-114188427D01*
X154780000Y-114180135D01*
X154780000Y-114983011D01*
X154770060Y-114965795D01*
X154714205Y-114909940D01*
X154645796Y-114870444D01*
X154569496Y-114850000D01*
X154490504Y-114850000D01*
X154414204Y-114870444D01*
X154345795Y-114909940D01*
X154289940Y-114965795D01*
X154280000Y-114983011D01*
X154280000Y-114180136D01*
X154279999Y-114180135D01*
X154238316Y-114188427D01*
X154238308Y-114188429D01*
X154056328Y-114263807D01*
X154056315Y-114263814D01*
X153892537Y-114373248D01*
X153892533Y-114373251D01*
X153753251Y-114512533D01*
X153753248Y-114512537D01*
X153643814Y-114676315D01*
X153643807Y-114676328D01*
X153568430Y-114858306D01*
X153568427Y-114858318D01*
X153530000Y-115051504D01*
X148312952Y-115051504D01*
X147796447Y-114535000D01*
X147802661Y-114535000D01*
X147904394Y-114507741D01*
X147995606Y-114455080D01*
X148070080Y-114380606D01*
X148122741Y-114289394D01*
X148150000Y-114187661D01*
X148150000Y-114181448D01*
X148883168Y-114914616D01*
X148883168Y-114914615D01*
X148926006Y-114855656D01*
X149024263Y-114662817D01*
X149024264Y-114662814D01*
X149091142Y-114456981D01*
X149125000Y-114243220D01*
X149125000Y-114026779D01*
X149091142Y-113813018D01*
X149024264Y-113607185D01*
X149024263Y-113607182D01*
X148926005Y-113414342D01*
X148883168Y-113355383D01*
X148883168Y-113355382D01*
X148150000Y-114088551D01*
X148150000Y-114082339D01*
X148122741Y-113980606D01*
X148070080Y-113889394D01*
X147995606Y-113814920D01*
X147904394Y-113762259D01*
X147802661Y-113735000D01*
X147796446Y-113735000D01*
X148529616Y-113001830D01*
X148529615Y-113001829D01*
X148470658Y-112958994D01*
X148408592Y-112927369D01*
X148357796Y-112879394D01*
X148341002Y-112811573D01*
X148363540Y-112745438D01*
X148392001Y-112716568D01*
X148515787Y-112626633D01*
X148646621Y-112495799D01*
X148755378Y-112346108D01*
X148839379Y-112181247D01*
X148839785Y-112179999D01*
X148864411Y-112104205D01*
X148896555Y-112005276D01*
X148925500Y-111822526D01*
X148925500Y-111637498D01*
X148896555Y-111454748D01*
X148854423Y-111325077D01*
X148839380Y-111278779D01*
X148839379Y-111278776D01*
X148787501Y-111176961D01*
X148755378Y-111113916D01*
X148646621Y-110964225D01*
X148515787Y-110833391D01*
X148366096Y-110724634D01*
X148326000Y-110704204D01*
X148201235Y-110640632D01*
X148201232Y-110640631D01*
X148025265Y-110583457D01*
X147933889Y-110568984D01*
X147842514Y-110554512D01*
X147657486Y-110554512D01*
X147596569Y-110564160D01*
X147474734Y-110583457D01*
X147298767Y-110640631D01*
X147298764Y-110640632D01*
X147133903Y-110724634D01*
X147057006Y-110780504D01*
X146984213Y-110833391D01*
X146984211Y-110833393D01*
X146984210Y-110833393D01*
X146962181Y-110855423D01*
X146900858Y-110888908D01*
X146831166Y-110883924D01*
X146775233Y-110842052D01*
X146750816Y-110776588D01*
X146750500Y-110767742D01*
X146750500Y-110017270D01*
X146770185Y-109950231D01*
X146822989Y-109904476D01*
X146892147Y-109894532D01*
X146955703Y-109923557D01*
X146962181Y-109929589D01*
X146984213Y-109951621D01*
X147133904Y-110060378D01*
X147171853Y-110079714D01*
X147298764Y-110144379D01*
X147298767Y-110144380D01*
X147386750Y-110172967D01*
X147474736Y-110201555D01*
X147657486Y-110230500D01*
X147657487Y-110230500D01*
X147842513Y-110230500D01*
X147842514Y-110230500D01*
X148025264Y-110201555D01*
X148201235Y-110144379D01*
X148366096Y-110060378D01*
X148515787Y-109951621D01*
X148646621Y-109820787D01*
X148755378Y-109671096D01*
X148839379Y-109506235D01*
X148839785Y-109504987D01*
X148853432Y-109462984D01*
X148896555Y-109330264D01*
X148925500Y-109147514D01*
X148925500Y-108962486D01*
X148896555Y-108779736D01*
X148867793Y-108691215D01*
X148845264Y-108621876D01*
X148843269Y-108552035D01*
X148875512Y-108495879D01*
X149612820Y-107758572D01*
X149674142Y-107725088D01*
X149743834Y-107730072D01*
X149799767Y-107771944D01*
X149824184Y-107837408D01*
X149824500Y-107846254D01*
X149824500Y-108343102D01*
X149827124Y-108364951D01*
X149835122Y-108431561D01*
X149835122Y-108431563D01*
X149835123Y-108431564D01*
X149835737Y-108433121D01*
X149890639Y-108572343D01*
X149982077Y-108692922D01*
X150028029Y-108727768D01*
X150090425Y-108775084D01*
X150092905Y-108778440D01*
X150096703Y-108780175D01*
X150113494Y-108806303D01*
X150131948Y-108831276D01*
X150132863Y-108836442D01*
X150134477Y-108838953D01*
X150139500Y-108873888D01*
X150139500Y-109048349D01*
X150132542Y-109089303D01*
X150112290Y-109147177D01*
X150112289Y-109147185D01*
X150109500Y-109176929D01*
X150109500Y-109623070D01*
X150112289Y-109652814D01*
X150112291Y-109652826D01*
X150156147Y-109778155D01*
X150156148Y-109778157D01*
X150235001Y-109884999D01*
X150341843Y-109963852D01*
X150353109Y-109967794D01*
X150467173Y-110007708D01*
X150467177Y-110007708D01*
X150467181Y-110007710D01*
X150482057Y-110009105D01*
X150496930Y-110010500D01*
X150496934Y-110010500D01*
X150883070Y-110010500D01*
X150912809Y-110007711D01*
X150912809Y-110007710D01*
X150912819Y-110007710D01*
X150935427Y-109999798D01*
X151005202Y-109996236D01*
X151064061Y-110029159D01*
X151114616Y-110079714D01*
X151114625Y-110079721D01*
X151253804Y-110162031D01*
X151400000Y-110204504D01*
X151400000Y-110204503D01*
X151900000Y-110204503D01*
X152046195Y-110162031D01*
X152185374Y-110079721D01*
X152185383Y-110079714D01*
X152299714Y-109965383D01*
X152299721Y-109965374D01*
X152382031Y-109826195D01*
X152382033Y-109826190D01*
X152427144Y-109670918D01*
X152427145Y-109670912D01*
X152428790Y-109650000D01*
X151900000Y-109650000D01*
X151900000Y-110204503D01*
X151400000Y-110204503D01*
X151400000Y-108758254D01*
X151419685Y-108691215D01*
X151425197Y-108683328D01*
X151446067Y-108655808D01*
X151509361Y-108572342D01*
X151564877Y-108431564D01*
X151575500Y-108343102D01*
X151575500Y-107356898D01*
X151564877Y-107268436D01*
X151509361Y-107127658D01*
X151509360Y-107127657D01*
X151509360Y-107127656D01*
X151417922Y-107007077D01*
X151346503Y-106952919D01*
X151299573Y-106917331D01*
X151297094Y-106913976D01*
X151293297Y-106912242D01*
X151276505Y-106886113D01*
X151258052Y-106861141D01*
X151257136Y-106855974D01*
X151255523Y-106853464D01*
X151250500Y-106818529D01*
X151250500Y-106724597D01*
X151270185Y-106657558D01*
X151299575Y-106625793D01*
X151342922Y-106592922D01*
X151376046Y-106549241D01*
X151434361Y-106472342D01*
X151489877Y-106331564D01*
X151500500Y-106243102D01*
X151500500Y-105456898D01*
X151489877Y-105368436D01*
X151434361Y-105227658D01*
X151434360Y-105227657D01*
X151434360Y-105227656D01*
X151342922Y-105107077D01*
X151222343Y-105015639D01*
X151105814Y-104969686D01*
X151081564Y-104960123D01*
X151081563Y-104960122D01*
X151081561Y-104960122D01*
X151035926Y-104954642D01*
X150993102Y-104949500D01*
X150356898Y-104949500D01*
X150323713Y-104953485D01*
X150268436Y-104960122D01*
X150194989Y-104989086D01*
X150125402Y-104995367D01*
X150063466Y-104963029D01*
X150028845Y-104902340D01*
X150025500Y-104873731D01*
X150025500Y-100992255D01*
X150045185Y-100925216D01*
X150061819Y-100904574D01*
X151266393Y-99700000D01*
X152420496Y-99700000D01*
X152462968Y-99846195D01*
X152545278Y-99985374D01*
X152545285Y-99985383D01*
X152659616Y-100099714D01*
X152659625Y-100099721D01*
X152798804Y-100182031D01*
X152954089Y-100227145D01*
X152975000Y-100228789D01*
X153475000Y-100228789D01*
X153495910Y-100227145D01*
X153651195Y-100182031D01*
X153790374Y-100099721D01*
X153790383Y-100099714D01*
X153904714Y-99985383D01*
X153904721Y-99985374D01*
X153987031Y-99846195D01*
X154029504Y-99700000D01*
X153475000Y-99700000D01*
X153475000Y-100228789D01*
X152975000Y-100228789D01*
X152975000Y-99700000D01*
X152420496Y-99700000D01*
X151266393Y-99700000D01*
X152402819Y-98563574D01*
X152414778Y-98557043D01*
X152423732Y-98546765D01*
X152444847Y-98540624D01*
X152464142Y-98530089D01*
X152477734Y-98531061D01*
X152490823Y-98527255D01*
X152511904Y-98533504D01*
X152533834Y-98535073D01*
X152544743Y-98543240D01*
X152557811Y-98547114D01*
X152572167Y-98563769D01*
X152589767Y-98576945D01*
X152595502Y-98590841D01*
X152603428Y-98600037D01*
X152607972Y-98621058D01*
X152613283Y-98633927D01*
X152614500Y-98642550D01*
X152614500Y-98683066D01*
X152617290Y-98712819D01*
X152629233Y-98746950D01*
X152630941Y-98759052D01*
X152627577Y-98782020D01*
X152628761Y-98805205D01*
X152622559Y-98816292D01*
X152620818Y-98828185D01*
X152607095Y-98843938D01*
X152595841Y-98864060D01*
X152545283Y-98914619D01*
X152545278Y-98914625D01*
X152462968Y-99053804D01*
X152420496Y-99200000D01*
X154029504Y-99200000D01*
X153987031Y-99053804D01*
X153904721Y-98914625D01*
X153899936Y-98908456D01*
X153902453Y-98906503D01*
X153876007Y-98858071D01*
X153880991Y-98788379D01*
X153909490Y-98744034D01*
X154367821Y-98285703D01*
X154429142Y-98252220D01*
X154498834Y-98257204D01*
X154554767Y-98299076D01*
X154579184Y-98364540D01*
X154579500Y-98373386D01*
X154579500Y-98667453D01*
X154582258Y-98696874D01*
X154582260Y-98696884D01*
X154625619Y-98820794D01*
X154625619Y-98820795D01*
X154696154Y-98916367D01*
X154720125Y-98981996D01*
X154704809Y-99050166D01*
X154696154Y-99063633D01*
X154625619Y-99159204D01*
X154625619Y-99159205D01*
X154582258Y-99283118D01*
X154582258Y-99283120D01*
X154579500Y-99312538D01*
X154579500Y-99687453D01*
X154582258Y-99716874D01*
X154582260Y-99716884D01*
X154622632Y-99832259D01*
X154625619Y-99840794D01*
X154703577Y-99946423D01*
X154703580Y-99946425D01*
X154706927Y-99949772D01*
X154740415Y-100011094D01*
X154743250Y-100037458D01*
X154743250Y-100040133D01*
X154759215Y-100099714D01*
X154774377Y-100156301D01*
X154774378Y-100156302D01*
X154834506Y-100260448D01*
X154834510Y-100260453D01*
X154975681Y-100401624D01*
X155009166Y-100462947D01*
X155012000Y-100489305D01*
X155012000Y-100760656D01*
X155012000Y-100880920D01*
X155025206Y-100930205D01*
X155043127Y-100997088D01*
X155043128Y-100997089D01*
X155103256Y-101101235D01*
X155103260Y-101101240D01*
X158093482Y-104091462D01*
X158126967Y-104152785D01*
X158121983Y-104222477D01*
X158093482Y-104266824D01*
X157619549Y-104740758D01*
X157534510Y-104825796D01*
X157534506Y-104825801D01*
X157474378Y-104929947D01*
X157474377Y-104929948D01*
X157469138Y-104949501D01*
X157443250Y-105046117D01*
X157443250Y-105046119D01*
X157443250Y-105203680D01*
X157423565Y-105270719D01*
X157419021Y-105277312D01*
X157351768Y-105368438D01*
X157347207Y-105374618D01*
X157347206Y-105374619D01*
X157302353Y-105502798D01*
X157302353Y-105502800D01*
X157299500Y-105533230D01*
X157299500Y-106666769D01*
X157302353Y-106697199D01*
X157302353Y-106697201D01*
X157347206Y-106825380D01*
X157347207Y-106825382D01*
X157427850Y-106934650D01*
X157537118Y-107015293D01*
X157572012Y-107027503D01*
X157665299Y-107060146D01*
X157695730Y-107063000D01*
X157695734Y-107063000D01*
X158104270Y-107063000D01*
X158134699Y-107060146D01*
X158134701Y-107060146D01*
X158198790Y-107037719D01*
X158262882Y-107015293D01*
X158301367Y-106986889D01*
X158322306Y-106979241D01*
X158341171Y-106967364D01*
X158354487Y-106967487D01*
X158366995Y-106962919D01*
X158388744Y-106967805D01*
X158411038Y-106968012D01*
X158428343Y-106976701D01*
X158435165Y-106978234D01*
X158443005Y-106982972D01*
X158445873Y-106984853D01*
X158487118Y-107015293D01*
X158498195Y-107019169D01*
X158510902Y-107027503D01*
X158524087Y-107043008D01*
X158540628Y-107054872D01*
X158546261Y-107069082D01*
X158556165Y-107080729D01*
X158558874Y-107100903D01*
X158566375Y-107119825D01*
X158563430Y-107134825D01*
X158565466Y-107149977D01*
X158556838Y-107168413D01*
X158552918Y-107188387D01*
X158542331Y-107199414D01*
X158535852Y-107213260D01*
X158518627Y-107224105D01*
X158504530Y-107238789D01*
X158477493Y-107250267D01*
X158439804Y-107261216D01*
X158439803Y-107261217D01*
X158298449Y-107344813D01*
X158298439Y-107344821D01*
X158259208Y-107384051D01*
X158197884Y-107417535D01*
X158142578Y-107414150D01*
X158142073Y-107416464D01*
X158134699Y-107414853D01*
X158104270Y-107412000D01*
X158104266Y-107412000D01*
X157695734Y-107412000D01*
X157695730Y-107412000D01*
X157665300Y-107414853D01*
X157665298Y-107414853D01*
X157537119Y-107459706D01*
X157537117Y-107459707D01*
X157427850Y-107540350D01*
X157347207Y-107649617D01*
X157347206Y-107649619D01*
X157302353Y-107777798D01*
X157302353Y-107777800D01*
X157299500Y-107808230D01*
X157299500Y-108941769D01*
X157302353Y-108972199D01*
X157302353Y-108972201D01*
X157347206Y-109100380D01*
X157347207Y-109100382D01*
X157351516Y-109106220D01*
X157375486Y-109171850D01*
X157360168Y-109240020D01*
X157310427Y-109289087D01*
X157247438Y-109303777D01*
X157233306Y-109303286D01*
X157219177Y-109299500D01*
X157124340Y-109299500D01*
X157122181Y-109299425D01*
X157090975Y-109289072D01*
X157059448Y-109279815D01*
X157056913Y-109277772D01*
X157055866Y-109277425D01*
X157054718Y-109276003D01*
X157038806Y-109263181D01*
X156396198Y-108620573D01*
X156362713Y-108559250D01*
X156367697Y-108489558D01*
X156409569Y-108433625D01*
X156410068Y-108433253D01*
X156446423Y-108406423D01*
X156524381Y-108300794D01*
X156557040Y-108207461D01*
X156567741Y-108176881D01*
X156567741Y-108176879D01*
X156567741Y-108176874D01*
X156570500Y-108147457D01*
X156570499Y-107772544D01*
X156567741Y-107743121D01*
X156540895Y-107666402D01*
X156537333Y-107596626D01*
X156570257Y-107537767D01*
X156640731Y-107467294D01*
X156640738Y-107467285D01*
X156722404Y-107329194D01*
X156762844Y-107190000D01*
X156074000Y-107190000D01*
X156006961Y-107170315D01*
X155961206Y-107117511D01*
X155950000Y-107066000D01*
X155950000Y-106940000D01*
X155824000Y-106940000D01*
X155756961Y-106920315D01*
X155711206Y-106867511D01*
X155700000Y-106816000D01*
X155700000Y-106690000D01*
X156200000Y-106690000D01*
X156762844Y-106690000D01*
X156722404Y-106550805D01*
X156640738Y-106412714D01*
X156640731Y-106412705D01*
X156527294Y-106299268D01*
X156527285Y-106299261D01*
X156389191Y-106217593D01*
X156389188Y-106217592D01*
X156235130Y-106172834D01*
X156200000Y-106170068D01*
X156200000Y-106690000D01*
X155700000Y-106690000D01*
X155700000Y-106170068D01*
X155699999Y-106170068D01*
X155664869Y-106172834D01*
X155664868Y-106172834D01*
X155510811Y-106217592D01*
X155510810Y-106217592D01*
X155443560Y-106257363D01*
X155442671Y-106257588D01*
X155442038Y-106258248D01*
X155408858Y-106266166D01*
X155375835Y-106274544D01*
X155374968Y-106274254D01*
X155374077Y-106274467D01*
X155341878Y-106263187D01*
X155309573Y-106252384D01*
X155308714Y-106251570D01*
X155308136Y-106251368D01*
X155292009Y-106235749D01*
X155282684Y-106226917D01*
X155226744Y-106155234D01*
X155216568Y-106129540D01*
X155203331Y-106105290D01*
X155201977Y-106092696D01*
X155201018Y-106090273D01*
X155201470Y-106087973D01*
X155200500Y-106078947D01*
X155200500Y-105339369D01*
X155200500Y-105339364D01*
X155189866Y-105266375D01*
X155176982Y-105240020D01*
X155134827Y-105153789D01*
X155046210Y-105065172D01*
X154933628Y-105010135D01*
X154933626Y-105010134D01*
X154933625Y-105010134D01*
X154860636Y-104999500D01*
X154239364Y-104999500D01*
X154166375Y-105010134D01*
X154166373Y-105010134D01*
X154166371Y-105010135D01*
X154053789Y-105065172D01*
X153965174Y-105153787D01*
X153965174Y-105153788D01*
X153941221Y-105202784D01*
X153894093Y-105254366D01*
X153826559Y-105272280D01*
X153760060Y-105250839D01*
X153731017Y-105223248D01*
X153642922Y-105107077D01*
X153522343Y-105015639D01*
X153405814Y-104969686D01*
X153381564Y-104960123D01*
X153381563Y-104960122D01*
X153381561Y-104960122D01*
X153335926Y-104954642D01*
X153293102Y-104949500D01*
X152656898Y-104949500D01*
X152617853Y-104954188D01*
X152568438Y-104960122D01*
X152427656Y-105015639D01*
X152307077Y-105107077D01*
X152215639Y-105227656D01*
X152160122Y-105368438D01*
X152154188Y-105417853D01*
X152149500Y-105456898D01*
X152149500Y-106243102D01*
X152153276Y-106274544D01*
X152160122Y-106331561D01*
X152215639Y-106472343D01*
X152307077Y-106592922D01*
X152364983Y-106636833D01*
X152406506Y-106693025D01*
X152411058Y-106762747D01*
X152377193Y-106823861D01*
X152315664Y-106856964D01*
X152304845Y-106858752D01*
X152293440Y-106860121D01*
X152152656Y-106915639D01*
X152032077Y-107007077D01*
X151940639Y-107127656D01*
X151885122Y-107268438D01*
X151879859Y-107312272D01*
X151874500Y-107356898D01*
X151874500Y-108343102D01*
X151877124Y-108364951D01*
X151885123Y-108431565D01*
X151903731Y-108478751D01*
X151910013Y-108548337D01*
X151900000Y-108567515D01*
X151900000Y-109150000D01*
X152428790Y-109150000D01*
X152427145Y-109129089D01*
X152392284Y-109009094D01*
X152392484Y-108939225D01*
X152430427Y-108880555D01*
X152494065Y-108851712D01*
X152511361Y-108850500D01*
X153118097Y-108850500D01*
X153118102Y-108850500D01*
X153206564Y-108839877D01*
X153347342Y-108784361D01*
X153436638Y-108716644D01*
X153501947Y-108691822D01*
X153570311Y-108706249D01*
X153599243Y-108727768D01*
X154261985Y-109390510D01*
X154372105Y-109454087D01*
X154372106Y-109454088D01*
X154372107Y-109454088D01*
X154387515Y-109462984D01*
X154527525Y-109500500D01*
X154527526Y-109500500D01*
X154672474Y-109500500D01*
X155100613Y-109500500D01*
X155130053Y-109509144D01*
X155160040Y-109515668D01*
X155165055Y-109519422D01*
X155167652Y-109520185D01*
X155188294Y-109536819D01*
X155204699Y-109553224D01*
X155238184Y-109614547D01*
X155233200Y-109684239D01*
X155191328Y-109740172D01*
X155160352Y-109757087D01*
X155107912Y-109776646D01*
X155107911Y-109776646D01*
X154992150Y-109863306D01*
X154926686Y-109887723D01*
X154870387Y-109878600D01*
X154821691Y-109858429D01*
X154821683Y-109858427D01*
X154780000Y-109850135D01*
X154780000Y-110653011D01*
X154770060Y-110635795D01*
X154714205Y-110579940D01*
X154645796Y-110540444D01*
X154569496Y-110520000D01*
X154490504Y-110520000D01*
X154414204Y-110540444D01*
X154345795Y-110579940D01*
X154289940Y-110635795D01*
X154280000Y-110653011D01*
X154280000Y-109850136D01*
X154279999Y-109850135D01*
X154238316Y-109858427D01*
X154238308Y-109858429D01*
X154056328Y-109933807D01*
X154056315Y-109933814D01*
X153892537Y-110043248D01*
X153892533Y-110043251D01*
X153753251Y-110182533D01*
X153753248Y-110182537D01*
X153643814Y-110346315D01*
X153643807Y-110346328D01*
X153568430Y-110528306D01*
X153568427Y-110528318D01*
X153530000Y-110721504D01*
X153530000Y-111120000D01*
X154230000Y-111120000D01*
X154230000Y-111620000D01*
X153530000Y-111620000D01*
X153530000Y-112018495D01*
X153568427Y-112211681D01*
X153568430Y-112211693D01*
X153643807Y-112393671D01*
X153643814Y-112393684D01*
X153753248Y-112557462D01*
X153753251Y-112557466D01*
X153892533Y-112696748D01*
X153892537Y-112696751D01*
X154056315Y-112806185D01*
X154056328Y-112806192D01*
X154238308Y-112881569D01*
X154280000Y-112889862D01*
X154280000Y-112086988D01*
X154289940Y-112104205D01*
X154345795Y-112160060D01*
X154414204Y-112199556D01*
X154490504Y-112220000D01*
X154569496Y-112220000D01*
X154645796Y-112199556D01*
X154714205Y-112160060D01*
X154770060Y-112104205D01*
X154780000Y-112086988D01*
X154780000Y-112889862D01*
X154821690Y-112881569D01*
X154821692Y-112881569D01*
X155003671Y-112806192D01*
X155003684Y-112806185D01*
X155167462Y-112696751D01*
X155167466Y-112696748D01*
X155306748Y-112557466D01*
X155306751Y-112557462D01*
X155416185Y-112393684D01*
X155416186Y-112393682D01*
X155420129Y-112384163D01*
X155463968Y-112329757D01*
X155530261Y-112307689D01*
X155597961Y-112324965D01*
X155603400Y-112328647D01*
X155606634Y-112330514D01*
X155606635Y-112330515D01*
X155737865Y-112406281D01*
X155884234Y-112445500D01*
X155884236Y-112445500D01*
X156035764Y-112445500D01*
X156035766Y-112445500D01*
X156182135Y-112406281D01*
X156313365Y-112330515D01*
X156420515Y-112223365D01*
X156496281Y-112092135D01*
X156535500Y-111945766D01*
X156535500Y-111794499D01*
X156537443Y-111787881D01*
X156536227Y-111781094D01*
X156547160Y-111754789D01*
X156555185Y-111727460D01*
X156560395Y-111722944D01*
X156563043Y-111716576D01*
X156586464Y-111700356D01*
X156607989Y-111681705D01*
X156616186Y-111679773D01*
X156620484Y-111676797D01*
X156646927Y-111672528D01*
X156655225Y-111670573D01*
X156657370Y-111670499D01*
X156794864Y-111670499D01*
X156819991Y-111667585D01*
X156826614Y-111664660D01*
X156845725Y-111664001D01*
X156862410Y-111668281D01*
X156870540Y-111668281D01*
X156870745Y-111666510D01*
X156880007Y-111667584D01*
X156880009Y-111667585D01*
X156905135Y-111670500D01*
X157294864Y-111670499D01*
X157294879Y-111670497D01*
X157294882Y-111670497D01*
X157329258Y-111666511D01*
X157329300Y-111666874D01*
X157353710Y-111663983D01*
X157373170Y-111664565D01*
X157380009Y-111667585D01*
X157405135Y-111670500D01*
X157571424Y-111670499D01*
X157573283Y-111670555D01*
X157604788Y-111680839D01*
X157636612Y-111690183D01*
X157637873Y-111691638D01*
X157639703Y-111692236D01*
X157660652Y-111717926D01*
X157682367Y-111742987D01*
X157683376Y-111745794D01*
X157683858Y-111746385D01*
X157683982Y-111747479D01*
X157689345Y-111762398D01*
X157694355Y-111781094D01*
X157696510Y-111789136D01*
X157696511Y-111789137D01*
X157715787Y-111822523D01*
X157715787Y-111822526D01*
X157715789Y-111822526D01*
X157753513Y-111887867D01*
X157753515Y-111887870D01*
X157777311Y-111911666D01*
X157797014Y-111937343D01*
X157798513Y-111939938D01*
X157977513Y-112118938D01*
X158059062Y-112200487D01*
X158158938Y-112258151D01*
X158270336Y-112288000D01*
X158270338Y-112288000D01*
X158907662Y-112288000D01*
X158907664Y-112288000D01*
X159019062Y-112258151D01*
X159118938Y-112200487D01*
X159200487Y-112118938D01*
X159379487Y-111939938D01*
X159379489Y-111939935D01*
X159380983Y-111937348D01*
X159389292Y-111924784D01*
X159394527Y-111917826D01*
X159446486Y-111865869D01*
X159485089Y-111799005D01*
X159503491Y-111767132D01*
X159504758Y-111762403D01*
X159541122Y-111702745D01*
X159603969Y-111672216D01*
X159624532Y-111670499D01*
X159794856Y-111670499D01*
X159794864Y-111670499D01*
X159794879Y-111670497D01*
X159794882Y-111670497D01*
X159829258Y-111666511D01*
X159829463Y-111668281D01*
X159870540Y-111668281D01*
X159870745Y-111666510D01*
X159880007Y-111667584D01*
X159880009Y-111667585D01*
X159905135Y-111670500D01*
X160294864Y-111670499D01*
X160294879Y-111670497D01*
X160294882Y-111670497D01*
X160329258Y-111666511D01*
X160329463Y-111668281D01*
X160370540Y-111668281D01*
X160370745Y-111666510D01*
X160380007Y-111667584D01*
X160380009Y-111667585D01*
X160405135Y-111670500D01*
X160794864Y-111670499D01*
X160794879Y-111670497D01*
X160794882Y-111670497D01*
X160829258Y-111666511D01*
X160829303Y-111666901D01*
X160854275Y-111664001D01*
X160873385Y-111664660D01*
X160880009Y-111667585D01*
X160905135Y-111670500D01*
X161042645Y-111670499D01*
X161044775Y-111670573D01*
X161075979Y-111680916D01*
X161107539Y-111690183D01*
X161108991Y-111691859D01*
X161111096Y-111692557D01*
X161131756Y-111718131D01*
X161153294Y-111742987D01*
X161153831Y-111745456D01*
X161155003Y-111746907D01*
X161155858Y-111754776D01*
X161164500Y-111794499D01*
X161164500Y-111945766D01*
X161180446Y-112005277D01*
X161203719Y-112092136D01*
X161232844Y-112142581D01*
X161279485Y-112223365D01*
X161386635Y-112330515D01*
X161517865Y-112406281D01*
X161664234Y-112445500D01*
X161664236Y-112445500D01*
X161815764Y-112445500D01*
X161815766Y-112445500D01*
X161962135Y-112406281D01*
X162093365Y-112330515D01*
X162093366Y-112330513D01*
X162100403Y-112326451D01*
X162101676Y-112328656D01*
X162154956Y-112308043D01*
X162223405Y-112322063D01*
X162273407Y-112370864D01*
X162279867Y-112384157D01*
X162283809Y-112393674D01*
X162283814Y-112393684D01*
X162393248Y-112557462D01*
X162393251Y-112557466D01*
X162532533Y-112696748D01*
X162532537Y-112696751D01*
X162696315Y-112806185D01*
X162696328Y-112806192D01*
X162878308Y-112881569D01*
X162920000Y-112889862D01*
X162920000Y-112086988D01*
X162929940Y-112104205D01*
X162985795Y-112160060D01*
X163054204Y-112199556D01*
X163130504Y-112220000D01*
X163209496Y-112220000D01*
X163285796Y-112199556D01*
X163354205Y-112160060D01*
X163410060Y-112104205D01*
X163420000Y-112086988D01*
X163420000Y-112889862D01*
X163461690Y-112881569D01*
X163461692Y-112881569D01*
X163643671Y-112806192D01*
X163643684Y-112806185D01*
X163807462Y-112696751D01*
X163807466Y-112696748D01*
X163946748Y-112557466D01*
X163946751Y-112557462D01*
X164056185Y-112393684D01*
X164056192Y-112393671D01*
X164131569Y-112211693D01*
X164131572Y-112211681D01*
X164169999Y-112018495D01*
X164170000Y-112018492D01*
X164170000Y-111620000D01*
X163470000Y-111620000D01*
X163470000Y-111120000D01*
X164170000Y-111120000D01*
X164170000Y-110994930D01*
X164950000Y-110994930D01*
X164965122Y-111129141D01*
X165024663Y-111299301D01*
X165120577Y-111451948D01*
X165248051Y-111579422D01*
X165400698Y-111675336D01*
X165570858Y-111734877D01*
X165705069Y-111749999D01*
X165705070Y-111750000D01*
X166200000Y-111750000D01*
X166200000Y-110500000D01*
X164950000Y-110500000D01*
X164950000Y-110994930D01*
X164170000Y-110994930D01*
X164170000Y-110721508D01*
X164169999Y-110721504D01*
X164131572Y-110528318D01*
X164131569Y-110528306D01*
X164118225Y-110496090D01*
X164056192Y-110346328D01*
X164056185Y-110346315D01*
X163946751Y-110182537D01*
X163946748Y-110182533D01*
X163807466Y-110043251D01*
X163807462Y-110043248D01*
X163643684Y-109933814D01*
X163643671Y-109933807D01*
X163461693Y-109858430D01*
X163461683Y-109858427D01*
X163454859Y-109857070D01*
X163392948Y-109824684D01*
X163358374Y-109763968D01*
X163362115Y-109694199D01*
X163402144Y-109638184D01*
X163407580Y-109633885D01*
X163526386Y-109515079D01*
X163526389Y-109515075D01*
X163532561Y-109505069D01*
X164950000Y-109505069D01*
X164950000Y-110000000D01*
X166200000Y-110000000D01*
X166200000Y-108750000D01*
X165705070Y-108750000D01*
X165570858Y-108765122D01*
X165400698Y-108824663D01*
X165248051Y-108920577D01*
X165120577Y-109048051D01*
X165024663Y-109200698D01*
X164965122Y-109370858D01*
X164950000Y-109505069D01*
X163532561Y-109505069D01*
X163574854Y-109436501D01*
X163574856Y-109436498D01*
X163614591Y-109372077D01*
X163614593Y-109372072D01*
X163667442Y-109212583D01*
X163677499Y-109114150D01*
X163677500Y-109114137D01*
X163677500Y-109097500D01*
X161727501Y-109097500D01*
X161727501Y-109114152D01*
X161737556Y-109212583D01*
X161790406Y-109372072D01*
X161790408Y-109372077D01*
X161878615Y-109515082D01*
X161881783Y-109519088D01*
X161907925Y-109583883D01*
X161894885Y-109652525D01*
X161846805Y-109703221D01*
X161784518Y-109720000D01*
X161702155Y-109720000D01*
X161642627Y-109726401D01*
X161642620Y-109726403D01*
X161507913Y-109776645D01*
X161507911Y-109776647D01*
X161392813Y-109862809D01*
X161392809Y-109862813D01*
X161387569Y-109869813D01*
X161383914Y-109872548D01*
X161382017Y-109876703D01*
X161356197Y-109893295D01*
X161331634Y-109911683D01*
X161326006Y-109912698D01*
X161323239Y-109914477D01*
X161288304Y-109919500D01*
X161124500Y-109919500D01*
X161057461Y-109899815D01*
X161011706Y-109847011D01*
X161000500Y-109795500D01*
X161000500Y-109217255D01*
X161020185Y-109150216D01*
X161036819Y-109129574D01*
X161245816Y-108920577D01*
X161520480Y-108645913D01*
X161524191Y-108639484D01*
X161539961Y-108624445D01*
X161552070Y-108606328D01*
X161569098Y-108596661D01*
X161574754Y-108591268D01*
X161582098Y-108587782D01*
X161586298Y-108585953D01*
X161590794Y-108584381D01*
X161592060Y-108583446D01*
X161599196Y-108580341D01*
X161629375Y-108576552D01*
X161659190Y-108570486D01*
X161663710Y-108572241D01*
X161668522Y-108571638D01*
X161695962Y-108584768D01*
X161724319Y-108595783D01*
X161726274Y-108597500D01*
X163693989Y-108597500D01*
X163718980Y-108583853D01*
X163757068Y-108581574D01*
X163772068Y-108582998D01*
X163785621Y-108587741D01*
X163815043Y-108590500D01*
X163851029Y-108590499D01*
X163856881Y-108591055D01*
X163860565Y-108592528D01*
X163877246Y-108594723D01*
X163973443Y-108620500D01*
X163973445Y-108620500D01*
X164131555Y-108620500D01*
X164131557Y-108620500D01*
X164217394Y-108597500D01*
X164227755Y-108594724D01*
X164259848Y-108590499D01*
X164289954Y-108590499D01*
X164289956Y-108590499D01*
X164319379Y-108587741D01*
X164443294Y-108544381D01*
X164548923Y-108466423D01*
X164626881Y-108360794D01*
X164648561Y-108298836D01*
X164670241Y-108236881D01*
X164670241Y-108236879D01*
X164670460Y-108234545D01*
X164673000Y-108207457D01*
X164672999Y-107832544D01*
X164670241Y-107803121D01*
X164626881Y-107679206D01*
X164556344Y-107583632D01*
X164532374Y-107518005D01*
X164547689Y-107449835D01*
X164556345Y-107436366D01*
X164626881Y-107340794D01*
X164652537Y-107267475D01*
X164670241Y-107216881D01*
X164670241Y-107216879D01*
X164670580Y-107213260D01*
X164673000Y-107187457D01*
X164672999Y-106812544D01*
X164670241Y-106783121D01*
X164626881Y-106659206D01*
X164577961Y-106592922D01*
X164548923Y-106553576D01*
X164477360Y-106500761D01*
X164443294Y-106475619D01*
X164443292Y-106475618D01*
X164319380Y-106432258D01*
X164289961Y-106429500D01*
X163815046Y-106429500D01*
X163785625Y-106432258D01*
X163785615Y-106432260D01*
X163661707Y-106475618D01*
X163661706Y-106475619D01*
X163594430Y-106525270D01*
X163528803Y-106549241D01*
X163520798Y-106549500D01*
X163117973Y-106549500D01*
X163087590Y-106545720D01*
X163082845Y-106544520D01*
X162999402Y-106534500D01*
X162405598Y-106534500D01*
X162322156Y-106544520D01*
X162322155Y-106544520D01*
X162223711Y-106583341D01*
X162189368Y-106596885D01*
X162189367Y-106596885D01*
X162189366Y-106596886D01*
X162128407Y-106643112D01*
X162063095Y-106667934D01*
X161994732Y-106653505D01*
X161946751Y-106607428D01*
X161890737Y-106512713D01*
X161890731Y-106512705D01*
X161777294Y-106399268D01*
X161777285Y-106399261D01*
X161639191Y-106317593D01*
X161639188Y-106317592D01*
X161485130Y-106272834D01*
X161450000Y-106270068D01*
X161450000Y-106916000D01*
X161430315Y-106983039D01*
X161377511Y-107028794D01*
X161326000Y-107040000D01*
X161200000Y-107040000D01*
X161200000Y-107166000D01*
X161180315Y-107233039D01*
X161127511Y-107278794D01*
X161076000Y-107290000D01*
X160387155Y-107290000D01*
X160408840Y-107364641D01*
X160408640Y-107434510D01*
X160370697Y-107493180D01*
X160307059Y-107522023D01*
X160237929Y-107511881D01*
X160216130Y-107499005D01*
X160162886Y-107459709D01*
X160162880Y-107459706D01*
X160034700Y-107414853D01*
X160004270Y-107412000D01*
X160004266Y-107412000D01*
X159595734Y-107412000D01*
X159595730Y-107412000D01*
X159565305Y-107414853D01*
X159557930Y-107416464D01*
X159557397Y-107414026D01*
X159499632Y-107416969D01*
X159440788Y-107384049D01*
X159401561Y-107344821D01*
X159401552Y-107344814D01*
X159260196Y-107261217D01*
X159260193Y-107261215D01*
X159222507Y-107250267D01*
X159163621Y-107212661D01*
X159134415Y-107149188D01*
X159144161Y-107080002D01*
X159189097Y-107027502D01*
X159201799Y-107019170D01*
X159212882Y-107015293D01*
X159254139Y-106984844D01*
X159256995Y-106982971D01*
X159287281Y-106973772D01*
X159316995Y-106962919D01*
X159320454Y-106963696D01*
X159323849Y-106962665D01*
X159354295Y-106971298D01*
X159385165Y-106978234D01*
X159390230Y-106981489D01*
X159391069Y-106981727D01*
X159391683Y-106982423D01*
X159398626Y-106986885D01*
X159437118Y-107015293D01*
X159472012Y-107027503D01*
X159565299Y-107060146D01*
X159595730Y-107063000D01*
X159595734Y-107063000D01*
X160004270Y-107063000D01*
X160034699Y-107060146D01*
X160034701Y-107060146D01*
X160098790Y-107037719D01*
X160162882Y-107015293D01*
X160272150Y-106934650D01*
X160341734Y-106840365D01*
X160397381Y-106798116D01*
X160441504Y-106790000D01*
X160950000Y-106790000D01*
X160950000Y-106270068D01*
X160949999Y-106270068D01*
X160914869Y-106272834D01*
X160914868Y-106272834D01*
X160760811Y-106317592D01*
X160760808Y-106317593D01*
X160622714Y-106399261D01*
X160622705Y-106399268D01*
X160612181Y-106409793D01*
X160550858Y-106443278D01*
X160481166Y-106438294D01*
X160425233Y-106396422D01*
X160400816Y-106330958D01*
X160400500Y-106322112D01*
X160400500Y-105533230D01*
X160397646Y-105502800D01*
X160397646Y-105502798D01*
X160352793Y-105374619D01*
X160352793Y-105374618D01*
X160280978Y-105277312D01*
X160257009Y-105211684D01*
X160256750Y-105203680D01*
X160256750Y-105046119D01*
X160256750Y-105046117D01*
X160225623Y-104929950D01*
X160191144Y-104870231D01*
X160165493Y-104825801D01*
X160165489Y-104825796D01*
X159574319Y-104234626D01*
X159540834Y-104173303D01*
X159538000Y-104146945D01*
X159538000Y-103719082D01*
X159538000Y-103719080D01*
X159506873Y-103602913D01*
X159461177Y-103523765D01*
X159446743Y-103498764D01*
X159446739Y-103498759D01*
X158506911Y-102558931D01*
X158473426Y-102497608D01*
X158478410Y-102427916D01*
X158520282Y-102371983D01*
X158585746Y-102347566D01*
X158622765Y-102351493D01*
X158622854Y-102351007D01*
X158629084Y-102352144D01*
X158650000Y-102353789D01*
X158650000Y-101825000D01*
X158095495Y-101825000D01*
X158092789Y-101828603D01*
X158092625Y-101885684D01*
X158054682Y-101944353D01*
X157991043Y-101973195D01*
X157921914Y-101963053D01*
X157886068Y-101938088D01*
X156474642Y-100526662D01*
X156441157Y-100465339D01*
X156446141Y-100395647D01*
X156474638Y-100351304D01*
X156565491Y-100260452D01*
X156625623Y-100156300D01*
X156656750Y-100040133D01*
X156656750Y-100037458D01*
X156657388Y-100035284D01*
X156657811Y-100032073D01*
X156658311Y-100032138D01*
X156676435Y-99970419D01*
X156693073Y-99949772D01*
X156696415Y-99946428D01*
X156696423Y-99946423D01*
X156774381Y-99840794D01*
X156804834Y-99753765D01*
X156817741Y-99716881D01*
X156817741Y-99716879D01*
X156820500Y-99687461D01*
X156820500Y-99680000D01*
X157095496Y-99680000D01*
X157137968Y-99826195D01*
X157220278Y-99965374D01*
X157220285Y-99965383D01*
X157334616Y-100079714D01*
X157334625Y-100079721D01*
X157473804Y-100162031D01*
X157629089Y-100207145D01*
X157650000Y-100208789D01*
X157650000Y-99680000D01*
X157095496Y-99680000D01*
X156820500Y-99680000D01*
X156820500Y-99655095D01*
X156820499Y-99312546D01*
X156820109Y-99308381D01*
X156817741Y-99283121D01*
X156817582Y-99282668D01*
X156808139Y-99255681D01*
X156774381Y-99159206D01*
X156703844Y-99063632D01*
X156679874Y-98998005D01*
X156695189Y-98929835D01*
X156703842Y-98916370D01*
X156774381Y-98820794D01*
X156796931Y-98756351D01*
X156817741Y-98696881D01*
X156817741Y-98696879D01*
X156819036Y-98683066D01*
X156820500Y-98667457D01*
X156820499Y-98292544D01*
X156817741Y-98263121D01*
X156774381Y-98139206D01*
X156696423Y-98033577D01*
X156696421Y-98033574D01*
X156689853Y-98027006D01*
X156691735Y-98025123D01*
X156658109Y-97980822D01*
X156650000Y-97936716D01*
X156650000Y-97506340D01*
X156650456Y-97498442D01*
X156650293Y-97498433D01*
X156650497Y-97494890D01*
X156650500Y-97494865D01*
X156650499Y-95905136D01*
X156650497Y-95905117D01*
X156650292Y-95901561D01*
X156650455Y-95901551D01*
X156650000Y-95893666D01*
X156650000Y-95450000D01*
X156602155Y-95450000D01*
X156542627Y-95456401D01*
X156542620Y-95456403D01*
X156407913Y-95506645D01*
X156407906Y-95506649D01*
X156292814Y-95592808D01*
X156292804Y-95592817D01*
X156287567Y-95599814D01*
X156231632Y-95641683D01*
X156188303Y-95649500D01*
X155805143Y-95649500D01*
X155805117Y-95649502D01*
X155780014Y-95652413D01*
X155780010Y-95652414D01*
X155750083Y-95665628D01*
X155680804Y-95674697D01*
X155649915Y-95665627D01*
X155619992Y-95652415D01*
X155594865Y-95649500D01*
X155005143Y-95649500D01*
X155005117Y-95649502D01*
X154980014Y-95652413D01*
X154980010Y-95652414D01*
X154950083Y-95665628D01*
X154880804Y-95674697D01*
X154849915Y-95665627D01*
X154819992Y-95652415D01*
X154794865Y-95649500D01*
X154205143Y-95649500D01*
X154205117Y-95649502D01*
X154180014Y-95652413D01*
X154180010Y-95652414D01*
X154150083Y-95665628D01*
X154080804Y-95674697D01*
X154049915Y-95665627D01*
X154019992Y-95652415D01*
X153994865Y-95649500D01*
X153405143Y-95649500D01*
X153405117Y-95649502D01*
X153380012Y-95652413D01*
X153380008Y-95652415D01*
X153277235Y-95697793D01*
X153197794Y-95777234D01*
X153152415Y-95880006D01*
X153152415Y-95880008D01*
X153149500Y-95905131D01*
X153149500Y-96632744D01*
X153129815Y-96699783D01*
X153113181Y-96720425D01*
X149304522Y-100529084D01*
X149304520Y-100529087D01*
X149266195Y-100595468D01*
X149251793Y-100620412D01*
X149238717Y-100669213D01*
X149238717Y-100669214D01*
X149238716Y-100669213D01*
X149224500Y-100722271D01*
X149224500Y-106962744D01*
X149204815Y-107029783D01*
X149188181Y-107050425D01*
X148933900Y-107304706D01*
X148872577Y-107338191D01*
X148802885Y-107333207D01*
X148746952Y-107291335D01*
X148722535Y-107225871D01*
X148737387Y-107157598D01*
X148745903Y-107144137D01*
X148749500Y-107139186D01*
X148755378Y-107131096D01*
X148839379Y-106966235D01*
X148839785Y-106964987D01*
X148849157Y-106936140D01*
X148896555Y-106790264D01*
X148925500Y-106607514D01*
X148925500Y-106422486D01*
X148896555Y-106239736D01*
X148861746Y-106132603D01*
X148839380Y-106063767D01*
X148839379Y-106063764D01*
X148755377Y-105898903D01*
X148646621Y-105749213D01*
X148515787Y-105618379D01*
X148366096Y-105509622D01*
X148352703Y-105502798D01*
X148201235Y-105425620D01*
X148201232Y-105425619D01*
X148025269Y-105368446D01*
X148025265Y-105368445D01*
X148025264Y-105368445D01*
X148019126Y-105367472D01*
X147955994Y-105337545D01*
X147919062Y-105278234D01*
X147920058Y-105208371D01*
X147958667Y-105150138D01*
X148019126Y-105122527D01*
X148025264Y-105121555D01*
X148201235Y-105064379D01*
X148366096Y-104980378D01*
X148515787Y-104871621D01*
X148646621Y-104740787D01*
X148755378Y-104591096D01*
X148839379Y-104426235D01*
X148839785Y-104424987D01*
X148858142Y-104368488D01*
X148896555Y-104250264D01*
X148925500Y-104067514D01*
X148925500Y-103882486D01*
X148896555Y-103699736D01*
X148845599Y-103542909D01*
X148839380Y-103523767D01*
X148839379Y-103523764D01*
X148783309Y-103413721D01*
X148755378Y-103358904D01*
X148646621Y-103209213D01*
X148515787Y-103078379D01*
X148366096Y-102969622D01*
X148329537Y-102950994D01*
X148201235Y-102885620D01*
X148201232Y-102885619D01*
X148025269Y-102828446D01*
X148025265Y-102828445D01*
X148025264Y-102828445D01*
X148019126Y-102827472D01*
X147955994Y-102797545D01*
X147919062Y-102738234D01*
X147920058Y-102668371D01*
X147958667Y-102610138D01*
X148019126Y-102582527D01*
X148025264Y-102581555D01*
X148201235Y-102524379D01*
X148366096Y-102440378D01*
X148515787Y-102331621D01*
X148646621Y-102200787D01*
X148755378Y-102051096D01*
X148839379Y-101886235D01*
X148839785Y-101884987D01*
X148855855Y-101835527D01*
X148896555Y-101710264D01*
X148925500Y-101527514D01*
X148925500Y-101342486D01*
X148896555Y-101159736D01*
X148841100Y-100989061D01*
X148839380Y-100983767D01*
X148839379Y-100983764D01*
X148785487Y-100877996D01*
X148755378Y-100818904D01*
X148646621Y-100669213D01*
X148515787Y-100538379D01*
X148366096Y-100429622D01*
X148201235Y-100345620D01*
X148201232Y-100345619D01*
X148025269Y-100288446D01*
X148025265Y-100288445D01*
X148025264Y-100288445D01*
X148019126Y-100287472D01*
X147955994Y-100257545D01*
X147919062Y-100198234D01*
X147920058Y-100128371D01*
X147958667Y-100070138D01*
X148019126Y-100042527D01*
X148025264Y-100041555D01*
X148201235Y-99984379D01*
X148366096Y-99900378D01*
X148515787Y-99791621D01*
X148646621Y-99660787D01*
X148755378Y-99511096D01*
X148839379Y-99346235D01*
X148839785Y-99344987D01*
X148858142Y-99288488D01*
X148896555Y-99170264D01*
X148925500Y-98987514D01*
X148925500Y-98802486D01*
X148896555Y-98619736D01*
X148851960Y-98482485D01*
X148839380Y-98443767D01*
X148839379Y-98443764D01*
X148792568Y-98351893D01*
X148755378Y-98278904D01*
X148646621Y-98129213D01*
X148515787Y-97998379D01*
X148366096Y-97889622D01*
X148363439Y-97888268D01*
X148201235Y-97805620D01*
X148201232Y-97805619D01*
X148025269Y-97748446D01*
X148025265Y-97748445D01*
X148025264Y-97748445D01*
X148019126Y-97747472D01*
X147955994Y-97717545D01*
X147919062Y-97658234D01*
X147920058Y-97588371D01*
X147958667Y-97530138D01*
X148019126Y-97502527D01*
X148025264Y-97501555D01*
X148201235Y-97444379D01*
X148366096Y-97360378D01*
X148515787Y-97251621D01*
X148646621Y-97120787D01*
X148755378Y-96971096D01*
X148839379Y-96806235D01*
X148896555Y-96630264D01*
X148907684Y-96560000D01*
X149295496Y-96560000D01*
X149337968Y-96706195D01*
X149420278Y-96845374D01*
X149420285Y-96845383D01*
X149534616Y-96959714D01*
X149534625Y-96959721D01*
X149673804Y-97042031D01*
X149829089Y-97087145D01*
X149850000Y-97088789D01*
X150350000Y-97088789D01*
X150370910Y-97087145D01*
X150526195Y-97042031D01*
X150665374Y-96959721D01*
X150665383Y-96959714D01*
X150779714Y-96845383D01*
X150779721Y-96845374D01*
X150862031Y-96706195D01*
X150904504Y-96560000D01*
X150350000Y-96560000D01*
X150350000Y-97088789D01*
X149850000Y-97088789D01*
X149850000Y-96560000D01*
X149295496Y-96560000D01*
X148907684Y-96560000D01*
X148925500Y-96447514D01*
X148925500Y-96262486D01*
X148896555Y-96079736D01*
X148839825Y-95905137D01*
X148839380Y-95903767D01*
X148839379Y-95903764D01*
X148789055Y-95804999D01*
X148755378Y-95738904D01*
X148646621Y-95589213D01*
X148515787Y-95458379D01*
X148366096Y-95349622D01*
X148332579Y-95332544D01*
X148201235Y-95265620D01*
X148201232Y-95265619D01*
X148025269Y-95208446D01*
X148025265Y-95208445D01*
X148025264Y-95208445D01*
X148019126Y-95207472D01*
X147955994Y-95177545D01*
X147919062Y-95118234D01*
X147920058Y-95048371D01*
X147958667Y-94990138D01*
X148019126Y-94962527D01*
X148025264Y-94961555D01*
X148201235Y-94904379D01*
X148366096Y-94820378D01*
X148515787Y-94711621D01*
X148646621Y-94580787D01*
X148741643Y-94450000D01*
X149295496Y-94450000D01*
X149337968Y-94596195D01*
X149420278Y-94735374D01*
X149420285Y-94735383D01*
X149524641Y-94839739D01*
X149558126Y-94901062D01*
X149553142Y-94970754D01*
X149536734Y-95001049D01*
X149536147Y-95001843D01*
X149492291Y-95127173D01*
X149492289Y-95127185D01*
X149489500Y-95156929D01*
X149489500Y-95543070D01*
X149492289Y-95572814D01*
X149492290Y-95572822D01*
X149500200Y-95595426D01*
X149503761Y-95665205D01*
X149470841Y-95724060D01*
X149420283Y-95774619D01*
X149420278Y-95774625D01*
X149337968Y-95913804D01*
X149295496Y-96060000D01*
X150904504Y-96060000D01*
X150904241Y-96059094D01*
X150904441Y-95989225D01*
X150942384Y-95930555D01*
X151006022Y-95901712D01*
X151023318Y-95900500D01*
X151322472Y-95900500D01*
X151322474Y-95900500D01*
X151322475Y-95900500D01*
X151462485Y-95862984D01*
X151466278Y-95860794D01*
X151588015Y-95790510D01*
X151991706Y-95386817D01*
X152053029Y-95353333D01*
X152079387Y-95350499D01*
X152594856Y-95350499D01*
X152594864Y-95350499D01*
X152594879Y-95350497D01*
X152594882Y-95350497D01*
X152619987Y-95347586D01*
X152619988Y-95347585D01*
X152619991Y-95347585D01*
X152722765Y-95302206D01*
X152802206Y-95222765D01*
X152847585Y-95119991D01*
X152850500Y-95094865D01*
X152850499Y-94711694D01*
X152870183Y-94644657D01*
X152900189Y-94612428D01*
X152907190Y-94607186D01*
X152993352Y-94492088D01*
X152993354Y-94492086D01*
X153043596Y-94357379D01*
X153043598Y-94357372D01*
X153049999Y-94297844D01*
X153050000Y-94297827D01*
X153050000Y-94250000D01*
X152606347Y-94250000D01*
X152598456Y-94249543D01*
X152598447Y-94249707D01*
X152594866Y-94249500D01*
X152594865Y-94249500D01*
X152594863Y-94249500D01*
X151005143Y-94249500D01*
X151005117Y-94249502D01*
X150980012Y-94252413D01*
X150980008Y-94252415D01*
X150877235Y-94297793D01*
X150797796Y-94377232D01*
X150791300Y-94386716D01*
X150790046Y-94385857D01*
X150753217Y-94429461D01*
X150686431Y-94449990D01*
X150684867Y-94450000D01*
X149295496Y-94450000D01*
X148741643Y-94450000D01*
X148755378Y-94431096D01*
X148839379Y-94266235D01*
X148896555Y-94090264D01*
X148918771Y-93950000D01*
X149295496Y-93950000D01*
X150420000Y-93950000D01*
X150420000Y-93914500D01*
X150439685Y-93847461D01*
X150492489Y-93801706D01*
X150544000Y-93790500D01*
X151832472Y-93790500D01*
X151832474Y-93790500D01*
X151832475Y-93790500D01*
X151965993Y-93754723D01*
X151998083Y-93750499D01*
X152594856Y-93750499D01*
X152594864Y-93750499D01*
X152594871Y-93750498D01*
X152598439Y-93750292D01*
X152598448Y-93750455D01*
X152606334Y-93750000D01*
X153050000Y-93750000D01*
X153050000Y-93702172D01*
X153049999Y-93702155D01*
X153043598Y-93642627D01*
X153043596Y-93642620D01*
X152993354Y-93507913D01*
X152993352Y-93507911D01*
X152907190Y-93392813D01*
X152907185Y-93392807D01*
X152900185Y-93387567D01*
X152858316Y-93331632D01*
X152850499Y-93288306D01*
X152850499Y-92905136D01*
X152848958Y-92891844D01*
X152847586Y-92880012D01*
X152847585Y-92880010D01*
X152847585Y-92880009D01*
X152835540Y-92852730D01*
X152834373Y-92850086D01*
X152825301Y-92780808D01*
X152834374Y-92749912D01*
X152847584Y-92719995D01*
X152847584Y-92719994D01*
X152847584Y-92719993D01*
X152847585Y-92719991D01*
X152850500Y-92694865D01*
X152850499Y-92105136D01*
X152850159Y-92102206D01*
X152847586Y-92080012D01*
X152847585Y-92080010D01*
X152847585Y-92080009D01*
X152836373Y-92054616D01*
X152834373Y-92050086D01*
X152825301Y-91980808D01*
X152834374Y-91949912D01*
X152847584Y-91919995D01*
X152847584Y-91919994D01*
X152847584Y-91919993D01*
X152847585Y-91919991D01*
X152850500Y-91894865D01*
X152850499Y-91305136D01*
X152850497Y-91305117D01*
X152847586Y-91280012D01*
X152847585Y-91280010D01*
X152847585Y-91280009D01*
X152840681Y-91264374D01*
X152834373Y-91250086D01*
X152825301Y-91180808D01*
X152834374Y-91149912D01*
X152847584Y-91119995D01*
X152847584Y-91119994D01*
X152847584Y-91119993D01*
X152847585Y-91119991D01*
X152850500Y-91094865D01*
X152850499Y-90505136D01*
X152849368Y-90495382D01*
X152847586Y-90480012D01*
X152847585Y-90480010D01*
X152847585Y-90480009D01*
X152840681Y-90464374D01*
X152834373Y-90450086D01*
X152825301Y-90380808D01*
X152834374Y-90349912D01*
X152847584Y-90319995D01*
X152847584Y-90319994D01*
X152847584Y-90319993D01*
X152847585Y-90319991D01*
X152850500Y-90294865D01*
X152850499Y-89705136D01*
X152848561Y-89688424D01*
X152847586Y-89680012D01*
X152847585Y-89680010D01*
X152847585Y-89680009D01*
X152836871Y-89655744D01*
X152834373Y-89650086D01*
X152825301Y-89580808D01*
X152834374Y-89549912D01*
X152847584Y-89519995D01*
X152847584Y-89519994D01*
X152847584Y-89519993D01*
X152847585Y-89519991D01*
X152850500Y-89494865D01*
X152850499Y-88905136D01*
X152850497Y-88905117D01*
X152847586Y-88880012D01*
X152847585Y-88880010D01*
X152847585Y-88880009D01*
X152837408Y-88856961D01*
X152834373Y-88850086D01*
X152825301Y-88780808D01*
X152834374Y-88749912D01*
X152847584Y-88719995D01*
X152847584Y-88719994D01*
X152847584Y-88719993D01*
X152847585Y-88719991D01*
X152850500Y-88694865D01*
X152850499Y-88311694D01*
X152870183Y-88244657D01*
X152900189Y-88212428D01*
X152907190Y-88207186D01*
X152993352Y-88092088D01*
X152993354Y-88092086D01*
X153043596Y-87957379D01*
X153043598Y-87957372D01*
X153049999Y-87897844D01*
X153050000Y-87897827D01*
X153050000Y-87850000D01*
X152606347Y-87850000D01*
X152598456Y-87849543D01*
X152598447Y-87849707D01*
X152594866Y-87849500D01*
X152594865Y-87849500D01*
X152594863Y-87849500D01*
X152078363Y-87849500D01*
X152039820Y-87841834D01*
X152039635Y-87842527D01*
X152031785Y-87840423D01*
X152031784Y-87840423D01*
X151879057Y-87799500D01*
X151720943Y-87799500D01*
X151560367Y-87842526D01*
X151560181Y-87841833D01*
X151521637Y-87849500D01*
X151005143Y-87849500D01*
X151005117Y-87849502D01*
X150980012Y-87852413D01*
X150980008Y-87852415D01*
X150877235Y-87897793D01*
X150877234Y-87897794D01*
X150789669Y-87985360D01*
X150788566Y-87984257D01*
X150744462Y-88020260D01*
X150696288Y-88030000D01*
X150350000Y-88030000D01*
X150350000Y-88558789D01*
X150370910Y-88557145D01*
X150526195Y-88512031D01*
X150526197Y-88512030D01*
X150562378Y-88490633D01*
X150594787Y-88482409D01*
X150626967Y-88473373D01*
X150628522Y-88473849D01*
X150630102Y-88473449D01*
X150661823Y-88484057D01*
X150693769Y-88493849D01*
X150694820Y-88495091D01*
X150696364Y-88495608D01*
X150717291Y-88521652D01*
X150738896Y-88547190D01*
X150739283Y-88549022D01*
X150740128Y-88550074D01*
X150748438Y-88581170D01*
X150749500Y-88589238D01*
X150749501Y-88694864D01*
X150752415Y-88719991D01*
X150772807Y-88766177D01*
X150775130Y-88783805D01*
X150772376Y-88801468D01*
X150774697Y-88819194D01*
X150765628Y-88850083D01*
X150752415Y-88880008D01*
X150749500Y-88905131D01*
X150749500Y-89494856D01*
X150749502Y-89494882D01*
X150752413Y-89519985D01*
X150752413Y-89519986D01*
X150752414Y-89519990D01*
X150752415Y-89519991D01*
X150765626Y-89549912D01*
X150765628Y-89549915D01*
X150774697Y-89619194D01*
X150765628Y-89650083D01*
X150752415Y-89680008D01*
X150749500Y-89705131D01*
X150749500Y-90294856D01*
X150749502Y-90294882D01*
X150752413Y-90319985D01*
X150752413Y-90319986D01*
X150752414Y-90319990D01*
X150752415Y-90319991D01*
X150765626Y-90349912D01*
X150765628Y-90349915D01*
X150774697Y-90419194D01*
X150765628Y-90450083D01*
X150752415Y-90480008D01*
X150749500Y-90505131D01*
X150749500Y-91094856D01*
X150749502Y-91094882D01*
X150752413Y-91119985D01*
X150752413Y-91119986D01*
X150752414Y-91119990D01*
X150752415Y-91119991D01*
X150765626Y-91149912D01*
X150765628Y-91149915D01*
X150774697Y-91219194D01*
X150765628Y-91250083D01*
X150752415Y-91280008D01*
X150749500Y-91305131D01*
X150749500Y-91894856D01*
X150749502Y-91894882D01*
X150752413Y-91919985D01*
X150752413Y-91919986D01*
X150752414Y-91919990D01*
X150752415Y-91919991D01*
X150765626Y-91949912D01*
X150765628Y-91949915D01*
X150774697Y-92019194D01*
X150765628Y-92050083D01*
X150752415Y-92080008D01*
X150749840Y-92102206D01*
X150749500Y-92105135D01*
X150749500Y-92391460D01*
X150749501Y-92565500D01*
X150746950Y-92574186D01*
X150748239Y-92583147D01*
X150737261Y-92607183D01*
X150729817Y-92632539D01*
X150722974Y-92638467D01*
X150719214Y-92646703D01*
X150696982Y-92660989D01*
X150677013Y-92678294D01*
X150666497Y-92680581D01*
X150660436Y-92684477D01*
X150625501Y-92689500D01*
X150451648Y-92689500D01*
X150410692Y-92682541D01*
X150370409Y-92668445D01*
X150352823Y-92662291D01*
X150352814Y-92662289D01*
X150323070Y-92659500D01*
X150323066Y-92659500D01*
X149876934Y-92659500D01*
X149876930Y-92659500D01*
X149847185Y-92662289D01*
X149847173Y-92662291D01*
X149721844Y-92706147D01*
X149615001Y-92785001D01*
X149536147Y-92891844D01*
X149492291Y-93017173D01*
X149492289Y-93017185D01*
X149489500Y-93046929D01*
X149489500Y-93433070D01*
X149492289Y-93462814D01*
X149492290Y-93462822D01*
X149500200Y-93485426D01*
X149503761Y-93555205D01*
X149470841Y-93614060D01*
X149420283Y-93664619D01*
X149420278Y-93664625D01*
X149337968Y-93803804D01*
X149295496Y-93950000D01*
X148918771Y-93950000D01*
X148925500Y-93907514D01*
X148925500Y-93722486D01*
X148896555Y-93539736D01*
X148847113Y-93387567D01*
X148839380Y-93363767D01*
X148839379Y-93363764D01*
X148796218Y-93279057D01*
X148755378Y-93198904D01*
X148646621Y-93049213D01*
X148515787Y-92918379D01*
X148366096Y-92809622D01*
X148317775Y-92785001D01*
X148283304Y-92767437D01*
X148232508Y-92719462D01*
X148215713Y-92651641D01*
X148238251Y-92585506D01*
X148283304Y-92546467D01*
X148470656Y-92451006D01*
X148529615Y-92408168D01*
X148529616Y-92408168D01*
X147796447Y-91675000D01*
X147802661Y-91675000D01*
X147904394Y-91647741D01*
X147995606Y-91595080D01*
X148070080Y-91520606D01*
X148122741Y-91429394D01*
X148150000Y-91327661D01*
X148150000Y-91321448D01*
X148883168Y-92054616D01*
X148883168Y-92054615D01*
X148926006Y-91995656D01*
X149024263Y-91802817D01*
X149024264Y-91802814D01*
X149091142Y-91596981D01*
X149125000Y-91383220D01*
X149125000Y-91166779D01*
X149091142Y-90953018D01*
X149024264Y-90747185D01*
X149024263Y-90747182D01*
X148926005Y-90554342D01*
X148883168Y-90495383D01*
X148883168Y-90495382D01*
X148150000Y-91228551D01*
X148150000Y-91222339D01*
X148122741Y-91120606D01*
X148070080Y-91029394D01*
X147995606Y-90954920D01*
X147904394Y-90902259D01*
X147802661Y-90875000D01*
X147796446Y-90875000D01*
X148529616Y-90141830D01*
X148529615Y-90141829D01*
X148470660Y-90098996D01*
X148283304Y-90003532D01*
X148232508Y-89955557D01*
X148215713Y-89887736D01*
X148238251Y-89821601D01*
X148283305Y-89782562D01*
X148351477Y-89747827D01*
X148366096Y-89740378D01*
X148515787Y-89631621D01*
X148646621Y-89500787D01*
X148755378Y-89351096D01*
X148839379Y-89186235D01*
X148896555Y-89010264D01*
X148925500Y-88827514D01*
X148925500Y-88642486D01*
X148896555Y-88459736D01*
X148845262Y-88301874D01*
X148843268Y-88232035D01*
X148875511Y-88175879D01*
X149085529Y-87965861D01*
X149146850Y-87932378D01*
X149216542Y-87937362D01*
X149272475Y-87979234D01*
X149292285Y-88018949D01*
X149337969Y-88176196D01*
X149420278Y-88315374D01*
X149420285Y-88315383D01*
X149534616Y-88429714D01*
X149534625Y-88429721D01*
X149673804Y-88512031D01*
X149829089Y-88557145D01*
X149850000Y-88558789D01*
X149850000Y-87904000D01*
X149869685Y-87836961D01*
X149922489Y-87791206D01*
X149974000Y-87780000D01*
X150100000Y-87780000D01*
X150100000Y-87654000D01*
X150119685Y-87586961D01*
X150172489Y-87541206D01*
X150224000Y-87530000D01*
X150420000Y-87530000D01*
X150420000Y-87494500D01*
X150439685Y-87427461D01*
X150492489Y-87381706D01*
X150544000Y-87370500D01*
X151852473Y-87370500D01*
X151852474Y-87370500D01*
X151852475Y-87370500D01*
X151911350Y-87354724D01*
X151943444Y-87350499D01*
X152594856Y-87350499D01*
X152594864Y-87350499D01*
X152594871Y-87350498D01*
X152598439Y-87350292D01*
X152598448Y-87350455D01*
X152606334Y-87350000D01*
X153050000Y-87350000D01*
X153050000Y-87302172D01*
X153049999Y-87302155D01*
X153043598Y-87242627D01*
X153043596Y-87242620D01*
X152993354Y-87107913D01*
X152993352Y-87107911D01*
X152907190Y-86992813D01*
X152907185Y-86992807D01*
X152900185Y-86987567D01*
X152858316Y-86931632D01*
X152850499Y-86888306D01*
X152850499Y-86505136D01*
X152850497Y-86505117D01*
X152847586Y-86480012D01*
X152847585Y-86480010D01*
X152847585Y-86480009D01*
X152802206Y-86377235D01*
X152722765Y-86297794D01*
X152696389Y-86286148D01*
X152619992Y-86252415D01*
X152594865Y-86249500D01*
X151005143Y-86249500D01*
X151005117Y-86249502D01*
X150980012Y-86252413D01*
X150980007Y-86252415D01*
X150965241Y-86258935D01*
X150915157Y-86269500D01*
X150451648Y-86269500D01*
X150431440Y-86267842D01*
X150420836Y-86266090D01*
X150352819Y-86242290D01*
X150323066Y-86239500D01*
X150259854Y-86239500D01*
X150249816Y-86237842D01*
X150246956Y-86236463D01*
X150237932Y-86235275D01*
X150179058Y-86219500D01*
X150179057Y-86219500D01*
X150020943Y-86219500D01*
X150020941Y-86219500D01*
X149962068Y-86235275D01*
X149941427Y-86238970D01*
X149935712Y-86239500D01*
X149876934Y-86239500D01*
X149847181Y-86242290D01*
X149826102Y-86249665D01*
X149810951Y-86251071D01*
X149790985Y-86247166D01*
X149770671Y-86248203D01*
X149757396Y-86240598D01*
X149742380Y-86237662D01*
X149727694Y-86223583D01*
X149710045Y-86213472D01*
X149702988Y-86199896D01*
X149691945Y-86189309D01*
X149687203Y-86169528D01*
X149677820Y-86151477D01*
X149675500Y-86127601D01*
X149675500Y-85217254D01*
X149695185Y-85150215D01*
X149711819Y-85129573D01*
X151441392Y-83400000D01*
X151910069Y-83400000D01*
X151912832Y-83435122D01*
X151912833Y-83435128D01*
X151957592Y-83589188D01*
X151957593Y-83589191D01*
X152039261Y-83727285D01*
X152039268Y-83727294D01*
X152152705Y-83840731D01*
X152152714Y-83840738D01*
X152290805Y-83922404D01*
X152430000Y-83962844D01*
X152430000Y-83400000D01*
X151910069Y-83400000D01*
X151441392Y-83400000D01*
X151905073Y-82936319D01*
X151966396Y-82902834D01*
X151992754Y-82900000D01*
X152556000Y-82900000D01*
X152623039Y-82919685D01*
X152668794Y-82972489D01*
X152680000Y-83024000D01*
X152680000Y-83150000D01*
X152806000Y-83150000D01*
X152873039Y-83169685D01*
X152918794Y-83222489D01*
X152930000Y-83274000D01*
X152930000Y-83962844D01*
X152990905Y-83945150D01*
X153060774Y-83945349D01*
X153119444Y-83983291D01*
X153148288Y-84046929D01*
X153149500Y-84064226D01*
X153149500Y-85694856D01*
X153149502Y-85694882D01*
X153152413Y-85719987D01*
X153152415Y-85719991D01*
X153197793Y-85822764D01*
X153197794Y-85822765D01*
X153277235Y-85902206D01*
X153380009Y-85947585D01*
X153405135Y-85950500D01*
X153994864Y-85950499D01*
X153994879Y-85950497D01*
X153994882Y-85950497D01*
X154019987Y-85947586D01*
X154019987Y-85947585D01*
X154019991Y-85947585D01*
X154049913Y-85934372D01*
X154119190Y-85925301D01*
X154150086Y-85934373D01*
X154180007Y-85947584D01*
X154180009Y-85947585D01*
X154205135Y-85950500D01*
X154794864Y-85950499D01*
X154794879Y-85950497D01*
X154794882Y-85950497D01*
X154819987Y-85947586D01*
X154819987Y-85947585D01*
X154819991Y-85947585D01*
X154849913Y-85934372D01*
X154919190Y-85925301D01*
X154950086Y-85934373D01*
X154980007Y-85947584D01*
X154980009Y-85947585D01*
X155005135Y-85950500D01*
X155594864Y-85950499D01*
X155594879Y-85950497D01*
X155594882Y-85950497D01*
X155619987Y-85947586D01*
X155619987Y-85947585D01*
X155619991Y-85947585D01*
X155649913Y-85934372D01*
X155719190Y-85925301D01*
X155750086Y-85934373D01*
X155780007Y-85947584D01*
X155780009Y-85947585D01*
X155805135Y-85950500D01*
X156394864Y-85950499D01*
X156394879Y-85950497D01*
X156394882Y-85950497D01*
X156419987Y-85947586D01*
X156419987Y-85947585D01*
X156419991Y-85947585D01*
X156449913Y-85934372D01*
X156519190Y-85925301D01*
X156550086Y-85934373D01*
X156580007Y-85947584D01*
X156580009Y-85947585D01*
X156605135Y-85950500D01*
X157194864Y-85950499D01*
X157194879Y-85950497D01*
X157194882Y-85950497D01*
X157219987Y-85947586D01*
X157219987Y-85947585D01*
X157219991Y-85947585D01*
X157249913Y-85934372D01*
X157319190Y-85925301D01*
X157350086Y-85934373D01*
X157380007Y-85947584D01*
X157380009Y-85947585D01*
X157405135Y-85950500D01*
X157994864Y-85950499D01*
X157994879Y-85950497D01*
X157994882Y-85950497D01*
X158019987Y-85947586D01*
X158019987Y-85947585D01*
X158019991Y-85947585D01*
X158049913Y-85934372D01*
X158119190Y-85925301D01*
X158150086Y-85934373D01*
X158180007Y-85947584D01*
X158180009Y-85947585D01*
X158205135Y-85950500D01*
X158794864Y-85950499D01*
X158794879Y-85950497D01*
X158794882Y-85950497D01*
X158819987Y-85947586D01*
X158819987Y-85947585D01*
X158819991Y-85947585D01*
X158849913Y-85934372D01*
X158919190Y-85925301D01*
X158950086Y-85934373D01*
X158980007Y-85947584D01*
X158980009Y-85947585D01*
X159005135Y-85950500D01*
X159594864Y-85950499D01*
X159594879Y-85950497D01*
X159594882Y-85950497D01*
X159619987Y-85947586D01*
X159619987Y-85947585D01*
X159619991Y-85947585D01*
X159649913Y-85934372D01*
X159719190Y-85925301D01*
X159750086Y-85934373D01*
X159780007Y-85947584D01*
X159780009Y-85947585D01*
X159805135Y-85950500D01*
X160394864Y-85950499D01*
X160394879Y-85950497D01*
X160394882Y-85950497D01*
X160419987Y-85947586D01*
X160419987Y-85947585D01*
X160419991Y-85947585D01*
X160449913Y-85934372D01*
X160519190Y-85925301D01*
X160550086Y-85934373D01*
X160580007Y-85947584D01*
X160580009Y-85947585D01*
X160605135Y-85950500D01*
X160988304Y-85950499D01*
X161055342Y-85970183D01*
X161087566Y-86000184D01*
X161092808Y-86007186D01*
X161092812Y-86007190D01*
X161207906Y-86093350D01*
X161207913Y-86093354D01*
X161342620Y-86143596D01*
X161342627Y-86143598D01*
X161402155Y-86149999D01*
X161402172Y-86150000D01*
X161450000Y-86150000D01*
X161950000Y-86150000D01*
X161997828Y-86150000D01*
X161997844Y-86149999D01*
X162057372Y-86143598D01*
X162057379Y-86143596D01*
X162192086Y-86093354D01*
X162192093Y-86093350D01*
X162307187Y-86007190D01*
X162307190Y-86007187D01*
X162393350Y-85892093D01*
X162393354Y-85892086D01*
X162443596Y-85757379D01*
X162443598Y-85757372D01*
X162449999Y-85697844D01*
X162450000Y-85697827D01*
X162450000Y-85150000D01*
X161950000Y-85150000D01*
X161950000Y-86150000D01*
X161450000Y-86150000D01*
X161450000Y-85706340D01*
X161450456Y-85698442D01*
X161450293Y-85698433D01*
X161450500Y-85694857D01*
X161450500Y-84116364D01*
X161950000Y-84116364D01*
X161950000Y-84650000D01*
X162450000Y-84650000D01*
X162450000Y-84102172D01*
X162449999Y-84102155D01*
X162443598Y-84042627D01*
X162443597Y-84042623D01*
X162397793Y-83919818D01*
X162392809Y-83850126D01*
X162426293Y-83788803D01*
X162499719Y-83715377D01*
X162566691Y-83602132D01*
X162617760Y-83554448D01*
X162686502Y-83541944D01*
X162751091Y-83568589D01*
X162753845Y-83571059D01*
X162757418Y-83573885D01*
X162900422Y-83662091D01*
X162900427Y-83662093D01*
X163059916Y-83714942D01*
X163158356Y-83724999D01*
X163675000Y-83724999D01*
X163691636Y-83724999D01*
X163691652Y-83724998D01*
X163790083Y-83714943D01*
X163949572Y-83662093D01*
X163949577Y-83662091D01*
X164092580Y-83573885D01*
X164211387Y-83455078D01*
X164236074Y-83415054D01*
X164288021Y-83368329D01*
X164356983Y-83357106D01*
X164416538Y-83381346D01*
X164524365Y-83463113D01*
X164524368Y-83463115D01*
X164657154Y-83515479D01*
X164740598Y-83525500D01*
X165259402Y-83525500D01*
X165342846Y-83515479D01*
X165475632Y-83463115D01*
X165475634Y-83463113D01*
X165483023Y-83458959D01*
X165484186Y-83461028D01*
X165505160Y-83453205D01*
X165537469Y-83440925D01*
X165537862Y-83441007D01*
X165538240Y-83440867D01*
X165572006Y-83448212D01*
X165605833Y-83455350D01*
X165606253Y-83455662D01*
X165606513Y-83455719D01*
X165634767Y-83476870D01*
X165793181Y-83635284D01*
X165826666Y-83696607D01*
X165829500Y-83722964D01*
X165829500Y-83842453D01*
X165832258Y-83871875D01*
X165832260Y-83871884D01*
X165875619Y-83995794D01*
X165875619Y-83995795D01*
X165946154Y-84091367D01*
X165970125Y-84156996D01*
X165954809Y-84225166D01*
X165946154Y-84238633D01*
X165875619Y-84334204D01*
X165875619Y-84334205D01*
X165832258Y-84458118D01*
X165832258Y-84458120D01*
X165829500Y-84487538D01*
X165829500Y-84862453D01*
X165832258Y-84891874D01*
X165832260Y-84891884D01*
X165875618Y-85015792D01*
X165875619Y-85015794D01*
X165898999Y-85047473D01*
X165953576Y-85121423D01*
X166006391Y-85160402D01*
X166059206Y-85199381D01*
X166100511Y-85213834D01*
X166183119Y-85242741D01*
X166200789Y-85244397D01*
X166212543Y-85245500D01*
X166242653Y-85245499D01*
X166274746Y-85249723D01*
X166370943Y-85275500D01*
X166370945Y-85275500D01*
X166529055Y-85275500D01*
X166529057Y-85275500D01*
X166610191Y-85253760D01*
X166625255Y-85249724D01*
X166657348Y-85245499D01*
X166687454Y-85245499D01*
X166687456Y-85245499D01*
X166716879Y-85242741D01*
X166840794Y-85199381D01*
X166946423Y-85121423D01*
X167024381Y-85015794D01*
X167046061Y-84953836D01*
X167067741Y-84891881D01*
X167067741Y-84891879D01*
X167068070Y-84888371D01*
X167070500Y-84862457D01*
X167070499Y-84487544D01*
X167067741Y-84458121D01*
X167024381Y-84334206D01*
X166953844Y-84238632D01*
X166929874Y-84173005D01*
X166945189Y-84104835D01*
X166953842Y-84091370D01*
X167024381Y-83995794D01*
X167047311Y-83930264D01*
X167067741Y-83871881D01*
X167067741Y-83871879D01*
X167069566Y-83852415D01*
X167070500Y-83842457D01*
X167070499Y-83467544D01*
X167067741Y-83438121D01*
X167024381Y-83314206D01*
X166985402Y-83261391D01*
X166946423Y-83208576D01*
X166874860Y-83155761D01*
X166840794Y-83130619D01*
X166840792Y-83130618D01*
X166716880Y-83087258D01*
X166687461Y-83084500D01*
X166687457Y-83084500D01*
X166567965Y-83084500D01*
X166500926Y-83064815D01*
X166480284Y-83048181D01*
X165821616Y-82389513D01*
X165821614Y-82389511D01*
X165747991Y-82347004D01*
X165699776Y-82296438D01*
X165694642Y-82285119D01*
X165675615Y-82236868D01*
X165675613Y-82236865D01*
X165589367Y-82123132D01*
X165475634Y-82036886D01*
X165475632Y-82036885D01*
X165342846Y-81984521D01*
X165342845Y-81984520D01*
X165342843Y-81984520D01*
X165259402Y-81974500D01*
X164740598Y-81974500D01*
X164657156Y-81984520D01*
X164657155Y-81984520D01*
X164558711Y-82023341D01*
X164524368Y-82036885D01*
X164524367Y-82036885D01*
X164524366Y-82036886D01*
X164416537Y-82118654D01*
X164351226Y-82143476D01*
X164282862Y-82129047D01*
X164236074Y-82084946D01*
X164211385Y-82044919D01*
X164092580Y-81926114D01*
X163949577Y-81837908D01*
X163949572Y-81837906D01*
X163790083Y-81785057D01*
X163691650Y-81775000D01*
X163675000Y-81775000D01*
X163675000Y-83724999D01*
X163158356Y-83724999D01*
X163175000Y-83724998D01*
X163175000Y-81774999D01*
X163158356Y-81775000D01*
X163059915Y-81785057D01*
X162900427Y-81837906D01*
X162900422Y-81837908D01*
X162757419Y-81926114D01*
X162638614Y-82044919D01*
X162550408Y-82187922D01*
X162550406Y-82187927D01*
X162495427Y-82353844D01*
X162494131Y-82353414D01*
X162464384Y-82408317D01*
X162403170Y-82442000D01*
X162333462Y-82437242D01*
X162313299Y-82427653D01*
X162246191Y-82387966D01*
X162246190Y-82387965D01*
X162100001Y-82345493D01*
X162100000Y-82345494D01*
X162100000Y-83966000D01*
X162095363Y-83981789D01*
X162095735Y-83998241D01*
X162085723Y-84014621D01*
X162080315Y-84033039D01*
X162067879Y-84043814D01*
X162059297Y-84057856D01*
X162030044Y-84077603D01*
X161950000Y-84116364D01*
X161450500Y-84116364D01*
X161450500Y-83644000D01*
X161470185Y-83576961D01*
X161522989Y-83531206D01*
X161574500Y-83520000D01*
X161600000Y-83520000D01*
X161600000Y-82345494D01*
X161599998Y-82345493D01*
X161453809Y-82387965D01*
X161453806Y-82387967D01*
X161314625Y-82470278D01*
X161314619Y-82470283D01*
X161264060Y-82520841D01*
X161202736Y-82554325D01*
X161163940Y-82556532D01*
X161149301Y-82555056D01*
X161112819Y-82542290D01*
X161083066Y-82539500D01*
X160995023Y-82539500D01*
X160988815Y-82538874D01*
X160961992Y-82527971D01*
X160934216Y-82519815D01*
X160930023Y-82514976D01*
X160924089Y-82512564D01*
X160907416Y-82488887D01*
X160888461Y-82467011D01*
X160887549Y-82460673D01*
X160883862Y-82455436D01*
X160882637Y-82426510D01*
X160878517Y-82397853D01*
X160881177Y-82392026D01*
X160880907Y-82385629D01*
X160895514Y-82360634D01*
X160907542Y-82334297D01*
X160913574Y-82327819D01*
X161704574Y-81536819D01*
X161765897Y-81503334D01*
X161792255Y-81500500D01*
X165567321Y-81500500D01*
X165634360Y-81520185D01*
G37*
%TD.AperFunction*%
%TA.AperFunction,Conductor*%
G36*
X154643039Y-106669685D02*
G01*
X154688794Y-106722489D01*
X154700000Y-106774000D01*
X154700000Y-107300000D01*
X154862683Y-107300000D01*
X154862697Y-107299999D01*
X154975104Y-107285199D01*
X154975105Y-107285199D01*
X155017896Y-107267475D01*
X155087365Y-107260006D01*
X155149845Y-107291281D01*
X155172387Y-107323208D01*
X155173623Y-107322478D01*
X155259261Y-107467285D01*
X155259268Y-107467294D01*
X155329742Y-107537768D01*
X155363227Y-107599091D01*
X155359103Y-107666403D01*
X155332258Y-107743121D01*
X155329500Y-107772538D01*
X155329500Y-108147453D01*
X155332258Y-108176874D01*
X155332260Y-108176884D01*
X155352437Y-108234545D01*
X155355999Y-108304324D01*
X155321271Y-108364951D01*
X155259278Y-108397179D01*
X155235396Y-108399500D01*
X154879387Y-108399500D01*
X154812348Y-108379815D01*
X154791706Y-108363181D01*
X153863787Y-107435262D01*
X153830302Y-107373939D01*
X153835286Y-107304247D01*
X153877158Y-107248314D01*
X153942622Y-107223897D01*
X153998920Y-107233020D01*
X154124891Y-107285198D01*
X154124895Y-107285199D01*
X154237302Y-107299999D01*
X154237317Y-107300000D01*
X154400000Y-107300000D01*
X154400000Y-106774000D01*
X154402550Y-106765314D01*
X154401262Y-106756353D01*
X154412240Y-106732312D01*
X154419685Y-106706961D01*
X154426525Y-106701033D01*
X154430287Y-106692797D01*
X154452521Y-106678507D01*
X154472489Y-106661206D01*
X154483003Y-106658918D01*
X154489065Y-106655023D01*
X154524000Y-106650000D01*
X154576000Y-106650000D01*
X154643039Y-106669685D01*
G37*
%TD.AperFunction*%
%TA.AperFunction,Conductor*%
G36*
X155499784Y-80620185D02*
G01*
X155520426Y-80636819D01*
X156463181Y-81579574D01*
X156496666Y-81640897D01*
X156499500Y-81667255D01*
X156499500Y-81983745D01*
X156479815Y-82050784D01*
X156427011Y-82096539D01*
X156357853Y-82106483D01*
X156294297Y-82077458D01*
X156287819Y-82071426D01*
X155145915Y-80929522D01*
X155145913Y-80929520D01*
X155100250Y-80903156D01*
X155054589Y-80876793D01*
X154999405Y-80862007D01*
X154952727Y-80849500D01*
X152235627Y-80849500D01*
X152130173Y-80849500D01*
X152028310Y-80876793D01*
X151936987Y-80929520D01*
X151936984Y-80929522D01*
X149137181Y-83729325D01*
X149075858Y-83762810D01*
X149006166Y-83757826D01*
X148950233Y-83715954D01*
X148925816Y-83650490D01*
X148925500Y-83641644D01*
X148925500Y-83562486D01*
X148913578Y-83487217D01*
X148896555Y-83379736D01*
X148862200Y-83274000D01*
X148845264Y-83221876D01*
X148843269Y-83152035D01*
X148875512Y-83095879D01*
X151334574Y-80636819D01*
X151395897Y-80603334D01*
X151422255Y-80600500D01*
X155432745Y-80600500D01*
X155499784Y-80620185D01*
G37*
%TD.AperFunction*%
%TA.AperFunction,Conductor*%
G36*
X166469784Y-80445185D02*
G01*
X166490426Y-80461819D01*
X169124485Y-83095878D01*
X169157970Y-83157201D01*
X169154735Y-83221876D01*
X169103445Y-83379732D01*
X169076878Y-83547472D01*
X169046949Y-83610607D01*
X168987637Y-83647538D01*
X168917775Y-83646540D01*
X168866724Y-83615755D01*
X166030491Y-80779522D01*
X166030489Y-80779520D01*
X165965945Y-80742255D01*
X165939165Y-80726793D01*
X165866488Y-80707320D01*
X165837303Y-80699500D01*
X161627727Y-80699500D01*
X161522273Y-80699500D01*
X161420410Y-80726793D01*
X161329087Y-80779520D01*
X161329084Y-80779522D01*
X159912181Y-82196426D01*
X159892744Y-82207038D01*
X159876011Y-82221539D01*
X159862679Y-82223455D01*
X159850858Y-82229911D01*
X159828771Y-82228331D01*
X159806853Y-82231483D01*
X159794601Y-82225887D01*
X159781166Y-82224927D01*
X159763439Y-82211656D01*
X159743297Y-82202458D01*
X159736014Y-82191126D01*
X159725233Y-82183055D01*
X159717495Y-82162309D01*
X159705523Y-82143680D01*
X159702371Y-82121761D01*
X159700816Y-82117591D01*
X159700500Y-82108745D01*
X159700500Y-81867255D01*
X159720185Y-81800216D01*
X159736819Y-81779574D01*
X161054574Y-80461819D01*
X161115897Y-80428334D01*
X161142255Y-80425500D01*
X166402745Y-80425500D01*
X166469784Y-80445185D01*
G37*
%TD.AperFunction*%
%TA.AperFunction,Conductor*%
G36*
X154749784Y-81670185D02*
G01*
X154770426Y-81686819D01*
X154926804Y-81843197D01*
X154960289Y-81904520D01*
X154955305Y-81974212D01*
X154913433Y-82030145D01*
X154847969Y-82054562D01*
X154807034Y-82050654D01*
X154802727Y-82049500D01*
X154802726Y-82049500D01*
X152249155Y-82049500D01*
X152227909Y-82043261D01*
X152205821Y-82041682D01*
X152195037Y-82033609D01*
X152182116Y-82029815D01*
X152167616Y-82013081D01*
X152149888Y-81999810D01*
X152145180Y-81987189D01*
X152136361Y-81977011D01*
X152133209Y-81955093D01*
X152125471Y-81934346D01*
X152128333Y-81921185D01*
X152126417Y-81907853D01*
X152135616Y-81887709D01*
X152140323Y-81866073D01*
X152153591Y-81848347D01*
X152155442Y-81844297D01*
X152161474Y-81837819D01*
X152312474Y-81686819D01*
X152373797Y-81653334D01*
X152400155Y-81650500D01*
X154682745Y-81650500D01*
X154749784Y-81670185D01*
G37*
%TD.AperFunction*%
%TA.AperFunction,Conductor*%
G36*
X167449784Y-79370185D02*
G01*
X167470426Y-79386819D01*
X169038181Y-80954574D01*
X169071666Y-81015897D01*
X169074500Y-81042255D01*
X169074500Y-81207513D01*
X169103445Y-81390265D01*
X169160619Y-81566232D01*
X169160620Y-81566235D01*
X169198663Y-81640897D01*
X169244621Y-81731095D01*
X169244624Y-81731099D01*
X169254099Y-81744141D01*
X169277579Y-81809947D01*
X169261753Y-81878001D01*
X169211648Y-81926696D01*
X169143169Y-81940571D01*
X169078060Y-81915222D01*
X169066100Y-81904707D01*
X166865915Y-79704522D01*
X166865913Y-79704520D01*
X166820250Y-79678156D01*
X166774589Y-79651793D01*
X166723657Y-79638146D01*
X166672727Y-79624500D01*
X160977727Y-79624500D01*
X160872273Y-79624500D01*
X160770410Y-79651793D01*
X160679087Y-79704520D01*
X160679084Y-79704522D01*
X159112181Y-81271426D01*
X159092744Y-81282038D01*
X159076011Y-81296539D01*
X159062679Y-81298455D01*
X159050858Y-81304911D01*
X159028771Y-81303331D01*
X159006853Y-81306483D01*
X158994601Y-81300887D01*
X158981166Y-81299927D01*
X158963439Y-81286656D01*
X158943297Y-81277458D01*
X158936014Y-81266126D01*
X158925233Y-81258055D01*
X158917495Y-81237309D01*
X158905523Y-81218680D01*
X158902371Y-81196761D01*
X158900816Y-81192591D01*
X158900500Y-81183745D01*
X158900500Y-80967255D01*
X158920185Y-80900216D01*
X158936819Y-80879574D01*
X160429574Y-79386819D01*
X160490897Y-79353334D01*
X160517255Y-79350500D01*
X167382745Y-79350500D01*
X167449784Y-79370185D01*
G37*
%TD.AperFunction*%
%TA.AperFunction,Conductor*%
G36*
X156149784Y-79545185D02*
G01*
X156170426Y-79561819D01*
X157263181Y-80654574D01*
X157277884Y-80681501D01*
X157294477Y-80707320D01*
X157295368Y-80713520D01*
X157296666Y-80715897D01*
X157299500Y-80742255D01*
X157299500Y-80983745D01*
X157279815Y-81050784D01*
X157227011Y-81096539D01*
X157157853Y-81106483D01*
X157094297Y-81077458D01*
X157087819Y-81071426D01*
X155895915Y-79879522D01*
X155895913Y-79879520D01*
X155850250Y-79853156D01*
X155804589Y-79826793D01*
X155753657Y-79813146D01*
X155702727Y-79799500D01*
X151257727Y-79799500D01*
X151152273Y-79799500D01*
X151050410Y-79826793D01*
X150959087Y-79879520D01*
X150959084Y-79879522D01*
X148933901Y-81904704D01*
X148872578Y-81938189D01*
X148802886Y-81933205D01*
X148746953Y-81891333D01*
X148722536Y-81825869D01*
X148737388Y-81757596D01*
X148745900Y-81744141D01*
X148755378Y-81731096D01*
X148839379Y-81566235D01*
X148896555Y-81390264D01*
X148925500Y-81207514D01*
X148925500Y-81022486D01*
X148896555Y-80839736D01*
X148856318Y-80715897D01*
X148845264Y-80681876D01*
X148843269Y-80612035D01*
X148875512Y-80555879D01*
X149869574Y-79561819D01*
X149930897Y-79528334D01*
X149957255Y-79525500D01*
X156082745Y-79525500D01*
X156149784Y-79545185D01*
G37*
%TD.AperFunction*%
%TA.AperFunction,Conductor*%
G36*
X167753032Y-77950648D02*
G01*
X168086929Y-77967052D01*
X168099037Y-77968245D01*
X168202146Y-77983539D01*
X168426699Y-78016849D01*
X168438617Y-78019219D01*
X168759951Y-78099709D01*
X168771588Y-78103240D01*
X168842806Y-78128722D01*
X169083467Y-78214832D01*
X169094688Y-78219479D01*
X169394163Y-78361120D01*
X169404871Y-78366844D01*
X169688988Y-78537137D01*
X169699103Y-78543895D01*
X169919913Y-78707659D01*
X169965170Y-78741224D01*
X169974576Y-78748944D01*
X170220013Y-78971395D01*
X170228604Y-78979986D01*
X170415755Y-79186475D01*
X170451055Y-79225423D01*
X170458775Y-79234829D01*
X170656102Y-79500893D01*
X170662862Y-79511011D01*
X170791776Y-79726092D01*
X170833148Y-79795116D01*
X170838885Y-79805848D01*
X170864250Y-79859478D01*
X170875118Y-79928498D01*
X170846946Y-79992436D01*
X170788679Y-80030994D01*
X170718816Y-80031929D01*
X170704713Y-80027060D01*
X170701245Y-80025623D01*
X170525265Y-79968445D01*
X170365527Y-79943145D01*
X170342514Y-79939500D01*
X170157486Y-79939500D01*
X170134473Y-79943145D01*
X169974734Y-79968445D01*
X169798767Y-80025619D01*
X169798764Y-80025620D01*
X169633900Y-80109624D01*
X169541256Y-80176934D01*
X169475450Y-80200414D01*
X169407396Y-80184589D01*
X169380690Y-80164297D01*
X167845915Y-78629522D01*
X167845913Y-78629520D01*
X167800250Y-78603156D01*
X167754589Y-78576793D01*
X167703657Y-78563146D01*
X167652727Y-78549500D01*
X160247273Y-78549500D01*
X160145413Y-78576793D01*
X160145410Y-78576794D01*
X160054085Y-78629521D01*
X158274722Y-80408884D01*
X158213399Y-80442369D01*
X158143707Y-80437385D01*
X158087774Y-80395513D01*
X158077434Y-80377356D01*
X158077271Y-80377451D01*
X158073207Y-80370412D01*
X158020480Y-80279087D01*
X156545913Y-78804520D01*
X156500250Y-78778156D01*
X156454589Y-78751793D01*
X156403657Y-78738146D01*
X156352727Y-78724500D01*
X149792727Y-78724500D01*
X149687273Y-78724500D01*
X149585410Y-78751793D01*
X149494087Y-78804520D01*
X149494084Y-78804522D01*
X148309120Y-79989485D01*
X148247797Y-80022970D01*
X148183121Y-80019735D01*
X148025265Y-79968445D01*
X147865527Y-79943145D01*
X147842514Y-79939500D01*
X147657486Y-79939500D01*
X147634473Y-79943145D01*
X147474734Y-79968445D01*
X147298762Y-80025621D01*
X147295281Y-80027063D01*
X147270339Y-80029740D01*
X147246184Y-80036484D01*
X147236199Y-80033406D01*
X147225811Y-80034522D01*
X147203385Y-80023292D01*
X147179414Y-80015904D01*
X147172677Y-80007915D01*
X147163336Y-80003238D01*
X147150542Y-79981668D01*
X147134370Y-79962492D01*
X147133021Y-79952130D01*
X147127692Y-79943145D01*
X147128590Y-79918082D01*
X147125353Y-79893207D01*
X147130025Y-79878047D01*
X147130195Y-79873320D01*
X147135742Y-79859493D01*
X147161124Y-79805828D01*
X147166840Y-79795136D01*
X147337145Y-79510998D01*
X147343888Y-79500905D01*
X147541232Y-79234818D01*
X147548935Y-79225433D01*
X147771405Y-78979975D01*
X147779975Y-78971405D01*
X148025433Y-78748935D01*
X148034818Y-78741232D01*
X148300905Y-78543888D01*
X148310998Y-78537145D01*
X148595136Y-78366840D01*
X148605828Y-78361124D01*
X148905318Y-78219476D01*
X148916525Y-78214835D01*
X149228412Y-78103239D01*
X149240043Y-78099710D01*
X149561385Y-78019218D01*
X149573296Y-78016849D01*
X149900962Y-77968244D01*
X149913068Y-77967052D01*
X150246967Y-77950648D01*
X150253051Y-77950500D01*
X150315892Y-77950500D01*
X167684108Y-77950500D01*
X167746949Y-77950500D01*
X167753032Y-77950648D01*
G37*
%TD.AperFunction*%
%TD*%
M02*
